<?xml version="1.0" encoding="UTF-8"?>
<svg width="19px" height="52px" viewBox="0 0 19 52" version="1.1" xmlns="http://www.w3.org/2000/svg" xmlns:xlink="http://www.w3.org/1999/xlink">
    <!-- Generator: Sketch 56.2 (81672) - https://sketch.com -->
    <title>智慧杆</title>
    <desc>Created with Sketch.</desc>
    <g id="页面-1" stroke="none" stroke-width="1" fill="none" fill-rule="evenodd">
        <g id="编组-10备份-5" transform="translate(9.500000, 26.000000) scale(-1, 1) translate(-9.500000, -26.000000) " fill="#3BF9FB">
            <ellipse id="椭圆形备份-7" fill-opacity="0.3" cx="9.5" cy="46.5779028" rx="9.5" ry="4.5"></ellipse>
            <path d="M16.0707871,20.5753008 C16.6118476,20.9332453 16.9687129,21.5472104 16.9687129,22.2445259 C16.9687129,23.3490954 16.0732824,24.2445259 14.9687129,24.2445259 C13.8641434,24.2445259 12.9687129,23.3490954 12.9687129,22.2445259 C12.9687129,21.6452579 13.2322781,21.1075488 13.6498129,20.7409942 L11.4736842,20.8899301 L11.4736842,36.7177718 L12.8677524,38.1118401 L12.8677524,41.3313644 L11.4736842,42.7254326 C11.4736842,44.092282 11.4736842,45.2259633 11.4736842,46.1264763 C10.7233723,47.1549236 7.39885158,47.4632973 6.26315789,46.1264763 C6.22807018,43.2827607 6.22807018,38.345488 6.26315789,31.3146582 L4,30.4055673 L4,25.6840051 L6.26315789,24.4208472 L6.26315789,12.3122697 C4.71698679,10.016799 4.09999789,8.01747783 4.4121912,6.31430611 C4.88048117,3.75954854 8.72632051,1.12130106 11.4736842,0.337061985 C14.2210479,-0.447177089 17.035,0.0555870895 17.035,2.71110648 C17.035,5.36662586 4.98485093,7.40940525 5.45853514,10.0516174 C5.5637983,10.5566679 5.81446202,10.8766714 6.21052632,11.0116279 L6.84692466,9.01162794 L11.012576,9.01162794 L11.4736842,11.0116279 L11.4736842,19.4707613 L17.4736842,19.8467852 L17.4736842,20.4792854 L16.0707871,20.5753008 Z" id="形状结合备份-2"></path>
        </g>
    </g>
</svg>