<?xml version="1.0" encoding="UTF-8"?>
<svg width="190px" height="555px" viewBox="0 0 190 555" version="1.1" xmlns="http://www.w3.org/2000/svg" xmlns:xlink="http://www.w3.org/1999/xlink">
    <!-- Generator: Sketch 59.1 (86144) - https://sketch.com -->
    <title>最新智慧杆</title>
    <desc>Created with Sketch.</desc>
    <g id="icon" stroke="none" stroke-width="1" fill="none" fill-rule="evenodd">
        <g id="最新智慧杆" transform="translate(1.000000, 1.000000)" stroke="#DDFDFF">
            <g>
                <path d="M100.252976,553.372133 L100.252976,553.372133 L64.8316098,547.906 L64.8316098,543.538633 L64.9514634,543.538633 L100.289854,549.014 L114.994976,541.848933 L114.994976,546.336333 L100.252976,553.372133 Z M65.0067805,547.730567 L100.225317,553.169 L114.764488,546.1886 L114.764488,542.153633 L100.289854,549.198667 L100.289854,549.198667 L65.034439,543.732533 L65.0067805,547.730567 Z" id="形状" stroke-width="0.5" fill-rule="nonzero"></path>
                <polygon id="路径" stroke-width="0.5" fill-rule="nonzero" points="100.308293 553.159767 100.105463 553.150533 100.17922 549.143267 97.6161951 537.8232 97.4686829 535.431767 106.494585 531.239833 106.494585 533.963667 108.163317 533.326567 114.948878 541.959733 114.792146 542.089 108.09878 533.575867 106.291756 534.259133 106.291756 531.563 97.6807317 535.561033 97.8098049 537.7955 100.382049 549.1248 100.382049 549.134033"></polygon>
                <polygon id="路径" stroke-width="0.5" fill-rule="nonzero" points="64.9883415 543.714067 64.8223902 543.594033 71.9214146 534.1391 97.6991707 537.693933 106.356293 534.019067 106.430049 534.203733 97.7268293 537.9063 97.6991707 537.897067 72.0136098 534.351467"></polygon>
                <polygon id="路径" stroke-width="0.5" fill-rule="nonzero" points="97.560878 535.597967 73.6823415 531.932333 73.6823415 534.323767 73.4795122 534.323767 73.4795122 531.692267 73.5993659 531.710733 97.5885366 535.394833"></polygon>
                <path d="M97.2013171,535.1086 L75.0744878,531.664567 L75.0744878,479.219233 L72.539122,478.8776 L72.539122,473.8362 L77.4070244,472.469667 L77.4070244,471.0939 L96.6758049,473.2268 L102.686927,471.223167 L102.686927,472.488133 L107.296683,473.291433 L107.296683,478.249733 L105.065561,479.173067 L105.065561,531.692267 L105.001024,531.692267 L97.2013171,535.1086 Z M75.2773171,531.461433 L97.2105366,534.868533 L104.908829,531.4799 L104.908829,478.9607 L107.139951,478.037367 L107.139951,473.4207 L102.742244,472.663567 L102.742244,473.679233 L96.7034634,475.609 L96.7034634,475.609 L77.4254634,473.577667 L77.4254634,472.654333 L72.7603902,473.965467 L72.7603902,478.674467 L75.2957561,479.006867 L75.2773171,531.461433 Z M77.6098537,473.393 L96.6850244,475.405867 L102.539415,473.5592 L102.539415,471.490933 L96.749561,473.429933 L96.749561,473.429933 L77.6836098,471.324733 L77.6098537,473.393 Z" id="形状" stroke-width="0.5" fill-rule="nonzero"></path>
                <polygon id="矩形" stroke-width="0.5" fill-rule="nonzero" transform="translate(105.638304, 531.204320) rotate(-78.560000) translate(-105.638304, -531.204320) " points="105.536954 530.480575 105.740075 530.480516 105.739654 531.928065 105.536532 531.928124"></polygon>
                <polygon id="矩形" stroke-width="0.5" fill-rule="nonzero" transform="translate(74.364036, 531.477571) rotate(-24.110000) translate(-74.364036, -531.477571) " points="73.511074 531.376506 75.2171104 531.375553 75.2169971 531.578636 73.5109606 531.579589"></polygon>
                <polygon id="矩形" stroke-width="0.5" fill-rule="nonzero" transform="translate(97.201725, 508.267325) rotate(-89.890000) translate(-97.201725, -508.267325) " points="70.5081589 508.165987 123.895292 508.165834 123.895291 508.368663 70.5081584 508.368817"></polygon>
                <polygon id="路径" stroke-width="0.5" fill-rule="nonzero" points="98.0218537 481.6753 97.9941951 481.6753 75.1298049 479.200767 75.1574634 478.997633 97.9941951 481.472167 104.936488 478.933 105.010244 479.1269"></polygon>
                <polygon id="路径" stroke-width="0.5" fill-rule="nonzero" points="98.0679512 476.957067 98.0495122 476.957067 72.594439 473.983933 72.6220976 473.7808 98.0402927 476.7447 107.16761 473.245267 107.241366 473.439167"></polygon>
                <polygon id="矩形" stroke-width="0.5" fill-rule="nonzero" transform="translate(98.043766, 479.221180) rotate(-89.440000) translate(-98.043766, -479.221180) " points="95.6846514 479.1198 100.402884 479.119731 100.402881 479.32256 95.6846484 479.322629"></polygon>
                <rect id="矩形" stroke-width="0.5" fill-rule="nonzero" x="96.5559512" y="473.300667" width="1" height="2.20676667"></rect>
                <path d="M94.7304878,531.932333 L77.3701463,529.328533 L77.3701463,481.7584 L77.4807805,481.7584 L94.7304878,483.798967 L94.7304878,531.932333 Z M77.5729756,529.162333 L94.5276585,531.710733 L94.5276585,483.992867 L77.5729756,481.989233 L77.5729756,529.162333 Z" id="形状" stroke-width="0.5" fill-rule="nonzero"></path>
                <path d="M100.870683,521.7572 C100.43185,521.777243 100.000289,521.639722 99.6537073,521.3694 C99.1934476,520.918343 98.9398598,520.29679 98.9530244,519.652 C98.9530244,518.802533 98.9530244,495.4699 98.9530244,494.4727 C98.9046884,493.195575 99.7350848,492.051114 100.962878,491.7027 C101.36828,491.638578 101.77892,491.613841 102.189073,491.628833 L102.281268,491.628833 L102.281268,491.831967 L102.189073,491.831967 C101.794567,491.81788 101.399596,491.839513 101.008976,491.8966 C99.8828871,492.215394 99.1209476,493.264632 99.1650732,494.435767 C99.1650732,494.685067 99.1650732,518.756367 99.1650732,519.605833 C99.1514225,520.192811 99.3779086,520.759875 99.792,521.1755 C100.194752,521.479563 100.707891,521.597124 101.202585,521.498667 L101.202585,521.7018 C101.093414,521.728182 100.982496,521.746696 100.870683,521.7572 L100.870683,521.7572 Z" id="路径" stroke-width="0.5" fill-rule="nonzero"></path>
                <path d="M101.626683,521.803367 C101.291776,521.812459 100.964698,521.701086 100.704732,521.489433 C100.22291,520.996247 99.9545941,520.332746 99.9579201,519.642767 C99.9579201,518.7933 99.9579201,495.460667 99.9579201,494.463467 C99.9804817,493.211873 100.778719,492.106665 101.958585,491.693467 C102.290511,491.550742 102.671946,491.58547 102.972732,491.7858 C103.572,492.229 103.562789,493.355467 103.562789,493.4201 L103.562789,518.4886 C103.562789,518.617867 103.38761,521.517133 101.903268,521.7295 L101.626683,521.803367 Z M102.42878,491.859667 C102.293602,491.863488 102.159847,491.88841 102.032341,491.933533 C100.951853,492.315671 100.218535,493.325495 100.188439,494.4727 C100.188439,494.722 100.188439,518.7933 100.188439,519.642767 C100.194057,520.270441 100.434165,520.873256 100.861463,521.332467 C101.157345,521.56055 101.536392,521.651255 101.903268,521.581767 C103.221659,521.387867 103.38761,518.553233 103.38761,518.525533 L103.38761,493.457033 C103.38761,493.457033 103.38761,492.376733 102.880537,491.998167 C102.750859,491.900312 102.590932,491.851282 102.42878,491.859667 L102.42878,491.859667 Z" id="形状" stroke-width="0.5" fill-rule="nonzero"></path>
                <path d="M100.335951,494.592733 C100.243886,494.599668 100.151431,494.599668 100.059366,494.592733 L99.054439,494.592733 L99.054439,494.3896 L100.068585,494.3896 C101.262907,494.43181 102.438232,494.081602 103.415268,493.3924 L103.516683,493.567833 C102.563548,494.18083 101.46718,494.534103 100.335951,494.592733 Z" id="路径" stroke-width="0.5" fill-rule="nonzero"></path>
                <path d="M100.077805,519.965933 C99.8749756,519.965933 99.0913171,519.864367 99.054439,519.864367 L99.054439,519.661233 L100.059366,519.7628 C101.275065,519.686533 102.438945,519.242179 103.396829,518.4886 L103.544341,518.6271 C102.562455,519.426573 101.358498,519.903719 100.096244,519.993633 L100.077805,519.965933 Z" id="路径" stroke-width="0.5" fill-rule="nonzero"></path>
                <path d="M101.267122,518.913333 C100.987254,518.944695 100.714411,518.811664 100.566439,518.5717 L100.566439,511.526667 C100.568791,511.323878 100.609458,511.12337 100.686293,510.935733 C100.926,510.363267 101.442293,509.393767 102.290488,509.393767 L102.290488,509.393767 C102.636874,509.396192 102.967968,509.536971 103.210296,509.784863 C103.452624,510.032754 103.586141,510.367255 103.58122,510.714133 L103.58122,517.749933 C103.58122,517.749933 103.323073,518.553233 101.580585,518.885633 L101.267122,518.913333 Z M100.760049,518.507067 C100.806146,518.5717 100.990537,518.784067 101.525268,518.6825 C103.037268,518.4055 103.369171,517.759167 103.369171,517.703767 L103.369171,510.714133 C103.379241,510.419666 103.26878,510.133856 103.063377,509.922915 C102.857975,509.711975 102.575455,509.594209 102.281268,509.596855 L102.281268,509.596855 C101.525268,509.596855 101.036634,510.584867 100.861463,511.0096 C100.795994,511.174183 100.761606,511.34951 100.760049,511.526667 L100.760049,518.507067 Z" id="形状" stroke-width="0.5" fill-rule="nonzero"></path>
                <path d="M101.368537,518.811767 L101.165707,518.811767 L101.165707,513.2256 C101.168197,512.772066 101.450961,512.367513 101.87561,512.209933 L103.433707,511.637467 L103.498244,511.822133 L101.940146,512.403833 C101.604941,512.541484 101.381304,512.862992 101.368537,513.2256 L101.368537,518.811767 Z" id="路径" stroke-width="0.5" fill-rule="nonzero"></path>
                <path d="M102.714585,511.600533 C102.435544,511.66331 102.147363,511.542615 101.996016,511.299585 C101.844668,511.056555 101.863212,510.744273 102.042255,510.520921 C102.221297,510.297569 102.52173,510.211932 102.791375,510.307389 C103.06102,510.402845 103.240979,510.658545 103.240098,510.944967 C103.267563,511.268888 103.036312,511.557369 102.714585,511.600533 L102.714585,511.600533 Z M102.714585,510.492533 C102.539415,510.492533 102.382683,510.695667 102.382683,510.944967 C102.382683,511.194267 102.539415,511.3974 102.714585,511.3974 C102.889756,511.3974 103.037268,511.194267 103.037268,510.944967 C103.037268,510.695667 102.935854,510.492533 102.714585,510.492533 L102.714585,510.492533 Z" id="形状" stroke-width="0.5" fill-rule="nonzero"></path>
                <path d="M100.787707,507.620967 C100.745728,507.634399 100.700613,507.634399 100.658634,507.620967 C100.594208,507.573504 100.556477,507.497929 100.557209,507.417833 L100.557209,496.014667 C100.568792,495.846148 100.671336,495.697413 100.824585,495.626867 L102.898976,494.823567 C102.974402,494.785685 103.063257,494.785685 103.138683,494.823567 C103.205832,494.872908 103.243894,494.952611 103.240098,495.035933 L103.240098,506.402167 C103.231404,506.56946 103.127341,506.716803 102.972732,506.780733 L100.898341,507.593267 C100.864362,507.611635 100.82632,507.62116 100.787707,507.620967 L100.787707,507.620967 Z M103.00961,494.999 L103.00961,494.999 L100.93522,495.811533 C100.8568,495.845501 100.803577,495.920126 100.796927,496.005433 L100.796927,507.4086 L100.843024,507.4086 L102.917415,506.596067 C102.995834,506.562099 103.049057,506.487474 103.055707,506.402167 L103.055707,495.045167 L103.00961,494.999 Z" id="形状" stroke-width="0.5" fill-rule="nonzero"></path>
                <polygon id="路径" stroke-width="0.5" fill-rule="nonzero" points="96.1687317 472.903633 96.1502927 472.903633 90.5171707 472.321933 90.5171707 470.059767 89.7058537 468.951767 89.7058537 471.177 86.6080976 471.989533 86.5896585 471.989533 80.9565366 471.407833 80.9565366 470.4291 77.4992195 471.278567 77.453122 471.075433 81.1593659 470.170567 81.1593659 471.223167 86.5896585 471.7864 89.5030244 471.020033 89.5030244 468.333133 90.72 469.995133 90.72 472.137267 96.1410732 472.7005 99.0913171 471.684833 99.0913171 470.502967 99.2941463 470.502967 99.2941463 471.823333"></polygon>
                <polygon id="矩形" stroke-width="0.5" fill-rule="nonzero" transform="translate(100.819758, 471.111745) rotate(-83.980000) translate(-100.819758, -471.111745) " points="100.718458 469.419953 100.921588 469.419921 100.921059 472.803538 100.717929 472.803569"></polygon>
                <polygon id="路径" stroke-width="0.5" fill-rule="nonzero" points="96.6665854 471.5371 91.1994146 471.075433 90.5356098 470.087467 90.701561 469.967433 91.3192683 470.881533 96.6389268 471.324733 101.460732 469.505767 101.460732 464.3905 96.6665854 466.209467 91.1533171 465.6924 87.5484878 460.9834 84.1003902 464.6398 84.0542927 464.630567 78.6885366 464.187367 78.6885366 469.1549 84.0727317 469.699667 87.6683415 465.978633 89.6874146 468.582433 89.5214634 468.702467 87.6499024 466.283333 84.1557073 469.912033 78.4857073 469.339567 78.4857073 463.965767 84.0266341 464.427433 87.5669268 460.669467 91.2639512 465.4985 96.6389268 465.9971 101.663561 464.095033 101.663561 469.644267"></polygon>
                <rect id="矩形" stroke-width="0.5" fill-rule="nonzero" x="80.9565366" y="469.496533" width="1" height="1"></rect>
                <rect id="矩形" stroke-width="0.5" fill-rule="nonzero" x="86.4974634" y="467.299" width="1" height="4.58896667"></rect>
                <rect id="矩形" stroke-width="0.5" fill-rule="nonzero" x="96.0580976" y="471.333967" width="1" height="1.4681"></rect>
                <rect id="矩形" stroke-width="0.5" fill-rule="nonzero" x="96.5559512" y="466.1079" width="1" height="5.32763333"></rect>
                <polygon id="路径" stroke-width="0.5" fill-rule="nonzero" points="99.2941463 465.1384 99.0913171 465.1384 99.0913171 463.6703 101.580585 464.1412 101.543707 464.344333 99.2941463 463.9196"></polygon>
                <rect id="矩形" stroke-width="0.5" fill-rule="nonzero" x="96.0580976" y="462.885467" width="1" height="3.047"></rect>
                <rect id="矩形" stroke-width="0.5" fill-rule="nonzero" x="80.8366829" y="461.205" width="1" height="3.06546667"></rect>
                <path d="M96.8970732,462.987033 L96.8970732,462.987033 L91.6880488,462.553067 L91.6880488,462.553067 L87.5577073,457.4655 L83.6947317,461.583567 L78.5410244,460.9557 L78.5410244,455.572667 L82.2288293,455.932767 L86.0272683,415.795467 L89.0512683,415.795467 L93.0525366,457.0223 L96.6758049,457.4655 L101.700439,455.7481 L101.700439,461.2881 L96.8970732,462.987033 Z M91.7618049,462.359167 L96.8694146,462.7839 L101.479171,461.140367 L101.479171,455.9974 L96.6850244,457.6317 L92.8497073,457.1608 L92.8497073,457.086933 L88.83,415.9986 L86.1747805,415.9986 L82.3763415,456.154367 L78.6885366,455.8035 L78.6885366,460.771033 L83.5656585,461.3712 L87.5116098,457.1608 L91.7618049,462.359167 Z" id="形状" stroke-width="0.5" fill-rule="nonzero"></path>
                <rect id="矩形" stroke-width="0.5" fill-rule="nonzero" x="86.4974634" y="458.398067" width="1" height="3.45326667"></rect>
                <rect id="矩形" stroke-width="0.5" fill-rule="nonzero" x="90.6001463" y="461.205" width="1" height="3.73026667"></rect>
                <rect id="矩形" stroke-width="0.5" fill-rule="nonzero" x="89.5030244" y="459.893867" width="1" height="3.64716667"></rect>
                <rect id="矩形" stroke-width="0.5" fill-rule="nonzero" x="99.1005366" y="462.054467" width="1" height="1.7451"></rect>
                <polygon id="路径" stroke-width="0.5" fill-rule="nonzero" points="96.2240488 456.560633 96.0212195 456.560633 96.0212195 312.4006 97.3027317 312.335967 97.3027317 306.879067 101.091951 306.879067 101.091951 312.529867 99.2941463 312.529867 99.2941463 455.3603 101.580585 455.7481 101.543707 455.951233 99.0913171 455.535733 99.0913171 312.326733 100.889122 312.326733 100.889122 307.0822 97.505561 307.0822 97.505561 312.529867 96.2240488 312.5945"></polygon>
                <polygon id="路径" stroke-width="0.5" fill-rule="nonzero" points="96.1318537 456.671433 94.5737561 456.320567 94.5737561 456.2467 90.5079512 415.296867 90.4710732 414.7798 89.622878 414.7798 86.1194634 415.961667 86.0549268 415.767767 89.604439 414.576667 90.6554634 414.576667 90.7107805 415.2784 94.7673659 456.154367 96.1134146 456.459067 99.1650732 455.351067 99.2296098 455.544967"></polygon>
                <polygon id="矩形" stroke-width="0.5" fill-rule="nonzero" transform="translate(89.760565, 415.620057) rotate(-18.680000) translate(-89.760565, -415.620057) " points="88.8707913 415.518911 90.6504308 415.518101 90.6503385 415.721203 88.870699 415.722013"></polygon>
                <polygon id="路径" stroke-width="0.5" fill-rule="nonzero" points="81.0118537 455.868133 80.8090244 455.868133 80.8090244 311.920467 84.2847805 311.920467 86.7648293 315.235233 86.7648293 415.6662 86.562 415.6662 86.562 315.3091 84.1833659 312.1236 81.0118537 312.1236"></polygon>
                <polygon id="矩形" stroke-width="0.5" fill-rule="nonzero" transform="translate(90.650190, 363.760278) rotate(-0.070000) translate(-90.650190, -363.760278) " points="90.5488685 312.861529 90.7516978 312.861528 90.7515116 414.659028 90.5486824 414.659028"></polygon>
                <polygon id="路径" stroke-width="0.5" fill-rule="nonzero" points="87.6038049 316.426333 86.5896585 315.346033 86.7371707 315.207533 87.6867805 316.213967 90.6278049 315.844633 90.6554634 316.047767"></polygon>
                <polygon id="路径" stroke-width="0.5" fill-rule="nonzero" points="87.7236585 316.3894 87.5669268 316.2509 90.8582927 312.4006 96.1226341 312.4006 96.1226341 312.603733 90.9504878 312.603733"></polygon>
                <rect id="矩形" stroke-width="0.5" fill-rule="nonzero" x="89.5030244" y="316.324767" width="1" height="98.3534667"></rect>
                <rect id="矩形" stroke-width="0.5" fill-rule="nonzero" x="97.4041463" y="312.326733" width="1.78858537" height="1"></rect>
                <polygon id="路径" stroke-width="0.5" fill-rule="nonzero" points="80.910439 312.1236 77.7297073 312.1236 77.7297073 306.565133 83.9805366 306.565133 87.5116098 310.6832 91.3653659 306.879067 97.4041463 306.879067 97.4041463 307.0822 91.4483415 307.0822 87.5023902 310.978667 83.8883415 306.768267 77.9325366 306.768267 77.9325366 311.920467 80.910439 311.920467"></polygon>
                <path d="M101.091951,311.061767 L98.9899024,311.061767 L98.9899024,308.2456 L101.091951,308.2456 L101.091951,311.061767 Z M99.1927317,310.858633 L100.889122,310.858633 L100.889122,308.448733 L99.1927317,308.448733 L99.1927317,310.858633 Z" id="形状" stroke-width="0.5" fill-rule="nonzero"></path>
                <path d="M101.036634,250.8789 L97.4318049,250.620367 L91.2639512,250.749633 L87.4101951,246.760833 L83.952878,250.869667 L77.9786341,250.869667 L77.9786341,245.440467 L83.7592683,245.440467 L87.5577073,241.230067 L91.1440976,245.292733 L97.4041463,245.292733 L100.999756,245.4497 L101.036634,250.8789 Z M78.1814634,250.666533 L83.8606829,250.666533 L87.4009756,246.456133 L91.3469268,250.5465 L97.4318049,250.417233 L100.833805,250.666533 L100.833805,245.6436 L97.4318049,245.495867 L91.061122,245.495867 L87.5577073,241.534767 L83.8699024,245.6436 L78.1999024,245.6436 L78.1814634,250.666533 Z" id="形状" stroke-width="0.5" fill-rule="nonzero"></path>
                <polygon id="矩形" stroke-width="0.5" fill-rule="nonzero" transform="translate(97.409289, 248.010295) rotate(-0.280000) translate(-97.409289, -248.010295) " points="97.3078934 245.448046 97.5107227 245.448044 97.5106852 250.572544 97.3078559 250.572546"></polygon>
                <polygon id="路径" stroke-width="0.5" fill-rule="nonzero" points="100.93522 249.530833 99.0267805 249.530833 99.0267805 246.6962 100.93522 246.6962 100.93522 246.8901 99.2296098 246.8901 99.2296098 249.3277 100.93522 249.3277"></polygon>
                <polygon id="路径" stroke-width="0.5" fill-rule="nonzero" points="92.6376585 245.458933 90.4157561 243.113667 90.4157561 241.479367 87.5577073 241.479367 87.5577073 241.276233 90.6185854 241.276233 90.6185854 243.030567 92.7851707 245.320433"></polygon>
                <path d="M87.4747317,465.4154 C86.9299095,465.4154 86.4882439,464.973072 86.4882439,464.427433 C86.4882439,463.881794 86.9299095,463.439467 87.4747317,463.439467 C88.0195539,463.439467 88.4612195,463.881794 88.4612195,464.427433 C88.4612195,464.973072 88.0195539,465.4154 87.4747317,465.4154 Z M87.4747317,463.651833 C87.1569372,463.651855 86.8706208,463.844088 86.7498855,464.138496 C86.6291501,464.432903 86.6979038,464.771186 86.9239442,464.994902 C87.1499846,465.218618 87.488551,465.283466 87.7810682,465.159074 C88.0735855,465.034683 88.262129,464.745682 88.2583902,464.427433 C88.2533405,463.997592 87.9039593,463.651804 87.4747317,463.651833 L87.4747317,463.651833 Z" id="形状" stroke-width="0.5" fill-rule="nonzero"></path>
                <path d="M87.4747317,455.388 C86.5276577,455.388 85.7599024,454.619094 85.7599024,453.6706 C85.7599024,452.722106 86.5276577,451.9532 87.4747317,451.9532 C88.4218058,451.9532 89.189561,452.722106 89.189561,453.6706 C89.189561,454.619094 88.4218058,455.388 87.4747317,455.388 Z M87.4747317,452.156333 C86.6396772,452.156333 85.9627317,452.834294 85.9627317,453.6706 C85.9627317,454.506906 86.6396772,455.184867 87.4747317,455.184867 C88.3097862,455.184867 88.9867317,454.506906 88.9867317,453.6706 C88.9867317,452.834294 88.3097862,452.156333 87.4747317,452.156333 Z" id="形状" stroke-width="0.5" fill-rule="nonzero"></path>
                <path d="M75.4709268,324.3116 L73.9404878,324.3116 L73.9404878,324.108467 L75.4709268,324.108467 C77.5419839,324.053097 79.1846738,322.342138 79.1587317,320.2674 L79.1587317,240.251333 C79.189692,238.174611 77.5441604,236.460693 75.4709268,236.410267 L74.2539512,236.410267 L74.2539512,236.207133 L75.4709268,236.207133 C76.5272715,236.221725 77.5345513,236.656031 78.2711245,237.414488 C79.0076977,238.172945 79.4132123,239.193408 79.398439,240.251333 L79.398439,320.2674 C79.4241032,322.468402 77.6684996,324.276166 75.4709268,324.3116 L75.4709268,324.3116 Z" id="路径" stroke-width="0.5" fill-rule="nonzero"></path>
                <path d="M72.9447805,324.3116 L42.6033659,324.3116 C40.3105671,324.306509 38.4545854,322.443608 38.4545854,320.147367 L38.4545854,240.371367 C38.4545854,238.075125 40.3105671,236.212225 42.6033659,236.207133 L72.9447805,236.207133 C75.2411805,236.207133 77.1027805,238.071524 77.1027805,240.371367 L77.1027805,320.147367 C77.1027805,321.25179 76.6647067,322.310979 75.8849305,323.091924 C75.1051542,323.87287 74.0475507,324.3116 72.9447805,324.3116 Z M42.6033659,236.410267 C40.4225867,236.415358 38.6574146,238.187312 38.6574146,240.371367 L38.6574146,320.147367 C38.6574146,322.331421 40.4225867,324.103376 42.6033659,324.108467 L72.9447805,324.108467 C75.1270578,324.10339 76.894882,322.332915 76.8999512,320.147367 L76.8999512,240.371367 C76.8999512,238.183712 75.129161,236.410267 72.9447805,236.410267 L42.6033659,236.410267 Z" id="形状" stroke-width="0.5" fill-rule="nonzero"></path>
                <path d="M41.4878049,316.9988 L41.4878049,243.335267 L73.7560976,243.335267 L73.7560976,316.4725 L41.4878049,316.9988 Z M41.6906341,243.492233 L41.6906341,316.795667 L73.5163902,316.2232 L73.5163902,243.492233 L41.6906341,243.492233 Z" id="形状" stroke-width="0.5" fill-rule="nonzero"></path>
                <path d="M140.108927,325.752 L138.486293,325.752 L138.486293,325.511933 L140.108927,325.511933 C142.289706,325.506842 144.054884,323.734888 144.054878,321.550833 L144.054878,239.152567 C144.054884,236.968512 142.289706,235.196558 140.108927,235.191467 L138.818195,235.191467 L138.818195,235.025267 L140.108927,235.025267 C142.401726,235.030358 144.257707,236.893258 144.257707,239.1895 L144.257707,321.6247 C144.237504,323.906512 142.387407,325.74703 140.108927,325.752 Z" id="路径" stroke-width="0.5" fill-rule="nonzero"></path>
                <path d="M137.674976,325.752 L105.037902,325.752 C102.743606,325.746922 100.884973,323.885503 100.879902,321.587767 L100.879902,239.152567 C100.884973,236.854831 102.743606,234.993411 105.037902,234.988333 L137.674976,234.988333 C139.967774,234.993425 141.823756,236.856325 141.823756,239.152567 L141.823756,321.587767 C141.823756,323.884008 139.967774,325.746909 137.674976,325.752 Z M105.037902,235.191467 C102.855625,235.196543 101.087801,236.967018 101.082732,239.152567 L101.082732,321.587767 C101.087801,323.773315 102.855625,325.54379 105.037902,325.548867 L137.674976,325.548867 C139.855755,325.543776 141.620927,323.771821 141.620927,321.587767 L141.620927,239.152567 C141.620927,236.968512 139.855755,235.196558 137.674976,235.191467 L105.037902,235.191467 Z" id="形状" stroke-width="0.5" fill-rule="nonzero"></path>
                <path d="M138.587707,319.0486 L103.719512,319.0486 L103.719512,241.303933 L138.587707,241.303933 L138.587707,319.0486 Z M103.922341,318.845467 L138.384878,318.845467 L138.384878,241.4886 L103.922341,241.4886 L103.922341,318.845467 Z" id="形状" stroke-width="0.5" fill-rule="nonzero"></path>
                <polygon id="矩形" stroke-width="0.5" fill-rule="nonzero" transform="translate(87.555358, 308.415013) rotate(-87.510000) translate(-87.555358, -308.415013) " points="87.4539367 306.183892 87.6570695 306.183878 87.6567791 310.646135 87.4536464 310.646148"></polygon>
                <rect id="矩形" stroke-width="0.5" fill-rule="nonzero" x="80.8090244" y="250.7681" width="1" height="55.8986"></rect>
                <polygon id="路径" stroke-width="0.5" fill-rule="nonzero" points="89.5122439 308.531833 89.4108293 249.336933 86.7648293 249.3277 86.7648293 308.448733 86.562 308.448733 86.562 249.124567 89.6136585 249.124567 89.6136585 249.235367 89.7150732 308.531833"></polygon>
                <rect id="矩形" stroke-width="0.5" fill-rule="nonzero" x="90.5448293" y="249.955567" width="1" height="57.7914333"></rect>
                <rect id="矩形" stroke-width="0.5" fill-rule="nonzero" x="96.1595122" y="250.5188" width="1" height="56.4710667"></rect>
                <rect id="矩形" stroke-width="0.5" fill-rule="nonzero" x="98.9899024" y="250.5188" width="1" height="56.4710667"></rect>
                <path d="M81.0118537,245.3943 L80.8090244,245.3943 L80.8090244,104.1243 L78.3105366,103.007067 L81.0118537,103.007067 L81.0118537,245.3943 Z M79.2601463,103.200967 L80.8090244,103.911933 L80.8090244,103.219433 L79.2601463,103.200967 Z" id="形状" stroke-width="0.5" fill-rule="nonzero"></path>
                <polygon id="路径" stroke-width="0.5" fill-rule="nonzero" points="99.2664878 245.385067 99.0636585 245.385067 99.0636585 103.044 100.981317 102.785467 96.8694146 101.4651 91.2086341 102.009867 87.6222439 106.635767 83.9713171 102.9332 80.928878 103.2379 80.9012195 103.034767 84.0542927 102.720833 87.6038049 106.331067 91.1072195 101.8252 96.8970732 101.252733 101.903268 102.868567 99.2664878 103.228667"></polygon>
                <rect id="矩形" stroke-width="0.5" fill-rule="nonzero" x="95.9198049" y="101.3543" width="1" height="144.030767"></rect>
                <polygon id="矩形" stroke-width="0.5" fill-rule="nonzero" transform="translate(86.513778, 173.998632) rotate(-0.080000) translate(-86.513778, -173.998632) " points="86.4125068 105.353416 86.615336 105.353415 86.6150491 242.643848 86.4122198 242.643849"></polygon>
                <polygon id="路径" stroke-width="0.5" fill-rule="nonzero" points="90.7476585 107.3929 87.5853659 106.580367 87.6314634 106.386467 90.5448293 107.134367 90.5448293 102.536167 90.7476585 102.536167"></polygon>
                <polygon id="路径" stroke-width="0.5" fill-rule="nonzero" points="90.6185854 241.479367 89.5122439 241.479367 89.5122439 106.995867 89.7150732 106.995867 89.7150732 241.276233 90.4157561 241.276233 90.5448293 107.263633 90.7476585 107.263633"></polygon>
                <polygon id="路径" stroke-width="0.5" fill-rule="nonzero" points="78.8913659 103.136333 78.6885366 103.136333 78.6885366 97.6979 84.1372683 97.1439 84.1741463 97.1808333 87.6038049 100.948033 91.1256585 96.4052333 96.8140976 95.8604667 101.543707 97.5132333 101.543707 102.831633 101.340878 102.831633 101.340878 97.6609667 96.786439 96.0636 91.2362927 96.5991333 87.6130244 101.261967 84.0542927 97.3562667 78.8913659 97.8825667"></polygon>
                <polygon id="矩形" stroke-width="0.5" fill-rule="nonzero" transform="translate(96.847959, 98.636661) rotate(-0.900000) translate(-96.847959, -98.636661) " points="96.7466076 95.9359148 96.949437 95.9359101 96.94931 101.337408 96.7464807 101.337413"></polygon>
                <polygon id="路径" stroke-width="0.5" fill-rule="nonzero" points="81.0118537 97.5778667 80.8090244 97.5686333 80.8643415 94.8725 78.6885366 95.0571667 78.6885366 89.3786667 84.2018049 88.7508 84.2386829 88.7877333 87.6038049 92.4256667 91.4114634 88.086 96.8970732 87.532 101.543707 89.194 101.543707 94.5585667 99.1281951 94.9002 99.1281951 96.7468667 98.9253659 96.7468667 98.9253659 94.7247667 101.340878 94.3831333 101.340878 89.3325 96.8694146 87.7443667 91.512878 88.2799 87.6130244 92.7303667 84.1280488 88.9631667 78.8913659 89.5541 78.8913659 94.8355667 81.0763902 94.6509"></polygon>
                <polygon id="路径" stroke-width="0.5" fill-rule="nonzero" points="87.6130244 98.2796 84.0911707 94.6139667 80.9749756 94.8632667 80.9657561 94.6601333 84.1741463 94.4016 87.6038049 97.9749 91.2731707 93.2566667 96.8140976 92.8504 101.479171 94.3739 101.414634 94.5678 96.786439 93.0535333 91.3745854 93.4598"></polygon>
                <rect id="矩形" stroke-width="0.5" fill-rule="nonzero" x="96.6942439" y="87.6428" width="1" height="5.30916667"></rect>
                <rect id="矩形" stroke-width="0.5" fill-rule="nonzero" x="86.3222927" y="96.8946" width="1" height="2.9085"></rect>
                <rect id="矩形" stroke-width="0.5" fill-rule="nonzero" x="90.5448293" y="94.2261667" width="1" height="2.87156667"></rect>
                <rect id="矩形" stroke-width="0.5" fill-rule="nonzero" x="87.6130244" y="98.0303" width="2.30487805" height="1"></rect>
                <polygon id="路径" stroke-width="0.5" fill-rule="nonzero" points="81.0763902 89.2217 80.873561 89.2217 80.873561 87.5504667 96.4729756 85.7776667 102.281268 87.6335667 99.2941463 87.7351333 99.2941463 88.4461 99.0913171 88.4461 99.0913171 87.5412333 101.11039 87.4673667 96.4545366 85.9808 81.0763902 87.7259"></polygon>
                <rect id="矩形" stroke-width="0.5" fill-rule="nonzero" x="98.9253659" y="93.6814" width="1" height="1.12646667"></rect>
                <rect id="矩形" stroke-width="0.5" fill-rule="nonzero" x="99.1005366" y="86.7564" width="1" height="1"></rect>
                <rect id="矩形" stroke-width="0.5" fill-rule="nonzero" x="89.4384878" y="86.5717333" width="1" height="3.80413333"></rect>
                <rect id="矩形" stroke-width="0.5" fill-rule="nonzero" x="90.4526341" y="86.5717333" width="1" height="2.64996667"></rect>
                <rect id="矩形" stroke-width="0.5" fill-rule="nonzero" x="86.3222927" y="86.9964667" width="1" height="4.30273333"></rect>
                <polygon id="路径" stroke-width="0.5" fill-rule="nonzero" points="78.3566341 88.0029 78.3566341 84.9743667 78.4396098 84.9651333 96.5743902 82.9707333 101.801854 84.8912667 101.801854 87.5504667 101.599024 87.5504667 101.599024 85.039 96.5467317 83.1738667 78.5594634 85.1590333 78.5594634 87.7813 80.9565366 87.5412333 80.9841951 87.7443667"></polygon>
                <rect id="矩形" stroke-width="0.5" fill-rule="nonzero" x="96.3623415" y="83.1" width="1" height="2.78846667"></rect>
                <rect id="矩形" stroke-width="0.5" fill-rule="nonzero" x="95.9843415" y="85.9254" width="1" height="1.8005"></rect>
                <rect id="矩形" stroke-width="0.5" fill-rule="nonzero" x="95.9843415" y="92.9519667" width="1" height="3.01006667"></rect>
                <polygon id="路径" stroke-width="0.5" fill-rule="nonzero" points="78.4211707 86.1747 74.0603415 84.7435333 97.6530732 82.0935667 97.6807317 82.1028 105.738585 85.039 101.709659 85.5837667 101.682 85.3806333 104.89961 84.9466667 97.6346341 82.3059333 75.0099512 84.8358667 78.4857073 85.9900333"></polygon>
                <polygon id="路径" stroke-width="0.5" fill-rule="nonzero" points="105.425122 84.9928333 105.305268 80.9394 97.6346341 78.1232333 74.6411707 80.6901 74.6411707 84.7897 74.4383415 84.7897 74.4383415 80.5146667 74.5213171 80.5054333 97.6530732 77.9201 97.6807317 77.9293333 105.508098 80.7916667 105.627951 84.9928333"></polygon>
                <polygon id="路径" stroke-width="0.5" fill-rule="nonzero" points="97.7452683 82.2043667 97.542439 82.2043667 97.542439 78.0955333 93.5042927 76.8767333 80.9473171 78.3171333 80.9473171 79.0004 81.9614634 79.0004 81.9614634 79.7852333 81.7586341 79.7852333 81.7586341 79.2035333 80.7444878 79.2035333 80.7444878 78.1324667 80.8366829 78.1232333 93.5227317 76.6736 97.7452683 77.9478"></polygon>
                <polygon id="路径" stroke-width="0.5" fill-rule="nonzero" points="81.8692683 79.2035333 81.8508293 79.0004 93.5411707 77.6800333 95.597122 78.1509333 95.5510244 78.3540667 93.5319512 77.8924"></polygon>
                <polygon id="矩形" stroke-width="0.5" fill-rule="nonzero" transform="translate(93.517421, 77.317436) rotate(-1.570000) translate(-93.517421, -77.317436) " points="93.4160273 76.8096074 93.6188568 76.8095991 93.6188152 77.8252646 93.4159857 77.825273"></polygon>
                <path d="M99.2480488,75.2886 L93.4581951,73.3219 L80.6983902,74.8546333 L80.6983902,73.7097 L93.5135122,72.0754 L99.2480488,74.236 L99.2480488,75.2886 Z M93.4766341,73.1187667 L93.4766341,73.1187667 L99.0083415,74.9654333 L99.0083415,74.3468 L93.4766341,72.2416 L80.892,73.8574333 L80.892,74.5868667 L93.4766341,73.1187667 Z" id="形状" stroke-width="0.5" fill-rule="nonzero"></path>
                <rect id="矩形" stroke-width="0.5" fill-rule="nonzero" x="81.7586341" y="74.6422667" width="1" height="1.22803333"></rect>
                <rect id="矩形" stroke-width="0.5" fill-rule="nonzero" x="93.1631707" y="73.2757333" width="1" height="1.26496667"></rect>
                <rect id="矩形" stroke-width="0.5" fill-rule="nonzero" x="98.0218537" y="74.8084667" width="1" height="1.43116667"></rect>
                <rect id="矩形" stroke-width="0.5" fill-rule="nonzero" x="93.4397561" y="72.2046667" width="1" height="1.04336667"></rect>
                <path d="M99.2480488,77.5507667 L93.4581951,75.5840667 L80.7352683,77.1352667 L80.7352683,75.9903333 L93.5503902,74.3560333 L99.2849268,76.5166333 L99.2480488,77.5507667 Z M93.4766341,75.3717 L93.4766341,75.3717 L99.0083415,77.2183667 L99.0083415,76.5905 L93.4766341,74.4945333 L80.892,76.1011333 L80.892,76.8398 L93.4766341,75.3717 Z" id="形状" stroke-width="0.5" fill-rule="nonzero"></path>
                <rect id="矩形" stroke-width="0.5" fill-rule="nonzero" x="81.7586341" y="76.8767333" width="1" height="1.22803333"></rect>
                <rect id="矩形" stroke-width="0.5" fill-rule="nonzero" x="93.1631707" y="75.5102" width="1" height="1.26496667"></rect>
                <rect id="矩形" stroke-width="0.5" fill-rule="nonzero" x="98.0218537" y="77.0429333" width="1" height="1.07106667"></rect>
                <rect id="矩形" stroke-width="0.5" fill-rule="nonzero" x="93.4397561" y="74.4391333" width="1" height="1.04336667"></rect>
                <polygon id="路径" stroke-width="0.5" fill-rule="nonzero" points="98.2246829 73.9036 98.0218537 73.9036 98.0218537 73.2111 104.364878 64.6056333 104.530829 64.7256667 98.2246829 73.2757333"></polygon>
                <polygon id="路径" stroke-width="0.5" fill-rule="nonzero" points="113.565951 52.4545667 113.40922 52.3345333 124.131512 37.7828 124.159171 37.7735667 148.885902 26.9982667 148.968878 27.1829333 124.260585 37.949"></polygon>
                <polygon id="矩形" stroke-width="0.5" fill-rule="nonzero" transform="translate(153.884390, 24.847549) rotate(-23.490000) translate(-153.884390, -24.847549) " points="150.716789 24.7477424 157.052103 24.7442714 157.051991 24.9473564 150.716678 24.9508274"></polygon>
                <polygon id="矩形" stroke-width="0.5" fill-rule="nonzero" transform="translate(161.957788, 21.326804) rotate(-23.490000) translate(-161.957788, -21.326804) " points="159.080671 21.2268375 164.835017 21.2236848 164.834905 21.4267698 159.08056 21.4299225"></polygon>
                <polygon id="矩形" stroke-width="0.5" fill-rule="nonzero" transform="translate(169.484020, 18.048703) rotate(-23.490000) translate(-169.484020, -18.048703) " points="166.666843 17.948704 172.301307 17.945617 172.301196 18.148702 166.666732 18.151789"></polygon>
                <polygon id="路径" stroke-width="0.5" fill-rule="nonzero" points="81.9614634 73.6912333 81.7586341 73.6912333 81.7586341 70.635 83.196878 72.4447333 88.6640488 71.8815 116.018341 33.9325 116.046 33.9232667 177.613902 6.18633333 186.151171 10.9784333 174.617561 16.0106 174.534585 15.8259333 185.690195 10.9599667 177.604683 6.41716667 116.156634 34.0894667 88.7746829 72.0754 88.7285854 72.0754 83.1046829 72.6571 81.9614634 71.2167"></polygon>
                <polygon id="路径" stroke-width="0.5" fill-rule="nonzero" points="98.0218537 70.9581667 98.0218537 61.6602 98.2246829 61.6602 98.2246829 70.3487667 103.618098 63.0544333 103.784049 63.1744667"></polygon>
                <polygon id="路径" stroke-width="0.5" fill-rule="nonzero" points="112.680878 51.1526667 112.524146 51.0326333 113.851756 49.2321333 112.45039 48.6135 112.533366 48.4288333 114.16522 49.1490333"></polygon>
                <polygon id="路径" stroke-width="0.5" fill-rule="nonzero" points="84.8102927 73.3773 83.1139024 72.6386333 83.1876585 72.4539667 84.8379512 73.1741667 90.0654146 72.5463 108.762585 46.7760667 109.905805 47.2746667 109.822829 47.4685667 108.827122 47.0253667 90.1760488 72.7402"></polygon>
                <rect id="矩形" stroke-width="0.5" fill-rule="nonzero" x="93.1631707" y="68.2989667" width="1" height="3.94263333"></rect>
                <path d="M115.843171,46.5544667 L110.588049,44.3107667 L117.475024,34.8004333 L117.475024,34.8004333 L131.064585,28.531 L136.918976,31.3564 L122.896098,37.3488333 L115.843171,46.5544667 Z M110.901512,44.2276667 L115.778634,46.3051667 L122.785463,37.1734 L136.44878,31.3379333 L131.083024,28.7526 L117.687073,34.9666333 L110.901512,44.2276667 Z" id="形状" stroke-width="0.5" fill-rule="nonzero"></path>
                <polygon id="矩形" stroke-width="0.5" fill-rule="nonzero" transform="translate(113.807493, 44.785060) rotate(-51.120000) translate(-113.807493, -44.785060) " points="113.707962 42.0868338 113.910975 42.0866852 113.907024 47.4832855 113.704011 47.4834341"></polygon>
                <polygon id="矩形" stroke-width="0.5" fill-rule="nonzero" transform="translate(113.023383, 37.466374) rotate(-59.826480) translate(-113.023383, -37.466374) " points="112.922943 36.6085845 113.12494 36.608453 113.123823 38.3241629 112.921825 38.3242943"></polygon>
                <polygon id="矩形" stroke-width="0.5" fill-rule="nonzero" transform="translate(123.480352, 37.522982) rotate(-64.750000) translate(-123.480352, -37.522982) " points="123.379231 36.7991116 123.582309 36.7989943 123.581472 38.2468525 123.378394 38.2469698"></polygon>
                <path d="M110.901512,75.4825342 C109.451909,75.4878024 108.068088,74.8770687 107.093854,73.8020333 C106.835707,73.8020333 105.84922,73.8851333 105.148537,72.4816667 C104.791129,71.4506153 104.574055,70.3760388 104.503171,69.2869333 C104.503171,67.8927 104.447854,65.0673 104.346439,64.4025 C104.196995,63.8299065 103.875086,63.3173041 103.424488,62.9344 C103.083366,62.7866667 103.525902,58.8902 104.023756,57.6529333 C105.150453,55.5862707 106.699138,53.7804337 108.568976,52.353 L109.601561,51.7436 L109.80439,47.6624667 C109.853094,47.3742051 110.020325,47.1196324 110.265366,46.9607333 C110.862155,46.6508745 111.561714,46.607296 112.192244,46.8407 L112.192244,46.8407 C112.238341,46.8407 112.607122,47.1177 112.607122,47.3947 L112.607122,51.8544 C113.627794,52.5415132 114.598299,53.3005674 115.511268,54.1258 C116.903193,55.3871891 117.899303,57.0263384 118.378537,58.8440333 C118.720809,59.9630808 118.894829,61.1269285 118.894829,62.2973 C118.873493,62.6902385 118.619247,63.0321659 118.249463,63.1652333 C117.878346,63.8196826 117.672617,64.5550761 117.650195,65.3073667 C117.650195,66.5354 117.54878,69.3515667 117.475024,70.6442333 C117.484466,71.2857212 117.242903,71.9054453 116.802,72.3708667 C116.546978,72.5904856 116.2155,72.7000375 115.880049,72.6755667 C115.593973,73.1871243 115.222957,73.6461258 114.782927,74.0328667 C113.715224,74.9762641 112.334395,75.4866198 110.910732,75.4640333 L110.901512,75.4825342 Z M107.213707,73.5712 L107.213707,73.6266 C108.148076,74.6835281 109.491988,75.2858301 110.901512,75.2793667 L110.901512,75.2793667 C112.8967,75.3205317 114.75152,74.2549867 115.723317,72.5093667 L115.723317,72.4447333 L115.843171,72.4447333 C116.136577,72.479534 116.431058,72.3890462 116.654488,72.1954333 C117.052828,71.7679338 117.267973,71.201088 117.253756,70.6165333 C117.327512,69.3238667 117.428927,66.5077 117.428927,65.2889 C117.447162,64.4861349 117.669266,63.7012503 118.074293,63.0082667 L118.074293,63.0082667 L118.074293,63.0082667 C118.386063,62.9158761 118.602317,62.6320837 118.609024,62.3065333 C118.606983,61.1581863 118.436126,60.0163976 118.101951,58.9179 C117.64229,57.1447342 116.682003,55.5418556 115.336098,54.3012333 C114.415186,53.4749083 113.438693,52.7129041 112.413512,52.0206 L112.413512,52.0206 L112.413512,47.4039333 C112.413512,47.2746667 112.210683,47.0992333 112.109268,47.0253667 C111.540668,46.8135843 110.909892,46.8470087 110.36678,47.1177 C110.168629,47.2409477 110.031428,47.4420319 109.98878,47.6717 L109.776732,51.8544 L108.661171,52.5192 C106.824297,53.9173843 105.303583,55.6889655 104.198927,57.7175667 C103.703425,59.3506037 103.473076,61.0527541 103.516683,62.7589667 C104.031302,63.1665638 104.400085,63.7302859 104.567707,64.3655667 C104.678341,65.0396 104.733659,67.8742333 104.733659,69.2777 C104.807851,70.3376369 105.018573,71.3835182 105.360585,72.3893333 C106.098146,73.8574333 107.121512,73.5896667 107.130732,73.5804333 L107.213707,73.5712 Z" id="形状" stroke-width="0.5" fill-rule="nonzero"></path>
                <path d="M109.260439,71.1797667 C108.33826,71.3068899 107.434188,70.8472555 106.992384,70.0266771 C106.550579,69.2060988 106.663903,68.1970486 107.27668,67.4952628 C107.889457,66.7934769 108.872891,66.5464593 109.743832,66.8755672 C110.614773,67.2046751 111.190162,68.0407353 111.187317,68.973 C111.255968,70.1126436 110.39737,71.0959575 109.260439,71.1797667 L109.260439,71.1797667 Z M109.260439,66.9601333 C108.422204,66.8327708 107.593308,67.2409915 107.182248,67.9836153 C106.771189,68.726239 106.864703,69.6465672 107.416704,70.2910415 C107.968705,70.9355158 108.862718,71.1681478 109.658153,70.8742914 C110.453588,70.5804349 110.982603,69.8220956 110.984488,68.973 C111.025072,68.478398 110.865173,67.9882523 110.540836,67.6130551 C110.216498,67.2378579 109.755023,67.0091902 109.260439,66.9786 L109.260439,66.9601333 Z" id="形状" stroke-width="0.5" fill-rule="nonzero"></path>
                <path d="M109.260439,71.9646 C108.010545,72.137971 106.784548,71.5158643 106.184882,70.4039735 C105.585216,69.2920826 105.737953,67.9241651 106.568039,66.972394 C107.398126,66.0206229 108.73105,65.6850933 109.911833,66.130679 C111.092616,66.5762646 111.873018,67.7092883 111.869561,68.973 C111.964603,70.5175072 110.801407,71.8512196 109.260439,71.9646 L109.260439,71.9646 Z M109.260439,66.1753 C108.091972,66.0013636 106.939027,66.5749274 106.371457,67.6125029 C105.803886,68.6500785 105.941889,69.93193 106.717256,70.8244926 C107.492623,71.7170552 108.741149,72.0313035 109.845739,71.6119179 C110.95033,71.1925323 111.677058,70.1283296 111.666732,68.9453 C111.746544,67.5215183 110.679458,66.2931443 109.260439,66.1753 L109.260439,66.1753 Z" id="形状" stroke-width="0.5" fill-rule="nonzero"></path>
                <path d="M109.260439,73.3773 C107.139951,73.3773 105.415902,71.4013667 105.415902,68.973 C105.415902,66.5446333 107.139951,64.5594667 109.260439,64.5594667 C111.380927,64.5594667 113.095756,66.5354 113.095756,68.973 C113.095756,71.4106 111.371707,73.3773 109.260439,73.3773 Z M109.260439,64.7626 C107.250585,64.7626 105.572634,66.6554333 105.572634,68.973 C105.572634,71.2905667 107.204488,73.1741667 109.260439,73.1741667 C111.31639,73.1741667 112.892927,71.3275 112.892927,68.973 C112.892927,66.6185 111.233415,64.7626 109.260439,64.7626 Z" id="形状" stroke-width="0.5" fill-rule="nonzero"></path>
                <path d="M103.323073,62.879 C103.28268,62.7233164 103.313052,62.5577133 103.406049,62.4265667 C103.701073,61.9556667 104.706,61.3278 107.831415,60.9954 C110.219268,60.7368667 116.073659,60.3398333 118.830293,62.2234333 L118.710439,62.3896333 C116.009122,60.5429667 110.219268,60.94 107.849854,61.1893 C104.678341,61.5309333 103.820927,62.1680333 103.590439,62.5189 C103.479805,62.6943333 103.507463,62.8051333 103.516683,62.8051333 L103.323073,62.879 Z" id="路径" stroke-width="0.5" fill-rule="nonzero"></path>
                <path d="M104.023756,63.6638333 C104.023756,63.6638333 103.544341,62.6389333 104.023756,62.2511333 C104.503171,61.8633333 107.637805,60.5152667 113.123415,60.9954 C118.249463,61.4293667 118.240244,62.2049667 118.240244,62.9621 L118.240244,63.0913667 L118.037415,63.0913667 L118.037415,62.9436333 C118.037415,62.3157667 118.037415,61.6140333 113.114195,61.1800667 C107.683902,60.7184 104.540049,62.1034 104.14361,62.4081 C103.747171,62.7128 104.060634,63.3314333 104.14361,63.5622667 L104.023756,63.6638333 Z" id="路径" stroke-width="0.5" fill-rule="nonzero"></path>
                <path d="M106.144244,73.6081333 C104.171268,72.0754 105.001024,64.9565 105.037902,64.6518 L105.037902,64.5964 L105.084,64.5964 C108.283171,62.9344 113.436878,63.5253333 113.482976,63.5345667 L113.575171,63.5345667 L113.575171,63.6269 C113.575171,63.6269 113.575171,67.8834667 113.778,70.0902333 C113.752313,71.3069101 114.63971,72.3503713 115.843171,72.5186 L115.843171,72.7217333 C114.5725,72.5323196 113.624892,71.4505054 113.602829,70.1641 C113.446098,68.0958333 113.40922,64.3748 113.4,63.7469333 C112.708537,63.6730667 108.172537,63.2852667 105.249951,64.7626 C105.176195,65.4366333 104.493951,72.0846333 106.282537,73.4881 L106.144244,73.6081333 Z" id="路径" stroke-width="0.5" fill-rule="nonzero"></path>
                <path d="M106.839268,71.7027667 C106.618354,71.7027667 106.439268,71.5236806 106.439268,71.3027667 C106.439268,71.0818528 106.618354,70.9027667 106.839268,70.9027667 C107.060182,70.9027667 107.239268,71.0818528 107.239268,71.3027667 C107.239268,71.5236806 107.060182,71.7027667 106.839268,71.7027667 Z M106.839268,71.1227667 C106.739857,71.1227667 106.659268,71.2033554 106.659268,71.3027667 C106.659268,71.4021779 106.739857,71.4827667 106.839268,71.4827667 C106.93868,71.4827667 107.019268,71.4021779 107.019268,71.3027667 C107.019268,71.2033554 106.93868,71.1227667 106.839268,71.1227667 L106.839268,71.1227667 Z" id="形状" stroke-width="0.5" fill-rule="nonzero"></path>
                <path d="M107.576829,72.4045 C107.355915,72.4045 107.176829,72.2254139 107.176829,72.0045 C107.176829,71.7835861 107.355915,71.6045 107.576829,71.6045 C107.797743,71.6045 107.976829,71.7835861 107.976829,72.0045 C107.976829,72.2254139 107.797743,72.4045 107.576829,72.4045 Z M107.576829,71.8245 C107.477418,71.8245 107.396829,71.9050887 107.396829,72.0045 C107.396829,72.1039113 107.477418,72.1845 107.576829,72.1845 C107.676241,72.1845 107.756829,72.1039113 107.756829,72.0045 C107.756829,71.9050887 107.676241,71.8245 107.576829,71.8245 Z" id="形状" stroke-width="0.5" fill-rule="nonzero"></path>
                <path d="M108.425024,72.8569333 C108.20411,72.8569333 108.025024,72.6778472 108.025024,72.4569333 C108.025024,72.2360194 108.20411,72.0569333 108.425024,72.0569333 C108.645938,72.0569333 108.825024,72.2360194 108.825024,72.4569333 C108.825024,72.6778472 108.645938,72.8569333 108.425024,72.8569333 Z M108.425024,72.2769333 C108.325613,72.2769333 108.245024,72.3575221 108.245024,72.4569333 C108.245024,72.5563446 108.325613,72.6369333 108.425024,72.6369333 C108.524436,72.6369333 108.605024,72.5563446 108.605024,72.4569333 C108.605024,72.3575221 108.524436,72.2769333 108.425024,72.2769333 Z" id="形状" stroke-width="0.5" fill-rule="nonzero"></path>
                <path d="M109.420732,72.9400333 C109.199818,72.9400333 109.020732,72.7609472 109.020732,72.5400333 C109.020732,72.3191194 109.199818,72.1400333 109.420732,72.1400333 C109.641646,72.1400333 109.820732,72.3191194 109.820732,72.5400333 C109.820732,72.7609472 109.641646,72.9400333 109.420732,72.9400333 Z M109.420732,72.3600333 C109.32132,72.3600333 109.240732,72.4406221 109.240732,72.5400333 C109.240732,72.6394446 109.32132,72.7200333 109.420732,72.7200333 C109.520143,72.7200333 109.600732,72.6394446 109.600732,72.5400333 C109.600732,72.4406221 109.520143,72.3600333 109.420732,72.3600333 L109.420732,72.3600333 Z" id="形状" stroke-width="0.5" fill-rule="nonzero"></path>
                <path d="M110.342683,72.6999667 C110.121769,72.6999667 109.942683,72.5208806 109.942683,72.2999667 C109.942683,72.0790528 110.121769,71.8999667 110.342683,71.8999667 C110.563597,71.8999667 110.742683,72.0790528 110.742683,72.2999667 C110.742683,72.5208806 110.563597,72.6999667 110.342683,72.6999667 Z M110.342683,72.1199667 C110.243272,72.1199667 110.162683,72.2005554 110.162683,72.2999667 C110.162683,72.3993779 110.243272,72.4799667 110.342683,72.4799667 C110.442094,72.4799667 110.522683,72.3993779 110.522683,72.2999667 C110.522683,72.2005554 110.442094,72.1199667 110.342683,72.1199667 L110.342683,72.1199667 Z" id="形状" stroke-width="0.5" fill-rule="nonzero"></path>
                <path d="M111.098683,72.1367333 C110.877769,72.1367333 110.698683,71.9576472 110.698683,71.7367333 C110.698683,71.5158194 110.877769,71.3367333 111.098683,71.3367333 C111.319597,71.3367333 111.498683,71.5158194 111.498683,71.7367333 C111.501461,71.8436475 111.460211,71.9470114 111.384586,72.0226366 C111.308961,72.0982618 111.205597,72.1395117 111.098683,72.1367333 L111.098683,72.1367333 Z M111.098683,71.5567333 C110.999272,71.5567333 110.918683,71.6373221 110.918683,71.7367333 C110.918683,71.8361446 110.999272,71.9167333 111.098683,71.9167333 C111.198094,71.9167333 111.278683,71.8361446 111.278683,71.7367333 C111.278683,71.6373221 111.198094,71.5567333 111.098683,71.5567333 Z" id="形状" stroke-width="0.5" fill-rule="nonzero"></path>
                <path d="M111.799361,71.3149676 C111.637582,71.3149676 111.491727,71.2175107 111.429815,71.0680409 C111.367903,70.9185712 111.402125,70.746524 111.516524,70.6321249 C111.630923,70.5177257 111.80297,70.4835034 111.95244,70.5454158 C112.10191,70.6073282 112.199367,70.7531827 112.199367,70.9149617 C112.199367,71.1358815 112.020281,71.3149676 111.799361,71.3149676 L111.799361,71.3149676 Z M111.799367,70.7349676 C111.699956,70.7349676 111.619367,70.8155563 111.619367,70.9149676 C111.619367,71.0143788 111.699956,71.0949676 111.799367,71.0949676 C111.898778,71.0949676 111.979367,71.0143788 111.979367,70.9149676 C111.979367,70.8155563 111.898778,70.7349676 111.799367,70.7349676 L111.799367,70.7349676 Z" id="形状" stroke-width="0.5" fill-rule="nonzero"></path>
                <path d="M112.186585,70.2808333 C111.965671,70.2808333 111.786585,70.1017472 111.786585,69.8808333 C111.786585,69.6599194 111.965671,69.4808333 112.186585,69.4808333 C112.407499,69.4808333 112.586585,69.6599194 112.586585,69.8808333 C112.586585,70.1017472 112.407499,70.2808333 112.186585,70.2808333 L112.186585,70.2808333 Z M112.186585,69.7008333 C112.087174,69.7008333 112.006585,69.7814221 112.006585,69.8808333 C112.006585,69.9802446 112.087174,70.0608333 112.186585,70.0608333 C112.285997,70.0608333 112.366585,69.9802446 112.366585,69.8808333 C112.366585,69.7814221 112.285997,69.7008333 112.186585,69.7008333 Z" id="形状" stroke-width="0.5" fill-rule="nonzero"></path>
                <path d="M112.334093,69.1636009 C112.172314,69.1636009 112.026459,69.066144 111.964547,68.9166743 C111.902634,68.7672045 111.936857,68.5951574 112.051256,68.4807582 C112.165655,68.366359 112.337702,68.3321367 112.487172,68.3940491 C112.636642,68.4559615 112.734098,68.601816 112.734098,68.7635951 C112.734098,68.9845148 112.555012,69.1636009 112.334093,69.1636009 L112.334093,69.1636009 Z M112.334098,68.5836009 C112.234687,68.5836009 112.154098,68.6641896 112.154098,68.7636009 C112.154098,68.8630122 112.234687,68.9436009 112.334098,68.9436009 C112.43351,68.9436009 112.514098,68.8630122 112.514098,68.7636009 C112.514098,68.6641896 112.43351,68.5836009 112.334098,68.5836009 Z" id="形状" stroke-width="0.5" fill-rule="nonzero"></path>
                <path d="M112.186585,68.1017667 C111.965671,68.1017667 111.786585,67.9226806 111.786585,67.7017667 C111.786585,67.4808528 111.965671,67.3017667 112.186585,67.3017667 C112.407499,67.3017667 112.586585,67.4808528 112.586585,67.7017667 C112.586585,67.9226806 112.407499,68.1017667 112.186585,68.1017667 Z M112.186585,67.5217667 C112.087174,67.5217667 112.006585,67.6023554 112.006585,67.7017667 C112.006585,67.8011779 112.087174,67.8817667 112.186585,67.8817667 C112.285997,67.8817667 112.366585,67.8011779 112.366585,67.7017667 C112.366585,67.6023554 112.285997,67.5217667 112.186585,67.5217667 Z" id="形状" stroke-width="0.5" fill-rule="nonzero"></path>
                <path d="M111.771707,67.2523 C111.550793,67.2523 111.371707,67.0732139 111.371707,66.8523 C111.371707,66.6313861 111.550793,66.4523 111.771707,66.4523 C111.992621,66.4523 112.171707,66.6313861 112.171707,66.8523 C112.171707,67.0732139 111.992621,67.2523 111.771707,67.2523 L111.771707,67.2523 Z M111.771707,66.6723 C111.672296,66.6723 111.591707,66.7528887 111.591707,66.8523 C111.591707,66.9517113 111.672296,67.0323 111.771707,67.0323 C111.871119,67.0323 111.951707,66.9517113 111.951707,66.8523 C111.951707,66.7528887 111.871119,66.6723 111.771707,66.6723 L111.771707,66.6723 Z" id="形状" stroke-width="0.5" fill-rule="nonzero"></path>
                <path d="M111.117122,66.5044 C110.896208,66.5044 110.717122,66.3253139 110.717122,66.1044 C110.717122,65.8834861 110.896208,65.7044 111.117122,65.7044 C111.338036,65.7044 111.517122,65.8834861 111.517122,66.1044 C111.517122,66.3253139 111.338036,66.5044 111.117122,66.5044 Z M111.117122,65.9244 C111.019856,65.9293977 110.94212,66.007134 110.937122,66.1044 C110.937122,66.2038113 111.017711,66.2844 111.117122,66.2844 C111.216533,66.2844 111.297122,66.2038113 111.297122,66.1044 C111.292124,66.007134 111.214388,65.9293977 111.117122,65.9244 L111.117122,65.9244 Z" id="形状" stroke-width="0.5" fill-rule="nonzero"></path>
                <path d="M110.232049,66.0242667 C110.011135,66.0242667 109.832049,65.8451806 109.832049,65.6242667 C109.832049,65.4033528 110.011135,65.2242667 110.232049,65.2242667 C110.452963,65.2242667 110.632049,65.4033528 110.632049,65.6242667 C110.632049,65.8451806 110.452963,66.0242667 110.232049,66.0242667 Z M110.232049,65.4442667 C110.132638,65.4442667 110.052049,65.5248554 110.052049,65.6242667 C110.052049,65.7236779 110.132638,65.8042667 110.232049,65.8042667 C110.33146,65.8042667 110.412049,65.7236779 110.412049,65.6242667 C110.412049,65.5248554 110.33146,65.4442667 110.232049,65.4442667 L110.232049,65.4442667 Z" id="形状" stroke-width="0.5" fill-rule="nonzero"></path>
                <path d="M109.291659,65.9319333 C109.070745,65.9319333 108.891659,65.7528472 108.891659,65.5319333 C108.891659,65.3110194 109.070745,65.1319333 109.291659,65.1319333 C109.512572,65.1319333 109.691659,65.3110194 109.691659,65.5319333 C109.691659,65.7528472 109.512572,65.9319333 109.291659,65.9319333 L109.291659,65.9319333 Z M109.291659,65.3519333 C109.192247,65.3519333 109.111659,65.4325221 109.111659,65.5319333 C109.111659,65.6313446 109.192247,65.7119333 109.291659,65.7119333 C109.39107,65.7119333 109.471659,65.6313446 109.471659,65.5319333 C109.471659,65.4325221 109.39107,65.3519333 109.291659,65.3519333 Z" id="形状" stroke-width="0.5" fill-rule="nonzero"></path>
                <path d="M108.254152,66.1620402 C108.060034,66.1310562 107.9172,65.9636156 107.9172,65.7670402 C107.9172,65.5704649 108.060034,65.4030243 108.254152,65.3720402 C108.360273,65.3666012 108.464197,65.4036104 108.542992,65.4749016 C108.621788,65.5461927 108.668979,65.6459064 108.674152,65.7520402 L108.674152,65.7520402 C108.676838,65.8581362 108.63725,65.9609503 108.564104,66.0378476 C108.490957,66.1147449 108.39025,66.159421 108.284152,66.1620402 L108.254152,66.1620402 Z M108.254152,65.5920402 L108.254152,65.5920402 C108.173281,65.6115099 108.116283,65.683858 108.116283,65.7670401 C108.116283,65.8502225 108.173281,65.9225706 108.254152,65.9420402 C108.301891,65.9420402 108.347675,65.923076 108.381432,65.8893195 C108.415188,65.8555629 108.434152,65.8097792 108.434152,65.7620402 C108.42884,65.6665544 108.349786,65.5918925 108.254152,65.5920402 L108.254152,65.5920402 Z" id="形状" stroke-width="0.5" fill-rule="nonzero"></path>
                <path d="M107.392439,66.7721667 C107.171525,66.7721667 106.992439,66.5930806 106.992439,66.3721667 C106.992439,66.1512528 107.171525,65.9721667 107.392439,65.9721667 C107.498925,65.9741556 107.601421,66.0130335 107.682439,66.0821667 C107.760597,66.1549987 107.80724,66.255461 107.812439,66.3621667 C107.810682,66.4657001 107.771623,66.5651223 107.702439,66.6421667 C107.632504,66.724226 107.530255,66.7716988 107.422439,66.7721667 L107.392439,66.7721667 Z M107.392439,66.1921667 L107.392439,66.1921667 C107.344673,66.1947464 107.299899,66.2162329 107.268003,66.2518816 C107.236107,66.2875304 107.219712,66.3344092 107.222439,66.3821667 C107.2221,66.4309427 107.242729,66.4775144 107.27908,66.5100387 C107.315431,66.5425631 107.364001,66.5579063 107.412439,66.5521667 C107.459298,66.5507129 107.503161,66.5287812 107.532439,66.4921667 C107.563473,66.459792 107.581303,66.4169987 107.582439,66.3721667 L107.582439,66.3721667 C107.575,66.324072 107.554212,66.2790306 107.522439,66.2421667 C107.487571,66.2087303 107.440726,66.1907131 107.392439,66.1921667 L107.392439,66.1921667 Z" id="形状" stroke-width="0.5" fill-rule="nonzero"></path>
                <path d="M106.654139,67.5939334 C106.442593,67.5940029 106.269563,67.4254093 106.264139,67.2139334 C106.2587,67.1078128 106.295709,67.0038891 106.367,66.9250936 C106.438291,66.8462981 106.538005,66.7991071 106.644139,66.7939334 C106.862989,66.7936728 107.043463,66.965343 107.054139,67.1839334 L107.054139,67.1839334 C107.059569,67.2890728 107.022261,67.3919416 106.950695,67.4691568 C106.87913,67.5463721 106.779387,67.591374 106.674139,67.5939334 L106.654139,67.5939334 Z M106.654139,67.0139334 L106.654139,67.0139334 C106.553129,67.0192569 106.473998,67.1027836 106.474139,67.2039334 C106.4738,67.2527094 106.494429,67.2992811 106.530779,67.3318054 C106.56713,67.3643298 106.6157,67.379673 106.664139,67.3739334 C106.711013,67.3740145 106.75584,67.3547378 106.788025,67.3206596 C106.82021,67.2865815 106.836896,67.2407264 106.834139,67.1939334 L106.834139,67.1939334 C106.839852,67.1428357 106.823442,67.0917336 106.789046,67.0535163 C106.754651,67.0152989 106.705554,66.9936149 106.654139,66.9939334 L106.654139,67.0139334 Z" id="形状" stroke-width="0.5" fill-rule="nonzero"></path>
                <path d="M106.387512,70.8902333 C106.166598,70.8902333 105.987512,70.7111472 105.987512,70.4902333 C105.987512,70.2693194 106.166598,70.0902333 106.387512,70.0902333 C106.608426,70.0902333 106.787512,70.2693194 106.787512,70.4902333 C106.787512,70.7111472 106.608426,70.8902333 106.387512,70.8902333 Z M106.387512,70.3102333 C106.288101,70.3102333 106.207512,70.3908221 106.207512,70.4902333 C106.207512,70.5896446 106.288101,70.6702333 106.387512,70.6702333 C106.486923,70.6702333 106.567512,70.5896446 106.567512,70.4902333 C106.567512,70.3908221 106.486923,70.3102333 106.387512,70.3102333 Z" id="形状" stroke-width="0.5" fill-rule="nonzero"></path>
                <path d="M106.184683,68.6557667 C105.963769,68.6557667 105.784683,68.4766806 105.784683,68.2557667 C105.784683,68.0348528 105.963769,67.8557667 106.184683,67.8557667 C106.405597,67.8557667 106.584683,68.0348528 106.584683,68.2557667 C106.587461,68.3626808 106.546211,68.4660447 106.470586,68.5416699 C106.394961,68.6172952 106.291597,68.6585451 106.184683,68.6557667 L106.184683,68.6557667 Z M106.184683,68.0757667 C106.085272,68.0757667 106.004683,68.1563554 106.004683,68.2557667 C106.004683,68.3551779 106.085272,68.4357667 106.184683,68.4357667 C106.284094,68.4357667 106.364683,68.3551779 106.364683,68.2557667 C106.364683,68.1563554 106.284094,68.0757667 106.184683,68.0757667 Z" id="形状" stroke-width="0.5" fill-rule="nonzero"></path>
                <path d="M106.184683,69.8745667 C105.963769,69.8745667 105.784683,69.6954806 105.784683,69.4745667 C105.784683,69.2536528 105.963769,69.0745667 106.184683,69.0745667 C106.405597,69.0745667 106.584683,69.2536528 106.584683,69.4745667 C106.587461,69.5814808 106.546211,69.6848447 106.470586,69.7604699 C106.394961,69.8360952 106.291597,69.8773451 106.184683,69.8745667 L106.184683,69.8745667 Z M106.184683,69.2945667 C106.085272,69.2945667 106.004683,69.3751554 106.004683,69.4745667 C106.004683,69.5739779 106.085272,69.6545667 106.184683,69.6545667 C106.284094,69.6545667 106.364683,69.5739779 106.364683,69.4745667 C106.364683,69.3751554 106.284094,69.2945667 106.184683,69.2945667 Z" id="形状" stroke-width="0.5" fill-rule="nonzero"></path>
                <path d="M143.27122,24.5052667 C143.087776,24.3794093 142.974871,24.1738201 142.966976,23.9512667 C142.966976,23.268 143.888927,22.5016333 145.059805,22.1969333 C145.714799,21.963381 146.437734,22.0170121 147.05122,22.3446667 C147.217206,22.4647782 147.316423,22.6566567 147.318585,22.8617333 L147.115756,22.8617333 C147.112897,22.7196785 147.044884,22.5868547 146.931366,22.5016333 C146.35701,22.2163934 145.691754,22.1764182 145.087463,22.3908333 C144.018,22.6678333 143.132927,23.3695667 143.151366,23.9420333 C143.159945,24.1014972 143.241616,24.2480436 143.372634,24.3390667 L143.27122,24.5052667 Z" id="路径" stroke-width="0.5" fill-rule="nonzero"></path>
                <path d="M144.00878,24.1267 C143.825996,24.1279971 143.643611,24.1094216 143.464829,24.0713 L143.464829,23.8774 C144.664854,24.0687714 145.87443,23.5955174 146.627122,22.6401333 L146.811512,22.7324667 C146.342474,23.397783 145.636171,23.8572375 144.838537,24.0159 C144.566972,24.0838649 144.288638,24.1210317 144.00878,24.1267 L144.00878,24.1267 Z" id="路径" stroke-width="0.5" fill-rule="nonzero"></path>
                <path d="M144.58039,25.1331333 C144.216953,25.1517269 143.856561,25.0582714 143.547805,24.8653667 C143.367594,24.7366019 143.255639,24.532743 143.243561,24.3113667 C143.243561,23.6281 144.165512,22.8617333 145.33639,22.5570333 C145.969449,22.3388613 146.664764,22.3957752 147.254049,22.714 C147.436384,22.8408604 147.548958,23.0458468 147.558293,23.268 C147.558293,23.9512667 146.636341,24.7176333 145.465463,25.0223333 C145.175686,25.0932874 144.878691,25.1304673 144.58039,25.1331333 L144.58039,25.1331333 Z M146.267561,22.6586 C145.987496,22.6614634 145.708835,22.6986738 145.437805,22.7694 C144.368341,23.0464 143.474049,23.7481333 143.492488,24.3206 C143.501067,24.4800638 143.582738,24.6266103 143.713756,24.7176333 C144.252285,24.9982945 144.882302,25.0450324 145.456244,24.8469 C146.525707,24.5699 147.42,23.8681667 147.401561,23.2957 L147.401561,23.2957 C147.392982,23.1362362 147.311311,22.9896897 147.180293,22.8986667 C146.909413,22.7231726 146.589587,22.6390518 146.267561,22.6586 Z" id="形状" stroke-width="0.5" fill-rule="nonzero"></path>
                <path d="M147.23561,26.5458333 C147.052166,26.4199759 146.939262,26.2143868 146.931366,25.9918333 C146.931366,25.3085667 147.853317,24.5422 149.024195,24.2375 C149.679189,24.0039477 150.402125,24.0575788 151.01561,24.3852333 C151.17928,24.5063205 151.275233,24.6985155 151.273773,24.9023 L151.070927,24.9023 C151.073192,24.7637269 151.007808,24.6327621 150.895756,24.5514333 C150.322828,24.2608628 149.655362,24.2207548 149.051854,24.4406333 C147.98239,24.7084 147.097317,25.4193667 147.115756,25.9826 C147.116878,26.1465995 147.199953,26.2991328 147.337024,26.3888667 L147.23561,26.5458333 Z" id="路径" stroke-width="0.5" fill-rule="nonzero"></path>
                <path d="M147.963951,26.2226667 C147.783631,26.2250252 147.603802,26.2032891 147.42922,26.1580333 L147.42922,25.9641333 C148.629244,26.1555047 149.83882,25.6822507 150.591512,24.7268667 L150.766683,24.8284333 C150.300181,25.4903935 149.596831,25.9467683 148.802927,26.1026333 C148.52854,26.1734868 148.247172,26.2137425 147.963951,26.2226667 Z" id="路径" stroke-width="0.5" fill-rule="nonzero"></path>
                <path d="M148.54478,27.2752667 C148.177715,27.2889174 147.814943,27.192462 147.502976,26.9982667 C147.326248,26.8676052 147.217843,26.664041 147.207951,26.4442667 C147.207951,25.761 148.129902,24.9946333 149.30078,24.6899333 C149.935112,24.4745843 150.630477,24.5348503 151.218439,24.8561333 C151.398083,24.9800469 151.507734,25.1825187 151.513463,25.4009 L151.513463,25.4009 C151.513463,26.0841667 150.591512,26.8505333 149.420634,27.1552333 C149.134392,27.2294982 148.840421,27.2697861 148.54478,27.2752667 L148.54478,27.2752667 Z M150.185854,24.7822667 C149.902444,24.7804736 149.620136,24.8177568 149.346878,24.8930667 C148.277415,25.1608333 147.392341,25.8718 147.41078,26.4350333 C147.419359,26.5944972 147.50103,26.7410436 147.632049,26.8320667 C148.170272,27.1138021 148.800739,27.1605733 149.374537,26.9613333 C150.444,26.6935667 151.329073,25.9826 151.310634,25.4101333 L151.310634,25.4101333 C151.307041,25.2515414 151.228309,25.1041261 151.098585,25.0131 C150.830731,24.8274899 150.511529,24.730617 150.185854,24.7361 L150.185854,24.7822667 Z" id="形状" stroke-width="0.5" fill-rule="nonzero"></path>
                <path d="M151.504244,20.9596667 C151.325052,20.8299972 151.213387,20.6266659 151.2,20.4056667 C151.2,19.7224 152.121951,18.9468 153.292829,18.6513333 C153.951033,18.4185195 154.676473,18.4720883 155.293463,18.7990667 C155.45597,18.9211295 155.55161,19.1126952 155.55161,19.3161333 L155.34878,19.3161333 C155.347333,19.1737257 155.279019,19.0403124 155.16439,18.9560333 C154.590881,18.6676235 153.924316,18.6275697 153.320488,18.8452333 C152.251024,19.113 151.356732,19.8239667 151.375171,20.3964333 C151.384445,20.5579978 151.470051,20.7054618 151.605659,20.7934667 L151.504244,20.9596667 Z" id="路径" stroke-width="0.5" fill-rule="nonzero"></path>
                <path d="M152.241805,20.6272667 C152.062043,20.6290964 151.882654,20.6105111 151.707073,20.5718667 L151.753171,20.3779667 C152.191626,20.4600879 152.64321,20.4379493 153.071561,20.3133333 C153.810607,20.1661802 154.468173,19.7479995 154.915463,19.1407 L155.090634,19.2330333 C154.621596,19.8983497 153.915293,20.3578042 153.117659,20.5164667 C152.831109,20.5879567 152.537104,20.6251499 152.241805,20.6272667 Z" id="路径" stroke-width="0.5" fill-rule="nonzero"></path>
                <path d="M152.822634,21.6337 C152.45473,21.655255 152.08961,21.5581753 151.780829,21.3567 C151.598816,21.2337763 151.485901,21.0315955 151.476585,20.8119333 C151.476585,20.1286667 152.398537,19.3530667 153.578634,19.0576 C154.208499,18.8386873 154.90131,18.8956701 155.487073,19.2145667 C155.669408,19.3414271 155.781982,19.5464134 155.791317,19.7685667 C155.791317,20.4518333 154.869366,21.2182 153.698488,21.5229 C153.411829,21.593801 153.117893,21.6309854 152.822634,21.6337 Z M154.454488,19.1407 C154.174462,19.1441103 153.895867,19.181312 153.624732,19.2515 C152.555268,19.5192667 151.660976,20.2302333 151.679415,20.8027 C151.690626,20.9613895 151.771705,21.1068726 151.900683,21.1997333 C152.440799,21.4762857 153.070333,21.5196519 153.643171,21.3197667 C154.712634,21.052 155.606927,20.3410333 155.588488,19.7778 L155.588488,19.7778 C155.579909,19.6183362 155.498238,19.4717897 155.36722,19.3807667 C155.09634,19.2052726 154.776514,19.1211518 154.454488,19.1407 L154.454488,19.1407 Z" id="形状" stroke-width="0.5" fill-rule="nonzero"></path>
                <path d="M155.487073,23.0464 C155.30363,22.9205426 155.190725,22.7149534 155.182829,22.4924 C155.182829,21.8091333 156.10478,21.0427667 157.275659,20.7380667 C157.930652,20.5045143 158.653588,20.5581454 159.267073,20.8858 C159.43306,21.0059116 159.532277,21.1977901 159.534439,21.4028667 L159.33161,21.4028667 C159.328751,21.2608118 159.260738,21.127988 159.14722,21.0427667 C158.572863,20.7575267 157.907608,20.7175516 157.303317,20.9319667 C156.233854,21.2089667 155.34878,21.9107 155.36722,22.4831667 C155.37138,22.6438764 155.454091,22.792289 155.588488,22.8802 L155.487073,23.0464 Z" id="路径" stroke-width="0.5" fill-rule="nonzero"></path>
                <path d="M156.206195,22.714 C156.023411,22.7152971 155.841026,22.6967216 155.662244,22.6586 L155.662244,22.4647 C156.103773,22.5469102 156.558368,22.5247787 156.989854,22.4000667 C157.730605,22.2571972 158.389612,21.838101 158.833756,21.2274333 L159.018146,21.3197667 C158.547129,21.98302 157.841727,22.4418886 157.045171,22.6032 C156.770608,22.6718545 156.489143,22.7090265 156.206195,22.714 Z" id="路径" stroke-width="0.5" fill-rule="nonzero"></path>
                <path d="M156.777805,23.7204333 C156.412932,23.7406457 156.051152,23.6435952 155.74522,23.4434333 C155.563206,23.3205096 155.450291,23.1183289 155.440976,22.8986667 C155.440976,22.2154 156.362927,21.4490333 157.533805,21.1443333 C158.166864,20.9261613 158.862179,20.9830752 159.451463,21.3013 C159.631411,21.4291494 159.740722,21.6344143 159.746488,21.8553 L159.746488,21.8553 C159.746488,22.5385667 158.824537,23.3049333 157.653659,23.6096333 C157.367109,23.6811234 157.073104,23.7183166 156.777805,23.7204333 Z M158.418878,21.2274333 C158.138773,21.2297315 157.860043,21.2669512 157.589122,21.3382333 C156.510439,21.606 155.625366,22.3169667 155.643805,22.8894333 C155.655017,23.0481229 155.736095,23.1936059 155.865073,23.2864667 C156.404894,23.5640839 157.03487,23.6074806 157.607561,23.4065 C158.677024,23.1387333 159.562098,22.4277667 159.543659,21.8645333 L159.543659,21.8645333 C159.543161,21.7051431 159.463714,21.5563904 159.33161,21.4675 C159.059459,21.2949103 158.740586,21.2110402 158.418878,21.2274333 Z" id="形状" stroke-width="0.5" fill-rule="nonzero"></path>
                <path d="M159.174878,17.5987333 C158.992543,17.4718729 158.879969,17.2668866 158.870634,17.0447333 C158.870634,16.3614667 159.792585,15.5858667 160.963463,15.2904 C161.618457,15.0568477 162.341393,15.1104788 162.954878,15.4381333 C163.123239,15.5561801 163.223135,15.7493735 163.22225,15.9552 L163.019415,15.9552 C163.017967,15.8127924 162.949653,15.679379 162.835024,15.5951 C162.260668,15.3098601 161.595413,15.2698849 160.991122,15.4843 C159.921659,15.7520667 159.036585,16.4630333 159.055024,17.0355 C159.063603,17.1949638 159.145274,17.3415103 159.276293,17.4325333 L159.174878,17.5987333 Z" id="路径" stroke-width="0.5" fill-rule="nonzero"></path>
                <path d="M159.90322,17.2663333 C159.720435,17.2676304 159.53805,17.249055 159.359268,17.2109333 L159.359268,17.0170333 C159.800798,17.0992435 160.255392,17.0771121 160.686878,16.9524 C161.42763,16.8095305 162.086636,16.3904343 162.53078,15.7797667 L162.715171,15.8721 C162.244154,16.5353533 161.538752,16.994222 160.742195,17.1555333 C160.467633,17.2241878 160.186167,17.2613598 159.90322,17.2663333 L159.90322,17.2663333 Z" id="路径" stroke-width="0.5" fill-rule="nonzero"></path>
                <path d="M160.474829,18.2727667 C160.109956,18.2929791 159.748177,18.1959286 159.442244,17.9957667 C159.26023,17.872843 159.147316,17.6706622 159.138,17.451 C159.138,16.7677333 160.059951,15.9921333 161.230829,15.6966667 C161.863888,15.4784946 162.559204,15.5354085 163.148488,15.8536333 C163.330823,15.9804938 163.443397,16.1854801 163.452732,16.4076333 L163.452732,16.4076333 C163.452732,17.0909 162.53078,17.8572667 161.350683,18.1619667 C161.064134,18.2334567 160.770128,18.2706499 160.474829,18.2727667 Z M162.115902,15.7797667 C161.835797,15.7820649 161.557068,15.8192845 161.286146,15.8905667 C160.216683,16.1583333 159.32239,16.8693 159.340829,17.4417667 C159.352041,17.6004562 159.433119,17.7459393 159.562098,17.8388 C160.101918,18.1164172 160.731895,18.1598139 161.304585,17.9588333 C162.374049,17.6910667 163.259122,16.9801 163.249902,16.4076333 L163.249902,16.4076333 C163.241316,16.2506601 163.159311,16.1069361 163.028634,16.0198333 C162.756981,15.8461039 162.437737,15.7621364 162.115902,15.7797667 L162.115902,15.7797667 Z" id="形状" stroke-width="0.5" fill-rule="nonzero"></path>
                <path d="M163.130049,19.6854667 C162.943078,19.5628456 162.829083,19.35527 162.825805,19.1314667 C162.825805,18.4482 163.747756,17.6818333 164.918634,17.3771333 C165.573628,17.143581 166.296564,17.1972121 166.910049,17.5248667 C167.073719,17.6459539 167.169672,17.8381488 167.168212,18.0419333 L166.965366,18.0419333 C166.966969,17.8987889 166.897981,17.7640614 166.780976,17.6818333 C166.207466,17.3934235 165.540902,17.3533697 164.937073,17.5710333 C163.86761,17.8388 162.982537,18.5497667 163.000976,19.1222333 C163.001821,19.2838347 163.085349,19.433714 163.222244,19.5192667 L163.130049,19.6854667 Z" id="路径" stroke-width="0.5" fill-rule="nonzero"></path>
                <path d="M163.85839,19.3530667 C163.678654,19.3543554 163.499325,19.3357763 163.323659,19.2976667 L163.323659,19.1037667 C163.765188,19.1859769 164.219783,19.1638454 164.651268,19.0391333 C165.39202,18.8962639 166.051026,18.4771676 166.495171,17.8665 L166.670341,17.9588333 C166.20552,18.6242685 165.501944,19.0840981 164.706585,19.2422667 C164.428907,19.3109888 164.14438,19.3481566 163.85839,19.3530667 Z" id="路径" stroke-width="0.5" fill-rule="nonzero"></path>
                <path d="M164.43922,20.3595 C164.071315,20.381055 163.706196,20.2839753 163.397415,20.0825 C163.221064,19.95565 163.112374,19.7549514 163.10239,19.5377333 C163.10239,18.8544667 164.024341,18.0881 165.19522,17.7834 C165.828278,17.565228 166.523594,17.6221418 167.112878,17.9403667 C167.289606,18.0710281 167.398011,18.2745923 167.407902,18.4943667 L167.407902,18.4943667 C167.407902,19.1776333 166.485951,19.944 165.315073,20.2487 C165.028524,20.32019 164.734518,20.3573832 164.43922,20.3595 Z M166.080293,17.8665 C165.797191,17.8693475 165.515478,17.9065521 165.241317,17.9773 C164.171854,18.2450667 163.28678,18.9560333 163.30522,19.5285 C163.307763,19.6896492 163.390869,19.83877 163.526488,19.9255333 C164.066308,20.2031505 164.696285,20.2465472 165.268976,20.0455667 C166.338439,19.7778 167.223512,19.0668333 167.205073,18.5036 L167.205073,18.5036 C167.204228,18.3419986 167.1207,18.1921193 166.983805,18.1065667 C166.715775,17.9323854 166.399288,17.8482936 166.080293,17.8665 Z" id="形状" stroke-width="0.5" fill-rule="nonzero"></path>
                <path d="M166.725659,14.3486 C166.543323,14.2217396 166.43075,14.0167532 166.421415,13.7946 C166.421415,13.1113333 167.343366,12.3357333 168.514244,12.0402667 C169.169238,11.8067143 169.892173,11.8603454 170.505659,12.188 C170.671771,12.3070145 170.768403,12.5005687 170.763805,12.7050667 L170.560976,12.7050667 C170.563167,12.5639471 170.498115,12.4302196 170.385805,12.3449667 C169.811449,12.0597267 169.146193,12.0197516 168.541902,12.2341667 C167.472439,12.5019333 166.587366,13.2129 166.605805,13.7853667 C166.60665,13.946968 166.690178,14.0968474 166.827073,14.1824 L166.725659,14.3486 Z" id="路径" stroke-width="0.5" fill-rule="nonzero"></path>
                <path d="M167.472439,14.0069667 C167.292728,14.0077426 167.113454,13.9891693 166.937707,13.9515667 L166.937707,13.7576667 C167.379237,13.8398769 167.833831,13.8177454 168.265317,13.6930333 C169.006069,13.5501639 169.665075,13.1310676 170.10922,12.5204 L170.28439,12.6127333 C169.819569,13.2781685 169.115993,13.7379981 168.320634,13.8961667 C168.042955,13.9648888 167.758429,14.0020566 167.472439,14.0069667 L167.472439,14.0069667 Z" id="路径" stroke-width="0.5" fill-rule="nonzero"></path>
                <path d="M168.034829,15.0134 C167.667057,15.0336612 167.302332,14.9366866 166.993024,14.7364 C166.816674,14.60955 166.707984,14.4088514 166.698,14.1916333 C166.698,13.5083667 167.619951,12.7327667 168.790829,12.4373 C169.423888,12.219128 170.119204,12.2760418 170.708488,12.5942667 C170.888436,12.7221161 170.997746,12.9273809 171.003512,13.1482667 L171.003512,13.1482667 C171.003512,13.8315333 170.081561,14.5979 168.910683,14.9026 C168.624134,14.97409 168.330128,15.0112832 168.034829,15.0134 L168.034829,15.0134 Z M169.675902,12.5204 C169.392801,12.5232475 169.111088,12.5604521 168.836927,12.6312 C167.767463,12.8989667 166.88239,13.6099333 166.900829,14.1824 C166.912041,14.3410895 166.993119,14.4865726 167.122098,14.5794333 C167.661918,14.8570505 168.291895,14.9004472 168.864585,14.6994667 C169.934049,14.4317 170.819122,13.7207333 170.800683,13.1482667 L170.800683,13.1482667 C170.797171,12.9921578 170.718077,12.8475099 170.588634,12.7604667 C170.318613,12.581382 169.999581,12.4910155 169.675902,12.5019333 L169.675902,12.5204 Z" id="形状" stroke-width="0.5" fill-rule="nonzero"></path>
                <path d="M170.690049,16.4261 C170.504213,16.3012364 170.388044,16.0959254 170.376585,15.8721 C170.376585,15.1888333 171.298537,14.4224667 172.469415,14.1177667 C173.127464,13.8838028 173.853379,13.9374067 174.470049,14.2655 C174.630337,14.3894046 174.725393,14.5798014 174.728195,14.7825667 L174.525366,14.7825667 C174.522507,14.6405118 174.454494,14.507688 174.340976,14.4224667 C173.767466,14.1340568 173.100902,14.094003 172.497073,14.3116667 C171.42761,14.5794333 170.533317,15.2904 170.551756,15.8628667 C170.56103,16.0244311 170.646637,16.1718952 170.782244,16.2599 L170.690049,16.4261 Z" id="路径" stroke-width="0.5" fill-rule="nonzero"></path>
                <path d="M171.41839,16.0937 C171.238654,16.0949888 171.059325,16.0764097 170.883659,16.0383 L170.883659,15.8444 C171.322114,15.9265213 171.773698,15.9043826 172.202049,15.7797667 C172.943496,15.6386545 173.603099,15.2191788 174.045951,14.6071333 L174.221122,14.6994667 C173.756301,15.3649018 173.052725,15.8247314 172.257366,15.9829 C171.982687,16.0509384 171.701291,16.0881012 171.41839,16.0937 Z" id="路径" stroke-width="0.5" fill-rule="nonzero"></path>
                <path d="M171.99922,17.1186 C171.631315,17.140155 171.266196,17.0430753 170.957415,16.8416 C170.777771,16.7176865 170.66812,16.5152146 170.66239,16.2968333 C170.66239,15.6135667 171.584341,14.8472 172.75522,14.5425 C173.388278,14.324328 174.083594,14.3812418 174.672878,14.6994667 C174.849606,14.8301281 174.958011,15.0336923 174.967902,15.2534667 C174.967902,15.9367333 174.045951,16.7031 172.875073,17.0078 C172.588414,17.078701 172.294478,17.1158854 171.99922,17.1186 L171.99922,17.1186 Z M173.640293,14.6256 C173.357191,14.6284475 173.075478,14.6656521 172.801317,14.7364 C171.731854,15.0041667 170.84678,15.7151333 170.86522,16.2876 C170.868813,16.4461919 170.947545,16.5936072 171.077268,16.6846333 C171.620542,16.9616741 172.253087,17.0050184 172.828976,16.8046667 C173.898439,16.5369 174.783512,15.8259333 174.765073,15.2627 C174.756494,15.1032362 174.674823,14.9566897 174.543805,14.8656667 C174.277971,14.6849801 173.961315,14.5943712 173.640293,14.6071333 L173.640293,14.6256 Z" id="形状" stroke-width="0.5" fill-rule="nonzero"></path>
                <path d="M115.843171,54.7259667 C111.463902,53.2486333 106.420829,54.6151667 106.374732,54.6336333 L106.319415,54.4305 C106.365512,54.4305 111.463902,53.0362667 115.907707,54.5320667 L115.843171,54.7259667 Z" id="路径" stroke-width="0.5" fill-rule="nonzero"></path>
                <path d="M112.45039,52.0298333 C111.558815,51.7276761 110.600334,51.6828799 109.684537,51.9005667 L109.62922,51.7066667 C110.589388,51.4676576 111.598154,51.5125588 112.533366,51.8359333 L112.45039,52.0298333 Z" id="路径" stroke-width="0.5" fill-rule="nonzero"></path>
                <polygon id="路径" stroke-width="0.5" fill-rule="nonzero" points="81.7862927 70.9951 56.5432683 42.6303 1.68717073 32.6213667 0 27.6076667 0.156731707 27.6169 62.6281463 32.8429667 85.8797561 65.5843667 109.42639 25.7887 109.463268 25.7794667 179.033707 0 188.170244 5.0414 186.012878 11.0061333 185.828488 10.9415 187.921317 5.13373333 179.015268 0.2216 109.564683 25.9549 85.8981951 65.9537 62.5175122 33.0368667 0.29502439 27.8292667 1.84390244 32.4459333 56.6539024 42.4456333 56.6723415 42.4733333 81.9338049 70.8566"></polygon>
                <polygon id="矩形" stroke-width="0.5" fill-rule="nonzero" transform="translate(178.266874, 3.187836) rotate(-77.080000) translate(-178.266874, -3.187836) " points="175.090878 3.08744986 181.442936 3.08537758 181.44287 3.28822205 175.090812 3.29029433"></polygon>
                <polygon id="路径" stroke-width="0.5" fill-rule="nonzero" points="86.4605854 64.7164333 72.7327317 45.6680667 78.5502439 47.9671667 83.9067805 55.5108 83.7408293 55.6216 78.4211707 48.1333667 73.3043415 46.1112667 86.6265366 64.6056333"></polygon>
                <polygon id="路径" stroke-width="0.5" fill-rule="nonzero" points="83.4734634 53.8303333 71.2944878 36.3701 69.9207805 35.9638333 65.4954146 35.6129667 63.900439 33.3231 62.5543902 33.0368667 62.6004878 32.8429667 64.0202927 33.1476667 65.6060488 35.4190667 69.966878 35.7699333 71.423561 36.1946667 71.442 36.2223667 83.6394146 53.7103"></polygon>
                <polygon id="路径" stroke-width="0.5" fill-rule="nonzero" points="77.1027805 45.8896667 71.7739024 43.9783667 71.7554634 43.9506667 65.4677561 35.5760333 65.6337073 35.456 71.8937561 43.8029333 76.5680488 45.4834 69.8562439 35.9269 70.0221951 35.8068667"></polygon>
                <path d="M95.9198049,48.7797 C95.1220485,47.803436 94.2226772,46.9150975 93.2369268,46.1297333 L93.329122,45.9450667 C94.3517506,46.7374891 95.2798202,47.6452625 96.0949756,48.6504333 L95.9198049,48.7797 Z" id="路径" stroke-width="0.5" fill-rule="nonzero"></path>
                <path d="M83.9989756,48.7797 L83.8514634,48.6319667 C84.8139473,47.6307414 85.8732315,46.7276082 87.0137561,45.9358333 L87.0782927,46.1297333 C85.9615805,46.9020443 84.9294189,47.7902912 83.9989756,48.7797 L83.9989756,48.7797 Z" id="路径" stroke-width="0.5" fill-rule="nonzero"></path>
                <path d="M85.0223415,49.9061667 C84.0542927,49.6753333 83.5656585,49.3891 83.5656585,49.0567 C83.5656585,48.2164667 86.8570244,47.7548 89.964,47.7548 C92.7298537,47.7548 95.1914634,48.1056667 96.030439,48.6135 L95.9198049,48.7889333 C95.1269268,48.2995667 92.6745366,47.9579333 89.964,47.9579333 C86.2761951,47.9579333 83.7684878,48.5396333 83.7684878,49.0567 C83.7684878,49.2229 84.1096098,49.4814333 85.068439,49.7122667 L85.0223415,49.9061667 Z" id="路径" stroke-width="0.5" fill-rule="nonzero"></path>
                <path d="M95.9198049,46.7576 C95.1307055,45.8285428 94.2330597,44.9977506 93.2461463,44.2830667 L93.3199024,44.0984 C94.3452736,44.8172463 95.2747483,45.6643363 96.0857561,46.6191 L95.9198049,46.7576 Z" id="路径" stroke-width="0.5" fill-rule="nonzero"></path>
                <path d="M83.9989756,46.7483667 L83.8606829,46.6006333 C84.8273458,45.6651509 85.8834429,44.8270474 87.0137561,44.0984 L87.0782927,44.2923 C85.9672842,44.9985975 84.9349638,45.8219774 83.9989756,46.7483667 L83.9989756,46.7483667 Z" id="路径" stroke-width="0.5" fill-rule="nonzero"></path>
                <path d="M85.0223415,47.8009667 C84.0358537,47.5886 83.5656585,47.3300667 83.5656585,47.0069 C83.5656585,46.2128333 86.8570244,45.7881 89.964,45.7881 C93.0709756,45.7881 96.3623415,46.2128333 96.3623415,47.0069 C96.3623415,47.3023667 95.8276098,47.4408667 95.0992683,47.6347667 L94.9978537,47.6347667 L94.9425366,47.4408667 L95.0531707,47.4408667 C95.4864878,47.3208333 96.1595122,47.1454 96.1595122,47.0069 C96.1595122,46.5914 93.9468293,45.9912333 89.964,45.9912333 C85.9811707,45.9912333 83.7684878,46.5914 83.7684878,47.0069 C83.7684878,47.1546333 84.1096098,47.3947 85.068439,47.6070667 L85.0223415,47.8009667 Z" id="路径" stroke-width="0.5" fill-rule="nonzero"></path>
                <path d="M95.9198049,44.9294 C95.114898,44.0123551 94.2156277,43.1829196 93.2369268,42.4548667 C91.1924578,42.191698 89.1227617,42.191698 87.0782927,42.4548667 C85.9653653,43.1620045 84.9328143,43.9886645 83.9989756,44.9201667 L83.8606829,44.7632 C84.8273458,43.8277175 85.8834429,42.9896141 87.0137561,42.2609667 C89.1060902,41.9747356 91.2275684,41.9747356 93.3199024,42.2609667 C94.3367715,42.9904025 95.265021,43.8363759 96.0857561,44.7816667 L95.9198049,44.9294 Z" id="路径" stroke-width="0.5" fill-rule="nonzero"></path>
                <path d="M84.8748293,45.9081333 C84.0635122,45.7327 83.5656585,45.5480333 83.5656585,45.1787 C83.5656585,44.3846333 86.8570244,43.9599 89.964,43.9599 C93.0709756,43.9599 96.3623415,44.3846333 96.3623415,45.1787 C96.3623415,45.4649333 95.9843415,45.6957667 95.2099024,45.8989 L95.1545854,45.705 C95.8921463,45.5111 96.1595122,45.3079667 96.1595122,45.1787 C96.1595122,44.7632 93.9468293,44.1630333 89.964,44.1630333 C85.9811707,44.1630333 83.7684878,44.7632 83.7684878,45.1787 C83.7684878,45.3726 84.1188293,45.5388 84.9117073,45.7142333 L84.8748293,45.9081333 Z" id="路径" stroke-width="0.5" fill-rule="nonzero"></path>
                <polygon id="矩形" stroke-width="0.5" fill-rule="nonzero" transform="translate(84.913017, 58.808642) rotate(-67.190000) translate(-84.913017, -58.808642) " points="83.1637479 58.7081401 86.662394 58.7062682 86.6622853 58.9091432 83.1636392 58.9110151"></polygon>
                <polygon id="矩形" stroke-width="0.5" fill-rule="nonzero" transform="translate(85.254876, 56.267962) rotate(-57.720000) translate(-85.254876, -56.267962) " points="83.6536452 56.1675872 86.856244 56.1654217 86.8561067 56.3683377 83.6535079 56.3705032"></polygon>
                <path d="M84.653561,59.3888 C83.8606829,59.2595333 83.4181463,59.0194667 83.3259512,58.6870667 C83.2337561,58.3546667 83.6117561,57.9576333 83.6209756,57.9391667 C83.9713171,57.5698333 85.2620488,56.7111333 89.6689756,56.7665333 L91.1440976,56.7665333 L91.1440976,56.9696667 L89.6689756,56.9696667 C85.2251707,56.9142667 84.0266341,57.8099 83.7684878,58.0869 C83.7684878,58.0869 83.4458049,58.3731333 83.519561,58.6316667 C83.5933171,58.8902 83.8145854,59.0471667 84.6812195,59.1856667 L84.653561,59.3888 Z" id="路径" stroke-width="0.5" fill-rule="nonzero"></path>
                <polygon id="矩形" stroke-width="0.5" fill-rule="nonzero" transform="translate(85.249358, 54.031263) rotate(-57.720000) translate(-85.249358, -54.031263) " points="83.6481274 53.9308873 86.8507262 53.9287219 86.8505889 54.1316379 83.6479901 54.1338033"></polygon>
                <path d="M84.653561,57.1543333 C83.8606829,57.0250667 83.4181463,56.7942333 83.3259512,56.4526 C83.2337561,56.1109667 83.6117561,55.7231667 83.6209756,55.7047 C83.952878,55.3538333 85.2159512,54.5320667 89.6689756,54.5320667 L89.6689756,54.5320667 C91.6788293,54.5320667 92.4348293,54.6059333 92.4348293,54.6059333 L92.4348293,54.8090667 C92.4348293,54.8090667 91.6788293,54.7352 89.6689756,54.7352 L89.6689756,54.7352 C85.1698537,54.7352 84.0174146,55.5939 83.7684878,55.8524333 C83.7684878,55.8524333 83.4458049,56.1386667 83.519561,56.3972 C83.5933171,56.6557333 83.8145854,56.8127 84.6812195,56.9604333 L84.653561,57.1543333 Z" id="路径" stroke-width="0.5" fill-rule="nonzero"></path>
                <polygon id="矩形" stroke-width="0.5" fill-rule="nonzero" transform="translate(85.260854, 51.799494) rotate(-57.720000) translate(-85.260854, -51.799494) " points="83.6596237 51.6991186 86.8622225 51.6969532 86.8620852 51.8998692 83.6594865 51.9020346"></polygon>
                <path d="M84.653561,54.9198667 C83.8606829,54.7906 83.4181463,54.5597667 83.3259512,54.2181333 C83.2337561,53.8765 83.6117561,53.4887 83.6209756,53.4702333 C83.952878,53.1193667 85.2067317,52.2976 89.567561,52.2976 L89.6689756,52.2976 C91.0132822,52.2229356 92.3617086,52.3003695 93.6886829,52.5284333 L93.6241463,52.7223333 C92.3171394,52.5099849 90.9914766,52.4357108 89.6689756,52.5007333 C85.1882927,52.5007333 84.0174146,53.3502 83.7684878,53.6179667 C83.7684878,53.6179667 83.4458049,53.9042 83.519561,54.1627333 C83.5933171,54.4212667 83.8145854,54.5782333 84.6812195,54.7259667 L84.653561,54.9198667 Z" id="路径" stroke-width="0.5" fill-rule="nonzero"></path>
                <polygon id="矩形" stroke-width="0.5" fill-rule="nonzero" transform="translate(85.258941, 49.481481) rotate(-57.720000) translate(-85.258941, -49.481481) " points="83.6577105 49.3811053 86.8603093 49.3789399 86.860172 49.5818559 83.6575732 49.5840213"></polygon>
                <path d="M84.672,52.5007333 C83.9989756,52.3160667 83.6301951,52.0852333 83.538,51.7713 C83.5017094,51.4970288 83.6056611,51.2228787 83.8145854,51.0418667 C84.3216585,50.5155667 86.8570244,49.9615667 90.2682439,49.9615667 C90.4341951,49.9615667 94.2602927,50.0631333 95.0716098,50.2662667 L95.0716098,50.4601667 C94.2787317,50.2662667 90.3512195,50.1647 90.3143415,50.1647 C86.7002927,50.1647 84.4507317,50.7741 84.0635122,51.1803667 C83.9713171,51.2819333 83.7684878,51.4943 83.8238049,51.7159 C83.879122,51.9375 84.0819512,52.1037 84.8195122,52.2976 L84.672,52.5007333 Z" id="路径" stroke-width="0.5" fill-rule="nonzero"></path>
                <polygon id="矩形" stroke-width="0.5" fill-rule="nonzero" transform="translate(86.543838, 60.107014) rotate(-8.760000) translate(-86.543838, -60.107014) " points="83.519756 60.0061328 89.5679662 60.0047681 89.5679205 60.2078944 83.5197102 60.2092591"></polygon>
                <polygon id="矩形" stroke-width="0.5" fill-rule="nonzero" transform="translate(6.967306, 33.733630) rotate(-77.010000) translate(-6.967306, -33.733630) " points="6.86749409 28.4136019 7.07061206 28.4135353 7.06711865 39.0536582 6.86400068 39.0537248"></polygon>
                <polygon id="矩形" stroke-width="0.5" fill-rule="nonzero" transform="translate(50.417375, 43.779798) rotate(-77.010000) translate(-50.417375, -43.779798) " points="50.3189086 34.3613864 50.5220265 34.3613198 50.5158419 53.19821 50.3127239 53.1982766"></polygon>
                <polygon id="路径" stroke-width="0.5" fill-rule="nonzero" points="58.3134146 44.5877667 51.5462927 43.3135667 45.9500488 41.1806667 46.0053659 40.9867667 57.1056585 42.9904 57.0687805 43.1935333 47.0379512 41.3745667 51.6016098 43.1196667 58.3502927 44.3846333"></polygon>
                <path d="M19.5084878,39.2786 C19.2506685,39.2782002 18.9938046,39.2472063 18.7432683,39.1862667 C17.3326829,38.8631 16.3000976,37.9213 16.3461951,36.9887333 L16.5490244,36.9887333 C16.5490244,37.8105 17.4709756,38.6876667 18.7893659,38.9831333 C19.6131793,39.2113754 20.4963544,39.0255274 21.1587805,38.4845333 L21.3062927,38.6230333 C20.8181541,39.0726854 20.1710288,39.3086586 19.5084878,39.2786 Z" id="路径" stroke-width="0.5" fill-rule="nonzero"></path>
                <path d="M39.1368293,42.8519 C38.9073032,42.8542804 38.6783004,42.8294862 38.4545854,42.7780333 C37.6352933,42.6427173 36.9045447,42.1836515 36.4262927,41.5038333 C36.2497722,41.2300448 36.2025602,40.8923107 36.2972195,40.5805 L36.2972195,40.4974 L36.3801951,40.4974 C36.3801951,40.4974 38.3716098,40.7928667 40.068,41.1345 C40.4991038,41.2241065 40.9216925,41.3507643 41.3310732,41.5130667 L41.4048293,41.5130667 L41.3402927,41.7069667 L41.3402927,41.7069667 C40.8401203,42.4301375 40.015201,42.8587707 39.1368293,42.8519 L39.1368293,42.8519 Z M36.4723902,40.719 C36.4248624,40.9548985 36.4711748,41.2000596 36.6014634,41.4022667 C37.053379,42.0308144 37.7369598,42.452877 38.5006829,42.5749 C39.4993094,42.843884 40.5609758,42.4785032 41.183561,41.6515667 C40.8234999,41.5182474 40.4535955,41.4132841 40.0772195,41.3376333 C38.574439,41.0421667 36.8688293,40.7836333 36.4723902,40.719 Z" id="形状" stroke-width="0.5" fill-rule="nonzero"></path>
                <path d="M34.8681951,41.2545333 C34.5578164,41.2505667 34.2487477,41.2134229 33.9462439,41.1437333 C32.489561,40.8113333 31.337122,39.8233667 31.374,38.9369667 L31.374,38.8354 L31.374,38.8354 C31.4293171,38.7153667 31.5030732,38.5861 31.5952683,38.5584 C32.5070956,38.4667358 33.4279602,38.5706064 34.2965854,38.8631 L34.2965854,38.8631 C35.6426341,39.1585667 36.5369268,39.3524667 36.7213171,39.8972333 C36.7612068,39.9623859 36.7612068,40.0444475 36.7213171,40.1096 L36.6567805,40.1096 C36.6319989,40.3971471 36.4840365,40.6598373 36.251122,40.8298 C35.8458953,41.1128461 35.3621962,41.2614029 34.8681951,41.2545333 L34.8681951,41.2545333 Z M31.5491707,39.057 C31.6137073,39.8141333 32.6555122,40.6451333 33.9646829,40.9036667 C34.6908022,41.1295037 35.4777292,41.0460178 36.1404878,40.6728333 C36.3193513,40.5470616 36.4392256,40.3536411 36.4723902,40.1373 C36.121837,40.0664284 35.779073,39.9612802 35.4490244,39.8233667 C34.1833965,39.4163426 32.8745335,39.1591358 31.5491707,39.057 L31.5491707,39.057 Z M31.5491707,38.8538667 C32.8845825,38.9766279 34.2020072,39.24918 35.4766829,39.6664 C35.8052259,39.8321078 36.1615816,39.9354181 36.5277073,39.9711 C36.3709756,39.5371333 35.4859024,39.334 34.2504878,39.0477667 L34.2504878,39.0477667 C33.4072016,38.7701907 32.5165166,38.6665405 31.6321463,38.7430667 L31.5491707,38.8538667 Z" id="形状" stroke-width="0.5" fill-rule="nonzero"></path>
                <path d="M27.8705854,39.9803333 C27.5601644,39.977012 27.2510266,39.9398599 26.9486341,39.8695333 C25.4827317,39.5371333 24.3302927,38.5491667 24.3763902,37.6627667 L24.3763902,37.5612 L24.3763902,37.5612 C24.4317073,37.4319333 24.5054634,37.3026667 24.5976585,37.2842 C25.5125279,37.1912077 26.4366769,37.2950942 27.3081951,37.5889 L27.3081951,37.5889 C28.6542439,37.8843667 29.5393171,38.0782667 29.7237073,38.6230333 C29.768415,38.6867421 29.768415,38.7716912 29.7237073,38.8354 C29.7058111,38.8417368 29.6862865,38.8417368 29.6683902,38.8354 C29.6388221,39.1211791 29.4876146,39.3802997 29.2535122,39.5463667 C28.8493855,39.832688 28.3655962,39.9845025 27.8705854,39.9803333 Z M24.57,37.7828 C24.6253171,38.5399333 25.6763415,39.3709333 26.9855122,39.6294667 C27.7116314,39.8553037 28.4985585,39.7718178 29.1613171,39.3986333 C29.3431981,39.2729938 29.461095,39.0739554 29.484,38.8538667 C29.1355929,38.7907874 28.7953962,38.6885754 28.4698537,38.5491667 C27.2042257,38.1421426 25.8953628,37.8849358 24.57,37.7828 L24.57,37.7828 Z M24.57,37.5796667 C25.9054118,37.7024279 27.2228365,37.97498 28.4975122,38.3922 C28.8256741,38.5504851 29.1776737,38.6534356 29.5393171,38.6969 C29.3825854,38.2537 28.4975122,38.0598 27.2713171,37.7735667 L27.2713171,37.7735667 C26.4322472,37.491317 25.5435976,37.3875382 24.6621951,37.4688667 C24.6227962,37.4976057 24.5911208,37.5356731 24.57,37.5796667 Z" id="形状" stroke-width="0.5" fill-rule="nonzero"></path>
                <path d="M21.4906829,38.6969 C21.1802714,38.6934331 20.8711493,38.6562828 20.5687317,38.5861 C19.1120488,38.2537 17.9596098,37.2657333 17.9964878,36.3885667 L17.9964878,36.287 L17.9964878,36.287 C17.9964878,36.1577333 18.125561,36.0284667 18.2177561,36.01 C19.1296104,35.9121782 20.0517893,36.016197 20.9190732,36.3147 L20.9190732,36.3147 C22.265122,36.6101667 23.1594146,36.8133 23.3438049,37.3580667 C23.3836946,37.4232192 23.3836946,37.5052808 23.3438049,37.5704333 L23.2792683,37.5704333 C23.2599969,37.8594806 23.1063897,38.1227137 22.8643902,38.2814 C22.4620172,38.5621804 21.9809788,38.7076783 21.4906829,38.6969 L21.4906829,38.6969 Z M18.1716585,36.5086 C18.2361951,37.2657333 19.278,38.0967333 20.5871707,38.3552667 C21.31329,38.5811037 22.1002171,38.4976178 22.7629756,38.1244333 C22.9439755,37.996535 23.0641027,37.7993648 23.094878,37.5796667 C22.7431238,37.518138 22.3996992,37.4158857 22.0715122,37.2749667 C20.8058843,36.8679426 19.4970213,36.6107358 18.1716585,36.5086 L18.1716585,36.5086 Z M18.2177561,36.3054667 C19.5538489,36.4236141 20.8717928,36.6962735 22.1452683,37.118 C22.4780372,37.2726704 22.8324817,37.3754265 23.1962927,37.4227 C23.039561,36.9795 22.1544878,36.7856 20.9190732,36.4993667 L20.9190732,36.4993667 C20.0768693,36.2168978 19.1851688,36.1131294 18.3007317,36.1946667 L18.2177561,36.3054667 Z" id="形状" stroke-width="0.5" fill-rule="nonzero"></path>
                <path d="M14.9540488,37.6350667 C14.6436373,37.6315998 14.3345152,37.5944495 14.0320976,37.5242667 C12.5754146,37.1918667 11.4229756,36.2039 11.4598537,35.3267333 L11.4598537,35.2159333 L11.4598537,35.2159333 C11.493833,35.0977734 11.5734754,34.9980712 11.681122,34.9389333 C12.5929493,34.8472691 13.5138139,34.9511397 14.382439,35.2436333 L14.382439,35.2436333 C15.7284878,35.5391 16.6227805,35.733 16.8071707,36.287 C16.8454189,36.3492936 16.8454189,36.4278398 16.8071707,36.4901333 L16.7426341,36.5363 C16.7107754,36.8213237 16.5600771,37.0795719 16.3277561,37.2472667 C15.9220883,37.5182561 15.4413119,37.6539801 14.9540488,37.6350667 Z M11.6350244,35.4375333 C11.699561,36.1946667 12.7413659,37.0256667 14.0505366,37.2842 C14.7779089,37.5072411 15.5648968,37.420409 16.2263415,37.0441333 C16.4068342,36.9199112 16.5271889,36.7257157 16.5582439,36.5086 C16.2076907,36.4377284 15.8649267,36.3325802 15.534878,36.1946667 C14.2777975,35.7928871 12.9783464,35.5388044 11.6626829,35.4375333 L11.6350244,35.4375333 Z M11.6350244,35.2344 C12.9713015,35.356764 14.2891146,35.6324945 15.5625366,36.0561667 C15.8923696,36.2169327 16.2483717,36.317013 16.613561,36.3516333 C16.4568293,35.9176667 15.5625366,35.7237667 14.3363415,35.4283 L14.3363415,35.4283 C13.4941376,35.1458311 12.6024371,35.0420627 11.718,35.1236 C11.718,35.1236 11.7087805,35.1882333 11.6626829,35.2344 L11.6350244,35.2344 Z" id="形状" stroke-width="0.5" fill-rule="nonzero"></path>
            </g>
        </g>
    </g>
</svg>