<?xml version="1.0" encoding="UTF-8"?>
<svg width="213px" height="34px" viewBox="0 0 213 34" version="1.1" xmlns="http://www.w3.org/2000/svg" xmlns:xlink="http://www.w3.org/1999/xlink">
    <!-- Generator: Sketch 57.1 (83088) - https://sketch.com -->
    <title>智慧智慧杆登录</title>
    <desc>Created with Sketch.</desc>
    <g id="页面-1" stroke="none" stroke-width="1" fill="none" fill-rule="evenodd">
        <path d="M17.674574,15.9892143 C17.7350962,15.8823569 17.7862798,15.7661607 17.828125,15.640625 L17.828125,16.0625 L17.674574,15.9892143 L17.674574,15.9892143 Z M17.674574,15.9892143 C17.5995016,16.1217613 17.5100605,16.2399395 17.40625,16.34375 C17.0312481,16.8125023 16.2812556,17.046875 15.15625,17.046875 L11.640625,15.359375 L11.640625,13.109375 L17.674574,15.9892143 L17.674574,15.9892143 Z M0.251434257,16.6923041 L0.109375,16.765625 L0.19017945,16.6040161 C0.211291738,16.6348335 0.231710005,16.6642628 0.251434257,16.6923041 L0.251434257,16.6923041 Z M0.19017945,16.6040161 C0.164288401,16.5662232 0.137353589,16.5263429 0.109375,16.484375 L0.25,16.484375 L0.19017945,16.6040161 L0.19017945,16.6040161 Z M0.251434257,16.6923041 L8.828125,12.265625 L3.0625,12.265625 C1.74999344,12.0781241 0.953126406,11.5625042 0.671875,10.71875 L0.671875,10.2265625 L0.671875,10.296875 L8.265625,10.296875 L8.265625,5.375 C7.51562125,5.18749906 6.95312687,4.76562828 6.578125,4.109375 L6.578125,3.6171875 L6.578125,3.6875 L16.984375,3.6875 L16.984375,5.375 L11.078125,5.375 L11.078125,10.296875 L17.546875,10.296875 L17.546875,12.265625 L11.078125,12.265625 L11.078125,13.109375 L3.34375,17.328125 C2.21874438,17.7031269 1.28125375,17.6093778 0.53125,17.046875 C0.462896089,16.9785211 0.36962472,16.8603315 0.251434257,16.6923041 L0.251434257,16.6923041 Z M0.548897164,6.62297784 L0.53125,6.640625 L0.53125,6.359375 C0.53125,6.45900779 0.537132367,6.54687532 0.548897164,6.62297784 L0.548897164,6.62297784 Z M0.548897164,6.62297784 L0.671875,6.5 L3.484375,6.5 L3.484375,1.859375 L6.4375,1.859375 L6.4375,8.328125 L3.0625,8.328125 C1.84374391,8.14062406 1.04687687,7.67187875 0.671875,6.921875 C0.611335462,6.86133546 0.570342976,6.76170358 0.548897164,6.62297784 L0.548897164,6.62297784 Z M20.9262868,14.09375 L20.921875,14.09375 L20.921875,13.953125 C20.921875,14.0029413 20.9233456,14.0498163 20.9262868,14.09375 L20.9262868,14.09375 Z M20.9262868,14.09375 L29.078125,14.09375 L29.078125,5.234375 L23.453125,5.234375 C22.1406184,5.14062453 21.3437514,4.625 21.0625,3.6875 C20.985355,3.61035496 20.9399508,3.46973101 20.9262868,3.265625 L31.890625,3.265625 L31.890625,16.0625 L23.453125,16.0625 C22.1406184,15.8749991 21.3437514,15.3593792 21.0625,14.515625 C20.985355,14.43848 20.9399508,14.297856 20.9262868,14.09375 L20.9262868,14.09375 Z M20.9262868,3.265625 L20.921875,3.265625 L20.921875,3.125 C20.921875,3.17481629 20.9233456,3.22169128 20.9262868,3.265625 L20.9262868,3.265625 Z M6.296875,24.2890625 L6.296875,24.359375 L27.25,24.359375 L27.25,20.28125 L8.6875,20.28125 C7.37499344,20.0937491 6.57812641,19.5781292 6.296875,18.734375 L6.296875,18.2421875 L6.296875,18.3125 L30.0625,18.3125 L30.0625,31.8125 L8.6875,31.8125 C7.37499344,31.7187495 6.57812641,31.2500042 6.296875,30.40625 L6.296875,29.9140625 L6.296875,29.984375 L27.25,29.984375 L27.25,26.328125 L8.6875,26.328125 C7.37499344,26.1406241 6.57812641,25.6250042 6.296875,24.78125 L6.296875,24.2890625 Z M6.015625,31.8125 L3.203125,31.8125 L3.203125,18.3125 L6.015625,18.3125 L6.015625,31.8125 Z M20.78125,16.0625 L17.96875,16.0625 L17.96875,3.265625 L20.78125,3.265625 L20.78125,16.0625 Z M35.4711538,31.3149038 L35.40625,31.390625 L35.40625,31.25 L35.4711538,31.3149038 L35.4711538,31.3149038 Z M35.4711538,31.3149038 L39.625,26.46875 L42.578125,26.46875 L38.5,31.390625 C37.8437467,31.8593773 37.0937542,32.0000009 36.25,31.8125 C35.9687486,31.7187495 35.7812505,31.6250005 35.6875,31.53125 L35.4711538,31.3149038 L35.4711538,31.3149038 Z M55.571875,28.6625 L55.65625,28.578125 L55.65625,28.71875 L55.571875,28.6625 L55.571875,28.6625 Z M55.571875,28.6625 L55.515625,28.71875 C55.515625,28.8125005 55.4218759,28.9062495 55.234375,29 C54.4843712,29.1875 53.6875,29.1406264 52.84375,28.859375 L49.1875,26.1875 L51.859375,26.1875 L55.571875,28.6625 L55.571875,28.6625 Z M68.5292969,31.8769531 L68.3125,32.09375 C68.2187495,32.1875005 68.0312514,32.2812495 67.75,32.375 C66.9062458,32.5625009 66.1562533,32.3750028 65.5,31.8125 L61.140625,26.46875 L63.953125,26.46875 L68.5292969,31.8769531 Z M68.5292969,31.8769531 L68.59375,31.8125 L68.59375,31.953125 L68.5292969,31.8769531 Z M39.484375,17.609375 C38.6406208,17.3281236 38.0312519,16.9062528 37.65625,16.34375 C37.5624995,16.2499995 37.515625,16.1562505 37.515625,16.0625 L37.515625,15.78125 L65.5,15.78125 L65.5,25.0625 L39.484375,25.0625 C38.6406208,24.78125 38.0312519,24.3593778 37.65625,23.796875 L37.65625,23.234375 L62.828125,23.234375 L62.828125,21.265625 L39.625,21.265625 C38.7812458,20.9843736 38.1718769,20.5625028 37.796875,20 L37.796875,19.4375 L62.828125,19.4375 L62.828125,17.609375 L39.484375,17.609375 Z M38.78125,5.515625 C37.9374958,5.32812406 37.3281269,4.90625328 36.953125,4.25 L36.8125,4.109375 L36.8125,3.828125 L36.953125,3.6875 L42.578125,3.6875 L42.578125,2 L45.25,2 L45.25,3.6875 L51.4375,3.6875 L51.4375,5.515625 L45.25,5.515625 L45.25,7.203125 L51.15625,7.203125 L51.15625,9.03125 L45.25,9.03125 L45.25,11.421875 L51.578125,11.421875 L51.578125,13.25 L45.25,13.25 L45.25,14.796875 L42.578125,14.796875 L42.578125,13.25 L38.21875,13.25 C37.3749958,12.9687486 36.7656269,12.5468778 36.390625,11.984375 L36.390625,11.421875 L42.578125,11.421875 L42.578125,9.03125 L38.78125,9.03125 C37.9374958,8.84374906 37.3281269,8.42187828 36.953125,7.765625 L36.8125,7.625 L36.8125,7.34375 L36.953125,7.203125 L42.578125,7.203125 L42.578125,5.515625 L38.78125,5.515625 Z M53.828125,13.25 C52.9843708,12.9687486 52.3750019,12.5468778 52,11.984375 L52,11.421875 L58.328125,11.421875 L58.328125,9.03125 L54.109375,9.03125 C53.2656208,8.84374906 52.7031264,8.42187828 52.421875,7.765625 L52.28125,7.625 L52.28125,7.34375 L52.421875,7.203125 L58.328125,7.203125 L58.328125,5.515625 L53.828125,5.515625 C52.9843708,5.32812406 52.3750019,4.90625328 52,4.25 L52,3.6875 L58.328125,3.6875 L58.328125,2 L61,2 L61,3.6875 L67.046875,3.6875 L67.046875,5.515625 L61,5.515625 L61,7.203125 L66.484375,7.203125 L66.484375,9.03125 L61,9.03125 L61,11.421875 L67.328125,11.421875 L67.328125,13.25 L61,13.25 L61,14.796875 L58.328125,14.796875 L58.328125,13.25 L53.828125,13.25 Z M43.140625,32.09375 L43.140625,26.609375 L45.953125,26.609375 L45.953125,30.125 L58.46875,30.125 L58.46875,26.890625 L58.75,26.890625 C59.1250019,26.890625 59.4531236,26.9374995 59.734375,27.03125 C60.5781292,27.4062519 61.0937491,27.9218717 61.28125,28.578125 L61.28125,32.09375 L43.140625,32.09375 Z M82.9375,27.875 L83.078125,27.875 L82.9375,28.015625 L82.9375,27.875 Z M71.6875,31.8125 L76.046875,20 L76.046875,2.140625 L78.859375,2.140625 L78.859375,19.859375 L82.9375,27.875 C82.5624981,28.0625009 82.2343764,28.15625 81.953125,28.15625 C80.8281194,28.15625 79.8906288,27.640625 79.140625,26.609375 L77.59375,23.65625 L75.203125,30.265625 C74.7343727,31.2968802 73.8906311,31.8593745 72.671875,31.953125 C72.3906236,32.0468755 72.0625019,32.0000003 71.6875,31.8125 Z M82.9375,3.6875 L82.9375,3.125 L104.171875,3.125 L104.171875,5.09375 L98.96875,5.09375 L98.96875,21.125 C98.96875,25.1562702 97.9843848,28.4374873 96.015625,30.96875 C94.7031184,32.1875061 93.8125023,32.8437495 93.34375,32.9375 C95.2187594,31.625 96.15625,27.7344073 96.15625,21.265625 L96.15625,5.09375 L85.328125,5.09375 C84.2031194,4.90624906 83.4062523,4.43750375 82.9375,3.6875 Z M74.5,6.640625 L74.5,14.515625 C74.4062495,15.4531297 73.9843788,16.1093731 73.234375,16.484375 C72.9531236,16.5781255 72.6250019,16.625 72.25,16.625 L72.109375,16.625 L72.109375,6.640625 L74.5,6.640625 Z M82.65625,6.640625 L82.65625,16.625 L82.515625,16.625 C82.1406231,16.625 81.8593759,16.5781255 81.671875,16.484375 C80.8281208,16.1093731 80.3593755,15.4531297 80.265625,14.515625 L80.265625,6.640625 L82.65625,6.640625 Z M129.203125,5.09375 L123.015625,5.09375 C121.890619,4.90624906 121.093752,4.43750375 120.625,3.6875 L120.625,3.125 L140.03125,3.125 L140.03125,5.09375 L132.015625,5.09375 L132.015625,16.484375 L141.15625,16.484375 L141.15625,18.453125 L132.015625,18.453125 L132.015625,21.125 C132.015625,25.1562702 130.984385,28.4374873 128.921875,30.96875 C127.703119,32.1875061 126.859377,32.8437495 126.390625,32.9375 C128.265634,31.625 129.203125,27.7344073 129.203125,21.265625 L129.203125,18.453125 L123.859375,18.453125 C122.640619,18.3593745 121.843752,17.8906292 121.46875,17.046875 L121.46875,16.484375 L129.203125,16.484375 L129.203125,5.09375 Z M108.671875,7.34375 L108.671875,7.203125 L108.671875,7.2734375 L108.671875,7.203125 L113.59375,7.203125 L113.59375,1.859375 L116.265625,1.859375 L116.265625,7.203125 L121.046875,7.203125 L121.046875,9.171875 L116.265625,9.171875 L116.265625,11.984375 L118.375,11.984375 L119.896293,19.5908422 C119.534058,19.769865 119.261338,19.859375 119.078125,19.859375 C118.14062,19.6718741 117.437502,19.0625052 116.96875,18.03125 L116.265625,13.109375 L116.125,29.5625 C116.125,30.3125038 116.078125,30.8281236 115.984375,31.109375 C115.421872,32.4218816 114.67188,33.078125 113.734375,33.078125 L113.3125,33.078125 L113.3125,16.90625 C112.656247,20.3750173 111.296885,23.1406147 109.234375,25.203125 C107.828118,26.1406297 106.984376,26.6562495 106.703125,26.75 C108.484384,25.8124953 109.89062,22.1562819 110.921875,15.78125 L112.046875,9.171875 L110.78125,9.171875 C109.843745,8.98437406 109.140627,8.46875422 108.671875,7.625 L108.671875,7.2734375 L108.671875,7.34375 Z M108.671875,7.203125 L108.671875,7.0625 L108.671875,7.203125 Z M119.896293,19.5908422 C119.904772,19.5866522 119.913299,19.5824131 119.921875,19.578125 L120.0625,19.578125 L119.921875,19.71875 L119.896293,19.5908422 L119.896293,19.5908422 Z M148.328125,16.34375 L148.046875,16.34375 L148.328125,16.0363372 L148.328125,16.34375 Z M148.328125,16.0363372 L148.328125,15.921875 L147.203125,17.1875 C146.17187,18.0312542 145.093756,18.2656269 143.96875,17.890625 C143.761377,17.890625 143.554006,17.8141757 143.346634,17.6612755 L149.171875,11.28125 L144.8125,6.359375 L148.046875,6.359375 L150.859375,9.3125 L154.65625,5.09375 L147.0625,5.09375 C145.843744,4.81249859 145.046877,4.25000422 144.671875,3.40625 C144.603245,3.33761983 144.559735,3.24387038 144.541346,3.125 L160.140625,3.125 L148.328125,16.0363372 L148.328125,16.0363372 Z M143.346634,17.6612755 L143.265625,17.75 L143.265625,17.609375 L143.125,17.46875 C143.198878,17.5426284 143.272756,17.6068035 143.346634,17.6612755 L143.346634,17.6612755 Z M144.541346,3.125 L144.53125,3.125 L144.53125,2.984375 C144.53125,3.0346156 144.534615,3.08149057 144.541346,3.125 L144.541346,3.125 Z M148.328125,16.34375 L151.140625,16.34375 L151.140625,24.078125 L148.328125,24.078125 L148.328125,16.34375 Z M176.579996,17.7246671 C176.671816,17.6589054 176.77015,17.5735998 176.875,17.46875 L176.734375,17.609375 L176.734375,17.890625 L176.579996,17.7246671 L176.579996,17.7246671 Z M176.579996,17.7246671 C176.425516,17.8353061 176.289476,17.890625 176.171875,17.890625 C175.14062,18.1718764 174.10938,17.9843783 173.078125,17.328125 L160.984375,4.53125 L160.984375,0.875 L165.484375,5.65625 L167.875,2.5625 L171.109375,2.5625 L167.03125,7.625 L169.421875,9.875 L172.796875,5.796875 L176.03125,5.796875 L171.109375,11.84375 L176.579996,17.7246671 L176.579996,17.7246671 Z M168.15625,22.109375 L168.15625,18.3125 L154.65625,18.3125 C153.999997,18.3125 153.437502,18.2187509 152.96875,18.03125 C151.937495,17.5624977 151.421875,17.0000033 151.421875,16.34375 L170.96875,16.34375 L170.96875,24.078125 L154.9375,24.078125 C154.187496,24.078125 153.625002,23.9843759 153.25,23.796875 C152.218745,23.3281227 151.703125,22.7656283 151.703125,22.109375 L168.15625,22.109375 Z M153.953125,10.71875 L165.625,10.71875 L165.625,12.6875 L157.46875,12.6875 L157.46875,12.546875 L157.046875,12.546875 C156.390622,12.546875 155.875002,12.5000005 155.5,12.40625 C154.468745,11.9374977 153.953125,11.3750033 153.953125,10.71875 Z M144.8125,29.84375 L144.8125,29.703125 L144.8125,29.84375 Z M144.8125,29.84375 L144.8125,29.984375 L151,29.984375 L151,25.0625 L151.421875,25.0625 C152.45313,25.0625 153.203123,25.6249944 153.671875,26.75 C153.765625,27.0312514 153.8125,27.4531222 153.8125,28.015625 L153.8125,29.984375 L165.0625,29.984375 L165.0625,25.0625 L165.484375,25.0625 C166.51563,25.0625 167.265623,25.6249944 167.734375,26.75 C167.828125,27.0312514 167.875,27.4531222 167.875,28.015625 L167.875,29.984375 L174.625,29.984375 L174.625,31.8125 L147.203125,31.8125 C146.078119,31.5312486 145.281252,31.0156287 144.8125,30.265625 L144.8125,29.84375 Z M188.973162,29.984375 L188.96875,29.984375 L188.96875,29.84375 C188.96875,29.8935663 188.970221,29.9404413 188.973162,29.984375 L188.973162,29.984375 Z M188.973162,29.984375 L194.171875,29.984375 L194.171875,24.5 L182.921875,30.96875 C181.796869,31.4375023 180.76563,31.3437533 179.828125,30.6875 C179.727338,30.6371065 179.640096,30.5596259 179.566397,30.4550573 L189.953125,24.5 L182.921875,20.28125 C182.359372,19.9062481 181.984376,19.5781264 181.796875,19.296875 C181.234372,18.4531208 181.093749,17.7500028 181.375,17.1875 L181.515625,17.046875 L181.9375,16.90625 L191.78125,23.234375 L194.171875,21.6875 L194.171875,15.921875 L183.34375,15.921875 C182.124994,15.8281245 181.328127,15.3125047 180.953125,14.375 C180.882812,14.2343742 180.838867,14.09375 180.821289,13.953125 L205,13.953125 L205,10.578125 L185.59375,10.578125 C184.374994,10.3906241 183.578127,9.82812969 183.203125,8.890625 C183.134495,8.82199483 183.090985,8.72824538 183.072596,8.609375 L205,8.609375 L205,5.65625 L185.03125,5.65625 C183.812494,5.46874906 183.015627,4.95312922 182.640625,4.109375 C182.56348,4.03222996 182.518076,3.89160601 182.504412,3.6875 L207.8125,3.6875 L207.8125,13.953125 L211.328125,13.953125 L211.328125,15.921875 L196.984375,15.921875 L196.984375,20.140625 L200.359375,22.53125 L209.078125,17.046875 L209.5,17.1875 L209.640625,17.328125 C209.921876,17.8906278 209.781253,18.5937458 209.21875,19.4375 C209.031249,19.7187514 208.656253,20.046875 208.09375,20.421875 L202.046875,23.9375 L206.546875,27.03125 C209.265639,28.7187584 211.234369,29.3281273 212.453125,28.859375 C212.078123,29.3281273 211.281256,29.7499981 210.0625,30.125 C208.187491,30.3125009 206.359384,29.7500066 204.578125,28.4375 L196.984375,23.09375 L196.984375,31.8125 L196.5625,31.8125 L196.5625,31.953125 L191.5,31.953125 C190.281244,31.7656241 189.484377,31.2500042 189.109375,30.40625 C189.03223,30.329105 188.986826,30.188481 188.973162,29.984375 L188.973162,29.984375 Z M179.566397,30.4550573 L179.40625,30.546875 L179.40625,30.125 C179.449607,30.2550709 179.502989,30.3650899 179.566397,30.4550573 L179.566397,30.4550573 Z M180.821289,13.953125 L180.8125,13.953125 L180.8125,13.8125 C180.8125,13.8593751 180.81543,13.9062501 180.821289,13.953125 L180.821289,13.953125 Z M183.072596,8.609375 L183.0625,8.609375 L183.0625,8.46875 C183.0625,8.5189906 183.065865,8.56586557 183.072596,8.609375 L183.072596,8.609375 Z M182.504412,3.6875 L182.5,3.6875 L182.5,3.546875 C182.5,3.59669129 182.501471,3.64356628 182.504412,3.6875 L182.504412,3.6875 Z" id="智慧智慧杆登录" fill="#DDFDFF" fill-rule="nonzero"></path>
    </g>
</svg>