<?xml version="1.0" encoding="UTF-8"?>
<svg width="131px" height="540px" viewBox="0 0 131 540" version="1.1" xmlns="http://www.w3.org/2000/svg" xmlns:xlink="http://www.w3.org/1999/xlink">
    <!-- Generator: Sketch 57.1 (83088) - https://sketch.com -->
    <title>智慧杆2</title>
    <desc>Created with Sketch.</desc>
    <g id="页面-1" stroke="none" stroke-width="1" fill="none" fill-rule="evenodd">
        <g id="智慧杆2" transform="translate(1.000000, 0.000000)" fill="#DDFDFF" fill-rule="nonzero">
            <path d="M78.5,537.25 C86.1697815,537.25 92.25,536.124034 92.25,534.5 C92.25,532.875966 86.1697815,531.75 78.5,531.75 C70.8302185,531.75 64.75,532.875966 64.75,534.5 C64.75,536.124034 70.8302185,537.25 78.5,537.25 Z M78.5,536.75 C71.2580932,536.75 65.25,535.63739 65.25,534.5 C65.25,533.36261 71.2580932,532.25 78.5,532.25 C85.7419068,532.25 91.75,533.36261 91.75,534.5 C91.75,535.63739 85.7419068,536.75 78.5,536.75 Z" id="椭圆形"></path>
            <path d="M64.7505074,536.46052 C64.75,538.112815 70.8295516,539.25 78.5,539.25 C86.1704484,539.25 92.25,538.112815 92.25,536.47644 C92.2344374,536.296972 92.1772834,536.13521 92.0853889,535.99816 C92.1784367,535.864527 92.2356395,535.708352 92.2491579,535.544062 L92.25,535.52356 C92.25,533.887859 86.1634837,532.75 78.5,532.75 C70.8365163,532.75 64.75,533.887859 64.75,535.52356 C64.7592792,535.698786 64.814176,535.860695 64.9066499,535.997553 C64.8156322,536.134959 64.761125,536.294121 64.7505074,536.46052 Z M91.5924288,535.801983 L91.3649024,535.989842 L91.5875735,536.183432 C91.6819415,536.265475 91.7400959,536.378243 91.7510167,536.498964 C91.75,537.627032 85.7464559,538.75 78.5,538.75 C71.2535441,538.75 65.25,537.627032 65.25,536.47644 C65.2570323,536.374197 65.3119235,536.262919 65.4033838,536.181889 L65.6202689,535.989739 L65.398413,535.803351 C65.3091258,535.728338 65.2557448,535.622473 65.2496316,535.509993 C65.25,534.37369 71.2607215,533.25 78.5,533.25 C85.7182411,533.25 91.7150552,534.367168 91.7498478,535.513536 C91.7378842,535.624803 91.6818829,535.728125 91.5924288,535.801983 Z" id="路径"></path>
            <path d="M82.6373275,70.0938581 C82.9044734,70.0166834 83.2142734,69.9259227 83.5631754,69.8221814 C84.5597208,69.5258723 85.6700269,69.1849123 86.8656875,68.8041401 C90.2821441,67.7161296 93.6987431,66.527026 96.8885733,65.275335 C102.41182,63.10801 106.661982,60.9861515 109.149683,58.984426 C109.319351,58.8479032 109.480556,58.7120843 109.633193,58.5769699 C109.828348,58.4042185 110.532836,57.7827735 110.641953,57.6863425 C111.05947,57.317367 111.394545,57.0192952 111.724657,56.7224152 C112.573255,55.9592455 113.311032,55.2729098 114.014645,54.5854323 C117.911353,50.7780884 120.389355,47.2617163 121.298327,43.5463285 C122.45575,38.815402 120.866292,34.1607512 116.002173,29.5774439 C115.924788,29.5167442 115.815824,29.4355514 115.659963,29.3223249 C115.400977,29.1341822 115.104258,28.9246865 114.774369,28.6991662 C113.832166,28.0550516 112.812274,27.4109924 111.750996,26.8095852 C110.301406,25.9881285 108.889457,25.3121481 107.556615,24.8316803 C107.098564,24.6665605 106.653031,24.5258436 106.221136,24.4109841 C104.43026,23.9347125 103.356792,23.4516148 101.628413,22.4618911 C100.512707,21.8230029 100.468713,21.7981892 100.00318,21.5555723 C98.7980584,20.9275116 97.5787847,20.4340578 96.0149018,19.9828977 C91.5775794,18.7027874 58.060276,14.1593434 46.9225658,13.1149439 C43.8780838,12.8294583 38.6023487,12.3426927 31.7210162,11.7113747 L31.5601186,11.6966139 C27.5727579,11.3308244 23.3005927,10.9398195 19.0284284,10.5494226 C17.5331717,10.4127837 16.1447188,10.2859807 14.8986707,10.1722416 C13.815432,10.073382 13.6477356,10.0580775 13.4498136,10.0400248 L7.53105457,1.33634721 C7.6319146,1.35217325 7.75594755,1.37163578 7.91040987,1.39587311 C8.68416923,1.51733962 9.58173429,1.65840161 10.5927878,1.81749284 C13.4815268,2.27204154 16.7004134,2.77991256 20.1669089,3.32857593 C30.0711623,4.8961825 39.975407,6.47660196 49.2193113,7.96959079 C49.8999904,8.0795277 50.5751011,8.18867164 51.2444708,8.29699642 C72.1651494,11.6826108 86.1650867,14.05269 90.2487702,14.9519 C92.2910457,15.4016005 94.2174419,15.9026326 96.0283358,16.4460998 C98.8432501,17.2908836 101.247362,18.1955522 103.243204,19.0995992 C103.940516,19.4154575 104.5367,19.7084681 105.032069,19.9710673 C105.327666,20.1277654 105.523071,20.2389236 105.618596,20.2969775 C105.831666,20.3661405 106.115561,20.4492411 106.513792,20.5719496 C107.17848,20.7767624 107.919374,21.0182378 108.717371,21.2948868 C110.997058,22.0852068 113.276553,22.9984694 115.402605,24.0223493 C116.946395,24.7658192 118.351292,25.541248 119.585231,26.3456757 C125.381249,30.124206 128.747901,34.7604307 128.747901,39.0376593 C128.747901,39.1534773 128.748164,39.2471606 128.748952,39.4585662 C128.761615,42.8677714 128.432919,44.7258424 126.84855,47.6832126 C124.680075,51.7308736 120.394629,56.5547496 113.250332,62.6287931 C94.3827821,78.6698839 90.9211758,82.2056489 87.5158998,89.864409 C86.0727186,93.1102483 85.0994877,99.9089481 84.5052034,109.231799 C84.2233226,113.653813 84.0442577,118.38706 83.9479223,123.155498 C83.9128673,124.890659 83.8909769,126.530937 83.8797459,128.041791 C83.8722438,129.051019 83.8703923,129.861713 83.8716874,130.439328 L83.8720233,130.552753 L83.8720209,264.543567 L83.8720209,264.738901 L118.005993,273.24732 C118.129436,273.263812 118.302878,273.301253 118.530173,273.3803 C118.913557,273.51363 119.297526,273.718067 119.655838,274.00809 C120.687562,274.843184 121.309791,276.208571 121.309791,278.251316 L121.309791,345.306398 L121.311994,345.34652 C121.339368,345.868367 121.157451,346.561811 120.57008,347.242977 C119.979729,347.927599 119.056496,348.474825 117.733312,348.827755 C116.101071,349.263119 110.172595,350.687703 101.296063,352.788661 L101.035302,352.850373 C97.283091,353.738291 93.2628364,354.685858 89.2425777,355.630906 C87.835484,355.961674 86.528898,356.2685 85.3563232,356.543614 C84.7030347,356.696868 84.7030347,356.696868 84.2675143,356.798984 L83.882265,356.889283 L83.6883941,356.934704 L84.49479,535.10298 C83.8761273,535.446517 83.1942161,535.659932 82.490996,535.730623 L82.490996,509.691873 L81.990996,509.691873 L81.990996,536.26271 L82.2533832,536.249693 C83.1774329,536.203851 84.0764349,535.933703 84.8727438,535.462581 L84.9960924,535.389604 L84.1901913,357.330659 L84.3816421,357.285785 C84.8172019,357.18366 84.8172019,357.18366 85.4705337,357.030395 C86.6431748,356.755266 87.9498293,356.448424 89.3569947,356.117639 C93.3774761,355.172539 97.3979616,354.224917 101.150441,353.336935 L101.411224,353.275218 C110.29605,351.172298 116.222911,349.748101 117.86217,349.310865 C119.278648,348.933051 120.289711,348.333765 120.948741,347.569498 C121.630173,346.77925 121.844901,345.960737 121.811307,345.320328 L121.808551,345.281528 L121.809791,278.251316 C121.809791,276.060786 121.12202,274.551578 119.970412,273.619447 C119.564557,273.290942 119.129777,273.059452 118.694411,272.908044 C118.430456,272.816248 118.221815,272.771208 118.095498,272.756435 L84.3720209,264.348246 L84.3720209,130.551666 L84.3716862,130.438207 C84.3703946,129.862156 84.3722424,129.053068 84.3797321,128.045508 C84.3909478,126.536709 84.41281,124.898547 84.4478203,123.165597 C84.5440201,118.403876 84.7228212,113.677599 85.0041907,109.263607 C85.5944559,100.003804 86.5629139,93.2384465 87.972775,90.0675471 C91.3349578,82.5057074 94.7706945,78.9963661 113.574199,63.0097262 C120.76209,56.8986197 125.086705,52.0306522 127.289287,47.9193306 C128.919663,44.8760813 129.261893,42.9415114 129.248949,39.456709 C129.248162,39.2455954 129.247901,39.152645 129.247901,39.0376593 C129.247901,34.5616315 125.781815,29.7884761 119.85829,25.9268214 C118.604945,25.1097426 117.181578,24.3241195 115.619552,23.5718672 C113.474447,22.5388116 111.177701,21.6186378 108.881148,20.8224705 C108.077461,20.5438489 107.331078,20.3005845 106.661028,20.0941195 C106.258417,19.9700614 105.970282,19.8857196 105.815667,19.8425473 C105.774454,19.8066033 105.570552,19.690612 105.266254,19.5293006 C104.761797,19.2618842 104.156319,18.9643058 103.449509,18.6441453 C101.433571,17.7309956 99.0085734,16.8184676 96.172058,15.9672012 C94.349267,15.4201635 92.4107973,14.9159912 90.3562923,14.4635978 C86.258595,13.5613021 72.2607324,11.1915741 51.3243471,7.80341788 C50.6549256,7.69508471 49.9797636,7.58593248 49.2990335,7.47598733 C40.0545499,5.98290493 30.1498076,4.40240608 20.2450739,2.8347235 C16.7784239,2.28603567 13.5593897,1.77814136 10.6705075,1.32357013 C9.65939354,1.16446938 8.76176915,1.02339807 7.98795139,0.901922393 C7.20380499,0.778878699 7.20380499,0.778878699 7.03869279,0.753012413 L6.46902433,0.66376882 L13.1027662,10.4188462 L13.2867883,10.5272312 C13.5715888,10.5532061 13.5715888,10.5532061 14.8532197,10.6701715 C16.0992517,10.7839092 17.487688,10.9107106 18.9829273,11.0473479 C23.2550374,11.4377399 27.5271465,11.8287396 31.5144418,12.1945231 L31.6753362,12.2092837 C38.5563396,12.8405714 43.831844,13.3273158 46.8758848,13.61276 C57.9801688,14.6540251 91.4804787,19.1951655 95.8763101,20.4633062 C97.4075543,20.9050504 98.5959404,21.3860038 99.7720992,21.9989701 C100.229018,22.2370975 100.27199,22.2613355 101.37995,22.8957877 C103.142818,23.9052607 104.253379,24.4050517 106.092632,24.8941885 C106.510153,25.0052256 106.942066,25.1416408 107.387054,25.3020515 C108.690429,25.7718967 110.077729,26.4360763 111.504485,27.2445934 C112.55265,27.8385699 113.560902,28.4752788 114.492192,29.1119323 C114.818026,29.3346809 115.110862,29.5414349 115.366092,29.7268495 C115.518762,29.8377574 115.624653,29.9166607 115.679168,29.9582167 C124.28357,38.0677442 122.423608,45.6702683 113.665217,54.2278019 C112.967061,54.9099466 112.234152,55.5917538 111.390312,56.3506444 C111.061437,56.6464118 110.727373,56.9435847 110.310851,57.3116811 C110.202035,57.4078458 109.49733,58.0294818 109.301783,58.2025808 C109.155135,58.332394 108.999913,58.4631717 108.836233,58.5948766 C106.398678,60.5562518 102.184986,62.659903 96.7059312,64.8098869 C93.5273993,66.0571445 90.1207531,67.2427841 86.7139646,68.3277158 C85.5214895,68.7074735 84.4142408,69.0474946 83.4206731,69.3429183 C83.0730356,69.4462836 82.7644789,69.5366801 82.4985588,69.6135007 C82.3391953,69.6595386 82.2295757,69.6907879 82.1732556,69.7066416 L81.990996,69.7579462 L81.990996,440.056509 L82.490996,440.056509 L82.490996,70.1360012 C82.5339237,70.1236812 82.5827474,70.1096256 82.6373275,70.0938581 Z" id="路径"></path>
            <path d="M56.8744544,497.742483 C56.9211603,497.769605 57.0112668,497.82157 57.1431305,497.897061 C57.3626407,498.022729 57.6191865,498.168461 57.9105107,498.332586 C58.7425796,498.801352 59.68666,499.323624 60.7246988,499.886034 C63.6904424,501.492874 66.8151872,503.099714 69.9546724,504.599648 C72.0617058,505.606313 74.1056186,506.530644 76.062581,507.354928 C78.9420325,508.567771 81.5813468,509.542318 83.9288103,510.23965 L84.25,510.335062 L84.25,436.725739 L83.7685323,437.90554 C83.7181466,438.029006 83.5775833,438.279815 83.3122497,438.642117 C82.8612472,439.257941 82.2163385,439.952984 81.3428539,440.71109 C78.8301575,442.891882 74.9884057,445.129144 69.5421421,447.291856 C65.2543094,448.994555 62.1360206,449.960725 60.0226283,450.321716 C58.5163365,450.579007 57.6750946,450.507096 57.3361592,450.264554 C57.2632084,450.21235 57.249211,450.184548 57.2496022,450.191473 L56.75,450.205571 L56.75,497.67021 L56.8744544,497.742483 Z M57.25,450.789182 C58.5990215,451.414007 62.3556362,450.683598 69.7266751,447.756558 C75.2226158,445.574119 79.1127188,443.308699 81.670587,441.088702 C82.5717999,440.306531 83.2421634,439.584054 83.7156401,438.937542 C83.7273018,438.921619 83.7387544,438.905871 83.75,438.890302 L83.75,509.663755 C81.5027901,508.979727 78.9894902,508.045217 76.2566696,506.894136 C74.3073613,506.073075 72.2705108,505.151939 70.1702179,504.148494 C67.0390323,502.652525 63.921645,501.049468 60.9628857,499.446412 C59.9273484,498.885358 58.9856691,498.364414 58.1559306,497.896961 C57.8656223,497.733408 57.6100748,497.588244 57.391548,497.463139 C57.3371703,497.432008 57.2899191,497.404892 57.25,497.381935 L57.25,450.789182 Z" id="路径"></path>
            <path d="M72.8446434,504.60059 L72.7493481,535.824515 L72.9606781,535.858173 C73.0388661,535.870626 73.1847254,535.892176 73.3896284,535.919783 C73.7302199,535.965673 74.112554,536.011534 74.5280188,536.054327 C76.016472,536.207638 77.5257982,536.28277 78.9367699,536.236888 C80.119971,536.198414 81.1722013,536.075282 82.0604677,535.853862 L82.25,535.806617 L82.25,508.66203 L82.0851754,508.6023 C79.3642848,507.616297 76.3521637,506.310546 73.2029783,504.775282 L72.8446434,504.60059 Z M81.75,509.012398 L81.75,535.413791 C80.9397225,535.597573 79.9868075,535.702479 78.9205197,535.737153 C77.5349549,535.782208 76.0470502,535.708142 74.5792477,535.556958 C74.1691646,535.51472 73.7919831,535.469476 73.4563923,535.424261 C73.3788713,535.413816 73.3101271,535.404279 73.2506588,535.395824 L73.3422099,505.398709 C76.3133648,506.835507 79.1585607,508.065197 81.75,509.012398 Z" id="路径"></path>
            <path d="M73.3576592,185.19507 L53.75,185.19507 L53.75,188.655011 L73.3568744,188.655011 L72.5698527,439.730131 L73.0698503,439.731698 L73.8584441,188.155011 L54.25,188.155011 L54.25,185.69507 L73.8576592,185.69507 L73.8576592,57.2393603 C76.3169867,55.9202126 79.2906725,55.9202126 81.75,57.2393623 L81.75,440 L82.25,440 L82.25,56.9446303 L82.1220191,56.8730625 C79.4442701,55.3756458 76.1633891,55.3756458 73.4856401,56.8730625 L73.3576592,56.9446303 L73.3576592,185.19507 Z" id="路径"></path>
            <path d="M56.8458879,457.81076 L57.0460751,457.770609 C57.0656849,457.766799 57.0656849,457.766799 57.1223422,457.759406 C57.4457643,457.72331 57.8172739,457.774686 58.1742368,457.984359 C58.8540106,458.383643 59.25,459.240276 59.25,460.635395 L59.2413663,485.947569 C59.221423,486.021473 59.1820669,486.145219 59.1219107,486.302577 C59.0220147,486.563886 58.898548,486.825335 58.7494089,487.070966 C58.3069769,487.799649 57.7297189,488.25 57,488.25 L56.7492047,488.25 L56.8458879,457.81076 Z M57.2508831,487.722375 C57.6634295,487.62981 58.0204319,487.308183 58.3220197,486.81147 C58.4541306,486.593884 58.5650389,486.359028 58.654875,486.124034 C58.7085581,485.983609 58.7428627,485.875746 58.75,485.882436 L58.75,460.635395 C58.75,459.404024 58.4317037,458.715463 57.9210013,458.415487 C57.7296567,458.303095 57.5289207,458.254938 57.3444966,458.249558 L57.2508831,487.722375 Z" id="路径"></path>
            <path d="M56.5,473.75 C56.9142136,473.75 57.25,474.085786 57.25,474.5 L57.25,483.5 C57.25,483.914214 56.9142136,484.25 56.5,484.25 C56.0857864,484.25 55.75,483.914214 55.75,483.5 L55.75,474.5 C55.75,474.085786 56.0857864,473.75 56.5,473.75 Z M56.5,474.25 C56.3619288,474.25 56.25,474.361929 56.25,474.5 L56.25,483.5 C56.25,483.638071 56.3619288,483.75 56.5,483.75 C56.6380712,483.75 56.75,483.638071 56.75,483.5 L56.75,474.5 C56.75,474.361929 56.6380712,474.25 56.5,474.25 Z" id="矩形"></path>
            <path d="M60.0121893,445.550061 C60.0127201,445.114105 60.3660709,444.760754 60.8020269,444.760223 L70.9787982,444.75754 C71.4151852,444.757012 71.7692445,445.110642 71.7692445,445.547083 L71.7689386,445.629301 C71.7684078,446.065257 71.415057,446.418608 70.9788624,446.419139 L60.8023297,446.421822 C60.3659427,446.42235 60.0118834,446.068721 60.0118834,445.632279 L60.0121893,445.550061 Z M71.2692445,445.547135 C71.2691771,445.38701 71.1393835,445.257348 70.9791683,445.257543 L60.8023971,445.260223 C60.6423465,445.260418 60.5123841,445.390381 60.5121891,445.550431 L60.5121677,445.632027 L60.3411809,445.869147 C60.4693608,445.795089 60.4735774,445.792653 60.508235,445.647496 L60.5118834,445.632227 C60.5119508,445.792352 60.6417444,445.922014 60.8019596,445.921819 L70.9784922,445.919139 C71.1387814,445.918944 71.2687438,445.788982 71.2689387,445.628931 L71.2689602,445.547335 L71.439947,445.310215 C71.3117671,445.384273 71.3075505,445.38671 71.2728929,445.531866 L71.2692445,445.547135 Z" id="矩形" transform="translate(65.890564, 445.589681) rotate(-27.160000) translate(-65.890564, -445.589681) "></path>
            <path d="M72.5614147,440.803433 C72.7807945,441.676162 73.2987959,442.24057 74.1751439,442.277893 C77.6146198,442.424376 80.5082157,441.565771 84.1696339,438.183642 L83.8303661,437.816358 C80.2761977,441.099418 77.5122216,441.919562 74.1964191,441.778346 C73.5757747,441.751913 73.2171732,441.361185 73.046329,440.681539 C72.95234,440.307635 72.9307948,439.906947 72.9507852,439.559288 C72.9530425,439.52003 72.9553424,439.491681 72.9565073,439.480581 L72.9934345,439.118947 L72.6425292,439.213856 C72.5714051,439.233092 72.4239259,439.28244 72.1846014,439.374874 C71.7931144,439.526078 71.2795991,439.746203 70.6288024,440.048281 C68.7765715,440.908026 66.1941383,442.25145 62.76039,444.182806 C57.5394574,447.119386 56.0941661,448.973296 56.9568989,450.02687 C57.0366018,450.124203 57.118902,450.186708 57.1838153,450.221021 L57.417479,449.778979 C57.4072306,449.773562 57.3767881,449.750441 57.3437483,449.710093 C57.1624926,449.488743 57.1941245,449.115667 57.6855542,448.485298 C58.4519574,447.502214 60.1563607,446.22114 63.0055083,444.6186 C66.4286876,442.69319 68.9999153,441.355595 70.8393138,440.501806 C71.4805875,440.204148 71.9840978,439.988312 72.3647461,439.841294 C72.3925344,439.830562 72.418895,439.820485 72.4438558,439.811039 C72.4445614,440.130289 72.4780471,440.471783 72.5614147,440.803433 Z" id="路径"></path>
            <path d="M88,273.75 L117,273.75 C118.794925,273.75 120.25,275.205075 120.25,277 L120.25,343 C120.25,344.794925 118.794925,346.25 117,346.25 L88,346.25 C86.2050746,346.25 84.75,344.794925 84.75,343 L84.75,277 C84.75,275.205075 86.2050746,273.75 88,273.75 Z M88,274.25 C86.4812169,274.25 85.25,275.481217 85.25,277 L85.25,343 C85.25,344.518783 86.4812169,345.75 88,345.75 L117,345.75 C118.518783,345.75 119.75,344.518783 119.75,343 L119.75,277 C119.75,275.481217 118.518783,274.25 117,274.25 L88,274.25 Z" id="矩形"></path>
            <path d="M84.75,352.059591 L84.75,348.943094 C84.75,347.73506 85.6984216,346.752216 86.8729012,346.752216 L113.599581,346.753909 C113.92271,346.716103 114.210874,346.954136 114.246391,347.280134 C114.281745,347.604629 114.054145,347.900526 113.761213,347.9331 L87.3235714,354.200052 C86.6940484,354.341172 86.0368294,354.179648 85.5367143,353.761612 C85.0387919,353.345409 84.75,352.719813 84.75,352.059591 Z M85.25,352.059591 C85.25,352.572555 85.4737934,353.057348 85.8573826,353.377982 C86.2386101,353.696642 86.7370071,353.819133 87.2112222,353.712847 L113.674497,347.441535 C113.719417,347.436279 113.755354,347.389558 113.749333,347.334288 C113.743475,347.28052 113.70102,347.245452 113.628633,347.252216 L86.8729012,347.252216 C85.9786313,347.252216 85.25,348.007293 85.25,348.943094 L85.25,352.059591 Z" id="路径"></path>
            <path d="M84.75,272.055427 C84.75,273.265488 85.6997929,274.25 86.8759966,274.25 L113.675948,274.25 C113.974679,274.242359 114.21383,274.015673 114.246295,273.72242 C114.278609,273.430535 114.09695,273.156211 113.815814,273.080729 L87.3303134,266.800729 C86.6989653,266.659132 86.0429088,266.819376 85.5425506,267.235274 C85.0444799,267.64927 84.7537953,268.27234 84.75,268.931561 L84.75,272.055427 Z M85.8621583,267.619788 C86.2437161,267.302637 86.7414224,267.181071 87.2179329,267.287926 L113.69331,273.565433 C113.725876,273.574289 113.754803,273.617972 113.749331,273.667402 C113.74401,273.715465 113.708553,273.749073 113.669485,273.750084 L86.8759966,273.750005 C85.9800317,273.750005 85.2499959,272.993282 85.2499959,272.055427 L85.2499959,268.932998 C85.2529434,268.42191 85.4783131,267.93884 85.8621583,267.619788 Z" id="路径"></path>
            <path d="M52.6764452,188.25 C53.5371346,188.25 54.2424639,187.589622 54.2500776,186.763066 C54.2548831,186.140708 53.8544744,185.583744 53.2489539,185.361649 C50.4787095,184.522371 47.5109904,184.549063 44.7716692,185.433225 C44.1578013,185.631958 43.7441503,186.18404 43.7500111,186.805877 C43.75,187.190194 43.9122701,187.560081 44.1994855,187.831319 C44.4838571,188.099872 44.8676479,188.25 45.2670084,188.25 L52.6764452,188.25 Z M44.5427833,187.4678 C44.3547563,187.290232 44.2499226,187.051445 44.2499226,186.803521 C44.2462248,186.40179 44.516187,186.041484 44.9254603,185.908986 C47.5676575,185.056172 50.431239,185.030417 53.0904135,185.83563 C53.4872507,185.981624 53.7532097,186.35157 53.7500644,186.758824 C53.745042,187.304194 53.2688901,187.749992 52.6764452,187.749992 L45.2670084,187.749992 C44.994333,187.749992 44.7336128,187.648014 44.5427833,187.4678 Z" id="路径"></path>
            <path d="M52.25,189.25 L45.75,189.25 L45.75,187.75 L52.25,187.75 L52.25,189.25 Z M51.75,188.75 L51.75,188.25 L46.25,188.25 L46.25,188.75 L51.75,188.75 Z" id="路径"></path>
            <path d="M47.75,188.75 L51.25,188.75 L51.25,192.25 L47.75,192.25 L47.75,188.75 Z M48.25,189.25 L48.25,191.75 L50.75,191.75 L50.75,189.25 L48.25,189.25 Z" id="矩形"></path>
            <path d="M43.6982827,198.25 L43.7543552,197.953539 C43.7638358,197.903414 43.782548,197.811412 43.8106511,197.68348 C43.8572521,197.471342 43.9135561,197.23523 43.9797342,196.981075 C44.1689207,196.254509 44.3995959,195.5277 44.6735898,194.847604 C45.3194611,193.244448 46.1013564,192.142109 47.1549815,191.75 L49.8928759,191.767598 C50.0134221,191.81539 50.2103678,191.920434 50.4577835,192.097561 C50.8622453,192.387119 51.2647442,192.778134 51.638736,193.284821 C52.4752335,194.418114 53.0496593,195.962097 53.2487861,197.975394 L53.2759463,198.25 L43.6982827,198.25 Z M52.7213027,197.75 C52.5080323,195.959788 51.9806689,194.590022 51.2364522,193.581751 C50.8943194,193.118227 50.5295421,192.763858 50.1667276,192.504116 C49.9537775,192.351663 49.7926609,192.265729 49.800738,192.25 L47.2457201,192.232952 C46.4495984,192.543054 45.7354761,193.549845 45.1373669,195.034448 C44.8721928,195.692652 44.6477776,196.399738 44.4636001,197.107066 C44.3982731,197.357953 44.3462925,197.575578 44.3074445,197.75 L52.7213027,197.75 Z" id="路径"></path>
            <path d="M45.0212687,197.749113 L44.9819745,197.952599 C44.9525338,198.105059 44.9089981,198.372669 44.8656111,198.723398 C44.7680663,199.511924 44.724309,200.315644 44.7647595,201.069261 C44.8493901,202.645979 45.285603,203.761543 46.2158451,204.187198 C46.265425,204.204315 46.265425,204.204315 46.3003722,204.211137 C46.481195,204.241475 46.6872838,204.197665 46.8730464,204.031078 C47.2851852,203.661483 47.4428735,202.802414 47.2795203,201.294151 C47.1271983,200.626732 47.2995286,199.958312 47.7398307,199.462617 C48.1817498,198.965101 48.8412369,198.700653 49.5167349,198.750981 C50.1310527,198.739876 50.6976532,198.97752 51.0935965,199.4024 C51.4881051,199.82574 51.6746793,200.393557 51.6059599,200.95985 C51.637772,202.200285 51.583756,203.020034 51.4754579,203.525129 C51.4292407,203.740683 51.3905404,203.831877 51.3836518,203.840161 L51.7409499,204.187755 C52.8699518,203.195159 53.4188473,201.719621 53.2042427,200.251466 C53.1323078,199.557452 53.0388668,199.021862 52.9286425,198.633501 C52.7483026,197.998097 52.4998614,197.724877 52.2153238,197.779967 L45.0212687,197.749113 Z M49.0018631,198.26619 C48.3804627,198.347116 47.7922308,198.650723 47.3660078,199.130568 C46.8184807,199.746978 46.603466,200.580959 46.7873856,201.377326 C46.9300585,202.711088 46.7988248,203.426035 46.5392282,203.658835 C46.4805985,203.711412 46.4292506,203.724002 46.388385,203.718808 C45.7123929,203.404101 45.3394965,202.448247 45.2640408,201.042462 C45.2253782,200.322154 45.2676131,199.546396 45.3618287,198.784783 C45.3881994,198.57161 45.4145112,198.390941 45.4372282,198.250902 L49.0018631,198.26619 Z M52.2446916,198.280098 L52.3551838,198.254883 C52.3355466,198.263739 52.3355466,198.263739 52.3155585,198.26969 C52.2680003,198.281928 52.3265653,198.343426 52.4476405,198.770018 C52.549065,199.127375 52.6377458,199.63568 52.7082117,200.313477 C52.8530552,201.305511 52.6094442,202.295852 52.0474746,203.100886 C52.1064088,202.576183 52.1290262,201.879498 52.1040422,200.983002 C52.1888671,200.306868 51.9541049,199.592395 51.4593864,199.061522 C51.0485565,198.620668 50.4919701,198.342336 49.8943093,198.270018 L52.2446916,198.280098 Z" id="路径"></path>
            <path d="M46.8256376,204.179158 C47.529631,204.864306 48.4938667,205.25 49.5,205.25 C50.5061333,205.25 51.470369,204.864306 52.1743624,204.179158 L51.8256376,203.820842 C51.2156973,204.414454 50.3768313,204.75 49.5,204.75 C48.6231687,204.75 47.7843027,204.414454 47.1743624,203.820842 L46.8256376,204.179158 Z" id="路径"></path>
            <path d="M52.75,185.75 L54.25,185.75 L54.25,188.25 L52.75,188.25 L52.75,185.75 Z M53.25,186.25 L53.25,187.75 L53.75,187.75 L53.75,186.25 L53.25,186.25 Z" id="矩形"></path>
            <path d="M85.75,172.75 L90.25,172.75 L90.25,185.25 L85.75,185.25 L85.75,172.75 Z M86.25,173.25 L86.25,184.75 L89.75,184.75 L89.75,173.25 L86.25,173.25 Z" id="矩形"></path>
            <path d="M88.75,171.75 L91.25,171.75 L91.25,186.25 L88.75,186.25 L88.75,171.75 Z M89.25,172.25 L89.25,185.75 L90.75,185.75 L90.75,172.25 L89.25,172.25 Z" id="矩形"></path>
            <path d="M84.75,184.75 L91.25,184.75 L91.25,187.25 L84.75,187.25 L84.75,184.75 Z M85.25,185.25 L85.25,186.75 L90.75,186.75 L90.75,185.25 L85.25,185.25 Z" id="矩形"></path>
            <path d="M83.75,176.75 L86.25,176.75 L86.25,179.25 L83.75,179.25 L83.75,176.75 Z M84.25,177.25 L84.25,178.75 L85.75,178.75 L85.75,177.25 L84.25,177.25 Z" id="矩形"></path>
            <path d="M81.0304041,47.4102258 C81.1577848,47.3970927 81.3003294,47.3733232 81.4448485,47.3343821 C81.8634323,47.2215936 82.155969,47.0111532 82.2184049,46.6541208 C82.3708046,45.7826408 81.9664049,45.2160179 80.666471,44.888943 C80.2884733,44.7938354 80.218168,44.6879063 80.1473958,44.2629255 C80.1247418,44.12689 80.115546,44.076526 80.0977454,44.0014696 C79.9486031,43.3726075 79.5042324,42.9978746 78.465179,42.8016862 C77.2681278,42.5756655 76.4312147,43.0905216 75.9270694,44.0597399 C75.783638,44.3354863 75.6780941,44.6286897 75.603928,44.9216323 C75.5852669,44.9953401 75.5701125,45.0625034 75.558063,45.1218152 C75.5273311,45.1258217 75.4943336,45.1304016 75.4593266,45.1355981 C75.2405938,45.1680674 75.0215313,45.2139147 74.8149327,45.2760097 C74.186388,45.4649241 73.7788851,45.7641822 73.7521017,46.2428006 C73.7286375,46.6621049 73.8717875,46.9467128 74.1949407,47.3180263 C74.2871075,47.422544 74.328846,47.4702244 74.3653083,47.5148532 C74.4741396,47.6480593 74.5170475,47.7355701 74.5170475,47.8197994 L74.5170475,48.8343366 L73.9266452,49.0948417 L73.9266452,57.3636527 L74.2661775,57.233418 C75.390518,56.8021537 76.5797469,56.5437773 77.7893576,56.4679954 C78.9757496,56.4697531 80.1621687,56.7290955 81.2444335,57.2271089 L81.5989396,57.390238 L81.5989396,49.2577877 L81.5014359,49.0596845 L81.0304041,48.6970925 L81.0304041,47.4102258 Z M75.0170475,49.1602286 L75.0170475,47.8197994 C75.0170475,47.5953081 74.9275169,47.4127101 74.7525085,47.1985052 C74.7097619,47.1461847 74.6613364,47.0908653 74.5721067,46.9897797 C74.3265252,46.7075986 74.2368509,46.5293101 74.2513207,46.2707368 C74.2623826,46.0730598 74.513369,45.8887428 74.9588519,45.7548492 C75.2701002,45.6613009 75.5861705,45.6143826 75.790967,45.5995585 L75.9966407,45.5846709 L76.0211465,45.3799203 C76.0287315,45.3165456 76.0496273,45.1984213 76.0886348,45.0443485 C76.1539259,44.7864605 76.2466637,44.5288331 76.3706493,44.290471 C76.7808682,43.5018262 77.414361,43.1121112 78.3724109,43.2930049 C79.2281294,43.454577 79.5106839,43.6928521 79.6112402,44.1168502 C79.6254778,44.1768831 79.63348,44.2207101 79.6541879,44.3450595 C79.7541553,44.9453549 79.9371102,45.2210132 80.5444691,45.3738301 C81.599259,45.6392246 81.8314132,45.9645066 81.7258792,46.5679905 C81.7057195,46.683271 81.5657241,46.7839787 81.3147619,46.8516011 C81.11543,46.9053116 80.9101795,46.9237467 80.7804041,46.9237467 L80.5304041,46.9237467 L80.5304041,48.8201391 L80.6279078,49.0182423 L81.0989396,49.3808343 L81.0989396,56.6192171 C80.0489655,56.1914949 78.9181538,55.969692 77.7739896,55.9684848 C76.6205316,56.0402906 75.4972814,56.2671559 74.4266452,56.6420504 L74.4266452,49.4207337 L75.0170475,49.1602286 Z" id="路径"></path>
            <path d="M6.96527215,13.7695367 L0.304491501,4.34692937 L2.28920119,1.44511997 L8.75282401,11.039182 L12.6720139,10.4821175 L12.6016523,9.98709305 L8.99251606,10.5000872 L2.29232297,0.554880027 L-0.304491501,4.35163715 L6.60361308,14.1241188 L6.72712491,14.2164499 L9.86751236,15.2865085 C10.0377987,15.3102372 10.0377987,15.3102372 10.5845304,15.3655278 C11.1243874,15.4200899 11.7516189,15.4833815 12.4593609,15.5546752 C14.4814667,15.75837 16.7432467,15.9853437 19.1897902,16.2297767 C26.1799255,16.9281577 33.2501674,17.6265393 39.9612452,18.2783663 C40.6684507,18.3470551 41.3686871,18.4149347 42.0616215,18.4819699 C46.9050776,18.9505306 51.3403424,19.3728867 55.277753,19.7395349 C68.3119606,21.0739916 81.2697098,23.083535 94.0960319,25.7597709 C94.2152513,25.7608386 94.3154863,25.7553364 94.4620801,25.7497896 C95.7187538,25.7022395 97.3446426,25.7520297 99.2027083,25.9747823 C101.952044,26.3043839 104.66104,26.9575777 107.192737,28.0088962 C110.854187,29.5293587 113.900582,31.7836118 116.131192,34.8849217 C119.992232,40.2530887 119.372761,45.6346933 115.997811,50.589128 C115.393902,51.475668 114.746683,52.2713604 114.099795,52.9637472 C113.873742,53.2056991 113.66408,53.4172802 113.476276,53.5969559 C113.364476,53.7039161 113.28543,53.7759489 113.244603,53.8115294 L113.573108,54.1884706 C113.619642,54.1479154 113.704399,54.0706797 113.821924,53.9582419 C114.016326,53.772254 114.232552,53.5540481 114.465148,53.3050925 C115.128685,52.5948864 115.79189,51.7795406 116.411044,50.8706214 C119.893224,45.7587733 120.538173,40.1558259 116.537104,34.5929705 C114.248535,31.4110768 111.127086,29.1012865 107.384492,27.5471278 C104.807038,26.4768083 102.05426,25.8130578 99.2622242,25.4783371 C97.3762683,25.2522409 95.7245893,25.2016609 94.4431746,25.2501471 C94.2910017,25.2559051 94.1852934,25.2617077 94.1294239,25.2656667 C81.3549169,22.5905457 68.3800772,20.5783518 55.3263945,19.2419118 C51.3873528,18.8751012 46.9526671,18.4528002 42.1097672,17.9842933 C41.4168969,17.9172643 40.716724,17.8493909 40.0095813,17.7807082 C33.2990099,17.1289303 26.2292086,16.4305923 19.2394975,15.7322536 C16.7930947,15.4878347 14.5314493,15.2608746 12.5094743,15.0571929 C11.8017879,14.9859048 11.1746112,14.9226187 10.6348081,14.868062 C10.0881517,14.812779 10.0881517,14.812779 9.97335636,14.8011432 L6.96527215,13.7695367 Z" id="路径"></path>
            <path d="M13.2448779,9.73552984 L55.4143204,14.0123445 L52.8979371,18.2648383 L10.5508167,13.9730701 L11.1014887,13.1863617 L13.2448779,9.73552984 Z M11.5226047,13.4560068 L11.5150467,13.4674611 L11.4491833,13.5615559 L52.6303877,17.7351617 L54.5856796,14.4308688 L13.5049398,10.2644702 L11.5226047,13.4560068 Z" id="路径"></path>
            <polygon id="路径" points="3 0.75 7 0.75 7 0.25 3 0.25"></polygon>
            <polygon id="路径" points="8.79198743 9.86132495 6.79198743 12.861325 7.20801257 13.138675 9.20801257 10.138675"></polygon>
        </g>
    </g>
</svg>