<?xml version="1.0" encoding="UTF-8"?>
<svg width="143px" height="533px" viewBox="0 0 143 533" version="1.1" xmlns="http://www.w3.org/2000/svg" xmlns:xlink="http://www.w3.org/1999/xlink">
    <!-- Generator: Sketch 57.1 (83088) - https://sketch.com -->
    <title>智慧杆</title>
    <desc>Created with Sketch.</desc>
    <g id="页面-1" stroke="none" stroke-width="1" fill="none" fill-rule="evenodd">
        <g id="智慧杆" transform="translate(1.000000, 1.000000)" fill="#DDFDFF" fill-rule="nonzero">
            <path d="M84.7729223,525.102845 L85.0932242,525.200964 C85.2014152,525.234106 85.4051885,525.296294 85.691764,525.383376 C86.1694714,525.528537 86.7044252,525.690295 87.2838434,525.864499 C88.9392896,526.362212 90.6192699,526.859921 92.2214764,527.324405 C92.4447555,527.389135 92.6652588,527.452848 92.8828088,527.515487 C95.874468,528.376873 98.1630639,528.994327 99.4580921,529.274669 C101.84003,529.7416 104.28997,529.7416 106.683896,529.272621 C108.020614,529.077532 110.42937,528.70005 113.601741,528.191716 L113.853819,528.151306 C115.583317,527.873929 117.421282,527.576734 119.24918,527.279538 C119.888948,527.175518 120.481757,527.078929 121.012794,526.992247 C121.55863,526.903091 121.55863,526.903091 121.679609,526.883285 L121.97,526.835743 L121.97,528.521874 L121.760994,528.556616 C121.64406,528.576053 121.424349,528.612472 121.11575,528.663461 C120.601454,528.748436 120.026272,528.843121 119.404187,528.945089 C117.626784,529.236429 115.829601,529.52777 114.124481,529.7997 C113.866088,529.840883 113.866088,529.840883 113.607382,529.882014 C110.439664,530.385308 108.025134,530.751241 106.673833,530.926127 C104.199119,531.366849 101.663408,531.335926 99.1953481,530.833953 C98.0312053,530.573155 95.6665993,529.930468 92.451008,529.014096 C92.2386261,528.95354 92.2386261,528.95354 92.0264499,528.892925 C90.447322,528.441575 88.7800913,527.958019 87.1292617,527.474466 C86.5514811,527.305226 86.0170139,527.148073 85.5389278,527.007034 C85.2520446,526.922402 85.04773,526.861955 84.9389121,526.82968 L84.758372,526.776133 L84.7729223,525.102845 Z M85.2616287,526.403781 C85.3706565,526.436029 85.5111546,526.477537 85.6804033,526.527467 C86.1581921,526.668418 86.6923531,526.825481 87.2698135,526.994628 C88.9196723,527.477896 90.5858941,527.96116 92.1638583,528.412176 C92.3758515,528.47274 92.3758515,528.47274 92.5880412,528.53324 C95.7935704,529.446745 98.153453,530.088148 99.299822,530.345015 C101.701317,530.8334 104.173476,530.863549 106.597861,530.432074 C107.95454,530.256209 110.365926,529.890752 113.528925,529.388208 C113.787483,529.3471 113.787483,529.3471 114.045737,529.305939 C115.750069,529.034135 117.546567,528.742905 119.32331,528.451673 C119.945176,528.349741 120.520149,528.255091 121.034242,528.170149 C121.208791,528.141309 121.354894,528.117131 121.47,528.098059 L121.47,527.424192 C121.385354,527.43802 121.266951,527.457359 121.093343,527.485716 C120.562208,527.572414 119.969296,527.66902 119.329421,527.773057 C117.501195,528.070307 115.662889,528.367557 113.932997,528.644997 L113.68085,528.685418 C110.506164,529.194123 108.095906,529.571841 106.768092,529.765331 C104.322636,530.244713 101.807364,530.244713 99.3571149,529.764342 C98.0427028,529.479853 95.7468767,528.860449 92.7444645,527.995966 C92.5266187,527.933242 92.3058239,527.869445 92.0822571,527.804632 C90.4782998,527.33964 88.7967948,526.84148 87.1398829,526.343326 C86.5599758,526.168975 86.0245539,526.007076 85.5463917,525.861776 C85.4421558,525.830102 85.3488479,525.801713 85.2670807,525.776809 L85.2616287,526.403781 Z" id="路径"></path>
            <path d="M85.0586084,525.687001 C85.1542057,525.672058 85.3348766,525.644016 85.5899176,525.604746 C86.0150744,525.539283 86.4931983,525.466335 87.0135845,525.387774 C88.5003922,525.163316 90.0278403,524.938859 91.510248,524.729382 C91.9245678,524.670836 92.3303684,524.614179 92.7265002,524.559614 C95.6897777,524.151437 97.9518283,523.881577 99.2260731,523.799483 C101.343212,523.65523 103.466788,523.65523 105.583005,523.799422 C107.029308,523.957988 109.588629,524.466667 112.929755,525.232714 C113.383572,525.336765 113.848529,525.444836 114.323295,525.55654 C116.011094,525.953648 117.749878,526.379171 119.44216,526.804698 C120.034465,526.953634 120.578631,527.091927 121.062481,527.216029 C121.352707,527.290468 121.558272,527.343619 121.667001,527.371932 L121.792999,526.888068 C121.683695,526.859605 121.477541,526.806302 121.186704,526.731706 C120.702114,526.607415 120.157187,526.468928 119.56409,526.319793 C117.869508,525.893687 116.128325,525.467578 114.437809,525.06983 C113.962142,524.957914 113.496262,524.849628 113.041494,524.74536 C109.681509,523.974988 107.109415,523.46377 105.62721,523.301485 C103.478144,523.154845 101.331856,523.154845 99.1930053,523.300578 C97.9035922,523.383648 95.6335232,523.654465 92.6582719,524.064291 C92.2615478,524.118938 91.8551717,524.175675 91.4402889,524.234301 C89.95617,524.444019 88.4272082,524.668698 86.9389469,524.893377 C86.418059,524.972013 85.9394531,525.045035 85.5138274,525.11057 C85.258399,525.149899 85.0773539,525.177999 84.9813916,525.192999 L85.0586084,525.687001 Z" id="路径"></path>
            <path d="M107.438229,419.23294 L107.220861,419.305617 L107.310803,419.213223 L107.438229,419.23294 Z M113.636861,412.714617 L113.81613,412.639 L116.329128,412.640306 L115.919737,413.063766 C115.852237,413.133586 115.725531,413.264398 115.547803,413.447491 C115.25164,413.752594 114.920824,414.092552 114.563534,414.458655 C113.54267,415.504702 112.514134,416.550766 111.543332,417.527209 C111.446047,417.625034 111.446047,417.625034 111.348706,417.722805 C109.781203,419.296802 108.538244,420.513002 107.738705,421.244495 C104.310347,424.379436 103.581026,425.860276 103.588596,428.186416 L103.589213,428.324907 L103.58928,428.338276 L103.589961,428.564399 C103.54396,431.178136 103.532503,448.97767 103.546796,477.110523 C103.551966,487.286685 103.560257,498.2341 103.570565,509.348013 C103.577345,516.657166 103.58393,522.923315 103.589216,527.541707 L103.590362,528.533287 L90.859643,525.639469 L90.8607863,524.999966 C90.8634844,523.482064 90.8670004,521.446405 90.8711312,518.972654 C90.8771686,515.357169 90.8834149,511.462922 90.8896669,507.369578 C90.9066722,496.235688 90.9212642,485.261391 90.9318184,475.084014 C90.9611675,446.782764 90.9548877,429.283948 90.9001567,427.73885 C90.7934356,424.726031 91.1274096,423.714928 92.1747734,422.64376 C92.2180186,422.599561 92.2180186,422.599561 92.44,422.48 L92.2603495,422.556145 C93.2510295,421.532442 95.1635758,419.890826 97.7426208,417.81063 L98.1069735,417.516752 L98.1316152,417.792864 L107.310803,419.213223 L113.636861,412.714617 Z M107.489197,419.746777 L97.9656704,418.273137 C95.4485022,420.305724 93.5776219,421.912654 92.44,422.98 L92.6192146,422.904305 L92.5322768,422.993319 C91.5875936,423.959473 91.2976858,424.837165 91.3998433,427.72115 C91.4549363,429.276468 91.4612056,446.746212 91.4318181,475.084533 C91.4212638,485.262001 91.4066718,496.236376 91.3896663,507.370342 C91.3834142,511.463711 91.377168,515.357981 91.3711305,518.973489 C91.3669996,521.447259 91.3634836,523.482936 91.3607855,525.000857 L91.360357,525.240531 L103.089638,527.906713 L103.089216,527.542282 C103.08393,522.923853 103.077345,516.657668 103.070566,509.348477 C103.060257,498.234499 103.051966,487.287016 103.046796,477.110777 C103.032498,448.967189 103.04395,431.174285 103.090001,428.560814 L103.089284,428.340346 L103.089219,428.327429 L103.088599,428.188043 C103.080542,425.712201 103.874197,424.100734 107.401247,420.875549 C108.193367,420.150843 109.432138,418.938741 110.994422,417.369984 C111.091614,417.272362 111.091614,417.272362 111.188756,417.174681 C112.158342,416.199461 113.185836,415.154457 114.205699,414.109435 C114.546948,413.759769 114.864016,413.433984 115.149753,413.139055 L113.921476,413.139055 L107.489197,419.746777 Z" id="形状结合"></path>
            <path d="M116.03,526.890696 L116.03,412.283949 L115.602709,412.713739 C115.49811,412.81895 115.302051,413.016258 115.027563,413.292661 C114.570097,413.753318 114.060353,414.266972 113.511399,414.82058 C111.942948,416.40233 110.374492,417.987387 108.910566,419.471428 L108.831171,419.551918 C107.271618,421.133097 105.927313,422.50182 104.861,423.595475 C103.690015,424.997424 103.079036,426.760431 103.1301,428.567063 C103.05715,430.483653 103.040345,448.852363 103.064745,478.307815 C103.071331,486.259633 103.080733,494.706355 103.092222,503.382553 C103.100486,509.623272 103.109341,515.61767 103.118195,521.150678 C103.121294,523.087232 103.124171,524.827787 103.126754,526.34546 C103.128193,527.186902 103.128193,527.186902 103.129152,527.738253 L103.13,528.220447 L103.130505,528.503132 L116.03,526.890696 Z M103.629502,527.936867 L103.629151,527.73738 C103.628192,527.18604 103.628192,527.18604 103.626753,526.344609 C103.624171,524.826953 103.621293,523.086414 103.618194,521.149878 C103.60934,515.616914 103.600486,509.622561 103.592222,503.381891 C103.580733,494.705771 103.571331,486.259129 103.564744,478.307401 C103.540373,448.884903 103.5572,430.491785 103.629822,428.569438 C103.582282,426.86821 104.152035,425.224163 105.231939,423.930185 C106.284533,422.851671 107.628216,421.483581 109.187151,419.903029 L109.266523,419.822561 C110.730109,418.338864 112.298273,416.754103 113.866442,415.172638 C114.415304,414.619122 114.924962,414.105556 115.382343,413.644984 C115.434415,413.592549 115.483664,413.542961 115.53,413.496309 L115.53,526.449304 L103.629502,527.936867 Z" id="路径"></path>
            <path d="M96.91,482.87 C97.7090121,482.87 98.31,481.976357 98.31,480.91 C98.31,479.843643 97.7090121,478.95 96.91,478.95 C96.1109879,478.95 95.51,479.843643 95.51,480.91 C95.51,481.976357 96.1109879,482.87 96.91,482.87 Z M96.91,482.37 C96.4387571,482.37 96.01,481.732457 96.01,480.91 C96.01,480.087543 96.4387571,479.45 96.91,479.45 C97.3812429,479.45 97.81,480.087543 97.81,480.91 C97.81,481.732457 97.3812429,482.37 96.91,482.37 Z" id="椭圆形"></path>
            <path d="M96.64,482.54 C97.2921192,482.54 97.77,481.806887 97.77,480.94 C97.77,480.073113 97.2921192,479.34 96.64,479.34 C95.9878808,479.34 95.51,480.073113 95.51,480.94 C95.51,481.806887 95.9878808,482.54 96.64,482.54 Z M96.64,482.04 C96.3200981,482.04 96.01,481.564281 96.01,480.94 C96.01,480.315719 96.3200981,479.84 96.64,479.84 C96.9599019,479.84 97.27,480.315719 97.27,480.94 C97.27,481.564281 96.9599019,482.04 96.64,482.04 Z" id="椭圆形"></path>
            <path d="M94.5,486.694611 L92.24,486.24518 L92.24,485.373687 L94.5,485.83596 L94.5,486.694611 Z M94,486.24404 L94,486.085389 L94.0442218,486.094183 L94.1710681,486.249601 L94.1423635,486.27316 L94,486.24404 Z M92.74,485.986313 L92.6870486,485.975482 L92.5630615,485.82441 L92.587471,485.804488 L92.74,485.83482 L92.74,485.986313 Z" id="路径"></path>
            <path d="M94.5,487.694611 L92.24,487.24518 L92.24,486.373687 L94.5,486.83596 L94.5,487.694611 Z M94,487.24404 L94,487.085389 L94.0442218,487.094183 L94.1710681,487.249601 L94.1423635,487.27316 L94,487.24404 Z M92.74,486.986313 L92.6870486,486.975482 L92.5630615,486.82441 L92.587471,486.804488 L92.74,486.83482 L92.74,486.986313 Z" id="路径"></path>
            <path d="M94.5,488.694611 L92.24,488.24518 L92.24,487.373687 L94.5,487.83596 L94.5,488.694611 Z M94,488.24404 L94,488.085389 L94.0442218,488.094183 L94.1710681,488.249601 L94.1423635,488.27316 L94,488.24404 Z M92.74,487.986313 L92.6870486,487.975482 L92.5630615,487.82441 L92.587471,487.804488 L92.74,487.83482 L92.74,487.986313 Z" id="路径"></path>
            <path d="M94.5,489.694611 L92.24,489.24518 L92.24,488.373687 L94.5,488.83596 L94.5,489.694611 Z M94,489.24404 L94,489.085389 L94.0442218,489.094183 L94.1710681,489.249601 L94.1423635,489.27316 L94,489.24404 Z M92.74,488.986313 L92.6870486,488.975482 L92.5630615,488.82441 L92.587471,488.804488 L92.74,488.83482 L92.74,488.986313 Z" id="路径"></path>
            <path d="M96.96,487.194611 L94.7,486.74518 L94.7,485.873687 L96.96,486.33596 L96.96,487.194611 Z M95.2,486.486313 L95.1470486,486.475482 L95.0230615,486.32441 L95.047471,486.304488 L95.2,486.33482 L95.2,486.486313 Z" id="路径"></path>
            <path d="M96.96,488.194611 L94.7,487.74518 L94.7,486.873687 L96.96,487.33596 L96.96,488.194611 Z M96.46,487.74404 L96.46,487.585389 L96.5042218,487.594183 L96.6310681,487.749601 L96.6023635,487.77316 L96.46,487.74404 Z M95.2,487.486313 L95.1470486,487.475482 L95.0230615,487.32441 L95.047471,487.304488 L95.2,487.33482 L95.2,487.486313 Z" id="路径"></path>
            <path d="M96.96,489.194611 L94.7,488.74518 L94.7,487.873687 L96.96,488.33596 L96.96,489.194611 Z M96.46,488.74404 L96.46,488.585389 L96.5042218,488.594183 L96.6310681,488.749601 L96.6023635,488.77316 L96.46,488.74404 Z M95.2,488.486313 L95.1470486,488.475482 L95.0230615,488.32441 L95.047471,488.304488 L95.2,488.33482 L95.2,488.486313 Z" id="路径"></path>
            <path d="M96.96,490.194611 L94.7,489.74518 L94.7,488.873687 L96.96,489.33596 L96.96,490.194611 Z M95.2,489.486313 L95.1470486,489.475482 L95.0230615,489.32441 L95.047471,489.304488 L95.2,489.33482 L95.2,489.486313 Z" id="路径"></path>
            <path d="M99.4,487.694276 L97.13,487.245406 L97.13,486.374034 L99.4,486.835729 L99.4,487.694276 Z M98.9,487.244271 L98.9,487.085724 L98.9445601,487.094536 L99.0711084,487.249413 L99.0421728,487.273188 L98.9,487.244271 Z M97.63,486.985966 L97.576697,486.975125 L97.4530252,486.824603 L97.477664,486.804471 L97.63,486.834594 L97.63,486.985966 Z" id="路径"></path>
            <path d="M99.4,488.694276 L97.13,488.245406 L97.13,487.374034 L99.4,487.835729 L99.4,488.694276 Z M98.9,488.244271 L98.9,488.085724 L98.9445601,488.094536 L99.0711084,488.249413 L99.0421728,488.273188 L98.9,488.244271 Z M97.63,487.985966 L97.576697,487.975125 L97.4530252,487.824603 L97.477664,487.804471 L97.63,487.834594 L97.63,487.985966 Z" id="路径"></path>
            <path d="M99.4,489.694276 L97.13,489.245406 L97.13,488.374034 L99.4,488.835729 L99.4,489.694276 Z M98.9,489.244271 L98.9,489.085724 L98.9445601,489.094536 L99.0711084,489.249413 L99.0421728,489.273188 L98.9,489.244271 Z M97.63,488.985966 L97.576697,488.975125 L97.4530252,488.824603 L97.477664,488.804471 L97.63,488.834594 L97.63,488.985966 Z" id="路径"></path>
            <path d="M99.4,490.694276 L97.13,490.245406 L97.13,489.374034 L99.4,489.835729 L99.4,490.694276 Z M98.9,490.244271 L98.9,490.085724 L98.9445601,490.094536 L99.0711084,490.249413 L99.0421728,490.273188 L98.9,490.244271 Z" id="路径"></path>
            <path d="M101.86,488.194276 L99.59,487.745406 L99.59,486.874034 L101.86,487.335729 L101.86,488.194276 Z M101.36,487.744271 L101.36,487.585724 L101.40456,487.594536 L101.531108,487.749413 L101.502173,487.773188 L101.36,487.744271 Z" id="路径"></path>
            <path d="M101.86,489.194276 L99.59,488.745406 L99.59,487.874034 L101.86,488.335729 L101.86,489.194276 Z M101.36,488.744271 L101.36,488.585724 L101.40456,488.594536 L101.531108,488.749413 L101.502173,488.773188 L101.36,488.744271 Z M100.09,488.485966 L100.036697,488.475125 L99.9130252,488.324603 L99.937664,488.304471 L100.09,488.334594 L100.09,488.485966 Z" id="路径"></path>
            <path d="M101.86,490.194276 L99.59,489.745406 L99.59,488.874034 L101.86,489.335729 L101.86,490.194276 Z M101.36,489.744271 L101.36,489.585724 L101.40456,489.594536 L101.531108,489.749413 L101.502173,489.773188 L101.36,489.744271 Z" id="路径"></path>
            <path d="M101.86,491.194276 L99.59,490.745406 L99.59,489.874034 L101.86,490.335729 L101.86,491.194276 Z M100.09,490.485966 L100.036697,490.475125 L99.9130252,490.324603 L99.937664,490.304471 L100.09,490.334594 L100.09,490.485966 Z" id="路径"></path>
            <path d="M91.64,474.788752 L102.77,477.364462 L102.77,428.611882 L91.64,426.55969 L91.64,474.788752 Z M92.14,427.16031 L102.27,429.028118 L102.27,476.735538 L92.14,474.391248 L92.14,427.16031 Z" id="路径"></path>
            <path d="M97.65,418.224291 L97.65,261.6 L107.65,261.6 L107.65,419.771659 L97.65,418.224291 Z M107.15,419.188341 L107.15,262.1 L98.15,262.1 L98.15,417.795709 L107.15,419.188341 Z" id="路径"></path>
            <path d="M141.424755,295.673958 C141.714124,294.394456 140.696423,292.16287 137.326777,288.793223 C135.417694,286.884141 130.380796,282.241949 123.154263,275.694293 L122.855412,275.423562 C119.510962,272.394314 115.927684,269.165234 112.344414,265.947154 C111.090276,264.820832 109.925717,263.776334 108.880595,262.840016 C108.514797,262.512299 108.298306,262.318445 107.910101,261.970949 C107.626403,261.717081 107.626403,261.717081 107.566648,261.663645 L107.15,261.291057 L107.15,420.095141 L139.709122,386.6544 C139.784363,386.561195 139.87988,386.420837 140.000069,386.211921 C140.196864,385.869845 140.392773,385.45559 140.575,384.967405 C141.114366,383.522448 141.427015,381.737125 141.39998,379.596842 C141.36624,377.015716 141.358052,361.724608 141.368823,337.850704 C141.371934,330.957206 141.376531,323.627649 141.382222,316.106856 C141.386111,310.967703 141.390278,306.043967 141.394444,301.508563 C141.395903,299.921172 141.397257,298.495709 141.398472,297.253786 C141.399649,296.064192 141.399718,295.994578 141.399954,295.76519 C141.408358,295.73951 141.416803,295.709117 141.424755,295.673958 Z M107.65,262.409181 C107.993435,262.71661 108.204915,262.905987 108.546958,263.212422 C109.591935,264.14861 110.756344,265.192974 112.010325,266.319155 C115.59311,269.536799 119.175886,272.765426 122.519753,275.794147 L122.818542,276.064822 C130.0372,282.605342 135.0726,287.246153 136.973223,289.146777 C138.840719,291.014272 139.991814,292.564493 140.563402,293.817855 C140.938909,294.641256 141.016315,295.213274 140.937071,295.563664 L140.923795,295.613551 L140.9,295.719743 C140.899722,295.989749 140.899722,295.989749 140.898472,297.253297 C140.897257,298.495229 140.895903,299.920703 140.894445,301.508104 C140.890278,306.043533 140.886111,310.967297 140.882222,316.106477 C140.876531,323.627318 140.871934,330.956925 140.868824,337.850479 C140.858049,361.731306 140.866235,377.018592 140.900021,379.603268 C140.926272,381.681442 140.624378,383.40535 140.10657,384.792552 C139.934079,385.254654 139.749932,385.644039 139.566671,385.962589 C139.458827,386.150048 139.376985,386.27031 139.333709,386.325179 L107.65,418.864885 L107.65,262.409181 Z" id="路径"></path>
            <path d="M140.863754,296.577038 C141.14399,295.335911 140.160721,293.177167 136.906777,289.923223 C135.063409,288.079855 130.190786,283.588696 123.197636,277.251602 L122.909982,276.990977 C119.676099,274.061451 116.211285,270.938603 112.74648,267.826346 C111.533804,266.737062 110.407747,265.726905 109.397176,264.821367 C109.043471,264.504423 108.834138,264.316941 108.458767,263.980867 L108.126667,263.683661 L107.71,263.310982 L107.71,417.475127 L139.199119,385.134403 C139.272586,385.043667 139.365389,384.907733 139.482083,384.705561 C139.67305,384.374712 139.86313,383.974157 140.039916,383.50222 C140.563651,382.104093 140.866943,380.376915 140.839979,378.306744 C140.810451,375.809563 140.803291,360.914499 140.812728,337.64805 C140.815449,330.938178 140.819469,323.803983 140.824444,316.483503 C140.827847,311.476572 140.831493,306.679292 140.835139,302.260206 C140.836415,300.713527 140.8376,299.324599 140.838663,298.114491 C140.839691,296.956957 140.839753,296.887721 140.839959,296.664936 C140.848038,296.640071 140.856134,296.610788 140.863754,296.577038 Z M108.21,264.42926 C108.534001,264.719351 108.737374,264.901507 109.063504,265.193741 C110.073929,266.09915 111.199838,267.109173 112.412357,268.198317 C115.87668,271.31014 119.340994,274.432537 122.574297,277.361538 L122.86189,277.622107 C129.847162,283.952063 134.718306,288.441859 136.553223,290.276777 C138.354812,292.078366 139.465057,293.574398 140.016134,294.784276 C140.377789,295.578281 140.452198,296.129584 140.376032,296.466915 C140.368845,296.498746 140.363558,296.514056 140.36371,296.513731 L140.34,296.619769 C140.339757,296.882865 140.339757,296.882865 140.338663,298.114051 C140.3376,299.324168 140.336415,300.713105 140.335139,302.259794 C140.331493,306.678903 140.327847,311.476206 140.324445,316.483163 C140.319469,323.803686 140.315449,330.937925 140.312728,337.647847 C140.303289,360.920604 140.310447,375.812163 140.340017,378.312956 C140.366175,380.321153 140.073712,381.986659 139.57169,383.326823 C139.404687,383.772642 139.226421,384.148302 139.049043,384.455608 C138.944731,384.636328 138.865639,384.752179 138.82394,384.804886 L108.21,416.244899 L108.21,264.42926 Z" id="路径"></path>
            <path d="M109.28999,412.833703 L109.28999,412.23 L109.28999,379.160566 C109.287392,378.011674 110.176876,377.057951 111.322718,376.980598 L136.439894,375.240204 C137.040526,375.215903 137.625909,375.432957 138.065504,375.842965 C138.5051,376.252972 138.762351,376.821836 138.78,377.43 L138.78,382.430461 C138.77893,383.010875 138.547497,383.567127 138.136808,383.976746 L109.28999,412.833703 Z M137.783454,383.622993 C138.10058,383.306693 138.279175,382.877439 138.280106,382.43 L138.280106,377.437296 C138.266462,376.969954 138.066378,376.527504 137.72447,376.208609 C137.382563,375.889715 136.927265,375.720895 136.467282,375.739402 L111.356839,377.479432 C110.473463,377.539067 109.787988,378.274047 109.789986,379.16 L109.789986,411.626297 L137.783454,383.622993 Z" id="路径"></path>
            <path d="M113,382.25 C113.690356,382.25 114.25,381.690356 114.25,381 C114.25,380.309644 113.690356,379.75 113,379.75 C112.309644,379.75 111.75,380.309644 111.75,381 C111.75,381.690356 112.309644,382.25 113,382.25 Z M113,381.75 C112.585786,381.75 112.25,381.414214 112.25,381 C112.25,380.585786 112.585786,380.25 113,380.25 C113.414214,380.25 113.75,380.585786 113.75,381 C113.75,381.414214 113.414214,381.75 113,381.75 Z" id="椭圆形"></path>
            <path d="M113,386.25 C113.690356,386.25 114.25,385.690356 114.25,385 C114.25,384.309644 113.690356,383.75 113,383.75 C112.309644,383.75 111.75,384.309644 111.75,385 C111.75,385.690356 112.309644,386.25 113,386.25 Z M113,385.75 C112.585786,385.75 112.25,385.414214 112.25,385 C112.25,384.585786 112.585786,384.25 113,384.25 C113.414214,384.25 113.75,384.585786 113.75,385 C113.75,385.414214 113.414214,385.75 113,385.75 Z" id="椭圆形备份-13"></path>
            <path d="M117,382.25 C117.690356,382.25 118.25,381.690356 118.25,381 C118.25,380.309644 117.690356,379.75 117,379.75 C116.309644,379.75 115.75,380.309644 115.75,381 C115.75,381.690356 116.309644,382.25 117,382.25 Z M117,381.75 C116.585786,381.75 116.25,381.414214 116.25,381 C116.25,380.585786 116.585786,380.25 117,380.25 C117.414214,380.25 117.75,380.585786 117.75,381 C117.75,381.414214 117.414214,381.75 117,381.75 Z" id="椭圆形备份-3"></path>
            <path d="M117,386.25 C117.690356,386.25 118.25,385.690356 118.25,385 C118.25,384.309644 117.690356,383.75 117,383.75 C116.309644,383.75 115.75,384.309644 115.75,385 C115.75,385.690356 116.309644,386.25 117,386.25 Z M117,385.75 C116.585786,385.75 116.25,385.414214 116.25,385 C116.25,384.585786 116.585786,384.25 117,384.25 C117.414214,384.25 117.75,384.585786 117.75,385 C117.75,385.414214 117.414214,385.75 117,385.75 Z" id="椭圆形备份-14"></path>
            <path d="M121,382.25 C121.690356,382.25 122.25,381.690356 122.25,381 C122.25,380.309644 121.690356,379.75 121,379.75 C120.309644,379.75 119.75,380.309644 119.75,381 C119.75,381.690356 120.309644,382.25 121,382.25 Z M121,381.75 C120.585786,381.75 120.25,381.414214 120.25,381 C120.25,380.585786 120.585786,380.25 121,380.25 C121.414214,380.25 121.75,380.585786 121.75,381 C121.75,381.414214 121.414214,381.75 121,381.75 Z" id="椭圆形备份-4"></path>
            <path d="M121,386.25 C121.690356,386.25 122.25,385.690356 122.25,385 C122.25,384.309644 121.690356,383.75 121,383.75 C120.309644,383.75 119.75,384.309644 119.75,385 C119.75,385.690356 120.309644,386.25 121,386.25 Z M121,385.75 C120.585786,385.75 120.25,385.414214 120.25,385 C120.25,384.585786 120.585786,384.25 121,384.25 C121.414214,384.25 121.75,384.585786 121.75,385 C121.75,385.414214 121.414214,385.75 121,385.75 Z" id="椭圆形备份-15"></path>
            <path d="M125,382.25 C125.690356,382.25 126.25,381.690356 126.25,381 C126.25,380.309644 125.690356,379.75 125,379.75 C124.309644,379.75 123.75,380.309644 123.75,381 C123.75,381.690356 124.309644,382.25 125,382.25 Z M125,381.75 C124.585786,381.75 124.25,381.414214 124.25,381 C124.25,380.585786 124.585786,380.25 125,380.25 C125.414214,380.25 125.75,380.585786 125.75,381 C125.75,381.414214 125.414214,381.75 125,381.75 Z" id="椭圆形备份-5"></path>
            <path d="M125,386.25 C125.690356,386.25 126.25,385.690356 126.25,385 C126.25,384.309644 125.690356,383.75 125,383.75 C124.309644,383.75 123.75,384.309644 123.75,385 C123.75,385.690356 124.309644,386.25 125,386.25 Z M125,385.75 C124.585786,385.75 124.25,385.414214 124.25,385 C124.25,384.585786 124.585786,384.25 125,384.25 C125.414214,384.25 125.75,384.585786 125.75,385 C125.75,385.414214 125.414214,385.75 125,385.75 Z" id="椭圆形备份-16"></path>
            <path d="M129,382.25 C129.690356,382.25 130.25,381.690356 130.25,381 C130.25,380.309644 129.690356,379.75 129,379.75 C128.309644,379.75 127.75,380.309644 127.75,381 C127.75,381.690356 128.309644,382.25 129,382.25 Z M129,381.75 C128.585786,381.75 128.25,381.414214 128.25,381 C128.25,380.585786 128.585786,380.25 129,380.25 C129.414214,380.25 129.75,380.585786 129.75,381 C129.75,381.414214 129.414214,381.75 129,381.75 Z" id="椭圆形备份-6"></path>
            <path d="M129,386.25 C129.690356,386.25 130.25,385.690356 130.25,385 C130.25,384.309644 129.690356,383.75 129,383.75 C128.309644,383.75 127.75,384.309644 127.75,385 C127.75,385.690356 128.309644,386.25 129,386.25 Z M129,385.75 C128.585786,385.75 128.25,385.414214 128.25,385 C128.25,384.585786 128.585786,384.25 129,384.25 C129.414214,384.25 129.75,384.585786 129.75,385 C129.75,385.414214 129.414214,385.75 129,385.75 Z" id="椭圆形备份-17"></path>
            <path d="M113,390.25 C113.690356,390.25 114.25,389.690356 114.25,389 C114.25,388.309644 113.690356,387.75 113,387.75 C112.309644,387.75 111.75,388.309644 111.75,389 C111.75,389.690356 112.309644,390.25 113,390.25 Z M113,389.75 C112.585786,389.75 112.25,389.414214 112.25,389 C112.25,388.585786 112.585786,388.25 113,388.25 C113.414214,388.25 113.75,388.585786 113.75,389 C113.75,389.414214 113.414214,389.75 113,389.75 Z" id="椭圆形备份-22"></path>
            <path d="M117,390.25 C117.690356,390.25 118.25,389.690356 118.25,389 C118.25,388.309644 117.690356,387.75 117,387.75 C116.309644,387.75 115.75,388.309644 115.75,389 C115.75,389.690356 116.309644,390.25 117,390.25 Z M117,389.75 C116.585786,389.75 116.25,389.414214 116.25,389 C116.25,388.585786 116.585786,388.25 117,388.25 C117.414214,388.25 117.75,388.585786 117.75,389 C117.75,389.414214 117.414214,389.75 117,389.75 Z" id="椭圆形备份-21"></path>
            <path d="M121,390.25 C121.690356,390.25 122.25,389.690356 122.25,389 C122.25,388.309644 121.690356,387.75 121,387.75 C120.309644,387.75 119.75,388.309644 119.75,389 C119.75,389.690356 120.309644,390.25 121,390.25 Z M121,389.75 C120.585786,389.75 120.25,389.414214 120.25,389 C120.25,388.585786 120.585786,388.25 121,388.25 C121.414214,388.25 121.75,388.585786 121.75,389 C121.75,389.414214 121.414214,389.75 121,389.75 Z" id="椭圆形备份-20"></path>
            <path d="M125,390.25 C125.690356,390.25 126.25,389.690356 126.25,389 C126.25,388.309644 125.690356,387.75 125,387.75 C124.309644,387.75 123.75,388.309644 123.75,389 C123.75,389.690356 124.309644,390.25 125,390.25 Z M125,389.75 C124.585786,389.75 124.25,389.414214 124.25,389 C124.25,388.585786 124.585786,388.25 125,388.25 C125.414214,388.25 125.75,388.585786 125.75,389 C125.75,389.414214 125.414214,389.75 125,389.75 Z" id="椭圆形备份-19"></path>
            <path d="M113,394.25 C113.690356,394.25 114.25,393.690356 114.25,393 C114.25,392.309644 113.690356,391.75 113,391.75 C112.309644,391.75 111.75,392.309644 111.75,393 C111.75,393.690356 112.309644,394.25 113,394.25 Z M113,393.75 C112.585786,393.75 112.25,393.414214 112.25,393 C112.25,392.585786 112.585786,392.25 113,392.25 C113.414214,392.25 113.75,392.585786 113.75,393 C113.75,393.414214 113.414214,393.75 113,393.75 Z" id="椭圆形备份-26"></path>
            <path d="M117,394.25 C117.690356,394.25 118.25,393.690356 118.25,393 C118.25,392.309644 117.690356,391.75 117,391.75 C116.309644,391.75 115.75,392.309644 115.75,393 C115.75,393.690356 116.309644,394.25 117,394.25 Z M117,393.75 C116.585786,393.75 116.25,393.414214 116.25,393 C116.25,392.585786 116.585786,392.25 117,392.25 C117.414214,392.25 117.75,392.585786 117.75,393 C117.75,393.414214 117.414214,393.75 117,393.75 Z" id="椭圆形备份-25"></path>
            <path d="M121,394.25 C121.690356,394.25 122.25,393.690356 122.25,393 C122.25,392.309644 121.690356,391.75 121,391.75 C120.309644,391.75 119.75,392.309644 119.75,393 C119.75,393.690356 120.309644,394.25 121,394.25 Z M121,393.75 C120.585786,393.75 120.25,393.414214 120.25,393 C120.25,392.585786 120.585786,392.25 121,392.25 C121.414214,392.25 121.75,392.585786 121.75,393 C121.75,393.414214 121.414214,393.75 121,393.75 Z" id="椭圆形备份-24"></path>
            <path d="M113,398.25 C113.690356,398.25 114.25,397.690356 114.25,397 C114.25,396.309644 113.690356,395.75 113,395.75 C112.309644,395.75 111.75,396.309644 111.75,397 C111.75,397.690356 112.309644,398.25 113,398.25 Z M113,397.75 C112.585786,397.75 112.25,397.414214 112.25,397 C112.25,396.585786 112.585786,396.25 113,396.25 C113.414214,396.25 113.75,396.585786 113.75,397 C113.75,397.414214 113.414214,397.75 113,397.75 Z" id="椭圆形备份-29"></path>
            <path d="M113,402.25 C113.690356,402.25 114.25,401.690356 114.25,401 C114.25,400.309644 113.690356,399.75 113,399.75 C112.309644,399.75 111.75,400.309644 111.75,401 C111.75,401.690356 112.309644,402.25 113,402.25 Z M113,401.75 C112.585786,401.75 112.25,401.414214 112.25,401 C112.25,400.585786 112.585786,400.25 113,400.25 C113.414214,400.25 113.75,400.585786 113.75,401 C113.75,401.414214 113.414214,401.75 113,401.75 Z" id="椭圆形备份-30"></path>
            <path d="M117,398.25 C117.690356,398.25 118.25,397.690356 118.25,397 C118.25,396.309644 117.690356,395.75 117,395.75 C116.309644,395.75 115.75,396.309644 115.75,397 C115.75,397.690356 116.309644,398.25 117,398.25 Z M117,397.75 C116.585786,397.75 116.25,397.414214 116.25,397 C116.25,396.585786 116.585786,396.25 117,396.25 C117.414214,396.25 117.75,396.585786 117.75,397 C117.75,397.414214 117.414214,397.75 117,397.75 Z" id="椭圆形备份-28"></path>
            <path d="M133,382.25 C133.690356,382.25 134.25,381.690356 134.25,381 C134.25,380.309644 133.690356,379.75 133,379.75 C132.309644,379.75 131.75,380.309644 131.75,381 C131.75,381.690356 132.309644,382.25 133,382.25 Z M133,381.75 C132.585786,381.75 132.25,381.414214 132.25,381 C132.25,380.585786 132.585786,380.25 133,380.25 C133.414214,380.25 133.75,380.585786 133.75,381 C133.75,381.414214 133.414214,381.75 133,381.75 Z" id="椭圆形备份-12"></path>
            <path d="M111.53,374.85 C110.287359,374.85 109.28,373.842641 109.28,372.6 L109.28,307.6 C109.28,306.357359 110.287359,305.35 111.524227,305.350067 L136.64,304.77 C137.882641,304.77 138.89,305.777359 138.89,307.020469 L138.76995,370.934997 C138.78201,371.537546 138.551839,372.119747 138.131006,372.551153 C137.711968,372.98072 137.138775,373.225016 136.538908,373.229947 L111.53,374.85 Z M136.513834,372.730523 L136.5288,372.730003 C136.997538,372.727753 137.44578,372.537551 137.773094,372.202013 C138.100408,371.866475 138.27943,371.413652 138.27,370.939531 L138.39,307.02 C138.39,306.053502 137.606498,305.269933 136.645773,305.269933 L111.53,305.85 C110.563502,305.85 109.78,306.633502 109.78,307.6 L109.78,372.6 C109.78,373.566498 110.563502,374.350523 111.513834,374.350523 L136.513834,372.730523 Z" id="路径"></path>
            <path d="M109.29,300.47361 L109.29,267.142854 L109.708653,267.525457 L137.928493,293.315311 C138.542682,293.875642 138.894877,294.667077 138.900061,295.5 L138.900061,300.059064 C138.906152,301.697747 137.592162,303.036062 135.953919,303.059969 L112.333561,303.43027 C111.537836,303.441606 110.770194,303.136603 110.19947,302.582243 C109.628659,302.0278 109.301515,301.269286 109.29,300.47361 Z M109.789974,300.47 C109.799548,301.129454 110.072168,301.761549 110.547844,302.223585 C111.02347,302.685573 111.663238,302.939769 112.326081,302.93058 L135.946352,302.560027 C137.310869,302.540114 138.405129,301.425595 138.400073,300.06 L138.400073,295.501545 C138.395748,294.809653 138.102645,294.151006 137.591347,293.684543 L109.789974,268.277146 L109.789974,300.47 Z" id="路径"></path>
            <path d="M99.06,262.1 L99.06,145.667366 L107.65,144.66927 L107.65,262.1 L99.06,262.1 Z M107.15,261.6 L107.15,145.23073 L99.56,146.112634 L99.56,261.6 L107.15,261.6 Z" id="路径"></path>
            <path d="M114.19,268.28032 L114.19,145.352925 L107.15,144.67476 L107.15,261.85 L107.23301,262.03605 L114.19,268.28032 Z M107.65,261.738457 L107.65,145.22524 L113.69,145.807075 L113.69,267.15968 L107.65,261.738457 Z" id="路径"></path>
            <path d="M86.78,175.476265 L107.65,176.59302 L107.65,180.825681 L86.78,179.555244 L86.78,175.476265 Z M87.28,179.084756 L107.15,180.294319 L107.15,177.06698 L87.28,176.003735 L87.28,179.084756 Z" id="路径"></path>
            <path d="M79.16,176.294284 L87.28,175.463103 L87.28,179.550485 L79.16,180.211167 L79.16,176.294284 Z M79.66,179.668833 L86.78,179.089515 L86.78,176.016897 L79.66,176.745716 L79.66,179.668833 Z" id="路径"></path>
            <path d="M107.41519,180.310462 L107.422773,180.808961 L99.2929543,181.549418 L79.3929543,180.189418 L79.3897258,179.690823 L87.0451903,179.070462 L107.41519,180.310462 Z M87.0502742,179.569177 L82.7557224,179.918602 L99.2872273,181.051039 L104.110746,180.609827 L87.0502742,179.569177 Z" id="路径"></path>
            <path d="M84.15,179.36 L89.6,179.36 C90.1136248,179.36 90.53,179.776375 90.53,180.29 C90.53,180.803625 90.1136248,181.22 89.6,181.22 L84.15,181.22 C83.6363752,181.22 83.22,180.803625 83.22,180.29 C83.22,179.776375 83.6363752,179.36 84.15,179.36 Z M84.15,179.86 C83.9125176,179.86 83.72,180.052518 83.72,180.29 C83.72,180.527482 83.9125176,180.72 84.15,180.72 L89.6,180.72 C89.8374824,180.72 90.03,180.527482 90.03,180.29 C90.03,180.052518 89.8374824,179.86 89.6,179.86 L84.15,179.86 Z" id="矩形"></path>
            <path d="M85.31,180.72 L88.26,180.72 L88.26,184.1 L85.31,184.1 L85.31,180.72 Z M85.81,183.6 L87.76,183.6 L87.76,181.22 L85.81,181.22 L85.81,183.6 Z" id="矩形"></path>
            <path d="M84.0833714,185.696388 L84.1112183,185.415349 C84.1944282,184.57557 84.7700045,183.866139 85.65,183.6 L88.01,183.6 C88.1998329,183.6 88.392353,183.673191 88.5904963,183.804197 C88.8072271,183.947493 89.0293048,184.159208 89.2548142,184.422302 C89.3983172,184.589722 89.5347612,184.768168 89.6601493,184.946543 C89.735548,185.053803 89.7909307,185.137857 89.8219185,185.187371 L90.0550614,185.559892 L84.0833714,185.696388 Z M89.1413207,185.080647 C89.0618542,184.974236 88.9721338,184.860804 88.8751858,184.747698 C88.6772618,184.516786 88.4862152,184.334655 88.3147356,184.221277 C88.1912618,184.13964 88.0869923,184.1 88.01,184.1 L85.7253946,184.08836 C85.2038265,184.253335 84.808383,184.668842 84.662268,185.183026 L89.1413207,185.080647 Z" id="路径"></path>
            <path d="M82.0677968,197.532637 L82.054673,197.488111 C81.837347,196.379925 81.837347,195.240075 82.0553246,194.128678 C82.2464286,193.217601 82.1904171,192.271994 81.8953205,191.396172 C81.439252,190.154117 81.5555553,188.773985 82.2129286,187.625984 C82.7292564,186.72223 83.4018218,185.917242 84.1993613,185.24844 L84.3542872,185.190065 L89.6042872,185.070065 L89.7920371,185.148645 C90.5472439,185.950931 91.1924264,186.850069 91.7216642,187.846023 C92.291291,189.250219 92.5851056,190.739859 92.2810417,191.475497 C92.2405801,191.573388 92.1967267,191.659878 92.1487286,191.738001 C92.1007107,191.816157 92.0502597,191.883548 91.9920524,191.95036 C91.9590269,191.988269 91.8563399,192.09732 91.8650614,192.087824 C91.7138499,192.252458 91.6772631,192.415431 91.738778,193.035312 C91.7459574,193.107658 91.7899986,193.538332 91.8032528,193.672855 C91.8639838,194.289241 91.8994817,194.768067 91.9126359,195.241441 C91.9465372,196.461434 91.8157624,197.368391 91.4349345,197.953185 C90.3681165,199.480078 88.6649244,200.439083 86.8034204,200.55964 C84.7390731,200.670617 82.8338439,199.452798 82.0677968,197.532637 Z M86.773841,200.060523 C88.4809943,199.949948 90.0452637,199.069166 91.0204795,197.673614 C91.3250103,197.205784 91.4440812,196.379996 91.4128288,195.25533 C91.4000639,194.795962 91.3653403,194.327581 91.3056622,193.721881 C91.2925236,193.588531 91.2485064,193.158092 91.241222,193.084688 C91.1669304,192.336057 91.234462,192.035241 91.4968165,191.7496 C91.7178712,191.508925 91.6662056,191.568229 91.7227101,191.47626 C91.7566343,191.421044 91.7884886,191.35822 91.8189583,191.284503 C92.0546739,190.714223 91.7793527,189.318344 91.2693751,188.057578 C90.7894177,187.156981 90.1959615,186.321825 89.5036345,185.572496 L84.4541501,185.687913 C83.7309884,186.307393 83.1196435,187.04685 82.646949,187.87423 C82.0628344,188.894296 81.9595114,190.120396 82.3669057,191.230152 C82.6927077,192.196795 82.7540843,193.232977 82.545327,194.228111 C82.3419678,195.265078 82.3404734,196.331456 82.540844,197.368855 C83.2330261,199.077417 84.9340788,200.159412 86.773841,200.060523 Z" id="路径"></path>
            <path d="M84.2481966,198.956393 L84.3112733,198.934795 C84.4811576,198.901036 84.7576036,198.777554 85.0378234,198.513423 C85.4691533,198.106857 85.7493101,197.490108 85.8004162,196.60558 C85.9694682,193.67968 86.4674315,192.367655 87.966533,192.074345 C89.2420599,191.622564 90.6455197,192.267663 91.1100414,193.484418 C91.8511923,194.632593 92.0802874,196.037709 91.7271683,197.404377 C90.7739875,199.478897 88.6249753,200.735629 86.3317462,200.547056 C85.5474756,200.425621 84.8471075,200.222965 84.4185664,199.994319 C84.1689449,199.861134 84.0045283,199.71864 83.9422781,199.544713 C83.854375,199.299113 83.9874569,199.086763 84.2481966,198.956393 Z M84.6539336,199.553181 C85.0257282,199.751551 85.674902,199.939393 86.3904186,200.050835 C88.456292,200.22013 90.4074208,199.079119 91.2577697,197.238158 C91.5614014,196.048865 91.3556358,194.786836 90.6668003,193.710099 C90.2766563,192.70031 89.1538885,192.18423 88.098428,192.555265 C86.8862636,192.794609 86.4559288,193.928448 86.2995838,196.63442 C86.2412097,197.64474 85.9063855,198.381836 85.3807777,198.877267 C85.0417472,199.196832 84.6993087,199.358144 84.4474701,199.416834 C84.4859183,199.451534 84.5553748,199.500596 84.6539336,199.553181 Z" id="路径"></path>
            <path d="M22.4146016,7.42356656 C23.5126596,7.42356656 24.4246016,6.71888408 24.4246016,5.81356656 C24.4246016,4.90824903 23.5126596,4.20356656 22.4146016,4.20356656 C21.3165437,4.20356656 20.4046016,4.90824903 20.4046016,5.81356656 C20.4046016,6.71888408 21.3165437,7.42356656 22.4146016,7.42356656 Z M22.4146016,6.92356656 C21.5686173,6.92356656 20.9046016,6.41046355 20.9046016,5.81356656 C20.9046016,5.21666956 21.5686173,4.70356656 22.4146016,4.70356656 C23.260586,4.70356656 23.9246016,5.21666956 23.9246016,5.81356656 C23.9246016,6.41046355 23.260586,6.92356656 22.4146016,6.92356656 Z" id="椭圆形" transform="translate(22.414602, 5.813567) rotate(-61.860000) translate(-22.414602, -5.813567) "></path>
            <path d="M87.7918661,44.4173046 C88.5929139,44.7479926 89.2239853,45.0182046 89.8606844,45.3077312 C91.5430736,46.0727651 93.0226616,46.8706829 94.4284105,47.8108897 C97.7517415,50.0336328 100.404546,52.8998634 102.337002,56.7130126 C106.283155,64.4996192 107.188498,68.1665815 107.430147,75.198586 C107.513879,77.6351704 107.53462,90.293246 107.508398,109.858227 C107.500623,115.658923 107.48896,121.828788 107.474445,128.156834 C107.464723,132.395355 107.454306,136.452189 107.44389,140.186062 C107.440244,141.492915 107.436859,142.666051 107.433821,143.68781 C107.430696,144.727222 107.430696,144.727222 107.430001,144.949218 L107.429294,145.175425 L110.93,145.537165 L110.93,72.06 C110.29013,57.6028978 101.057442,44.9461398 87.4968001,39.9255523 C86.8555099,39.6819526 86.3610727,39.1543317 86.1589742,38.4965743 C86.1345271,38.4149078 85.955677,37.7918265 85.8936761,37.5883504 C85.7731057,37.1926591 85.6536784,36.8474854 85.5133871,36.5035038 C85.1512091,35.6154756 84.6766344,34.8119718 84.0210942,34.050641 C83.0160735,32.8834305 81.6278702,31.8735809 79.7628132,31.0321197 C77.307653,29.9244043 67.1861365,25.0964333 51.8526117,17.7357206 L51.6826036,17.6541086 C45.4766147,14.6748879 38.8378637,11.482857 32.2061377,8.29082491 C29.8850316,7.17361271 27.7305979,6.13620169 25.7978091,5.20519257 C25.1213345,4.87934013 24.7210343,4.68648846 24.0033343,4.34068737 L23.3685425,4.03479224 L23.1532514,3.93102928 L21.2459068,7.47160913 L74.2114023,33.0151811 C74.2614596,33.0419948 74.3720859,33.1012592 74.527156,33.1851072 C74.7858449,33.3249829 75.0741575,33.4825376 75.3846721,33.6543122 C76.2717183,34.1450202 77.1586974,34.6511921 77.986069,35.145037 C78.2612789,35.3093054 78.5257539,35.4697893 78.7781574,35.6258615 C80.2356714,36.5271065 81.2269012,37.2422287 81.5644963,37.665815 C81.9876851,38.1882827 82.2522235,38.7171459 82.5933516,39.6184486 C82.6220409,39.6942493 82.6461754,39.7586805 82.6987971,39.899586 C83.4823282,41.9966672 84.1368542,42.8863603 85.9822735,43.6701077 C86.2249159,43.7730294 86.4813413,43.8794409 86.8440205,44.0282845 C86.6469534,43.9474053 87.5634571,44.323013 87.7918661,44.4173046 Z M21.9340928,7.24839162 L23.3667563,4.58895647 L23.7862961,4.7911254 C24.5040216,5.13693876 24.9043316,5.32979515 25.5808242,5.65565631 C27.513656,6.58668609 29.6681339,7.62411839 31.9892862,8.74135286 C38.6211558,11.9334541 45.2600555,15.1255565 51.4662177,18.1048603 L51.6362313,18.186475 C66.9772615,25.5507906 77.0963645,30.3776103 79.5571856,31.4878798 C81.3576195,32.3001849 82.6863141,33.2667449 83.6421974,34.3768882 C84.2606036,35.0950923 84.7077596,35.8521733 85.0504118,36.692326 C85.184332,37.0206863 85.2989447,37.3519447 85.4153872,37.734089 C85.4759097,37.9327132 85.6543083,38.5542217 85.6805062,38.6417128 C85.9284379,39.4486624 86.5337355,40.0945839 87.3212274,40.393708 C100.695237,45.3452079 109.799516,57.8259331 110.430245,72.0710584 L110.430245,144.982836 L107.930699,144.724574 C107.931145,144.578591 107.931881,144.333677 107.933818,143.689297 C107.936857,142.667508 107.940242,141.494342 107.943888,140.187457 C107.954305,136.453505 107.964721,132.396589 107.974444,128.157981 C107.988959,121.829786 108.000623,115.659766 108.008397,109.858897 C108.03464,90.2780805 108.013912,77.627546 107.929853,75.181414 C107.685759,68.0782851 106.762809,64.3400075 102.782998,56.4869874 C100.809931,52.5937022 98.0982575,49.6638672 94.7063827,47.39528 C93.2759252,46.4385473 91.7730931,45.6280943 90.0676557,44.8525797 C89.424766,44.5602381 88.7886813,44.2878795 87.9826577,43.9551374 C87.7535847,43.8605716 86.8363235,43.4846535 87.0334935,43.5655749 C86.6727948,43.4175439 86.4179693,43.3117963 86.1776235,43.2098486 C84.485157,42.4910601 83.9073619,41.7056669 83.1671724,39.7245872 C83.1144811,39.5834939 83.0900239,39.5182013 83.0609785,39.4414596 C82.7025168,38.4943593 82.4174771,37.9245102 81.954266,37.3526446 C81.5674988,36.8673487 80.5531827,36.135571 79.0411183,35.2005951 C78.786409,35.0430971 78.519712,34.8812648 78.2423325,34.7157014 C77.4097413,34.2187411 76.5181888,33.7099592 75.6267034,33.2167955 C75.3147319,33.0442149 75.0250217,32.8858965 74.7649723,32.7452851 C74.6087993,32.6608408 74.4971091,32.6010065 74.4373057,32.56923 L21.9340928,7.24839162 Z" id="路径"></path>
            <path d="M105.73,145.387967 L105.73,73.8 C105.732663,73.7751755 105.737605,73.6919045 105.742492,73.5713748 C105.810593,71.8915545 105.662855,69.6089774 105.121321,66.9387622 C104.297436,62.8763221 102.723041,58.858793 100.219561,55.1031965 C95.694182,48.3144468 88.5704217,43.0274529 78.385059,39.8215338 L78.2017296,39.7638295 L78.0988401,39.9261662 C78.0655001,39.9787692 77.9854275,40.0818234 77.8527091,40.2189408 C77.6254941,40.4536867 77.3336242,40.6899782 76.9708751,40.9116871 C75.921539,41.5530317 74.5126475,41.94 72.69,41.94 L72.6641429,42.4386592 C72.7201078,42.4444788 72.8310361,42.4578128 72.9932555,42.4801184 C73.2651978,42.5175112 73.5811011,42.5667904 73.9372921,42.6294114 C74.9566403,42.8086203 76.0931736,43.0586632 77.3174991,43.391152 C80.8160448,44.3412482 84.3144694,45.760332 87.5779779,47.740415 C96.4496317,53.1231528 101.949431,61.5661312 102.440203,73.7500619 L102.54,145.540348 L102.540399,145.826686 L105.73,145.387967 Z M103.039601,145.253314 L102.94,73.7396518 C102.441918,61.3695389 96.8457882,52.7786798 87.8373394,47.3129438 C84.5306223,45.3066447 80.9895194,43.870249 77.4485375,42.9086285 C76.4779811,42.6450555 75.5614989,42.4325658 74.7131429,42.2655036 C75.7001011,42.0828509 76.536171,41.7633679 77.2316249,41.3383129 C77.8046103,40.9881095 78.1870111,40.6334663 78.4076061,40.3531088 C88.392738,43.5301619 95.3674826,48.725799 99.8035231,55.3805273 C102.268917,59.0789888 103.819689,63.0362363 104.631297,67.0381418 C105.164289,69.666237 105.309465,71.9092403 105.242902,73.5511209 C105.238266,73.6654777 105.233685,73.7426634 105.230743,73.7807406 L105.230002,144.952033 L103.039601,145.253314 Z" id="路径"></path>
            <path d="M108.015758,83.9386242 L104.894665,84.5141449 C104.386237,84.8038396 104.127371,85.2639404 104.127371,85.76 C104.127371,86.2560596 104.386237,86.7161604 104.81022,86.9736752 L104.976476,87.0073247 L107.965942,86.5664322 L108.015758,83.9386242 Z M107.474058,86.1335678 L104.99886,86.498615 C104.766498,86.3261117 104.627371,86.0527188 104.627371,85.76 C104.627371,85.4386093 104.795087,85.1405158 105.06978,84.9736752 L107.504277,84.5395416 L107.474058,86.1335678 Z" id="路径"></path>
            <path d="M108.015758,121.938624 L104.894665,122.514145 C104.386237,122.80384 104.127371,123.26394 104.127371,123.76 C104.127371,124.25606 104.386237,124.71616 104.81022,124.973675 L104.976476,125.007325 L107.965942,124.566432 L108.015758,121.938624 Z M107.474058,124.133568 L104.99886,124.498615 C104.766498,124.326112 104.627371,124.052719 104.627371,123.76 C104.627371,123.438609 104.795087,123.140516 105.06978,122.973675 L107.504277,122.539542 L107.474058,124.133568 Z" id="路径"></path>
            <path d="M4.38336442,13.5561169 L61.0633644,40.2861169 C61.1345453,40.3130135 61.2284207,40.3462348 61.3625369,40.3925909 C61.5854899,40.4696527 61.8404454,40.5554689 62.1232951,40.6478525 C62.9310966,40.9116944 63.8010336,41.1755028 64.7003299,41.4217846 C65.7810378,41.7177478 66.8311721,41.968069 67.8237767,42.158185 C69.8578278,42.5477718 71.532553,42.6640285 72.7365945,42.4356195 C73.3420394,42.3207655 75.1121832,42.0104053 75.4361144,41.944759 C76.2311974,41.7836313 76.6989375,41.6236721 77.1691336,41.3335394 C77.5467373,41.1005405 77.9231802,40.7839321 78.4841347,40.2393798 C79.4809108,39.2717492 78.5838784,37.9356268 76.1365636,36.2323067 C74.041423,34.7740983 70.7566089,33.0009318 66.2176924,30.8343845 C62.9504985,29.2748648 54.9856791,25.5033553 43.7514421,20.1930858 L43.7014655,20.1694626 C38.4241732,17.6749685 32.7699377,15.0037717 27.1157032,12.3335568 C25.1367218,11.3989819 23.299096,10.531285 21.6499441,9.75267678 C20.7311302,9.3188892 20.7311302,9.3188892 20.1185865,9.02971737 L19.5767167,8.77392136 C19.5185821,8.74757021 19.4148639,8.70197191 19.2655991,8.63844159 C19.017766,8.53295842 18.7317143,8.41552794 18.4110959,8.28913832 C17.4958112,7.92832777 16.4862333,7.56762056 15.4114998,7.23093435 C13.0446482,6.48946093 10.7066886,5.97079482 8.51634326,5.77425044 C5.87291512,5.53704997 3.58757116,5.78441249 1.76652247,6.61242056 C0.215542918,7.3179642 -0.360846784,8.28012743 -0.0358842366,9.39807519 C0.218155428,10.2720315 1.00333506,11.1728279 2.15423397,12.0788434 C2.63923588,12.4606486 3.15779714,12.8176245 3.67627795,13.1403849 C3.98765747,13.3342223 4.23059472,13.4740207 4.3711863,13.5499621 L4.38336442,13.5561169 Z M3.94051747,12.7159117 C3.43659485,12.402214 2.93275268,12.0553707 2.46351139,11.6859726 C1.38825062,10.8395012 0.661417152,10.0056424 0.444243191,9.25851282 C0.195918829,8.40421848 0.630724535,7.67840041 1.97351797,7.06756105 C3.70442884,6.28053751 5.90708488,6.04212503 8.47165674,6.27224956 C10.6221808,6.46522068 12.92666,6.97645931 15.2620259,7.70806906 C16.3246951,8.04097585 17.323096,8.39768972 18.2277264,8.75430025 C18.5440783,8.879008 18.8259911,8.99473937 19.0697866,9.09850402 C19.215499,9.16052238 19.3157622,9.20460172 19.3669018,9.22775152 C19.4575163,9.27055976 19.4575163,9.27055976 19.9051371,9.48186707 C20.5176721,9.77103477 20.5176721,9.77103477 21.4364764,10.2048178 C23.0856135,10.9834191 24.9232241,11.8511088 26.9021896,12.7856762 C32.5563747,15.4558677 38.2105589,18.1270403 43.4877915,20.6215062 L43.5377675,20.6451291 C54.7712924,25.955062 62.7359365,29.7264885 66.0023076,31.2856155 C70.5184807,33.4413067 73.7836346,35.2038605 75.8509364,36.6426933 C78.0534694,38.1756463 78.7789888,39.2563015 78.1358653,39.8806202 C77.598818,40.4019644 77.2465332,40.6982546 76.9065722,40.9080262 C76.4947293,41.1621522 76.0790985,41.3042909 75.3368056,41.4547204 C75.0207154,41.5187778 73.2548843,41.8283818 72.6434055,41.9443805 C71.515669,42.1583142 69.8950582,42.0458141 67.9178333,41.6671113 C66.9390678,41.479646 65.9013179,41.2322768 64.8323972,40.9395416 C63.9414025,40.6955333 63.0790693,40.4340308 62.2785332,40.1725619 C61.9984648,40.0810867 61.7462021,39.9961769 61.525876,39.9200231 C61.3940247,39.8744498 61.3023495,39.8420072 61.2549775,39.8248855 L4.60289006,13.1068328 C4.46982502,13.0347144 4.23811423,12.9011692 3.94051747,12.7159117 Z" id="路径"></path>
            <path d="M0.353158505,8.59808564 L1.8031585,2.52808564 C1.96970238,1.83085138 2.49496769,1.2750868 3.18169921,1.06949786 C7.28438373,0.0140587551 11.612272,0.144375517 15.6532487,1.44792697 C18.2462714,2.18976592 20.7441003,3.20554968 23.1114875,4.48012446 L23.3485125,4.03987554 C20.9495012,2.74827465 18.4183056,1.71892178 15.7987514,0.969639344 C11.6757349,-0.360523693 7.25141421,-0.493744126 3.04770322,0.587886161 C2.18074053,0.847232617 1.5248122,1.5412471 1.31684061,2.41191807 L-0.133158505,8.48191436 L0.353158505,8.59808564 Z" id="路径"></path>
            <path d="M78.5240768,40.1891168 C78.6175263,40.0341766 78.7533572,39.7640293 78.8883555,39.4062119 C79.2585298,38.425053 79.3787274,37.4067525 79.0933726,36.4440103 C78.797878,35.4470581 78.0845347,34.6068531 76.8968397,33.9789831 L76.6631603,34.4210169 C77.7346238,34.9874416 78.3576537,35.7212719 78.6139868,36.5860993 C78.863484,37.4278633 78.7556359,38.3415395 78.4205429,39.2297144 C78.2972043,39.5566275 78.1746983,39.8002735 78.0959232,39.9308832 L78.5240768,40.1891168 Z" id="路径"></path>
        </g>
    </g>
</svg>