<svg id="图层_1" data-name="图层 1" xmlns="http://www.w3.org/2000/svg" xmlns:xlink="http://www.w3.org/1999/xlink" viewBox="0 0 192 192"><defs><style>.cls-1{fill:url(#linear-gradient);}.cls-2{fill:url(#linear-gradient-2);}.cls-3{fill:url(#linear-gradient-3);}.cls-4{fill:url(#linear-gradient-4);}.cls-5{fill:url(#linear-gradient-5);}.cls-6{fill:url(#linear-gradient-6);}.cls-7{fill:url(#linear-gradient-7);}.cls-8{fill:url(#linear-gradient-8);}.cls-9{fill:url(#linear-gradient-9);}.cls-10{fill:url(#linear-gradient-10);}.cls-11{fill:url(#linear-gradient-11);}.cls-12{fill:url(#linear-gradient-12);}.cls-13{fill:url(#linear-gradient-13);}.cls-14{fill:url(#linear-gradient-14);}.cls-15{fill:url(#linear-gradient-15);}.cls-16{fill:url(#linear-gradient-16);}.cls-17{fill:url(#linear-gradient-17);}.cls-18{fill:url(#linear-gradient-18);}.cls-19{fill:url(#linear-gradient-19);}.cls-20{fill:url(#linear-gradient-20);}.cls-21{fill:url(#linear-gradient-21);}.cls-22{fill:url(#linear-gradient-22);}.cls-23{fill:url(#linear-gradient-23);}.cls-24{fill:url(#linear-gradient-24);}.cls-25{fill:url(#linear-gradient-25);}.cls-26{fill:url(#linear-gradient-26);}.cls-27{fill:url(#linear-gradient-27);}.cls-28{fill:url(#linear-gradient-28);}</style><linearGradient id="linear-gradient" x1="676.57" y1="381.83" x2="654.15" y2="383.18" gradientUnits="userSpaceOnUse"><stop offset="0" stop-color="#ede67e"/><stop offset="1" stop-color="#9b6f2c"/></linearGradient><linearGradient id="linear-gradient-2" x1="649.97" y1="355.23" x2="687.12" y2="355.23" xlink:href="#linear-gradient"/><linearGradient id="linear-gradient-3" x1="684.61" y1="340.89" x2="675.85" y2="375.68" xlink:href="#linear-gradient"/><linearGradient id="linear-gradient-4" x1="617.35" y1="345.09" x2="669.66" y2="338.91" xlink:href="#linear-gradient"/><linearGradient id="linear-gradient-5" x1="625.03" y1="320.71" x2="636.62" y2="351.63" xlink:href="#linear-gradient"/><linearGradient id="linear-gradient-6" x1="670.06" y1="378.41" x2="670.07" y2="378.41" xlink:href="#linear-gradient"/><linearGradient id="linear-gradient-7" x1="607.82" y1="339.33" x2="634.5" y2="353.12" xlink:href="#linear-gradient"/><linearGradient id="linear-gradient-8" x1="609.06" y1="348.4" x2="654.16" y2="348.4" xlink:href="#linear-gradient"/><linearGradient id="linear-gradient-9" x1="611.59" y1="362.43" x2="679.62" y2="360.88" xlink:href="#linear-gradient"/><linearGradient id="linear-gradient-10" x1="618.45" y1="346.63" x2="641.65" y2="364.8" xlink:href="#linear-gradient"/><linearGradient id="linear-gradient-11" x1="685.33" y1="371.94" x2="640.11" y2="374.91" gradientUnits="userSpaceOnUse"><stop offset="0" stop-color="#ede67e"/><stop offset="0.83" stop-color="#a88134"/><stop offset="1" stop-color="#9b6f2c"/></linearGradient><linearGradient id="linear-gradient-12" x1="630.14" y1="373.23" x2="665.58" y2="373.23" xlink:href="#linear-gradient"/><linearGradient id="linear-gradient-13" x1="-1129.12" y1="381.83" x2="-1151.54" y2="383.18" gradientTransform="matrix(-1, 0, 0, 1, -440.9, 0)" xlink:href="#linear-gradient"/><linearGradient id="linear-gradient-14" x1="-1155.72" y1="355.23" x2="-1118.57" y2="355.23" gradientTransform="matrix(-1, 0, 0, 1, -440.9, 0)" xlink:href="#linear-gradient"/><linearGradient id="linear-gradient-15" x1="-1121.08" y1="340.89" x2="-1129.84" y2="375.68" gradientTransform="matrix(-1, 0, 0, 1, -440.9, 0)" xlink:href="#linear-gradient"/><linearGradient id="linear-gradient-16" x1="-1188.35" y1="345.09" x2="-1136.04" y2="338.91" gradientTransform="matrix(-1, 0, 0, 1, -440.9, 0)" xlink:href="#linear-gradient"/><linearGradient id="linear-gradient-17" x1="-1180.67" y1="320.71" x2="-1169.07" y2="351.63" gradientTransform="matrix(-1, 0, 0, 1, -440.9, 0)" xlink:href="#linear-gradient"/><linearGradient id="linear-gradient-18" x1="-1135.63" y1="378.41" x2="-1135.62" y2="378.41" gradientTransform="matrix(-1, 0, 0, 1, -440.9, 0)" xlink:href="#linear-gradient"/><linearGradient id="linear-gradient-19" x1="-1197.87" y1="339.33" x2="-1171.2" y2="353.12" gradientTransform="matrix(-1, 0, 0, 1, -440.9, 0)" xlink:href="#linear-gradient"/><linearGradient id="linear-gradient-20" x1="-1196.63" y1="348.4" x2="-1151.53" y2="348.4" gradientTransform="matrix(-1, 0, 0, 1, -440.9, 0)" xlink:href="#linear-gradient"/><linearGradient id="linear-gradient-21" x1="-1194.1" y1="362.43" x2="-1126.07" y2="360.88" gradientTransform="matrix(-1, 0, 0, 1, -440.9, 0)" xlink:href="#linear-gradient"/><linearGradient id="linear-gradient-22" x1="-1187.24" y1="346.63" x2="-1164.05" y2="364.8" gradientTransform="matrix(-1, 0, 0, 1, -440.9, 0)" xlink:href="#linear-gradient"/><linearGradient id="linear-gradient-23" x1="-1120.36" y1="371.94" x2="-1165.59" y2="374.91" gradientTransform="matrix(-1, 0, 0, 1, -440.9, 0)" xlink:href="#linear-gradient-11"/><linearGradient id="linear-gradient-24" x1="-1175.55" y1="373.23" x2="-1140.11" y2="373.23" gradientTransform="matrix(-1, 0, 0, 1, -440.9, 0)" xlink:href="#linear-gradient"/><linearGradient id="linear-gradient-25" x1="617.7" y1="430.15" x2="642.48" y2="430.15" xlink:href="#linear-gradient"/><linearGradient id="linear-gradient-26" x1="651.07" y1="430.17" x2="675.5" y2="430.17" xlink:href="#linear-gradient"/><linearGradient id="linear-gradient-27" x1="679.25" y1="429.9" x2="704.54" y2="429.9" xlink:href="#linear-gradient"/><linearGradient id="linear-gradient-28" x1="708.75" y1="429.99" x2="752.06" y2="429.99" xlink:href="#linear-gradient"/></defs><title>safari-pinned-tab</title><rect width="192" height="192"/><path class="cls-1" d="M646.05,381.9s10.63,7.6,23.6,2.25c0,0-3.19-4.18-6.84-4.77C662.81,379.38,650.8,382.22,646.05,381.9Z" transform="translate(-587 -288)"/><path class="cls-2" d="M670.07,378.4c4.13-4.28,14.15-16.22,16.75-33.51,0,0,1.51-9.7-2.31-11.84l-.38-.05h-.28c4.29,3,.59,16,.59,16C680.92,360.49,671,370.3,671,370.3L660.7,346.24c-2.61-7.61-6.86-11.83-10.73-14.18C652.38,334.33,660.06,343.79,670.07,378.4Z" transform="translate(-587 -288)"/><path class="cls-3" d="M686.82,344.89c-2.6,17.29-12.62,29.23-16.75,33.51v0c1.31,2.8,2.16,4.72,2.16,4.72,12.57-15.42,16.51-36.16,16.27-43.63-.1-2.94-1.38-6.08-4-6.47C688.33,335.19,686.82,344.89,686.82,344.89Z" transform="translate(-587 -288)"/><path class="cls-4" d="M643.61,335.78c-2.65-.49-5.38-1.06-6.77-1.32-27.48-5.13-35.55-14.07-37.75-17.7l-.44-.28c-.87,10.3,9,17.62,9,17.62,5.46,4.71,24.5,6.58,32.81,7.91a17.53,17.53,0,0,1,9.07,4.4,70.92,70.92,0,0,1,9.4,11.26c1.7,1.88,4.54,7.19,7.16,12.48-4.86-15.34-9.53-23.82-13.21-28.5C651.58,340,647.7,336.53,643.61,335.78Z" transform="translate(-587 -288)"/><path class="cls-5" d="M650,332.06a19.54,19.54,0,0,0-8.81-2.93c-25.8-2.94-39.53-10.79-42.07-12.37,2.2,3.63,10.27,12.57,37.75,17.7,1.39.26,4.12.83,6.77,1.32,4.09.75,8,4.17,9.3,5.87,3.68,4.68,8.35,13.16,13.21,28.5,1.46,3,2.86,5.91,3.94,8.26h0C660.06,343.79,652.38,334.33,650,332.06Z" transform="translate(-587 -288)"/><path class="cls-6" d="M670.07,378.4h0v0Z" transform="translate(-587 -288)"/><path class="cls-7" d="M609.1,340.6c.55,6.42,5.21,9.63,9.07,11.2a16.4,16.4,0,0,0,7.83,1.13c15.83-1.57,26.87,3.25,28,3.79-9.68-8.86-28-5.31-35-7.24C613.64,348,610.46,343.18,609.1,340.6Z" transform="translate(-587 -288)"/><path class="cls-8" d="M630.92,345.18C615.08,345,609.06,340,609.06,340c0,.2,0,.39,0,.58,1.36,2.58,4.54,7.41,9.9,8.88,7.09,1.93,25.37-1.62,35,7.24l.11,0C646.71,344.47,630.92,345.18,630.92,345.18Z" transform="translate(-587 -288)"/><path class="cls-9" d="M629.94,364.21c6.09.73,22-4,30.56,2.2-1.31-1.61-6.38-7.4-12-7.58-1.63-.05-23.23,1.52-28.88-1.67l.13.29C621.82,359.92,625.63,363.7,629.94,364.21Z" transform="translate(-587 -288)"/><path class="cls-10" d="M629.94,364.21c-4.31-.51-8.12-4.29-10.18-6.76.65,1.48,3.84,8.18,8.22,8.92a31.59,31.59,0,0,0,9.85-.19s17.35-2,23,.64l-.32-.41C651.9,360.18,636,364.94,629.94,364.21Z" transform="translate(-587 -288)"/><path class="cls-11" d="M644.31,376.1c-5.55,1-10.65-1.9-13.39-3.89a27.88,27.88,0,0,0,4.45,3.87,11.23,11.23,0,0,0,8.57,1.78c1.66-.33,4-.79,6.74-1.38,0,0,10.62-2.25,15.19-.19,0,0-.1-.17-.29-.46C660.14,372.38,651.58,374.82,644.31,376.1Z" transform="translate(-587 -288)"/><path class="cls-12" d="M657.37,370.25a6.18,6.18,0,0,0-1.92,0c-3.91.51-20,2.46-25.31,1.11,0,0,.28.35.78.88,2.74,2,7.84,4.86,13.39,3.89,7.27-1.28,15.83-3.72,21.27-.27A13,13,0,0,0,657.37,370.25Z" transform="translate(-587 -288)"/><path class="cls-13" d="M718.74,381.9s-10.63,7.6-23.6,2.25c0,0,3.19-4.18,6.85-4.77C702,379.38,714,382.22,718.74,381.9Z" transform="translate(-587 -288)"/><path class="cls-14" d="M694.72,378.4c-4.13-4.28-14.14-16.22-16.75-33.51,0,0-1.51-9.7,2.31-11.84l.38-.05h.28c-4.29,3-.59,16-.59,16,3.52,11.45,13.47,21.26,13.47,21.26l10.27-24.06c2.61-7.61,6.86-11.83,10.73-14.18C712.41,334.33,704.73,343.79,694.72,378.4Z" transform="translate(-587 -288)"/><path class="cls-15" d="M678,344.89c2.61,17.29,12.62,29.23,16.75,33.51v0c-1.3,2.8-2.16,4.72-2.16,4.72C680,367.73,676.05,347,676.29,339.52c.1-2.94,1.38-6.08,4-6.47C676.46,335.19,678,344.89,678,344.89Z" transform="translate(-587 -288)"/><path class="cls-16" d="M721.19,335.78c2.64-.49,5.37-1.06,6.76-1.32,27.48-5.13,35.55-14.07,37.75-17.7l.45-.28c.86,10.3-9,17.62-9,17.62-5.46,4.71-24.49,6.58-32.81,7.91a17.5,17.5,0,0,0-9.06,4.4,70.65,70.65,0,0,0-9.41,11.26c-1.7,1.88-4.54,7.19-7.16,12.48,4.87-15.34,9.54-23.82,13.22-28.5C713.22,340,717.09,336.53,721.19,335.78Z" transform="translate(-587 -288)"/><path class="cls-17" d="M714.82,332.06a19.57,19.57,0,0,1,8.81-2.93c25.8-2.94,39.53-10.79,42.07-12.37-2.2,3.63-10.27,12.57-37.75,17.7-1.39.26-4.12.83-6.76,1.32-4.1.75-8,4.17-9.3,5.87-3.68,4.68-8.35,13.16-13.22,28.5-1.46,3-2.86,5.91-3.94,8.26h0C704.73,343.79,712.41,334.33,714.82,332.06Z" transform="translate(-587 -288)"/><path class="cls-18" d="M694.72,378.4h0v0Z" transform="translate(-587 -288)"/><path class="cls-19" d="M755.69,340.6c-.55,6.42-5.2,9.63-9.07,11.2a16.38,16.38,0,0,1-7.82,1.13c-15.84-1.57-26.88,3.25-28.06,3.79,9.68-8.86,28-5.31,35-7.24C751.15,348,754.33,343.18,755.69,340.6Z" transform="translate(-587 -288)"/><path class="cls-20" d="M733.87,345.18c15.84-.15,21.86-5.16,21.86-5.16,0,.2,0,.39,0,.58-1.36,2.58-4.54,7.41-9.9,8.88-7.09,1.93-25.37-1.62-35,7.24l-.11,0C718.08,344.47,733.87,345.18,733.87,345.18Z" transform="translate(-587 -288)"/><path class="cls-21" d="M734.85,364.21c-6.09.73-22-4-30.56,2.2,1.31-1.61,6.38-7.4,12-7.58,1.63-.05,23.24,1.52,28.88-1.67a3.07,3.07,0,0,1-.13.29C743,359.92,739.16,363.7,734.85,364.21Z" transform="translate(-587 -288)"/><path class="cls-22" d="M734.85,364.21c4.31-.51,8.12-4.29,10.18-6.76-.65,1.48-3.84,8.18-8.22,8.92a31.53,31.53,0,0,1-9.84-.19s-17.36-2-23,.64l.32-.41C712.89,360.18,728.76,364.94,734.85,364.21Z" transform="translate(-587 -288)"/><path class="cls-23" d="M720.48,376.1c5.55,1,10.65-1.9,13.39-3.89a27.88,27.88,0,0,1-4.45,3.87,11.23,11.23,0,0,1-8.57,1.78c-1.66-.33-4-.79-6.73-1.38,0,0-10.63-2.25-15.2-.19,0,0,.1-.17.29-.46C704.65,372.38,713.21,374.82,720.48,376.1Z" transform="translate(-587 -288)"/><path class="cls-24" d="M707.42,370.25a6.18,6.18,0,0,1,1.92,0c3.91.51,19.95,2.46,25.31,1.11,0,0-.28.35-.78.88-2.74,2-7.84,4.86-13.39,3.89-7.27-1.28-15.83-3.72-21.27-.27A13,13,0,0,1,707.42,370.25Z" transform="translate(-587 -288)"/><path class="cls-25" d="M642.48,444.8h-3.61c0-.88,0-2.49.06-4.85s0-5.29,0-8.8H621.22q0,6.08,0,9.21c0,2.09,0,3.56.06,4.44H617.7c0-.88,0-2.43.06-4.66s0-6,0-11.31c0-1.6,0-3.56,0-5.86s0-4.79-.07-7.46h3.61c0,2.22,0,4.39,0,6.53s0,4.17,0,6.09H639q0-2.88,0-6.08t0-6.54h3.61c0,2.2-.05,4.75-.08,7.63s0,5.25,0,7.07q0,6.44,0,9.85C642.45,442.35,642.47,443.92,642.48,444.8Z" transform="translate(-587 -288)"/><path class="cls-26" d="M675.5,444.76l-6.52,0h-5l-8.26,0-3.71,0-1-2.28q3.16-3.87,8.42-10.48t10.43-13.41l0,0-3.68,0H663.5q-4.18,0-7.39,0l-3.64,0v-3c1.16,0,2.59,0,4.28,0l5.54,0,7.85,0,3.65,0,1.08,2.27q-1.43,1.75-6.57,8.21t-12.21,15.46l0,0,3.28.05,4.28,0q4.71,0,8.16-.06l3.67-.05Z" transform="translate(-587 -288)"/><path class="cls-27" d="M704.54,416.93l-4.34,5.45q-4.16,5.22-6.69,8.44c0,2.64,0,5.41,0,8.31s.06,4.79.08,5.67H690c0-.88.06-2.79.09-5.74s0-5.61,0-8q-2.67-3.51-6.61-8.52c-2.62-3.33-4-5.12-4.24-5.37l2.87-2.18c.19.24,1.34,1.78,3.44,4.59s4.22,5.61,6.35,8.38H692q3.09-4,6.47-8.35L702,415Z" transform="translate(-587 -288)"/><path class="cls-28" d="M752.06,416.17q-3.7,9.69-6.88,19t-3.34,9.74h-3q-.1-.42-2.35-7t-5.92-16.3h0q-3.21,8.07-5.92,15.43t-2.87,7.84h-3.11c-.12-.42-1.05-3.28-2.81-8.58s-4.1-11.94-7-19.9l3.58-1.4c.06.2.92,2.77,2.56,7.7s3.54,10.47,5.66,16.61h.05q3.38-8.49,5.87-15.56c1.67-4.71,2.55-7.18,2.62-7.39h3.39c.06.24.95,2.92,2.66,8s3.45,10.07,5.22,14.95l0,0q3.51-9.55,5.92-16.75c1.61-4.79,2.44-7.31,2.5-7.54Z" transform="translate(-587 -288)"/></svg>