<?xml version="1.0" encoding="UTF-8"?>
<svg width="33px" height="25px" viewBox="0 0 33 25" version="1.1" xmlns="http://www.w3.org/2000/svg" xmlns:xlink="http://www.w3.org/1999/xlink">
    <title>background-repeat</title>
    <g id="切图" stroke="none" stroke-width="1" fill="none" fill-rule="evenodd" opacity="0.3">
        <path d="M10,17 L10,18 L9,18 L9,17 L10,17 Z M2,17 L2,18 L1,18 L1,17 L2,17 Z M18,17 L18,18 L17,18 L17,17 L18,17 Z M26,17 L26,18 L25,18 L25,17 L26,17 Z M10,9 L10,10 L9,10 L9,9 L10,9 Z M2,9 L2,10 L1,10 L1,9 L2,9 Z M18,9 L18,10 L17,10 L17,9 L18,9 Z M26,9 L26,10 L25,10 L25,9 L26,9 Z M2,0 L2,1 L3,1 L3,2 L2,2 L2,3 L1,3 L1,2 L0,2 L0,1 L1,1 L1,0 L2,0 Z M10,1 L10,2 L9,2 L9,1 L10,1 Z M18,1 L18,2 L17,2 L17,1 L18,1 Z M26,1 L26,2 L25,2 L25,1 L26,1 Z" id="形状结合" fill="#FFFFFF"></path>
    </g>
</svg>