<?xml version="1.0" encoding="UTF-8"?>
<svg width="60px" height="60px" viewBox="0 0 60 60" version="1.1" xmlns="http://www.w3.org/2000/svg" xmlns:xlink="http://www.w3.org/1999/xlink">
    <title>broadcast-60px</title>
    <g id="切图" stroke="none" stroke-width="1" fill="none" fill-rule="evenodd">
        <g id="编组">
            <circle id="椭圆形备份-2" fill-opacity="0.1" fill="#060838" opacity="0" cx="30" cy="30" r="30"></circle>
            <g id="radio_s" transform="translate(16.000000, 17.000000)" fill="#FFFFFF" fill-rule="nonzero">
                <path d="M17.9606982,0.151195752 C18.2979939,-0.0483229741 18.7162919,-0.0505185596 19.0556536,0.14544849 C19.3950153,0.34141554 19.602956,0.705237508 19.6,1.09780497 L19.6,1.09780497 L19.6,24.102195 C19.602956,24.4947625 19.3950153,24.8585845 19.0556536,25.0545515 C18.7162919,25.2505186 18.2979939,25.248323 17.9606982,25.0488042 L17.9606982,25.0488042 L9.46143921,19.1726829 C9.33747653,19.0840983 9.22908676,18.9754506 9.14071246,18.851193 L9.14071246,18.851193 L7.12726118,18.851193 L7.12726118,24.2093583 L3.56363059,24.2093583 L3.56363059,18.851193 L1.78181529,18.851193 C0.79774588,18.851193 9.05941988e-13,18.0515488 9.05941988e-13,17.0651378 L9.05941988e-13,17.0651378 L9.05941988e-13,8.13486218 C9.05941988e-13,7.14845117 0.79774588,6.34880705 1.78181529,6.34880705 L1.78181529,6.34880705 L9.14071246,6.34880705 C9.22908676,6.2245494 9.33747653,6.11590172 9.46143921,6.02731713 L9.46143921,6.02731713 Z M22.4,7.46666667 C25.4927946,7.46666667 28,9.97387207 28,13.0666667 C28,16.1594613 25.4927946,18.6666667 22.4,18.6666667 L22.4,18.6666667 Z" id="形状结合"></path>
            </g>
        </g>
    </g>
</svg>