<?xml version="1.0" encoding="UTF-8"?>
<svg width="60px" height="60px" viewBox="0 0 60 60" version="1.1" xmlns="http://www.w3.org/2000/svg" xmlns:xlink="http://www.w3.org/1999/xlink">
    <title>charging-pile-60px</title>
    <g id="切图" stroke="none" stroke-width="1" fill="none" fill-rule="evenodd">
        <g id="编组">
            <circle id="椭圆形备份-2" fill-opacity="0.1" fill="#060838" opacity="0" cx="30" cy="30" r="30"></circle>
            <path d="M32,23.3333333 L32,39.1666667 L37.6333333,39.1666667 C38.6666667,39.1666667 39.5,38.3333333 39.5,37.3 L39.5,37.3 L39.5,36.6666667 L41.1666667,36.6666667 L41.1666667,37.3 C41.1666667,39.25 39.5833333,40.8333333 37.6333333,40.8333333 L37.6333333,40.8333333 L32,40.8333333 L32,43.3333333 C32,44.25 31.1666667,45 30.1166667,45 L30.1166667,45 L18.8666667,45 C17.8333333,45 17,44.25 17,43.3333333 L17,43.3333333 L17,23.3333333 L32,23.3333333 Z M25.3333333,28.3333333 L22,28.3333333 L20.3333333,31.6666667 L20.3333333,33.3333333 L25.3333333,33.3333333 L23.6666667,38.3333333 L28.6666667,33.3333333 L28.6666667,31.6666667 L23.6666667,31.6666667 L25.3333333,28.3333333 Z M43.6666667,22.5 L43.6666667,24.0333333 C41.7166667,24.0333333 40,25.1166667 38.95,26.7333333 C41.6,27.2333333 43.65,32.5833333 43.65,35.3 L43.65,35.3 L43.65,35.6666667 C43.65,36.2 43.2166667,36.65 42.6666667,36.65 L42.6666667,36.65 L37.9833333,36.65 C37.45,36.65 37,36.2166667 37,35.6666667 L37,35.6666667 L37,27.65 C37,27.6 37.05,27.4166667 37.05,27.3666667 C37.0833333,27.3 37.1,27.2333333 37.1333333,27.1833333 C38.2333333,24.45 40.7333333,22.5 43.6666667,22.5 L43.6666667,22.5 Z M30.1333333,15 C31.1666667,15 32,15.75 32,16.6666667 L32,16.6666667 L32,21.6666667 L17,21.6666667 L17,16.6666667 C17,15.75 17.8333333,15 18.8666667,15 L18.8666667,15 Z" id="蒙版" fill="#FFFFFF" fill-rule="nonzero"></path>
        </g>
    </g>
</svg>