<?xml version="1.0" encoding="UTF-8"?>
<svg width="24px" height="24px" viewBox="0 0 24 24" version="1.1" xmlns="http://www.w3.org/2000/svg" xmlns:xlink="http://www.w3.org/1999/xlink">
    <title>cog-24px</title>
    <g id="切图" stroke="none" stroke-width="1" fill="none" fill-rule="evenodd">
        <path d="M14.5492618,22.0546617 C14.7855893,22.0031329 14.9531419,21.7925698 14.9531419,21.5519621 L14.9531419,19.4378963 C15.9070542,19.0984272 16.7922336,18.5871254 17.5656692,17.9296716 L19.3961168,18.9867255 C19.60668,19.1070293 19.8687719,19.0683407 20.0320444,18.887906 C21.0933784,17.7406347 21.9055026,16.3570358 22.3824378,14.8230467 C22.4468908,14.5867192 22.3523514,14.3375094 22.1418302,14.2172056 L20.3113406,13.1601517 C20.4960974,12.1633126 20.4960974,11.1406252 20.3113406,10.1437862 L22.1418302,9.08673228 C22.3523514,8.96642846 22.4468908,8.7172187 22.3781577,8.48517122 C21.9011806,6.95550415 21.0890983,5.5719053 20.0277643,4.42035394 C19.8644919,4.24415731 19.5980778,4.20118866 19.3918367,4.32153444 L17.5613472,5.37854639 C16.7922336,4.71681243 15.9070542,4.2055107 14.9488618,3.87036365 L14.9488618,1.76057787 C14.9488618,1.51997023 14.7812673,1.30940707 14.5449397,1.2578363 C12.9680239,0.905526964 11.3523776,0.922689246 9.85279697,1.2578363 C9.61646941,1.30940707 9.4488749,1.51997023 9.4488749,1.76057787 L9.4488749,3.87464373 C8.49496253,4.21411283 7.60982518,4.72541455 6.83638952,5.38282647 L5.010222,4.32581452 C4.79965884,4.2055107 4.53756688,4.24415731 4.37429441,4.42463402 C3.31296042,5.5719053 2.5008362,6.95550415 2.02390099,8.48949326 C1.9508459,8.72149878 2.0496654,8.97070854 2.26022856,9.09105432 L4.09067616,10.1480663 C3.90591936,11.1449473 3.90591936,12.1675927 4.09067616,13.1644737 L2.26022856,14.2214857 C2.0496654,14.3417895 1.95512598,14.5910412 2.02390099,14.8230467 C2.5008362,16.3527558 3.31296042,17.7363126 4.37429441,18.887906 C4.53756688,19.0640606 4.80398088,19.1070293 5.010222,18.9867255 L6.8406696,17.9296716 C7.60982518,18.5914055 8.49496253,19.1027492 9.45315498,19.4378963 L9.45315498,21.5519621 C9.45315498,21.7925698 9.62074949,22.0031329 9.85707705,22.0546617 C11.4340348,22.407013 13.0496392,22.3898507 14.5492618,22.0546617 Z M12.1988683,15.0894607 C10.3039678,15.0894607 8.76137654,13.5468695 8.76137654,11.6519689 C8.76137654,9.75706836 10.3039678,8.21447713 12.1988683,8.21447713 C14.0937689,8.21447713 15.6363601,9.75706836 15.6363601,11.6519689 C15.6363601,13.5468695 14.0937689,15.0894607 12.1988683,15.0894607 Z" id="c" fill="#FFFFFF" fill-rule="nonzero"></path>
    </g>
</svg>