<?xml version="1.0" encoding="UTF-8"?>
<svg width="48px" height="48px" viewBox="0 0 48 48" version="1.1" xmlns="http://www.w3.org/2000/svg" xmlns:xlink="http://www.w3.org/1999/xlink">
    <title>environment-48px</title>
    <g id="切图" stroke="none" stroke-width="1" fill="none" fill-rule="evenodd">
        <path d="M14.5069017,34.5365396 C17.6079146,35.2422315 20.8621231,34.6733827 23.5406635,32.9574014 C26.219204,31.2414201 28.0982359,28.5217077 28.7569017,25.4074137 C29.2762871,22.8848718 30.7789399,20.673703 32.9320593,19.2636273 C35.0851787,17.8535517 37.7110662,17.3609436 40.2281517,17.8949039 C41.2104045,18.13279 42.1484465,18.5260382 43.0069017,19.0598184 C42.7026051,17.9932904 42.2970048,16.9583728 41.7956517,15.9692289 C41.4850086,15.3152308 41.1360684,14.6801591 40.7506517,14.0673277 C36.6432824,7.56340072 29.0947625,4.09078919 21.4891626,5.20629671 C13.8835628,6.32180423 7.64759536,11.816176 5.5769017,19.2262348 L5.2681517,20.3911492 C4.41365471,24.3492198 5.63088968,28.4704579 8.4981517,31.3270813 C7.74100616,32.7919528 7.09015841,34.3094688 6.5506517,35.8678704 C6.1706517,37.0327849 5.8619017,38.245247 5.5769017,39.4101614 C5.2919017,40.5750759 5.0069017,41.9539543 5.0069017,43 L9.7569017,43 C9.7569017,42.0252756 9.7569017,41.0505512 9.7569017,40.0520531 C9.84099782,38.9909931 9.98371623,37.9354075 10.1844017,36.8901423 C11.1013545,32.1773429 13.1287742,27.7516783 16.0981517,23.9809878 C17.4006648,22.2533643 18.8725777,20.6605148 20.4919017,19.2262348 C20.7056517,19.0598184 21.2994017,18.5843431 21.1331517,18.7745332 C13.6994017,27.4757313 14.5069017,34.5365396 14.5069017,34.5365396 Z" id="蒙版" stroke="#72B9E7" fill-rule="nonzero"></path>
    </g>
</svg>