<?xml version="1.0" encoding="UTF-8"?>
<svg width="28px" height="28px" viewBox="0 0 28 28" version="1.1" xmlns="http://www.w3.org/2000/svg" xmlns:xlink="http://www.w3.org/1999/xlink">
    <title>humidity-28px</title>
    <g id="切图" stroke="none" stroke-width="1" fill="none" fill-rule="evenodd">
        <path d="M11.1249731,11.2499698 C12.4570012,11.2499698 13.5312174,10.1800337 13.5312174,8.85660778 C13.5312174,7.35702716 12.1648228,6.79843474 11.5245731,4.67148668 C11.4171515,4.28476886 10.849957,4.26756461 10.7253731,4.67148668 C10.0851235,6.78983262 8.71872886,7.36558732 8.71872886,8.85660778 C8.71872886,10.1800337 9.79294504,11.2499698 11.1249731,11.2499698 Z M17.9999567,23.6249403 C21.0421286,23.6249403 23.4999436,21.2702668 23.4999436,18.3655611 C23.4999436,15.0612973 20.3804366,13.8323688 18.9109004,9.15310823 C18.6616907,8.3023374 17.3640291,8.26364884 17.0847329,9.15310823 C15.6237989,13.8108844 12.4999698,15.0784596 12.4999698,18.3655611 C12.4999698,21.2745469 14.9577849,23.6249403 17.9999567,23.6249403 Z M6.65623377,19.4999502 C7.98826185,19.4999502 9.06247804,18.4300141 9.06247804,17.1065881 C9.06247804,15.6070075 7.69608344,15.0484151 7.0558338,12.921467 C6.94841218,12.5347492 6.38121764,12.5175449 6.25663374,12.921467 C5.61638411,15.0398129 4.24998951,15.6155676 4.24998951,17.1065881 C4.24998951,18.4300141 5.3242057,19.4999502 6.65623377,19.4999502 Z" id="r" fill="#FFFFFF" fill-rule="nonzero"></path>
    </g>
</svg>