<?xml version="1.0" encoding="UTF-8"?>
<svg width="66px" height="87px" viewBox="0 0 66 87" version="1.1" xmlns="http://www.w3.org/2000/svg" xmlns:xlink="http://www.w3.org/1999/xlink">
    <title>智慧灯杆图标-灰色</title>
    <defs>
        <linearGradient x1="100%" y1="86.7541543%" x2="100%" y2="11.1096885%" id="linearGradient-1">
            <stop stop-color="#818181" offset="0%"></stop>
            <stop stop-color="#BDBDBD" offset="100%"></stop>
        </linearGradient>
        <filter x="-11.1%" y="-37.5%" width="122.2%" height="175.0%" filterUnits="objectBoundingBox" id="filter-2">
            <feGaussianBlur stdDeviation="2" in="SourceGraphic"></feGaussianBlur>
        </filter>
    </defs>
    <g id="切图" stroke="none" stroke-width="1" fill="none" fill-rule="evenodd">
        <g id="智慧灯杆图标备份" transform="translate(6.000000, 0.000000)">
            <path d="M0,26.8642969 C0,32.3854237 1.38470888,36.9684775 4.54519979,41.7813548 C10.7877847,51.9856919 22.9365768,60 27.0004558,60 C31.0579536,60 43.1821328,51.9329309 49.4548002,41.7813548 C52.5615072,36.9684775 54,32.3800581 54,26.8642969 C53.9525972,12.04203 41.8758209,0 26.9767544,0 C12.0767763,0 0,12.0473955 0,26.8642969 Z" id="路径" fill="url(#linearGradient-1)" fill-rule="nonzero"></path>
            <ellipse id="椭圆形" fill-opacity="0.5" fill="#000000" filter="url(#filter-2)" cx="27" cy="73" rx="27" ry="8"></ellipse>
            <path d="M37.6740797,18.1895905 L37.6740797,17.0363128 C37.6740797,15.4209964 36.3707095,14.1176471 34.7675369,14.1176471 L19.2448417,14.1176471 C17.6362347,14.1176471 16.338299,15.4273631 16.338299,17.0363128 L16.338299,18.1895905 C15.1780368,18.5979672 14.4,19.6975829 14.4,20.9345369 C14.4,22.5498533 15.7033702,23.8532027 17.3065427,23.8532027 C18.9151497,23.8532027 20.2130854,22.5434867 20.2130854,20.9345369 C20.2130854,19.6975829 19.4359543,18.5979672 18.2747865,18.1895905 L18.2747865,17.0363128 C18.2747865,16.4960549 18.7113566,16.063121 19.2439359,16.063121 L26.0334168,16.063121 L26.0334168,32.616476 L25.6267364,32.616476 C25.0887225,32.616476 24.5796926,32.832943 24.1974673,33.2167625 C23.8206765,33.6014916 23.6051086,34.1181018 23.6114489,34.651993 L23.1929937,40.4065577 L20.2139912,40.4065577 C19.6931865,40.4302053 19.2865061,40.8567726 19.2865061,41.3797494 C19.2865061,41.9018168 19.6931865,42.328384 20.2139912,42.3529412 L34.7611967,42.3529412 C35.3001163,42.3529412 35.7303462,41.9145501 35.7303462,41.3797494 C35.7303462,40.8385821 35.2937761,40.4065577 34.7611967,40.4065577 L30.8130447,40.4065577 L30.3882493,34.5801405 C30.3882493,33.5287296 29.4906538,32.616476 28.3720561,32.616476 L27.9653756,32.616476 L27.9653756,16.063121 L34.7548565,16.063121 C35.2928703,16.063121 35.724006,16.5015121 35.724006,17.0363128 L35.724006,18.1895905 C34.5637438,18.5979672 33.785707,19.6975829 33.785707,20.9345369 C33.785707,22.5498533 35.0899829,23.8532027 36.6922497,23.8532027 C38.3017625,23.8532027 39.5998509,22.5434867 39.5998509,20.9345369 C39.6123786,19.6975829 38.8343418,18.5979672 37.6740797,18.1895905 L37.6740797,18.1895905 Z M17.3074485,21.901362 C16.7694346,21.901362 16.338299,21.462971 16.338299,20.9281703 C16.338299,20.3879124 16.7748691,19.9549785 17.3074485,19.9549785 C17.8454623,19.9549785 18.276598,20.3933696 18.276598,20.9281703 C18.276598,21.4684281 17.8400278,21.901362 17.3074485,21.901362 L17.3074485,21.901362 Z M28.4508561,34.6529025 L28.8693113,40.4074672 L25.1367271,40.4074672 L25.5497478,34.7256645 C25.5497478,34.6056072 25.5859777,34.5692262 25.6276421,34.5692262 L28.3729618,34.5692262 C28.4209664,34.5628595 28.4508561,34.5992405 28.4508561,34.6529025 L28.4508561,34.6529025 Z M36.6994957,21.901362 C36.1614819,21.901362 35.7303462,21.462971 35.7303462,20.9281703 C35.7303462,20.3879124 36.1669163,19.9549785 36.6994957,19.9549785 C37.2375095,19.9549785 37.6686452,20.3933696 37.6686452,20.9281703 C37.6740797,21.4684281 37.2375095,21.901362 36.6994957,21.901362 L36.6994957,21.901362 Z" id="形状" stroke="#121952" fill="#141D57" fill-rule="nonzero"></path>
        </g>
    </g>
</svg>