<?xml version="1.0" encoding="UTF-8"?>
<svg width="28px" height="28px" viewBox="0 0 28 28" version="1.1" xmlns="http://www.w3.org/2000/svg" xmlns:xlink="http://www.w3.org/1999/xlink">
    <title>noise-28px</title>
    <g id="切图" stroke="none" stroke-width="1" fill="none" fill-rule="evenodd">
        <path d="M5.84375,11.25 L4.8125,11.25 C4.43280423,11.25 4.125,11.5578042 4.125,11.9375 L4.125,16.0625 C4.125,16.4421958 4.43280423,16.75 4.8125,16.75 L5.84375,16.75 C6.22344577,16.75 6.53125,16.4421958 6.53125,16.0625 L6.53125,11.9375 C6.53125,11.5578042 6.22344577,11.25 5.84375,11.25 Z M1.71875,12.625 L0.6875,12.625 C0.307804234,12.625 0,12.9328042 0,13.3125 L0,14.6875 C0,15.0671958 0.307804234,15.375 0.6875,15.375 L1.71875,15.375 C2.09844577,15.375 2.40625,15.0671958 2.40625,14.6875 L2.40625,13.3125 C2.40625,12.9328042 2.09844577,12.625 1.71875,12.625 Z M9.96875,7.125 L8.9375,7.125 C8.55780423,7.125 8.25,7.43280423 8.25,7.8125 L8.25,20.1875 C8.25,20.5671958 8.55780423,20.875 8.9375,20.875 L9.96875,20.875 C10.3484458,20.875 10.65625,20.5671958 10.65625,20.1875 L10.65625,7.8125 C10.65625,7.43280423 10.3484458,7.125 9.96875,7.125 Z M26.46875,12.625 L25.4375,12.625 C25.0578042,12.625 24.75,12.9328042 24.75,13.3125 L24.75,14.6875 C24.75,15.0671958 25.0578042,15.375 25.4375,15.375 L26.46875,15.375 C26.8484458,15.375 27.15625,15.0671958 27.15625,14.6875 L27.15625,13.3125 C27.15625,12.9328042 26.8484458,12.625 26.46875,12.625 Z M22.34375,5.75 L21.3125,5.75 C20.9328042,5.75 20.625,6.05780423 20.625,6.4375 L20.625,21.5625 C20.625,21.9421958 20.9328042,22.25 21.3125,22.25 L22.34375,22.25 C22.7234458,22.25 23.03125,21.9421958 23.03125,21.5625 L23.03125,6.4375 C23.03125,6.05780423 22.7234458,5.75 22.34375,5.75 Z M18.21875,8.5 L17.1875,8.5 C16.8078042,8.5 16.5,8.80780423 16.5,9.1875 L16.5,18.8125 C16.5,19.1921958 16.8078042,19.5 17.1875,19.5 L18.21875,19.5 C18.5984458,19.5 18.90625,19.1921958 18.90625,18.8125 L18.90625,9.1875 C18.90625,8.80780423 18.5984458,8.5 18.21875,8.5 Z M14.09375,3 L13.0625,3 C12.6828042,3 12.375,3.30780423 12.375,3.6875 L12.375,24.3125 C12.375,24.6921958 12.6828042,25 13.0625,25 L14.09375,25 C14.4734458,25 14.78125,24.6921958 14.78125,24.3125 L14.78125,3.6875 C14.78125,3.30780423 14.4734458,3 14.09375,3 Z" id="形状" fill="#FFFFFF" fill-rule="nonzero"></path>
    </g>
</svg>