<svg xmlns="http://www.w3.org/2000/svg" xmlns:xlink="http://www.w3.org/1999/xlink" viewBox="0 0 56.39 86"><defs><style>.cls-1{fill:url(#未命名的渐变_66);}.cls-2{fill:#009245;}.cls-3{fill:#39b54a;}.cls-4{fill:#fff;}</style><radialGradient id="未命名的渐变_66" cx="-15.67" cy="19.37" r="18.95" gradientTransform="translate(46.42 69.13) scale(1.12 0.43)" gradientUnits="userSpaceOnUse"><stop offset="0" stop-color="#009245" stop-opacity="0"/><stop offset="0.67" stop-color="#009245" stop-opacity="0.28"/><stop offset="1" stop-color="#009245" stop-opacity="0.4"/></radialGradient></defs><g id="图层_2" data-name="图层 2"><g id="图层_1-2" data-name="图层 1"><ellipse class="cls-1" cx="28.9" cy="77.54" rx="26.79" ry="8.46"/><path class="cls-2" d="M38.16,61.62,29,74.42l-9.19-12.8H38.16m2-1H17.83L29,76.13,40.11,60.62Z"/><path class="cls-3" d="M28.2,55.39A27.2,27.2,0,1,1,55.39,28.2,27.23,27.23,0,0,1,28.2,55.39Z"/><path class="cls-3" d="M28.2,2A26.2,26.2,0,1,1,2,28.2,26.22,26.22,0,0,1,28.2,2m0-2A28.2,28.2,0,1,0,56.39,28.2,28.19,28.19,0,0,0,28.2,0Z"/><path class="cls-4" d="M28.38,14.14l-.32.44-.23-.26h0a.81.81,0,0,0,.48-.15l0,0m.25,2.17a.73.73,0,0,0,.21.36.84.84,0,0,0-.13.44v.06a.88.88,0,0,0,.07.33.86.86,0,0,0-.08.36V18a.86.86,0,0,0,.08.36v0l0,0-.25-.25a.81.81,0,0,0-.1-.09v-.18a.87.87,0,0,0-.06-.32.73.73,0,0,0,.06-.3v-.14a.85.85,0,0,0-.08-.35.74.74,0,0,0,.17-.43l.16,0m4.8,8.7v7.91H30.48v-.59a.8.8,0,0,0-.8-.8h-.17a.8.8,0,0,0-.8.8v6.55a.68.68,0,0,0,.09.35.73.73,0,0,0-.08.36v.16a.75.75,0,0,0,.09.37.86.86,0,0,0-.1.38.81.81,0,0,0,.62.78.28.28,0,0,0,0,.09v5.1l-1.55-.24v-5l.05-.06a.79.79,0,0,0,.57-.76v-.07a.73.73,0,0,0-.06-.3.86.86,0,0,0,.05-.27v-.31a.67.67,0,0,0-.06-.28.72.72,0,0,0,.06-.29V32.29a.8.8,0,0,0-.18-.5V26a.69.69,0,0,0,.28-.2l.27-.3a.81.81,0,0,0,.73.56h.2a.75.75,0,0,0,.55-.23.77.77,0,0,0,.25-.57V25h2.95m-7,.13v7.63H23.93V25.14h2.46M30,47.88h.05l.08.1-.68.33-.1,0a.83.83,0,0,0,.49-.21.65.65,0,0,0,.16-.21m7.84-40-7.3,2.7h0L29.17,13l-.09-.1c.08,0,.13,0,.13-.06a.05.05,0,0,0,0,0l-.08-.08c.07,0,.11,0,.11-.07s0,0,0,0h0a2.44,2.44,0,0,0-.29-.27l-.33,0-.33,0a2.16,2.16,0,0,0-.33.27h0s0,0,0,0,0,0,.11.07l-.08.08h0s0,0,0,0,0,.06.12.08L27.9,13h0a.05.05,0,0,0,0,0s0,.07.13.09h0l-.05.09-.06,0a.11.11,0,0,0,0,.08s.05.06.12.08l0,0c-.08,0-.1,0-.11-.06a.09.09,0,0,1,0-.05.46.46,0,0,1,.19-.07l-.16.26s-.07,0-.08,0h0l-1.27-1.82h0l-.15-.05-.46,0-.17-.24-.14,0h0l-6.55-.55h0l.18.52h0l1,.25h0s0,0,0,0h0c0,.09.12.19.27.23h.11a.28.28,0,0,0,.13,0h0a.3.3,0,0,0,.25.2h.09a.27.27,0,0,0,.17-.06h0a.33.33,0,0,0,.14,0,.12.12,0,0,0,0-.08h0v0c0-.06-.11-.08-.26-.11h0a.57.57,0,0,0-.18,0H21s0,0,0,0h0c0,.09.11.19.27.23h0a.33.33,0,0,1-.15,0h-.07c-.14,0-.23-.12-.23-.21h0s0,0,0,0h0s0,0,0,0-.11-.08-.25-.11h0a.58.58,0,0,0-.19,0h0l-.65-.14,5.3,1,0,0-1.13-.2v0l.59.22.7.14.11.12-1.88-.44h0l-.13,0-.37-.06a.06.06,0,0,0,0,0h0s0,0,0,0S22.84,12,22.7,12h0a.63.63,0,0,0-.19,0h-.07s0,0,0,0h0c0,.1.12.2.27.24h.1a.24.24,0,0,0,.14-.05h0a.14.14,0,0,0,0,.07.38.38,0,0,0,.21.14h.08a.25.25,0,0,0,.21-.1h0l1.91.44,2.34,2.62v.27l-.12,0v.12l.12,0v.12l-.11,0V16l.11,0v.11h-.11v.11h.11v.05l-.76.09h0v.44h0l.45.15v.19l.26,0v.14l-.23,0v.59l.23,0v.28l-.23,0v.56h0l.27.11V25.3h0V18.73l.31,0,.25.25h0l0,6-.28.32h-.46v-.55a.4.4,0,0,0-.12-.29.41.41,0,0,0-.29-.13h-.13v0H27a.4.4,0,0,1,.38.4v.55h-.12v.57h.12v5.83h-.15v.58h.15v.85a.4.4,0,0,1-.38.41h-.13a.62.62,0,0,0,.17-.11.44.44,0,0,0,.13-.31V24.78a.44.44,0,0,0-.44-.44H23.57a.44.44,0,0,0-.44.44v8.35a.44.44,0,0,0,.44.44h3.18l.11,0v0H27a.43.43,0,0,0,.41-.43v-.85h.15v6.63l-.24,0v.57l.24,0v.31l-.25,0v.56l.26,0v.07l-.37.09h0v.14l-.49.14h0v.53l.26,0v5.43l-.15.07h0v.28h0V46.9l2.49.38,0,.22-2.7-.37-.74,1h0v.45l3.72.57,1.54-.73v-.47h0l-.7-.9-.18.07v-.28h0l-.14,0V41.37l.23-.09v-.52h0l-.47-.08v-.13h0l-.34,0v0l.25-.09v-.59h0l-.23,0v-.16l.25-.09v-.58h0l-.24,0V32.33h.17v1a.44.44,0,0,0,.44.44H33.8a.43.43,0,0,0,.43-.43V24.65a.43.43,0,0,0-.43-.43h-.14l-.12,0H30.12a.44.44,0,0,0-.44.44v.66h-.17V18.73l.28,0h0v-.55L29.5,18v-.18l.25,0v-.56l-.24-.09v-.06h.32l0,0v-.2l.41-.06h0v-.44l-.77-.28h0V16l.11,0v-.11l-.11,0v-.12l.11,0v-.11l-.11,0v-.06l.65-.87c0,.11,0,.33,0,.45a1.28,1.28,0,0,0,.07.34.22.22,0,0,0,.1.11h0l.09,0h0a.54.54,0,0,0,.4.17h0a.59.59,0,0,0,.4-.15.49.49,0,0,0,.11-.14h0a.12.12,0,0,0,.09,0,.26.26,0,0,0,.07-.18c0-.14,0-.43,0-.56a.46.46,0,0,1,.06-.23.1.1,0,0,0,.07-.09,1.49,1.49,0,0,0-.05-.36,1,1,0,0,0-.3-.49,2.34,2.34,0,0,0-.31-.24v-.08h0l.15-.21L30.91,13v-.11s0-.06,0-.06h-.09a.2.2,0,0,0-.11,0,.08.08,0,0,0-.05.07l0,.43-.11.06A1.73,1.73,0,0,0,30,14a1.81,1.81,0,0,0-.07.52v0h0l-.57.76v-.91h0l1.11-1.53.11.05v0l-.12,0-2,2.69-.45.06H28l-.14-.06.55,0h0L31,11.88l0,0v0l0,0,.27-.37,6.45-2.9.85.47-1.14.5a.09.09,0,0,0,0-.05.08.08,0,0,0,0,0h0a.05.05,0,0,0,0-.05l-.12,0-.09,0c-.12,0-.22.11-.22.18a.09.09,0,0,0,0,.06h0l0,0,.06,0-.44.19s0,0,0,0h0s0,0,0,0h0a.08.08,0,0,0,0-.05l-.12,0-.09,0c-.12,0-.22.11-.22.18a.07.07,0,0,0,0,.06s0,0,0,0l.06,0-.45.19v0h0s0,0,0,0,0,0,0-.05a.28.28,0,0,0-.13,0l-.08,0c-.13,0-.22.11-.22.18a.06.06,0,0,0,0,.06h0s0,0,0,0l.06,0-.52.22a.06.06,0,0,0,0,0h0s0,0,0-.05h0a.05.05,0,0,0,0,0,.27.27,0,0,0-.12,0l-.09,0c-.12,0-.22.11-.22.18a.09.09,0,0,0,0,.06h0s0,0,0,0a.13.13,0,0,0,.08,0l-2.53,1.1h0l-.11,0,1.44-.62-.61-.3-1.43.66-.72,1,.55.23h0l.73-.95.12.06L31,13.4h0l1.12-1.52,2.58-1.12h.06a.36.36,0,0,0,.19-.11l.58-.25h.1a.37.37,0,0,0,.19-.12l.52-.22h.09a.43.43,0,0,0,.19-.11l.5-.22h.1a.36.36,0,0,0,.19-.11l1.21-.52h0l.23-.62-1-.52ZM23.44,12.26h0Z"/><polygon class="cls-4" points="25.92 48.13 25.92 48.55 29.6 49.12 29.61 48.71 25.92 48.13 25.92 48.13"/><polygon class="cls-4" points="31.14 47.97 29.63 48.7 29.62 49.12 31.14 48.39 31.14 47.97 31.14 47.97"/><polygon class="cls-4" points="26.65 47.15 25.93 48.12 29.6 48.69 29.34 47.52 26.65 47.15 26.65 47.15"/><polygon class="cls-4" points="30.44 47.07 30.26 47.14 29.36 47.52 29.63 48.69 31.13 47.95 30.44 47.07 30.44 47.07"/><polygon class="cls-4" points="30.25 46.86 29.35 47.28 29.36 47.5 30.25 47.12 30.25 46.86 30.25 46.86"/><polygon class="cls-4" points="30.12 46.82 30.12 46.87 30.11 46.87 29.3 47.23 26.97 46.87 26.97 46.83 26.86 46.88 29.33 47.26 30.23 46.84 30.12 46.82 30.12 46.82"/><polygon class="cls-4" points="30.1 41.37 29.38 41.63 29.38 41.63 29.31 41.63 29.3 47.2 30.1 46.85 30.1 41.37 30.1 41.37"/><path class="cls-4" d="M27.8,42.27l.69.07v3.93l-.68-.11V42.27m-.8-.89v5.47l2.28.35V41.63L27,41.38Z"/><path class="cls-4" d="M28,42.54l.22,0V46l-.22,0v-3.4m-.79-.9h0v5L29,46.9v-5l-1.81-.22Z"/><path class="cls-4" d="M28,42.57l.17,0V46l-.17,0V42.57m-.8-.9v4.94l1.77.27v-5l-1.77-.21Z"/><path class="cls-4" d="M29.84,42.68h-.15a.27.27,0,0,0-.21.29v2.63a.23.23,0,0,0,.07.18.19.19,0,0,0,.12,0h.12c.15,0,.17-.33.17-.34v-.07h0V42.87a.27.27,0,0,0-.06-.18Z"/><path class="cls-4" d="M30,45.51h0Zm0,0a.64.64,0,0,1-.33.13.27.27,0,0,0,.07.14l0,0h.08c.11,0,.14-.22.15-.29Z"/><path class="cls-4" d="M29.5,45.64h0a.21.21,0,0,0,.07.13.18.18,0,0,0,.1,0h0a.26.26,0,0,1-.07-.16Z"/><polygon class="cls-4" points="29.58 42.99 29.5 42.99 29.5 45.61 29.5 45.62 29.59 45.62 29.58 45.61 29.58 42.99 29.58 42.99"/><path class="cls-4" d="M30,42.88h0Zm0,0a.67.67,0,0,1-.32.1h0v2.62h0a.61.61,0,0,0,.32-.13v-.05a.27.27,0,0,1-.19.09h0a.08.08,0,0,1-.06,0v-.74a.13.13,0,0,1,0-.06c0-.06.07-.15.15-.16h0a.13.13,0,0,1,.1,0s0,0,0,0V42.89Z"/><path class="cls-4" d="M29.83,44.56c-.08,0-.13.1-.15.15a.07.07,0,0,0,0,0v.73s0,0,0,0v-.57a.12.12,0,0,1,.08-.11l.15,0v-.1a.16.16,0,0,0,0-.09.09.09,0,0,0-.07,0Z"/><path class="cls-4" d="M29.94,44.8l-.15.05a.11.11,0,0,0-.06.09v.57h0c.16,0,.19-.1.19-.1V44.8Z"/><path class="cls-4" d="M29.86,44.63l-.06,0a.07.07,0,0,0,.06.11h0a.07.07,0,0,0,.06-.07.08.08,0,0,0-.05-.07Z"/><path class="cls-4" d="M29.87,44.65s0,0,0,.05,0,0,0,0a0,0,0,0,0,0,0s0-.05,0-.05Z"/><path class="cls-4" d="M29.91,43h0l-.21.09s0,0,0,0v1.19s0,0,0,0h0l.22-.09a0,0,0,0,0,0,0V43Z"/><path class="cls-4" d="M29.9,43l-.21.09a0,0,0,0,0,0,0v1.19h0l.21-.08,0,0V43Z"/><path class="cls-4" d="M29.85,42.7H29.8a.29.29,0,0,0-.19.26h0a.54.54,0,0,0,.32-.11s0-.11-.05-.14l0,0Z"/><path class="cls-4" d="M29.76,42.7Zm0,0h-.07a.27.27,0,0,0-.19.26h.09a.3.3,0,0,1,.17-.26Z"/><polygon class="cls-4" points="26.73 40.83 26.73 41.32 27 41.36 27 41.36 29.37 41.61 29.38 41.14 26.73 40.83 26.73 40.83"/><polygon class="cls-4" points="30.34 40.78 29.4 41.14 29.39 41.61 30.11 41.35 30.11 41.35 30.34 41.25 30.34 40.78 30.34 40.78"/><polygon class="cls-4" points="27.22 40.69 26.78 40.81 29.38 41.12 30.31 40.77 29.88 40.69 29.88 40.8 29.24 41 27.22 40.79 27.22 40.69 27.22 40.69"/><polygon class="cls-4" points="27.25 40.55 27.24 40.77 29.23 40.98 29.23 40.77 27.25 40.55 27.25 40.55"/><polygon class="cls-4" points="29.86 40.57 29.25 40.77 29.25 40.98 29.86 40.78 29.86 40.57 29.86 40.57"/><polygon class="cls-4" points="28.51 40.3 28.51 40.54 28.18 40.62 28.18 40.62 27.59 40.56 27.59 40.46 27.28 40.53 29.24 40.75 29.83 40.55 29.52 40.52 29.52 40.6 29.19 40.72 29.18 40.72 28.59 40.66 28.59 40.42 28.51 40.3 28.51 40.3"/><polygon class="cls-4" points="28.61 40.45 28.61 40.64 29.18 40.69 29.18 40.57 28.67 40.52 28.61 40.45 28.61 40.45"/><polygon class="cls-4" points="29.49 40.48 29.24 40.57 29.2 40.57 29.2 40.69 29.49 40.59 29.49 40.48 29.49 40.48"/><polygon class="cls-4" points="28.17 40.15 27.93 40.4 27.61 40.37 27.61 40.43 27.61 40.43 27.61 40.54 28.17 40.6 28.17 40.15 28.17 40.15"/><polygon class="cls-4" points="28.29 40.02 28.19 40.13 28.19 40.13 28.19 40.6 28.49 40.52 28.49 40.27 28.29 40.02 28.29 40.02"/><polygon class="cls-4" points="28.28 39.47 27.92 39.85 27.92 39.85 27.35 39.8 27.35 40.32 27.92 40.38 28.3 39.99 28.49 40.24 28.49 40.24 28.5 40.26 28.51 40.26 28.51 40.26 28.61 40.41 28.61 40.41 28.68 40.51 29.23 40.55 29.23 40.01 28.66 39.96 28.49 39.74 28.49 39.74 28.49 39.73 28.28 39.47 28.28 39.47"/><polygon class="cls-4" points="29.74 39.83 29.25 40.01 29.25 40.55 29.74 40.36 29.74 39.83 29.74 39.83"/><polygon class="cls-4" points="28.62 39.52 28.62 39.88 28.67 39.94 29.24 39.99 29.49 39.9 29.49 39.75 29.49 39.75 29.49 39.6 29.26 39.68 29.2 39.67 29.2 39.99 29.18 39.99 29.18 39.67 28.72 39.63 28.62 39.52 28.62 39.52"/><path class="cls-4" d="M28.28,39.73a.1.1,0,1,0,0,.2.1.1,0,0,0,0-.2Z"/><path class="cls-4" d="M28.28,39.75h0a.08.08,0,0,0-.06.14l.06,0h0a.1.1,0,0,0,.05-.08.08.08,0,0,0-.08-.08Z"/><polygon class="cls-4" points="29.52 39.78 29.52 39.89 29.71 39.81 29.52 39.78 29.52 39.78"/><polygon class="cls-4" points="28.51 39.38 28.51 39.73 28.6 39.85 28.6 39.49 28.51 39.38 28.51 39.38"/><polygon class="cls-4" points="28.17 39.22 27.88 39.53 27.6 39.5 27.6 39.8 27.91 39.83 28.17 39.55 28.17 39.22 28.17 39.22"/><polygon class="cls-4" points="28.28 39.1 28.19 39.2 28.19 39.2 28.19 39.53 28.29 39.44 28.49 39.7 28.49 39.35 28.49 39.35 28.28 39.1 28.28 39.1"/><polygon class="cls-4" points="28.74 34.76 28.46 34.76 28.06 38.96 27.68 38.93 27.68 39.45 28.19 39.51 28.6 39.07 29.05 39.61 29.58 39.66 30.07 39.48 30.07 38.95 29.56 39.12 29.16 39.07 29.16 39.06 28.74 34.76 28.74 34.76"/><polygon class="cls-4" points="28.59 34.7 28.44 34.75 28.86 39.05 29.24 39.1 29.72 38.94 29.5 38.9 29.18 39.02 29.02 38.98 29.02 38.97 28.59 34.7 28.59 34.7"/><polygon class="cls-4" points="29.17 32.34 28.64 32.34 28.61 32.37 28.63 34.62 28.61 34.62 28.61 34.68 29.04 38.96 29.17 38.99 29.17 32.34 29.17 32.34"/><polygon class="cls-4" points="29.49 32.33 29.33 32.33 29.19 32.34 29.19 38.99 29.49 38.88 29.49 32.33 29.49 32.33"/><polygon class="cls-4" points="27.93 32.29 27.6 32.29 27.6 38.93 27.73 38.94 28.12 34.73 28.13 34.73 28.13 34.73 28.18 34.72 28.18 32.62 27.93 32.29 27.93 32.29"/><path class="cls-4" d="M28.28,38.52a.18.18,0,0,0,0,.36.18.18,0,0,0,0-.36Z"/><path class="cls-4" d="M28.28,38.54a.16.16,0,1,0,0,.32.16.16,0,0,0,0-.32Z"/><polygon class="cls-4" points="28.59 34.63 28.5 34.63 28.18 34.73 28.43 34.73 28.59 34.68 28.59 34.63 28.59 34.63"/><polygon class="cls-4" points="28.2 32.65 28.2 34.71 28.49 34.61 28.49 32.73 28.51 32.73 28.51 34.61 28.6 34.61 28.59 32.7 28.29 32.74 28.2 32.65 28.2 32.65"/><path class="cls-4" d="M33.15,25V32.9H30.5V25h2.65m.39-.8H30.12a.42.42,0,0,0-.42.42v7.09h0v.59h0v1a.42.42,0,0,0,.42.42h3.42a.41.41,0,0,0,.41-.42V24.65a.41.41,0,0,0-.41-.42Z"/><path class="cls-4" d="M33.67,24.23a.44.44,0,0,1,.31.42v8.63a.45.45,0,0,1-.29.41h.11a.41.41,0,0,0,.41-.41V24.65a.42.42,0,0,0-.41-.42Z"/><path class="cls-4" d="M26.37,25.16v7.59H24V25.16h2.42m.38-.8H23.57a.42.42,0,0,0-.42.42v8.35a.42.42,0,0,0,.42.42h3.18a.42.42,0,0,0,.42-.42V24.78a.42.42,0,0,0-.42-.42Z"/><path class="cls-4" d="M32.84,25.67v6.55H30.78V25.67h2.06m.8-.8H30V33h3.66V24.87Z"/><path class="cls-4" d="M32.82,25.69v6.5h-2v-6.5h2m.8-.8H30V33h3.62v-8.1Z"/><path class="cls-4" d="M26,25.89V32l-1.79,0v-6.1H26m.8-.8H23.45V32.8l3.39,0V25.09Z"/><path class="cls-4" d="M26,25.9v6l-1.74,0V25.9H26m.8-.8H23.47v7.68l3.34-.06V25.1Z"/><polygon class="cls-4" points="28.59 32.4 28.32 32.72 28.59 32.68 28.59 32.4 28.59 32.4"/><polygon class="cls-4" points="27.9 31.73 27.43 31.73 27.43 32.27 27.58 32.27 27.58 32.27 27.94 32.27 28.2 32.62 28.2 32.62 28.29 32.71 28.63 32.32 29.17 32.32 29.31 32.31 29.31 31.76 28.69 31.76 28.28 32.17 27.9 31.73 27.9 31.73"/><polygon class="cls-4" points="29.68 31.76 29.33 31.76 29.33 32.31 29.68 32.31 29.68 32.18 29.48 32.18 29.48 31.88 29.68 31.88 29.68 31.76 29.68 31.76"/><polygon class="cls-4" points="27.4 31.73 27.27 31.73 27.27 32.27 27.4 32.27 27.4 31.73 27.4 31.73"/><polygon class="cls-4" points="29.68 31.91 29.5 31.91 29.5 32.16 29.68 32.16 29.68 31.91 29.68 31.91"/><polygon class="cls-4" points="28.08 31.9 28.28 32.14 28.5 31.92 28.08 31.9 28.08 31.9"/><polygon class="cls-4" points="28.27 25.45 27.91 25.88 27.6 25.88 27.6 31.71 27.91 31.71 28.06 31.88 28.18 31.89 28.18 25.69 28.5 25.69 28.5 25.7 28.51 31.9 28.52 31.9 28.52 31.9 28.6 31.83 28.6 25.79 28.27 25.45 28.27 25.45"/><polygon class="cls-4" points="28.2 25.71 28.2 31.89 28.49 31.9 28.48 25.71 28.2 25.71 28.2 25.71"/><polygon class="cls-4" points="28.62 25.81 28.62 31.8 28.68 31.74 29.19 31.74 29.19 25.85 28.67 25.86 28.62 25.81 28.62 25.81"/><polygon class="cls-4" points="29.32 25.85 29.21 25.85 29.21 31.74 29.48 31.74 29.48 25.86 29.32 25.85 29.32 25.85"/><polygon class="cls-4" points="29.5 25.86 29.5 31.74 29.68 31.74 29.68 25.88 29.5 25.86 29.5 25.86"/><polygon class="cls-4" points="27.58 25.88 27.43 25.88 27.43 31.71 27.58 31.71 27.58 25.88 27.58 25.88"/><polygon class="cls-4" points="27.4 25.33 27.3 25.33 27.3 25.85 27.4 25.85 27.4 25.33 27.4 25.33"/><polygon class="cls-4" points="28.28 24.9 28.2 25 28.2 25.01 28.18 25.01 27.9 25.33 27.43 25.33 27.43 25.85 27.9 25.85 28.27 25.41 28.68 25.84 29.31 25.83 29.3 25.31 28.65 25.31 28.28 24.9 28.28 24.9"/><polygon class="cls-4" points="29.33 25.31 29.33 25.83 29.48 25.84 29.48 25.84 29.5 25.84 29.5 25.84 29.68 25.85 29.68 25.73 29.49 25.73 29.49 25.44 29.68 25.44 29.68 25.33 29.33 25.31 29.33 25.31"/><polygon class="cls-4" points="29.68 25.46 29.51 25.46 29.51 25.71 29.68 25.71 29.68 25.46 29.68 25.46"/><polygon class="cls-4" points="29.26 18.54 29.18 18.55 29.18 25.29 29.32 25.29 29.49 25.3 29.49 18.71 29.69 18.68 29.26 18.54 29.26 18.54"/><polygon class="cls-4" points="28.31 24.89 28.66 25.29 28.8 25.29 28.58 25.06 28.58 24.89 28.31 24.89 28.31 24.89"/><polygon class="cls-4" points="29.16 18.55 28.67 18.6 28.62 18.66 28.62 19.16 28.61 24.89 28.61 25.05 28.83 25.29 29.16 25.29 29.16 18.55 29.16 18.55"/><polygon class="cls-4" points="28.18 18.97 28.2 24.96 28.28 24.86 28.29 24.87 28.49 24.87 28.49 19.13 28.29 19.08 28.29 19.09 28.18 18.97 28.18 18.97"/><polygon class="cls-4" points="28.51 19.14 28.51 24.87 28.58 24.87 28.6 19.16 28.51 19.14 28.51 19.14"/><polygon class="cls-4" points="28.6 18.69 28.31 19.06 28.6 19.14 28.6 18.69 28.6 18.69"/><polygon class="cls-4" points="29.24 17.98 28.67 18.03 28.29 18.52 27.92 18.11 27.38 18.17 27.38 18.7 27.6 18.7 27.6 18.71 27.92 18.68 28.29 19.05 28.6 18.66 28.6 18.66 28.6 18.66 28.66 18.58 29.25 18.52 29.24 17.98 29.24 17.98"/><polygon class="cls-4" points="27.41 18.73 27.58 18.8 27.58 18.73 27.41 18.73 27.41 18.73"/><polygon class="cls-4" points="29.27 17.98 29.27 18.52 29.73 18.67 29.73 18.14 29.27 17.98 29.27 17.98"/><polygon class="cls-4" points="28.18 18.09 28.18 18.37 28.29 18.49 28.51 18.2 28.29 18.2 28.29 18.21 28.18 18.09 28.18 18.09"/><polygon class="cls-4" points="27.92 17.83 27.6 17.85 27.6 18.12 27.93 18.09 27.93 18.09 28.15 18.34 28.15 18.07 27.92 17.83 27.92 17.83"/><polygon class="cls-4" points="28.6 17.82 28.31 18.18 28.53 18.18 28.6 18.09 28.6 18.09 28.6 17.82 28.6 17.82"/><polygon class="cls-4" points="29.24 17.11 28.7 17.16 28.29 17.63 27.92 17.23 27.38 17.3 27.38 17.85 27.59 17.83 27.6 17.83 27.6 17.83 27.93 17.8 28.29 18.18 28.67 17.68 29.24 17.64 29.24 17.11 29.24 17.11"/><polygon class="cls-4" points="29.17 17.67 28.68 17.7 28.62 17.79 28.62 18.07 28.66 18.01 29.17 17.96 29.17 17.67 29.17 17.67"/><polygon class="cls-4" points="29.25 17.66 29.19 17.67 29.19 17.96 29.25 17.96 29.48 18.03 29.48 17.74 29.25 17.66 29.25 17.66"/><polygon class="cls-4" points="29.5 17.74 29.5 17.84 29.69 17.81 29.5 17.74 29.5 17.74"/><polygon class="cls-4" points="29.26 17.11 29.26 17.64 29.73 17.8 29.73 17.27 29.26 17.11 29.26 17.11"/><polygon class="cls-4" points="28.48 17 28.18 17.04 28.18 17.48 28.29 17.6 28.48 17.38 28.48 17 28.48 17"/><polygon class="cls-4" points="28.15 17.04 27.6 17.11 27.6 17.25 27.93 17.21 27.94 17.22 28.15 17.45 28.15 17.04 28.15 17.04"/><polygon class="cls-4" points="28.59 16.99 28.5 17 28.5 17.35 28.59 17.26 28.59 16.99 28.59 16.99"/><polygon class="cls-4" points="29.17 16.93 28.61 16.99 28.61 17.23 28.69 17.14 29.17 17.09 29.17 16.93 29.17 16.93"/><polygon class="cls-4" points="29.22 16.92 29.19 16.93 29.19 17.09 29.26 17.08 29.49 17.17 29.49 17.09 29.49 17.09 29.49 17.01 29.22 16.92 29.22 16.92"/><polygon class="cls-4" points="29.21 16.63 27.34 16.84 27.34 17.11 27.58 17.09 28.48 16.98 28.48 16.98 28.49 16.98 29.21 16.9 29.21 16.63 29.21 16.63"/><polygon class="cls-4" points="29.52 17.02 29.52 17.09 29.7 17.08 29.52 17.02 29.52 17.02"/><polygon class="cls-4" points="29.23 16.63 29.23 16.9 29.76 17.07 29.76 16.82 29.23 16.63 29.23 16.63"/><polygon class="cls-4" points="29.34 16.54 26.97 16.8 27.32 16.92 27.32 16.82 27.33 16.82 29.23 16.61 29.78 16.81 29.78 16.86 30.1 16.81 29.34 16.54 29.34 16.54"/><polygon class="cls-4" points="29.35 16.1 29.35 16.52 30.16 16.81 30.14 16.39 29.35 16.1 29.35 16.1"/><polygon class="cls-4" points="29.33 16.1 26.93 16.37 26.93 16.79 29.33 16.52 29.33 16.1 29.33 16.1"/><polygon class="cls-4" points="28.91 16.07 27.7 16.21 27.7 16.26 29.06 16.11 28.91 16.07 28.91 16.07"/><polygon class="cls-4" points="28.9 15.97 27.59 16.12 27.59 16.19 27.68 16.19 28.9 16.05 28.9 15.97 28.9 15.97"/><polygon class="cls-4" points="28.92 15.97 28.92 16.05 29.13 16.1 29.29 16.08 28.92 15.97 28.92 15.97"/><polygon class="cls-4" points="28.9 15.83 28.89 15.83 28.89 15.95 28.91 15.95 29.34 16.08 29.34 16.08 29.34 16.08 29.35 16.08 29.35 16.08 29.38 16.09 29.38 15.99 28.9 15.83 28.9 15.83"/><polygon class="cls-4" points="28.87 15.84 27.7 15.98 27.7 16.09 28.87 15.95 28.87 15.84 28.87 15.84"/><polygon class="cls-4" points="28.92 15.72 28.92 15.82 29.48 16 29.48 15.94 29.39 15.9 29.38 15.9 29.38 15.9 28.92 15.72 28.92 15.72"/><path class="cls-4" d="M29.69,15.72h0m-.79,0h0l-1.29.17V16l1.32-.15v-.09Z"/><polygon class="cls-4" points="28.9 15.6 28.89 15.6 28.89 15.71 28.91 15.7 29.38 15.88 29.38 15.76 28.9 15.6 28.9 15.6"/><polygon class="cls-4" points="28.87 15.6 27.7 15.74 27.7 15.86 28.87 15.71 28.87 15.6 28.87 15.6"/><path class="cls-4" d="M30.77,14.58a1.44,1.44,0,0,0-.63.12c0,.07-.08.72.09.9l.08,0h0a.53.53,0,0,0,.36.17h0a.57.57,0,0,0,.49-.27.28.28,0,0,1-.21-.26c0-.22,0-.61,0-.68Z"/><polygon class="cls-4" points="28.92 15.49 28.92 15.58 29.48 15.77 29.48 15.7 28.92 15.49 28.92 15.49"/><polygon class="cls-4" points="28.9 15.48 28.57 15.53 28.56 15.54 28 15.6 27.99 15.6 27.59 15.65 27.59 15.73 28.9 15.57 28.9 15.48 28.9 15.48"/><path class="cls-4" d="M29.38,14.4l-.49.67v.4h0l.47.17v-.06l.67-.9v0a.13.13,0,0,0,0-.08h0l0,0-.6.81V14.4Z"/><polygon class="cls-4" points="27.7 15.38 27.7 15.62 27.96 15.59 27.82 15.53 27.82 15.53 27.7 15.38 27.7 15.38"/><path class="cls-4" d="M30.56,14.68a.44.44,0,0,0-.4.46.4.4,0,1,0,.8,0,.44.44,0,0,0-.4-.46Z"/><path class="cls-4" d="M30.56,14.7a.42.42,0,0,0-.39.44.42.42,0,0,0,.39.44.4.4,0,0,0,.38-.44.41.41,0,0,0-.38-.44Z"/><path class="cls-4" d="M30.57,15.47s0,0,0,0,0,0,0,0a0,0,0,0,0,0-.08Z"/><path class="cls-4" d="M30.47,15.46a0,0,0,0,0,0,.08,0,0,0,0,0,0-.08,0,0,0,0,0,0,0Z"/><path class="cls-4" d="M30.57,15.49s0,0,0,0,0,0,0,0l0,0,0,0Z"/><path class="cls-4" d="M30.67,15.45a0,0,0,0,0,0,0s0,0,0,0,0,0,0,0a0,0,0,0,0,0,0Z"/><path class="cls-4" d="M30.47,15.48l0,0,0,0a0,0,0,0,0,0,0,0,0,0,0,0,0,0Z"/><path class="cls-4" d="M30.74,14.31a1.64,1.64,0,0,0-.72.14.09.09,0,0,0,0,.1.24.24,0,0,1,.06.11c0,.07,0,.37,0,.51a.87.87,0,0,0,.05.28,2.18,2.18,0,0,1,0-.76h0a1.53,1.53,0,0,1,.65-.12H31v0c0,.11,0,.45,0,.65a.26.26,0,0,0,.21.25h0a.11.11,0,0,0,.08,0,.27.27,0,0,0,.06-.17c0-.13,0-.43,0-.56a.54.54,0,0,1,0-.21v0c0-.06,0-.13-.52-.18Z"/><polygon class="cls-4" points="28.87 15.1 28.58 15.51 28.87 15.47 28.87 15.1 28.87 15.1"/><path class="cls-4" d="M37.86,8Zm0,0-7.27,2.69L29.07,13.2h0l-1,1.62-2.45-3.44-6.53-.55.16.48,5.75,1h0l2.64,3h0l.15.19.57-.05L31,11.87l-.11-.07h0l.11.06.28-.38h0l6.44-2.9L37.86,8Z"/><path class="cls-4" d="M30.67,15.47l0,0h0l0,0Z"/><path class="cls-4" d="M30.45,14.76h0s0,0,0,0,0,0,0,0l0,0h0a0,0,0,0,0,0,0,0,0,0,0,0,0,0l0,0h0a0,0,0,0,0,0,0s0,0,0,0v0l0,.06s0,0,0,0v.13a0,0,0,0,0,0,0s0,0,0,0a0,0,0,0,0,0,.07h0v0s0,0,0,0a0,0,0,0,0,0,0l0,0,0,0a0,0,0,0,0,0,0,0,0,0,0,0,.08,0h0l.1,0h0a.31.31,0,0,0,.27-.22s0,0,0,0a0,0,0,0,0,0-.08,0,0,0,0,0,0,0,.22.22,0,0,0,0-.08.33.33,0,0,0-.2-.3l-.11,0h0s0,0,0,0h0v0Z"/><path class="cls-4" d="M30.38,15.44h0a0,0,0,0,0,0,0,0,0,0,0,0,0,0Z"/><path class="cls-4" d="M30.75,15.39a0,0,0,1,0,0,.08h0l0,0v0a0,0,0,0,0,0,0Z"/><path class="cls-4" d="M30.75,15.41a0,0,0,0,0,0,0h0a0,0,0,0,0,0,0Z"/><path class="cls-4" d="M30.52,14.84l-.12,0s0,0,0,0h-.05l0,0h0a0,0,0,0,1,0,0h0v0l0,0a0,0,0,0,1,0,0,0,0,0,0,1,0,0h0v.05h0a0,0,0,0,1,0,.07h0l0,0h0s0,0,0,0,0,0,0,0h0a0,0,0,0,1,0,0,.28.28,0,0,0,.18.06l.1,0a.3.3,0,0,0,.19-.28.27.27,0,0,0-.25-.29Zm-.12,0h0Zm0,0h0Z"/><path class="cls-4" d="M30.82,15.3h0s0,0,0,0l0,0a0,0,0,0,0,0,0s0,0,0,0Z"/><path class="cls-4" d="M30.53,14.91a.22.22,0,0,0-.18.08.25.25,0,0,0,0,.26.22.22,0,0,0,.21.12h0a.21.21,0,0,0,.2-.23.24.24,0,0,0-.15-.22Z"/><path class="cls-4" d="M30.82,15.32s0,0,0,0,0,0,0,0l0,0,0,0Z"/><path class="cls-4" d="M30.53,14.93a.21.21,0,0,0-.16.35.2.2,0,0,0,.16.07h.07a.2.2,0,0,0,.14-.2.16.16,0,0,0,0-.14.17.17,0,0,0-.13-.07h0Z"/><path class="cls-4" d="M30.86,15.22h0s0,0,0,0a0,0,0,0,0,0,0Z"/><path class="cls-4" d="M30.88,15.08h0a.06.06,0,0,0,0,0l0,0s0,0,0,0,0,0,0,0Z"/><path class="cls-4" d="M30.88,15.1l0,0s0,0,0,0,0,0,0,0a0,0,0,0,0,0,0Z"/><path class="cls-4" d="M30.86,15a0,0,0,0,0,0,0s0,0,0,0,0,0,0,0,0,0,0,0Z"/><path class="cls-4" d="M30.86,15h0s0,0,0,0a0,0,0,0,0,0,0Z"/><path class="cls-4" d="M30.82,14.88a0,0,0,0,0,0,0s0,0,0,0,0,0,0,0a0,0,0,0,0,0,0Z"/><path class="cls-4" d="M30.82,14.9a0,0,0,0,0,0,0h0l0,0Z"/><path class="cls-4" d="M30.75,14.8a0,0,0,1,0,0,.08,0,0,0,0,0,0-.08,0,0,0,0,0,0,0Z"/><path class="cls-4" d="M30.66,14.75a0,0,0,1,0,0,.08,0,0,0,0,0,0-.08,0,0,0,0,0,0,0Z"/><path class="cls-4" d="M30.56,14.74a0,0,0,1,0,0,.08,0,0,0,0,0,0-.08,0,0,0,0,0,0,0Z"/><path class="cls-4" d="M30.66,14.77a0,0,0,0,0,0,0s0,0,0,0,0,0,0,0a0,0,0,0,0,0,0Z"/><path class="cls-4" d="M30.56,14.76l0,0h0a0,0,0,0,0,0,0Z"/><path class="cls-4" d="M25.69,11.38l2.42,3.41.05-.1-1.43-2,.61.24.56.79.05,0,0,0h0c-.07,0-.11,0-.12-.07a.07.07,0,0,1,0,0l-1.27-1.82-.12,0,.73,1-.56-.2h0L26,11.64h0l-.17-.23-.11,0Z"/><path class="cls-4" d="M28.47,14.18Zm0,0-.58.09.29.4.29-.49Z"/><path class="cls-4" d="M30.21,14.36h0Zm0,0h0c-.17,0-.23.08-.24.1v0h0l0,0a.11.11,0,0,1,0-.08.59.59,0,0,1,.2-.08Z"/><path class="cls-4" d="M31,14.31Zm0,0c.53,0,.53.12.53.2a.08.08,0,0,0,0-.07h0a1.19,1.19,0,0,0-.56-.14Z"/><path class="cls-4" d="M30.77,13.58a2.25,2.25,0,0,0-.51.06h0A1.73,1.73,0,0,0,30,14a1.59,1.59,0,0,0-.07.48s.15-.1.45-.13a2.34,2.34,0,0,1,.42,0,1.46,1.46,0,0,1,.71.14v0a1.34,1.34,0,0,0-.05-.35,1.11,1.11,0,0,0-.25-.45h0a1.36,1.36,0,0,0-.48-.07Z"/><path class="cls-4" d="M26.79,12.75l1.08,1.5h.06l0-.1h0c-.07,0-.11,0-.12-.07s0-.07,0-.07a.18.18,0,0,1,.08-.06l0,0h0c-.07,0-.11,0-.12-.07a.1.1,0,0,1,0-.08h0L27.33,13l-.54-.21Z"/><path class="cls-4" d="M28.46,13.88a1.52,1.52,0,0,0-.37,0l-.14.32.53-.09.16-.27h-.18Z"/><path class="cls-4" d="M28.06,13.92Zm0,0L28,14h0l-.07.05s0,0,0,.06,0,0,.12,0l.08-.19Z"/><path class="cls-4" d="M28.51,13.65l-.36,0h0l-.16.25a1.54,1.54,0,0,1,.48-.06h.2l.12-.2h-.27Z"/><path class="cls-4" d="M28.11,13.68h0Zm0,0-.15,0h0l-.07,0s0,0,0,.05,0,0,.12.06h0l.13-.21Z"/><path class="cls-4" d="M28.6,13.41h-.09l-.37,0-.16.25a1.57,1.57,0,0,1,.49-.06h.32l.12-.2h0l-.27,0Z"/><path class="cls-4" d="M28.11,13.44h0Zm0,0-.14,0h0a.14.14,0,0,0-.07,0h0a0,0,0,0,0,0,.05s0,0,.12.06h0l.13-.21Z"/><path class="cls-4" d="M30.73,13.34h-.12l-.11.07-.22.19a2.19,2.19,0,0,1,.49,0,1.7,1.7,0,0,1,.44,0h0l-.26-.2-.05,0h0a.36.36,0,0,0-.14,0Z"/><path class="cls-4" d="M28.57,13.17a2.46,2.46,0,0,0-.43,0h0l-.16.24a1.73,1.73,0,0,1,.51-.06h.12a1.63,1.63,0,0,1,.31,0l.13-.22c-.12,0-.47,0-.48,0Z"/><path class="cls-4" d="M30.78,12.83l-.1,0a.08.08,0,0,0,0,.06l0,.42h.11a.44.44,0,0,1,.16,0v-.46s0,0,0,0Z"/><polygon class="cls-4" points="30.91 13.02 30.91 13.25 31.04 13.07 30.91 13.02 30.91 13.02"/><path class="cls-4" d="M28.54,12.94l-.4,0-.16.26a2,2,0,0,1,.59-.07s.39,0,.49,0l.09-.16h0a1.67,1.67,0,0,0-.61-.08Z"/><path class="cls-4" d="M28.11,13h0Zm0,0a.64.64,0,0,0-.2,0h0s0,0,0,0,0,0,.13.07l.09-.15Z"/><path class="cls-4" d="M28.54,12.73l-.31,0h0l-.21.17h0A.23.23,0,0,0,28,13a1.86,1.86,0,0,1,.59-.07,2,2,0,0,1,.59.07,1.88,1.88,0,0,0-.25-.24l-.34,0Zm.59.26Zm0,0,0,0,0,0Z"/><path class="cls-4" d="M28.2,12.75Zm0,0h0c-.2,0-.3.06-.3.09s0,0,.12.06l.19-.15Z"/><path class="cls-4" d="M28.89,12.73l0,0,0,0Zm0,0,.15.13h0l.12-.05,0,0h0a.73.73,0,0,0-.24-.05Z"/><path class="cls-4" d="M28.54,12.54h-.31a1.42,1.42,0,0,0-.28.22,2,2,0,0,1,.56-.07h0l.35,0h0a1.11,1.11,0,0,1,.24,0,1.26,1.26,0,0,0-.24-.22l-.35,0Z"/><polygon class="cls-4" points="32.85 10.93 31.44 11.58 30.82 12.42 31.25 12.76 31.98 11.81 31.99 11.81 31.99 11.8 31.99 11.81 33.41 11.2 32.85 10.93 32.85 10.93"/><polygon class="cls-4" points="30.81 12.44 30.73 12.55 31.19 12.74 30.81 12.44 30.81 12.44"/><path class="cls-4" d="M28.19,12.56h0Zm0,0h0c-.2,0-.3.06-.3.09s0,0,.11,0a1.33,1.33,0,0,1,.19-.14Z"/><path class="cls-4" d="M28.93,12.56l0,0,.12.11h0c.08,0,.11,0,.11,0l0,0h0l-.23-.06Z"/><polygon class="cls-4" points="26 11.65 26.64 12.5 27.13 12.68 26.43 11.68 26 11.65 26 11.65"/><path class="cls-4" d="M28.56,12.34l-.33,0-.28.22a2.07,2.07,0,0,1,.56-.06h0l.35,0h0a1.11,1.11,0,0,1,.24.05l0,0a2.33,2.33,0,0,0-.28-.26l-.32,0Z"/><polygon class="cls-4" points="24.03 12.25 24.51 12.43 25.19 12.56 25.08 12.44 24.03 12.25 24.03 12.25"/><path class="cls-4" d="M22.93,12.18a.08.08,0,0,0,0,.07.34.34,0,0,0,.2.13h.07a.25.25,0,0,0,.21-.1l-.12,0-.37-.07Z"/><path class="cls-4" d="M22.41,12c0,.08.11.16.25.19h.09a.32.32,0,0,0,.14,0l0,0h0s0,0,0,0l-.11,0a1.86,1.86,0,0,0-.41-.08Z"/><path class="cls-4" d="M22.46,11.85h0m-.71,0h-.07s0,0,0,0h0c0,.09.11.2.27.23H22a.23.23,0,0,0,.14,0,.12.12,0,0,0,0-.08h0v0c0-.06-.11-.08-.26-.11h0l-.18,0Z"/><path class="cls-4" d="M22.48,12h-.06v0a1.86,1.86,0,0,1,.41.08.23.23,0,0,0,.11,0s-.1-.06-.22-.09h0a.52.52,0,0,0-.21,0Z"/><path class="cls-4" d="M21.68,11.87c0,.08.11.17.25.2H22a.25.25,0,0,0,.14,0,.05.05,0,0,0,0,0l-.1,0a2,2,0,0,0-.41-.08Z"/><path class="cls-4" d="M21.75,11.84h-.07a1.87,1.87,0,0,1,.41.09.35.35,0,0,0,.11,0s-.1-.06-.22-.09h0l-.21,0Z"/><path class="cls-4" d="M21,11.74c0,.08.11.17.25.19l.09,0a.43.43,0,0,0,.14,0,.06.06,0,0,0,0-.06l-.11,0a1.89,1.89,0,0,0-.4-.08Z"/><path class="cls-4" d="M21.08,11.7H21a1.86,1.86,0,0,1,.41.08l.11,0c0-.05-.1-.07-.21-.1h0a.71.71,0,0,0-.21,0Z"/><path class="cls-4" d="M20.32,11.63h0c0,.08.12.16.25.19h.09a.32.32,0,0,0,.14,0l0-.06-.11,0a1.86,1.86,0,0,0-.41-.08Z"/><path class="cls-4" d="M20.39,11.59h-.07a1.86,1.86,0,0,1,.41.08.23.23,0,0,0,.11,0s-.1-.06-.21-.09h0a.52.52,0,0,0-.21,0Z"/><path class="cls-4" d="M34.91,10.52Zm0,0a.34.34,0,0,1-.2.13h-.14a0,0,0,0,0,0,0,.05.05,0,0,0,0,0l.1,0h.08a.39.39,0,0,0,.17-.09h0l0,0h0a.05.05,0,0,0,0,0l0,0Z"/><path class="cls-4" d="M34.82,10.46l-.09,0c-.11,0-.2.1-.2.16v0a.31.31,0,0,1,.22-.17h.08l.1,0s0,0,0,0a.23.23,0,0,0-.11,0Z"/><path class="cls-4" d="M35.65,10.51h0m-.79,0h-.09a.3.3,0,0,0-.19.12h0a.37.37,0,0,0,.27-.13Z"/><path class="cls-4" d="M34.58,11h0m-.18-.77h-.08c-.13,0-.22.11-.22.19a.05.05,0,0,0,0,.05h0s0,0,0,0a.17.17,0,0,0,.1,0h.1c.12,0,.22-.11.22-.19a.05.05,0,0,0,0,0h0s0,0,0,0a.24.24,0,0,0-.12,0Z"/><path class="cls-4" d="M34.5,10.3h0a.3.3,0,0,1-.21.13h-.13a0,0,0,0,0,0,0,.08.08,0,0,0,0,0l.11,0h.08c.1,0,.19-.1.2-.15h0s0,0,0,0l0,0Z"/><path class="cls-4" d="M34.4,10.25h-.08c-.11,0-.21.1-.2.16a0,0,0,0,0,0,0c0-.07.1-.14.21-.17h.17l-.11,0Zm-.27.2h0Z"/><path class="cls-4" d="M34.45,10.29h-.1a.33.33,0,0,0-.19.12h0a.37.37,0,0,0,.28-.13Z"/><path class="cls-4" d="M35.78,10.15h0a.3.3,0,0,1-.21.13l-.09,0h0v0a.08.08,0,0,0,0,0l.08,0h.1a.39.39,0,0,0,.18-.1h0a.08.08,0,0,0,0,0h0s0,0,0,0l0,0Z"/><path class="cls-4" d="M35.68,10.09l-.08,0c-.11,0-.21.1-.2.16a0,0,0,0,0,0,0c0-.07.1-.14.21-.17h.09a.18.18,0,0,1,.1,0l0,0a.2.2,0,0,0-.11,0Z"/><path class="cls-4" d="M35.72,10.14h-.09a.3.3,0,0,0-.19.12h.13a.28.28,0,0,0,.19-.12Z"/><path class="cls-4" d="M35.45,10.62h0m-.18-.76h-.09c-.12,0-.22.11-.22.18a.06.06,0,0,0,0,.06l0,0a.17.17,0,0,0,.1,0h.1c.12,0,.22-.11.22-.18a.09.09,0,0,0,0-.06h0l0,0a.27.27,0,0,0-.12,0Z"/><path class="cls-4" d="M35.37,9.93a.38.38,0,0,1-.21.14H35v0l0,0,.11,0h.08c.1,0,.19-.1.2-.15h0a.05.05,0,0,0,0,0l0,0Z"/><path class="cls-4" d="M35.27,9.88h-.09c-.11,0-.2.1-.2.16a0,0,0,0,0,0,0,.29.29,0,0,1,.22-.17h.08l.1,0v0a.23.23,0,0,0-.11,0Z"/><path class="cls-4" d="M35.31,9.92h-.1a.33.33,0,0,0-.19.12h0l.09,0a.31.31,0,0,0,.19-.11Z"/><path class="cls-4" d="M36.58,9.8h0a.3.3,0,0,1-.2.13h-.15v0a.05.05,0,0,0,0,0l.09,0h.1a.4.4,0,0,0,.17-.1h0s0,0,0-.05h0a.05.05,0,0,0,0,0Z"/><path class="cls-4" d="M36.48,9.74l-.08,0c-.11,0-.2.1-.2.16a0,0,0,0,0,0,0c0-.07.1-.14.22-.17h.08a.18.18,0,0,1,.1,0l0,0a.2.2,0,0,0-.11,0Z"/><path class="cls-4" d="M36.53,9.79h-.1a.33.33,0,0,0-.19.12h.13a.3.3,0,0,0,.19-.12Z"/><path class="cls-4" d="M36.07,9.5l-.09,0c-.12,0-.22.11-.22.18a.07.07,0,0,0,0,.06h0l0,0a.19.19,0,0,0,.1,0H36c.13,0,.22-.11.22-.18h0a.08.08,0,0,0,0-.05h0s0,0,0-.05l-.12,0Z"/><path class="cls-4" d="M36.16,9.58h0a.32.32,0,0,1-.21.13l-.09,0h0v0a.05.05,0,0,0,0,0l.1,0H36a.28.28,0,0,0,.2-.15h0a.08.08,0,0,0,0-.05Z"/><path class="cls-4" d="M36.25,10.29h0m-.18-.77-.08,0c-.12,0-.21.1-.21.16s0,0,0,0A.31.31,0,0,1,36,9.56h.08a.16.16,0,0,1,.1,0s0,0,0,0a.2.2,0,0,0-.11,0Z"/><path class="cls-4" d="M36.11,9.57H36a.3.3,0,0,0-.19.12H36a.32.32,0,0,0,.2-.12Z"/><path class="cls-4" d="M37.37,9.46a.31.31,0,0,1-.2.13H37v0a.05.05,0,0,0,0,0l.08,0h.11c.11,0,.2-.11.2-.16a.08.08,0,0,0,0,0Z"/><path class="cls-4" d="M37.28,9.4l-.09,0c-.11,0-.2.1-.2.16a0,0,0,0,0,0,0c0-.07.11-.14.22-.17h.08a.16.16,0,0,1,.1,0v0l-.11,0Z"/><path class="cls-4" d="M38.11,9.45h0m-.79,0h-.09a.3.3,0,0,0-.19.12h.12a.31.31,0,0,0,.19-.12Z"/><path class="cls-4" d="M37,9.93h0m-.18-.77-.08,0c-.13,0-.22.11-.22.18a.07.07,0,0,0,0,.06s0,0,0,0a.17.17,0,0,0,.1,0h.1c.12,0,.22-.11.22-.19h0l0,0h0a.05.05,0,0,0,0-.05.24.24,0,0,0-.12,0Z"/><path class="cls-4" d="M37,9.24h0a.3.3,0,0,1-.2.13h-.15v0a.05.05,0,0,0,0,0,.2.2,0,0,0,.11,0h.07c.11,0,.2-.1.2-.16h0a.05.05,0,0,0,0,0Z"/><path class="cls-4" d="M36.86,9.18l-.08,0c-.11,0-.21.1-.2.16a0,0,0,0,0,0,0c0-.07.1-.14.21-.17h.09a.2.2,0,0,1,.1,0l0,0a.2.2,0,0,0-.11,0Z"/><path class="cls-4" d="M37.7,9.23h0m-.8,0h-.09a.3.3,0,0,0-.19.12h.13a.3.3,0,0,0,.19-.12Z"/><polygon class="cls-4" points="37.88 7.94 37.74 8.57 38.6 9.05 38.81 8.45 37.88 7.94 37.88 7.94"/><polygon class="cls-4" points="27.49 18.33 27.49 25.38 28.27 25.45 28.9 23.97 28.43 18.87 27.49 18.33"/></g></g></svg>