<svg xmlns="http://www.w3.org/2000/svg" xmlns:xlink="http://www.w3.org/1999/xlink" viewBox="0 0 45 63.5"><defs><style>.cls-1{fill:url(#未命名的渐变_80);}.cls-2{fill:red;}.cls-3{fill:url(#未命名的渐变_42);}.cls-4{opacity:0.8;}.cls-5{fill:none;stroke:red;}</style><radialGradient id="未命名的渐变_80" cx="45.42" cy="70.77" r="13.44" gradientTransform="translate(-27.76 26.76) scale(1.12 0.43)" gradientUnits="userSpaceOnUse"><stop offset="0" stop-color="#ed1c24" stop-opacity="0"/><stop offset="0.67" stop-color="#c1272d" stop-opacity="0.28"/><stop offset="1" stop-color="#ed1c24" stop-opacity="0.4"/></radialGradient><radialGradient id="未命名的渐变_42" cx="22.5" cy="22.5" r="19" gradientUnits="userSpaceOnUse"><stop offset="0" stop-color="#333"/><stop offset="1"/></radialGradient></defs><g id="图层_2" data-name="图层 2"><g id="图层_1-2" data-name="图层 1"><ellipse class="cls-1" cx="23" cy="57.5" rx="19" ry="6"/><path class="cls-2" d="M29,46.5l-5.95,8.29L17.1,46.5H29m1.95-1H15.15l7.9,11,7.9-11Z"/><circle class="cls-3" cx="22.5" cy="22.5" r="19"/><path class="cls-2" d="M22.5,4.5a18,18,0,1,1-18,18,18,18,0,0,1,18-18m0-2a20,20,0,1,0,20,20,20,20,0,0,0-20-20Z"/><g class="cls-4"><path class="cls-5" d="M44.5,22.5A22,22,0,0,1,34.43,41"/><path class="cls-5" d="M22.5.5a22,22,0,0,1,13.93,5"/><path class="cls-5" d="M12.94,42.32a22.25,22.25,0,0,1-6.4-4.67A23.27,23.27,0,0,1,3.76,34,22,22,0,0,1,6.4,7.51,20.07,20.07,0,0,1,8.16,5.82c.22-.19.44-.38.67-.56"/></g><path class="cls-2" d="M26,20.47v5.15H24.35v-.19a.8.8,0,0,0-.8-.8h-.12a.79.79,0,0,0-.67.38l0,0V21.11l.12-.11a.82.82,0,0,0,.54.24h.15a.82.82,0,0,0,.56-.22.8.8,0,0,0,.24-.56H26m-5,.09v5H19.71v-5H21m1.75,11.05a.87.87,0,0,0,.33.33v3.25l-.63-.1v-3.2a.9.9,0,0,0,.3-.28M29.37,8.12,24.19,10h0l-1,1.69-.06-.07c.05,0,.09,0,.09,0l0,0-.06-.06c.05,0,.08,0,.08,0l0,0h0a1.29,1.29,0,0,0-.21-.19h-.47a2.11,2.11,0,0,0-.23.19h0s0,0,0,0,0,0,.09,0l-.06.06h0s0,0,0,0,0,0,.09.05l-.06.07h0s0,0,0,0,0,0,.1.06h0l0,.06,0,0a.08.08,0,0,0,0,.05.17.17,0,0,0,.09.06v0a.11.11,0,0,1-.08,0,.05.05,0,0,1,0,0,.24.24,0,0,1,.14-.05l-.11.18-.06,0h0l-.9-1.28h0l-.11,0-.32,0-.12-.17-.1,0h0l-4.65-.39h0l.12.37h0l.74.17h0l0,0h0c0,.06.08.14.19.16h.08l.09,0h0c0,.06.09.12.18.15h.07a.19.19,0,0,0,.12,0h0a.17.17,0,0,0,.1,0,.05.05,0,0,0,0-.05h0s0,0,0,0-.08-.05-.18-.08h0a.27.27,0,0,0-.13,0H17.4v0h0c0,.06.08.14.19.16h0a.17.17,0,0,1-.1,0h-.05c-.1,0-.17-.09-.17-.15h0a.06.06,0,0,0,0,0h0v0s-.08-.05-.18-.08h0a.34.34,0,0,0-.14,0h0l-.45-.1,3.75.68,0,0-.8-.15h0l.41.16.5.1.08.08-1.33-.31h0l-.09,0-.26,0v0h0v0S18.7,11,18.6,11h0a.32.32,0,0,0-.13,0H18.4l0,0h0c0,.06.08.14.19.16h.07a.15.15,0,0,0,.1,0h0s0,0,0,0a.21.21,0,0,0,.15.09H19a.21.21,0,0,0,.16-.08h0l1.36.31,1.65,1.86v.19h-.08v.09h.08v.08h-.08v.09h.08v.07h-.08V14h.08v0l-.54.06h0v.31h0l.32.11v.13l.18,0v.11l-.16,0v.42l.16,0v.2H21.9v.4h0l.19.08v4.6h0V15.78l.22,0,.18.18h0v4.28l-.2.23H22v-.39a.26.26,0,0,0-.08-.21.37.37,0,0,0-.21-.09h-.09v0h.09a.28.28,0,0,1,.28.28v.39h-.09v.4h.09V25h-.11v.41h.11V26a.28.28,0,0,1-.28.28h-.09a.24.24,0,0,0,.12-.07.31.31,0,0,0,.09-.22V20.07a.31.31,0,0,0-.31-.31H19.22a.31.31,0,0,0-.31.31V26a.31.31,0,0,0,.31.31h2.44A.29.29,0,0,0,22,26V25.4h.11v4.71l-.17,0v.4l.17,0v.22h-.17v.4h.18v.05l-.26.06h0v.1l-.35.1h0v.37l.19,0V35.7l-.11,0h0v.19h0v-.17L23.3,36v.15l-1.91-.26-.53.7h0V37l2.64.41,1.09-.52V36.5h0l-.51-.64-.12.05v-.21h-.11V31.85l.17-.07v-.37h0l-.33-.06v-.09h0l-.24,0v0l.18-.06v-.41h0l-.16,0v-.12l.17-.06v-.41h0l-.18,0V25.43h.12v.68a.31.31,0,0,0,.31.31h2.61a.31.31,0,0,0,.31-.31V20a.31.31,0,0,0-.31-.31h-.09l-.09,0H23.86a.31.31,0,0,0-.31.31v.47h-.12V15.78l.2,0h0v-.39l-.18-.06v-.13l.18,0v-.4l-.17-.06v0h.23l0,0v-.14l.29,0h0v-.31l-.55-.2h0v-.07l.07,0V13.8l-.07,0v-.09l.07,0v-.08l-.07,0v0l.45-.62c0,.08,0,.24,0,.32a1,1,0,0,0,.05.24.19.19,0,0,0,.07.08h0a.07.07,0,0,0,.06,0h0a.36.36,0,0,0,.28.12h0a.48.48,0,0,0,.28-.1.44.44,0,0,0,.08-.11h0a.07.07,0,0,0,.06,0,.19.19,0,0,0,.05-.13c0-.09,0-.3,0-.39a.3.3,0,0,1,.05-.16.08.08,0,0,0,0-.07.73.73,0,0,0,0-.25.61.61,0,0,0-.21-.35L24.43,12v-.06h0l.11-.15-.11,0v-.08s0,0,0,0h-.06l-.08,0a.07.07,0,0,0,0,.06l0,.3-.07,0a1.19,1.19,0,0,0-.34.4,1.68,1.68,0,0,0-.06.37v0h0l-.39.54V12.7h0l.79-1.09.08,0h0l-.08,0L22.75,13.5l-.32,0h-.07l-.1,0,.39,0h0l1.84-2.54h0v0h0l.19-.26,4.57-2.06.6.34-.8.35v0l0,0h0s0,0,0,0l-.09,0h-.06c-.09,0-.16.08-.16.13s0,0,0,0h0a.05.05,0,0,0,0,0h0l-.31.14v0h0l0,0h0a0,0,0,0,0,0,0,.15.15,0,0,0-.09,0h-.06c-.09,0-.16.08-.16.13a.08.08,0,0,0,0,0l0,0,.05,0-.32.14v0h0s0,0,0,0l0,0a.15.15,0,0,0-.09,0h-.06c-.09,0-.16.08-.16.13a.08.08,0,0,0,0,0h0l0,0h.05l-.37.16a0,0,0,0,0,0,0h0s0,0,0,0h0s0,0,0,0a.11.11,0,0,0-.08,0h-.07c-.08,0-.15.08-.15.13a.08.08,0,0,0,0,0h0l0,0,.06,0-1.79.78h0l-.08,0,1-.44-.43-.21-1,.47-.51.71.39.16h0l.51-.67.09,0L24.49,12h0l.79-1.08,1.83-.79h0a.26.26,0,0,0,.14-.07l.41-.18h.07a.26.26,0,0,0,.13-.08l.37-.16h.07a.41.41,0,0,0,.13-.08l.35-.15h.08A.24.24,0,0,0,29,9.3l.86-.37h0l.16-.44-.68-.37ZM19.13,11.2Z"/><polygon class="cls-2" points="20.89 36.64 20.88 36.94 23.5 37.34 23.5 37.05 20.89 36.64 20.89 36.64"/><polygon class="cls-2" points="24.59 36.52 23.52 37.05 23.51 37.34 24.59 36.83 24.59 36.52 24.59 36.52"/><polygon class="cls-2" points="21.41 35.95 20.89 36.63 23.5 37.03 23.31 36.21 21.41 35.95 21.41 35.95"/><polygon class="cls-2" points="24.09 35.89 23.96 35.94 23.33 36.21 23.51 37.03 24.58 36.51 24.09 35.89 24.09 35.89"/><polygon class="cls-2" points="23.96 35.74 23.32 36.03 23.32 36.19 23.96 35.92 23.96 35.74 23.96 35.74"/><polygon class="cls-2" points="23.86 35.71 23.86 35.75 23.86 35.75 23.28 36 21.63 35.75 21.63 35.72 21.55 35.75 23.31 36.02 23.94 35.73 23.86 35.71 23.86 35.71"/><polygon class="cls-2" points="23.85 31.84 23.34 32.03 23.34 32.03 23.29 32.03 23.28 35.98 23.85 35.73 23.85 31.84 23.85 31.84"/><path class="cls-2" d="M22.45,32.74h0v2.31h0V32.74m-.8-.89v3.88l1.62.25V32l-1.63-.18Z"/><polygon class="cls-2" points="21.81 32.04 21.8 32.04 21.8 35.57 23.09 35.77 23.09 32.19 21.81 32.04 21.81 32.04"/><polygon class="cls-2" points="21.82 32.05 21.82 35.56 23.08 35.75 23.08 32.2 21.82 32.05 21.82 32.05"/><path class="cls-2" d="M23.66,32.77h-.1a.2.2,0,0,0-.15.2v1.87a.19.19,0,0,0,.05.13.16.16,0,0,0,.09,0h.08c.11,0,.12-.23.12-.24v-.05h0V32.9a.2.2,0,0,0,0-.12Z"/><path class="cls-2" d="M23.75,34.78h0Zm0,0a.5.5,0,0,1-.24.09.31.31,0,0,0,.05.1h.08c.08,0,.1-.16.11-.21Z"/><path class="cls-2" d="M23.43,34.87h0a.18.18,0,0,0,0,.09l.07,0h0a.16.16,0,0,1-.05-.11Z"/><polygon class="cls-2" points="23.48 32.99 23.43 32.99 23.43 34.85 23.43 34.85 23.48 34.86 23.48 34.85 23.48 32.99 23.48 32.99"/><path class="cls-2" d="M23.75,32.92h0Zm0,0a.48.48,0,0,1-.23.07h0v1.86h0a.46.46,0,0,0,.23-.09v0a.3.3,0,0,1-.13.07h0a.05.05,0,0,1,0,0v-.52s0,0,0,0,.05-.11.11-.12h0a.11.11,0,0,1,.07,0v-1.2Z"/><path class="cls-2" d="M23.66,34.11c-.06,0-.1.07-.11.1v.56h0v-.4a.09.09,0,0,1,.06-.08l.11,0v-.07a.14.14,0,0,0,0-.06l0,0Z"/><path class="cls-2" d="M23.74,34.28l-.11,0a.1.1,0,0,0,0,.07v.4h0a.2.2,0,0,0,.14-.07v-.43Z"/><path class="cls-2" d="M23.68,34.16h0s0,0,0,.06,0,0,0,0h0a.07.07,0,0,0,0,0,.05.05,0,0,0,0-.05Z"/><path class="cls-2" d="M23.69,34.17a0,0,0,0,0,0,0l0,0s0,0,0,0,0,0,0,0Z"/><path class="cls-2" d="M23.71,33h0l-.15.06s0,0,0,0v.84s0,0,0,0h0l.16-.06s0,0,0,0V33a0,0,0,0,0,0,0Z"/><path class="cls-2" d="M23.71,33l-.15.06s0,0,0,0v.84h0l.15-.06s0,0,0,0V33Z"/><path class="cls-2" d="M23.67,32.79h0a.22.22,0,0,0-.14.19h0a.4.4,0,0,0,.23-.08s0-.08,0-.1Z"/><path class="cls-2" d="M23.61,32.79Zm0,0h-.05a.18.18,0,0,0-.13.19h.05a.23.23,0,0,1,.13-.18Z"/><polygon class="cls-2" points="21.46 31.46 21.46 31.81 21.65 31.83 21.65 31.83 23.33 32.02 23.34 31.68 21.46 31.46 21.46 31.46"/><polygon class="cls-2" points="24.02 31.42 23.35 31.68 23.35 32.01 23.86 31.83 23.86 31.83 24.02 31.76 24.02 31.42 24.02 31.42"/><polygon class="cls-2" points="21.81 31.36 21.49 31.45 23.34 31.67 24 31.41 23.69 31.36 23.69 31.44 23.24 31.58 21.81 31.43 21.81 31.36 21.81 31.36"/><polygon class="cls-2" points="21.83 31.26 21.82 31.42 23.23 31.57 23.23 31.42 21.83 31.26 21.83 31.26"/><polygon class="cls-2" points="23.68 31.27 23.25 31.42 23.25 31.57 23.68 31.43 23.68 31.27 23.68 31.27"/><polygon class="cls-2" points="22.72 31.09 22.72 31.25 22.49 31.31 22.49 31.31 22.07 31.27 22.07 31.2 21.85 31.25 23.24 31.4 23.66 31.27 23.43 31.24 23.43 31.3 23.2 31.38 23.2 31.38 22.78 31.34 22.78 31.17 22.72 31.09 22.72 31.09"/><polygon class="cls-2" points="22.8 31.19 22.8 31.32 23.19 31.36 23.19 31.27 22.83 31.25 22.8 31.19 22.8 31.19"/><polygon class="cls-2" points="23.42 31.21 23.24 31.28 23.21 31.28 23.21 31.36 23.42 31.29 23.42 31.21 23.42 31.21"/><polygon class="cls-2" points="22.48 30.98 22.31 31.16 22.09 31.14 22.09 31.18 22.09 31.18 22.09 31.25 22.48 31.3 22.48 30.98 22.48 30.98"/><polygon class="cls-2" points="22.57 30.89 22.5 30.96 22.5 30.96 22.5 31.3 22.71 31.24 22.71 31.07 22.57 30.89 22.57 30.89"/><polygon class="cls-2" points="22.56 30.5 22.3 30.77 22.3 30.77 21.9 30.73 21.9 31.1 22.3 31.14 22.57 30.87 22.71 31.04 22.71 31.04 22.72 31.06 22.72 31.06 22.72 31.06 22.8 31.16 22.8 31.16 22.84 31.23 23.23 31.26 23.23 30.88 22.83 30.84 22.71 30.68 22.71 30.68 22.71 30.68 22.56 30.5 22.56 30.5"/><polygon class="cls-2" points="23.6 30.75 23.25 30.88 23.25 31.26 23.6 31.13 23.6 30.75 23.6 30.75"/><polygon class="cls-2" points="22.8 30.53 22.8 30.79 22.84 30.83 23.24 30.87 23.42 30.8 23.42 30.69 23.42 30.7 23.42 30.59 23.26 30.64 23.21 30.64 23.21 30.86 23.19 30.86 23.19 30.64 22.87 30.61 22.8 30.53 22.8 30.53"/><path class="cls-2" d="M22.56,30.68a.07.07,0,1,0,0,.14.07.07,0,1,0,0-.14Z"/><path class="cls-2" d="M22.56,30.69a.07.07,0,0,0-.06,0,.06.06,0,0,0,0,.06l0,0h0s0,0,0-.05a.06.06,0,0,0-.05-.06Z"/><polygon class="cls-2" points="23.43 30.71 23.43 30.79 23.58 30.74 23.43 30.71 23.43 30.71"/><polygon class="cls-2" points="22.72 30.43 22.72 30.68 22.79 30.77 22.79 30.51 22.72 30.43 22.72 30.43"/><polygon class="cls-2" points="22.48 30.32 22.27 30.54 22.08 30.52 22.08 30.73 22.3 30.75 22.48 30.56 22.48 30.32 22.48 30.32"/><polygon class="cls-2" points="22.56 30.23 22.5 30.3 22.5 30.3 22.5 30.54 22.56 30.47 22.71 30.66 22.71 30.41 22.71 30.41 22.56 30.23 22.56 30.23"/><polygon class="cls-2" points="22.89 27.15 22.69 27.15 22.41 30.14 22.13 30.11 22.13 30.48 22.49 30.52 22.79 30.21 23.1 30.6 23.48 30.63 23.83 30.51 23.83 30.13 23.47 30.25 23.18 30.21 23.18 30.21 22.89 27.15 22.89 27.15"/><polygon class="cls-2" points="22.78 27.11 22.67 27.15 22.97 30.2 23.24 30.23 23.58 30.12 23.43 30.09 23.2 30.17 23.08 30.15 23.08 30.14 22.78 27.11 22.78 27.11"/><polygon class="cls-2" points="23.19 25.44 22.81 25.44 22.8 25.46 22.8 27.05 22.79 27.05 22.8 27.1 23.1 30.14 23.19 30.16 23.19 25.44 23.19 25.44"/><polygon class="cls-2" points="23.42 25.43 23.3 25.43 23.21 25.44 23.21 30.16 23.42 30.08 23.42 25.43 23.42 25.43"/><polygon class="cls-2" points="22.31 25.4 22.07 25.4 22.07 30.11 22.16 30.12 22.45 27.14 22.45 27.14 22.45 27.14 22.49 27.12 22.49 25.64 22.31 25.4 22.31 25.4"/><path class="cls-2" d="M22.56,29.82a.13.13,0,0,0,0,.26.13.13,0,0,0,0-.26Z"/><path class="cls-2" d="M22.56,29.84a.11.11,0,1,0,0,.22.11.11,0,0,0,0-.22Z"/><polygon class="cls-2" points="22.78 27.06 22.71 27.06 22.49 27.14 22.66 27.14 22.78 27.1 22.78 27.06 22.78 27.06"/><polygon class="cls-2" points="22.5 25.66 22.5 27.12 22.71 27.05 22.71 25.72 22.72 25.72 22.72 27.05 22.79 27.05 22.78 25.7 22.57 25.72 22.5 25.66 22.5 25.66"/><path class="cls-2" d="M25.78,20.49V25.6H24.37V20.49h1.41m.51-.8H23.86a.29.29,0,0,0-.29.29v5h0v.42h0v.68a.29.29,0,0,0,.29.29h2.43a.29.29,0,0,0,.29-.29V20a.29.29,0,0,0-.29-.29Z"/><path class="cls-2" d="M26.39,19.69a.31.31,0,0,1,.21.29v6.13a.31.31,0,0,1-.21.29h.08a.3.3,0,0,0,.3-.3V20a.3.3,0,0,0-.3-.29Z"/><path class="cls-2" d="M21,20.58v4.91H19.72V20.58H21m.5-.8H19.22a.29.29,0,0,0-.3.29V26a.29.29,0,0,0,.3.29h2.25a.29.29,0,0,0,.3-.29V20.07a.29.29,0,0,0-.3-.29Z"/><path class="cls-2" d="M25.56,20.94v4.18h-1V20.94h1m.8-.8h-2.6v5.78h2.6V20.14Z"/><path class="cls-2" d="M25.54,21V25.1h-1V21h1m.8-.8H23.78V25.9h2.56V20.16Z"/><path class="cls-2" d="M20.73,21.09v3.85h-.8V21.09h.8m.8-.8h-2.4v5.48l2.4,0V20.29Z"/><path class="cls-2" d="M20.72,21.11v3.81l-.77,0V21.11h.77m.8-.8H19.15v5.44l2.37,0v-5.4Z"/><polygon class="cls-2" points="22.78 25.48 22.59 25.71 22.78 25.68 22.78 25.48 22.78 25.48"/><polygon class="cls-2" points="22.29 25.01 21.95 25.01 21.95 25.39 22.06 25.39 22.06 25.39 22.32 25.39 22.5 25.64 22.5 25.64 22.57 25.7 22.81 25.42 23.19 25.42 23.29 25.42 23.29 25.03 22.85 25.03 22.56 25.32 22.29 25.01 22.29 25.01"/><polygon class="cls-2" points="23.55 25.03 23.3 25.03 23.3 25.42 23.55 25.42 23.55 25.32 23.41 25.32 23.41 25.12 23.55 25.12 23.55 25.03 23.55 25.03"/><polygon class="cls-2" points="21.94 25.01 21.85 25.01 21.85 25.39 21.94 25.39 21.94 25.01 21.94 25.01"/><polygon class="cls-2" points="23.55 25.13 23.43 25.13 23.43 25.31 23.55 25.31 23.55 25.13 23.55 25.13"/><polygon class="cls-2" points="22.41 25.13 22.56 25.3 22.71 25.14 22.41 25.13 22.41 25.13"/><polygon class="cls-2" points="22.55 20.55 22.29 20.85 22.07 20.85 22.07 24.99 22.3 24.99 22.4 25.11 22.49 25.12 22.49 20.72 22.71 20.72 22.71 20.73 22.72 25.13 22.73 25.13 22.73 25.13 22.78 25.07 22.78 20.79 22.55 20.55 22.55 20.55"/><polygon class="cls-2" points="22.5 20.74 22.5 25.12 22.71 25.13 22.7 20.74 22.5 20.74 22.5 20.74"/><polygon class="cls-2" points="22.8 20.8 22.8 25.06 22.84 25.01 23.2 25.01 23.2 20.84 22.84 20.84 22.8 20.8 22.8 20.8"/><polygon class="cls-2" points="23.3 20.84 23.22 20.84 23.22 25.01 23.41 25.01 23.41 20.84 23.3 20.84 23.3 20.84"/><polygon class="cls-2" points="23.43 20.84 23.43 25.01 23.55 25.01 23.55 20.85 23.43 20.84 23.43 20.84"/><polygon class="cls-2" points="22.06 20.85 21.95 20.85 21.95 24.99 22.06 24.99 22.06 20.85 22.06 20.85"/><polygon class="cls-2" points="21.94 20.46 21.87 20.46 21.86 20.84 21.94 20.84 21.94 20.46 21.94 20.46"/><polygon class="cls-2" points="22.56 20.16 22.5 20.23 22.5 20.24 22.49 20.24 22.29 20.46 21.95 20.46 21.95 20.84 22.29 20.84 22.55 20.52 22.84 20.83 23.29 20.82 23.29 20.45 22.82 20.45 22.56 20.16 22.56 20.16"/><polygon class="cls-2" points="23.3 20.45 23.3 20.82 23.41 20.83 23.41 20.83 23.43 20.83 23.43 20.83 23.55 20.84 23.55 20.75 23.41 20.75 23.41 20.54 23.55 20.54 23.55 20.46 23.3 20.45 23.3 20.45"/><polygon class="cls-2" points="23.55 20.56 23.43 20.56 23.43 20.74 23.55 20.74 23.55 20.56 23.55 20.56"/><polygon class="cls-2" points="23.25 15.65 23.2 15.66 23.2 20.44 23.29 20.44 23.42 20.44 23.42 15.77 23.56 15.75 23.25 15.65 23.25 15.65"/><polygon class="cls-2" points="22.58 20.16 22.83 20.44 22.93 20.44 22.77 20.28 22.77 20.16 22.58 20.16 22.58 20.16"/><polygon class="cls-2" points="23.18 15.66 22.83 15.69 22.8 15.74 22.8 16.09 22.79 20.16 22.79 20.27 22.95 20.44 23.18 20.44 23.18 15.66 23.18 15.66"/><polygon class="cls-2" points="22.48 15.95 22.5 20.21 22.56 20.14 22.57 20.14 22.71 20.14 22.71 16.07 22.57 16.03 22.57 16.04 22.48 15.95 22.48 15.95"/><polygon class="cls-2" points="22.72 16.07 22.72 20.14 22.77 20.14 22.78 16.09 22.72 16.07 22.72 16.07"/><polygon class="cls-2" points="22.78 15.76 22.58 16.02 22.78 16.07 22.78 15.76 22.78 15.76"/><polygon class="cls-2" points="23.24 15.25 22.84 15.29 22.57 15.64 22.3 15.35 21.92 15.39 21.92 15.77 22.07 15.77 22.07 15.77 22.3 15.75 22.57 16.02 22.78 15.73 22.78 15.73 22.79 15.73 22.83 15.68 23.25 15.64 23.24 15.25 23.24 15.25"/><polygon class="cls-2" points="21.94 15.78 22.06 15.84 22.06 15.78 21.94 15.78 21.94 15.78"/><polygon class="cls-2" points="23.26 15.26 23.26 15.64 23.59 15.74 23.59 15.37 23.26 15.26 23.26 15.26"/><polygon class="cls-2" points="22.48 15.33 22.48 15.53 22.57 15.62 22.72 15.41 22.57 15.41 22.57 15.42 22.48 15.33 22.48 15.33"/><polygon class="cls-2" points="22.3 15.14 22.08 15.16 22.07 15.36 22.31 15.33 22.31 15.34 22.47 15.51 22.47 15.32 22.3 15.14 22.3 15.14"/><polygon class="cls-2" points="22.78 15.14 22.58 15.4 22.73 15.4 22.79 15.33 22.78 15.33 22.78 15.14 22.78 15.14"/><polygon class="cls-2" points="23.24 14.63 22.86 14.67 22.57 15 22.31 14.72 21.92 14.77 21.92 15.16 22.07 15.15 22.07 15.15 22.08 15.15 22.31 15.13 22.57 15.39 22.84 15.04 23.24 15.01 23.24 14.63 23.24 14.63"/><polygon class="cls-2" points="23.19 15.03 22.85 15.06 22.8 15.12 22.8 15.31 22.83 15.28 23.19 15.24 23.19 15.03 23.19 15.03"/><polygon class="cls-2" points="23.25 15.03 23.2 15.03 23.2 15.24 23.25 15.24 23.41 15.29 23.41 15.08 23.25 15.03 23.25 15.03"/><polygon class="cls-2" points="23.42 15.09 23.42 15.15 23.56 15.13 23.42 15.09 23.42 15.09"/><polygon class="cls-2" points="23.26 14.63 23.26 15.02 23.59 15.12 23.59 14.75 23.26 14.63 23.26 14.63"/><polygon class="cls-2" points="22.7 14.56 22.48 14.59 22.48 14.89 22.57 14.98 22.7 14.83 22.7 14.56 22.7 14.56"/><polygon class="cls-2" points="22.47 14.59 22.08 14.63 22.08 14.73 22.31 14.71 22.32 14.71 22.47 14.88 22.47 14.59 22.47 14.59"/><polygon class="cls-2" points="22.78 14.55 22.72 14.56 22.72 14.81 22.78 14.74 22.78 14.55 22.78 14.55"/><polygon class="cls-2" points="23.19 14.51 22.79 14.55 22.79 14.72 22.85 14.66 23.19 14.63 23.19 14.51 23.19 14.51"/><polygon class="cls-2" points="23.22 14.5 23.2 14.51 23.2 14.62 23.26 14.62 23.42 14.68 23.42 14.62 23.42 14.62 23.42 14.57 23.22 14.5 23.22 14.5"/><polygon class="cls-2" points="23.22 14.3 21.89 14.44 21.89 14.64 22.07 14.62 22.7 14.55 22.7 14.55 22.7 14.55 23.22 14.49 23.22 14.3 23.22 14.3"/><polygon class="cls-2" points="23.44 14.57 23.44 14.62 23.57 14.61 23.44 14.57 23.44 14.57"/><polygon class="cls-2" points="23.23 14.29 23.23 14.49 23.61 14.61 23.61 14.43 23.23 14.29 23.23 14.29"/><polygon class="cls-2" points="23.31 14.23 21.63 14.42 21.88 14.5 21.88 14.43 21.88 14.43 23.23 14.28 23.62 14.42 23.62 14.46 23.85 14.43 23.31 14.23 23.31 14.23"/><polygon class="cls-2" points="23.32 13.92 23.32 14.22 23.89 14.42 23.88 14.13 23.32 13.92 23.32 13.92"/><polygon class="cls-2" points="23.3 13.92 21.6 14.11 21.6 14.41 23.3 14.21 23.3 13.92 23.3 13.92"/><polygon class="cls-2" points="23.01 13.9 22.14 14 22.14 14.03 23.11 13.93 23.01 13.9 23.01 13.9"/><polygon class="cls-2" points="23 13.83 22.07 13.93 22.07 13.98 22.14 13.98 23 13.89 23 13.83 23 13.83"/><polygon class="cls-2" points="23.01 13.83 23.01 13.89 23.16 13.92 23.27 13.91 23.01 13.83 23.01 13.83"/><polygon class="cls-2" points="23 13.73 22.99 13.73 22.99 13.81 23.01 13.81 23.31 13.9 23.31 13.9 23.32 13.9 23.32 13.91 23.32 13.91 23.34 13.91 23.34 13.85 23 13.73 23 13.73"/><polygon class="cls-2" points="22.98 13.73 22.14 13.84 22.14 13.91 22.98 13.81 22.98 13.73 22.98 13.73"/><polygon class="cls-2" points="23.01 13.65 23.01 13.72 23.41 13.85 23.41 13.8 23.34 13.78 23.34 13.78 23.34 13.78 23.01 13.65 23.01 13.65"/><path class="cls-2" d="M23.79,13.65h0m-.79,0h0l-.91.12v.05l.93-.11v-.06Z"/><polygon class="cls-2" points="23 13.56 22.99 13.56 22.99 13.64 23.01 13.64 23.34 13.76 23.34 13.68 23 13.56 23 13.56"/><polygon class="cls-2" points="22.98 13.56 22.14 13.66 22.14 13.75 22.98 13.64 22.98 13.56 22.98 13.56"/><path class="cls-2" d="M24.33,12.84a1,1,0,0,0-.45.09s-.05.51.06.63l.06,0h0a.42.42,0,0,0,.26.12h0a.4.4,0,0,0,.34-.2.18.18,0,0,1-.15-.18c0-.16,0-.43,0-.48Z"/><polygon class="cls-2" points="23.01 13.49 23.01 13.55 23.41 13.68 23.41 13.64 23.01 13.49 23.01 13.49"/><polygon class="cls-2" points="23 13.48 22.76 13.51 22.76 13.52 22.36 13.57 22.35 13.56 22.07 13.6 22.07 13.66 23 13.55 23 13.48 23 13.48"/><path class="cls-2" d="M23.34,12.72l-.35.47v.28h0l.34.13v0l.47-.64h0a.14.14,0,0,0,0-.06h0v0l-.43.58v-.67Z"/><polygon class="cls-2" points="22.14 13.41 22.14 13.58 22.33 13.55 22.23 13.51 22.23 13.51 22.14 13.41 22.14 13.41"/><path class="cls-2" d="M24.18,12.91a.33.33,0,1,0,.28.33.31.31,0,0,0-.28-.33Z"/><path class="cls-2" d="M24.18,12.93a.3.3,0,0,0-.28.31.28.28,0,1,0,.28-.31Z"/><path class="cls-2" d="M24.19,13.47a0,0,0,0,0,0,0,0,0,0,0,0,0,0s0,0,0,0,0,0,0,0Z"/><path class="cls-2" d="M24.11,13.47a0,0,0,0,0,0,0l0,0s0,0,0,0a0,0,0,0,0,0,0Z"/><path class="cls-2" d="M24.19,13.49h0Z"/><path class="cls-2" d="M24.25,13.46a0,0,0,0,0,0,0s0,0,0,0a0,0,0,0,0,0,0s0,0,0,0Z"/><path class="cls-2" d="M24.11,13.48v0h0s0,0,0,0Z"/><path class="cls-2" d="M24.3,12.65a1,1,0,0,0-.5.1s0,.05,0,.07a.2.2,0,0,1,0,.08s0,.26,0,.36a.65.65,0,0,0,0,.2,1.72,1.72,0,0,1,0-.54h0a1,1,0,0,1,.46-.08h.17v0c0,.08,0,.32,0,.46a.18.18,0,0,0,.15.18h0l.05,0a.17.17,0,0,0,0-.12c0-.09,0-.3,0-.39a.75.75,0,0,1,0-.16h0s0-.1-.37-.13Z"/><polygon class="cls-2" points="22.98 13.21 22.77 13.5 22.98 13.47 22.98 13.21 22.98 13.21"/><path class="cls-2" d="M29.35,8.14h0Zm0,0L24.2,10l-1.08,1.82h0L22.44,13,20.7,10.57l-4.63-.39.11.35,4.08.74h0l1.87,2.09h0l.11.14.4,0,1.84-2.54-.08-.05h0l.07.05.2-.27h0l4.57-2.06.1-.44Z"/><path class="cls-2" d="M24.25,13.47h0v0a0,0,0,0,0,0,0Z"/><path class="cls-2" d="M24.1,13h0s0,0,0,0,0,0,0,0H24s0,0,0,0v0l0,0h0v0h0a.05.05,0,0,0,0,0,0,0,0,0,0,0,0v.08h0a0,0,0,0,0,0,0v0a0,0,0,0,0,0,0h0s0,0,0,0,0,0,0,0l0,0,0,0a0,0,0,0,0,0,0,0,0,0,0,0,0,0,0,0,0,0,0,0,0h.1a.2.2,0,0,0,.18-.16,0,0,0,0,0,0,0,0,0,0,0,0,0,0s0,0,0,0h0v0a.23.23,0,0,0-.15-.21l-.07,0h0v0h0Z"/><path class="cls-2" d="M24.05,13.45a0,0,0,0,0,0,0h0a0,0,0,0,0,0,0Z"/><path class="cls-2" d="M24.31,13.41l0,0a0,0,0,0,0,0,0h0s0,0,0,0a0,0,0,0,0,0,0Z"/><path class="cls-2" d="M24.31,13.43h0Z"/><path class="cls-2" d="M24.15,13a.15.15,0,0,0-.09,0h0l0,0h0s0,0,0,0,0,0,0,0h0v0a0,0,0,0,1,0,0s0,0,0,0a0,0,0,0,1,0,0h0v0h0a0,0,0,0,1,0,0s0,0,0,0a0,0,0,0,1,0,0h0v0h0a0,0,0,0,1,0,0v0h0a0,0,0,0,1,0,0,.28.28,0,0,0,.13,0h.07a.23.23,0,0,0,.14-.2.21.21,0,0,0-.18-.21Zm-.09,0h0Zm0,0h0Z"/><path class="cls-2" d="M24.36,13.35h0s0,0,0,0l0,0a0,0,0,0,0,0,0,0,0,0,0,0,0,0Z"/><path class="cls-2" d="M24.15,13.07a.16.16,0,0,0-.12.06.15.15,0,0,0,0,.19.16.16,0,0,0,.14.08h0a.15.15,0,0,0,.14-.16.17.17,0,0,0-.11-.16Z"/><path class="cls-2" d="M24.36,13.37a0,0,0,0,0,0,0h0s0,0,0,0Z"/><path class="cls-2" d="M24.15,13.09a.16.16,0,0,0-.13.08.15.15,0,0,0,0,.17.16.16,0,0,0,.11.05h.06a.14.14,0,0,0,.09-.14.1.1,0,0,0,0-.1.12.12,0,0,0-.09-.05h0Z"/><path class="cls-2" d="M24.39,13.29h0v0s0,0,0,0a0,0,0,0,0,0,0Z"/><path class="cls-2" d="M24.4,13.19h0s0,0,0,0l0,0a0,0,0,0,0,0,0,0,0,0,0,0,0,0Z"/><path class="cls-2" d="M24.4,13.21h0Z"/><path class="cls-2" d="M24.39,13.12l0,0a0,0,0,0,0,0,0,0,0,0,0,0,0,0s0,0,0,0Z"/><path class="cls-2" d="M24.39,13.13h0Z"/><path class="cls-2" d="M24.36,13.05a0,0,0,0,0,0,0l0,0a0,0,0,0,0,0,0,0,0,0,0,0,0,0Z"/><path class="cls-2" d="M24.36,13.07h0Z"/><path class="cls-2" d="M24.31,13l0,0a0,0,0,0,0,0,0,0,0,0,0,0,0,0s0,0,0,0Z"/><path class="cls-2" d="M24.25,13a0,0,0,0,0,0,0,0,0,0,0,0,0,0s0,0,0,0,0,0,0,0Z"/><path class="cls-2" d="M24.18,13a0,0,0,0,0,0,0,0,0,0,0,0,0,0s0,0,0,0,0,0,0,0Z"/><path class="cls-2" d="M24.25,13h0Z"/><path class="cls-2" d="M24.18,13h0Z"/><path class="cls-2" d="M20.72,10.57,22.44,13l0-.07-1-1.41.43.17.4.56,0,0,0,0h0s-.08,0-.08,0,0,0,0,0l-.9-1.29-.08,0,.51.73-.39-.14h0l-.47-.62h0l-.12-.17-.08,0Z"/><path class="cls-2" d="M22.69,12.56h0Zm0,0-.41.06.21.29.2-.35Z"/><path class="cls-2" d="M23.93,12.68h0Zm0,0h0a.36.36,0,0,0-.18.08h0a0,0,0,0,1,0,0s0-.05,0-.06a.38.38,0,0,1,.14-.06Z"/><path class="cls-2" d="M24.46,12.65c.38,0,.38.09.38.14a.05.05,0,0,0,0,0h0a.82.82,0,0,0-.4-.1Z"/><path class="cls-2" d="M24.32,12.13a1.65,1.65,0,0,0-.36,0h0a1.12,1.12,0,0,0-.16.22,1.33,1.33,0,0,0-.05.34.55.55,0,0,1,.32-.09l.3,0a1,1,0,0,1,.5.1h0a.89.89,0,0,0-.21-.56h0a1.1,1.1,0,0,0-.35,0Z"/><path class="cls-2" d="M21.5,11.54l.77,1.07h0l0-.07h0s-.08,0-.08,0,0-.06,0-.06l.06,0v0h0s-.08,0-.08,0,0-.06,0-.06h0l-.4-.56-.38-.15Z"/><path class="cls-2" d="M22.69,12.35l-.27,0-.09.23.37-.06.12-.19h-.13Z"/><path class="cls-2" d="M22.4,12.37h0Zm0,0-.06,0h0l0,0a.07.07,0,0,0,0,0s0,0,.09,0l0-.14Z"/><path class="cls-2" d="M22.72,12.18l-.25,0h0l-.11.17a1.14,1.14,0,0,1,.34,0h.14l.08-.14h-.19Z"/><path class="cls-2" d="M22.44,12.2h0Zm0,0-.11,0h0l0,0a.12.12,0,0,0,0,.05s0,0,.09,0h0l.09-.15Z"/><path class="cls-2" d="M22.79,12h-.33l-.11.18a1.17,1.17,0,0,1,.35,0h.22L23,12h0l-.19,0Z"/><path class="cls-2" d="M22.44,12Zm0,0a.56.56,0,0,0-.1,0h0l0,0h0a.05.05,0,0,0,0,0s0,0,.09,0h0l.09-.14Z"/><path class="cls-2" d="M24.29,12h-.08l-.08,0-.15.13a2,2,0,0,1,.34,0,1.1,1.1,0,0,1,.31,0h0L24.45,12l0,0h-.12Z"/><path class="cls-2" d="M22.77,11.84a1.3,1.3,0,0,0-.31,0h0l-.11.17a1.2,1.2,0,0,1,.36,0h.08A.78.78,0,0,1,23,12l.09-.16-.33,0Z"/><path class="cls-2" d="M24.33,11.6a.1.1,0,0,0-.07,0s0,0,0,0V12h.19v-.32s0,0,0,0Z"/><polygon class="cls-2" points="24.43 11.73 24.43 11.9 24.52 11.77 24.43 11.73 24.43 11.73"/><path class="cls-2" d="M22.74,11.68l-.28,0-.11.18a1.33,1.33,0,0,1,.41-.05,2.37,2.37,0,0,1,.35,0l.07-.11h0a1.15,1.15,0,0,0-.44-.06Z"/><path class="cls-2" d="M22.44,11.7h0Zm0,0a.29.29,0,0,0-.14,0h0v0s0,0,.09.05l.07-.11Z"/><path class="cls-2" d="M22.74,11.53h-.21l-.16.12h0l-.05,0a1.55,1.55,0,0,1,.42-.05,1.4,1.4,0,0,1,.42.05,1.37,1.37,0,0,0-.17-.17Zm.42.18h0Zm0,0,0,0,0,0Z"/><path class="cls-2" d="M22.5,11.54Zm0,0h0c-.15,0-.22.05-.22.07s0,0,.09,0l.13-.11Z"/><path class="cls-2" d="M23,11.53l0,0,0,0Zm0,0,.11.09h0l.08,0,0,0h0a.35.35,0,0,0-.16,0Z"/><path class="cls-2" d="M22.74,11.4h-.21a1,1,0,0,0-.21.15,1.49,1.49,0,0,1,.4,0H23l.17,0a1.22,1.22,0,0,0-.17-.15Z"/><polygon class="cls-2" points="25.8 10.25 24.8 10.71 24.36 11.31 24.66 11.55 25.18 10.88 25.19 10.87 25.19 10.87 25.19 10.87 26.2 10.44 25.8 10.25 25.8 10.25"/><polygon class="cls-2" points="24.36 11.32 24.3 11.4 24.62 11.54 24.36 11.32 24.36 11.32"/><path class="cls-2" d="M22.5,11.41Zm0,0h0c-.15,0-.22,0-.22.06s0,0,.08,0a.71.71,0,0,1,.14-.1Z"/><path class="cls-2" d="M23,11.41l0,0,.08.08h0c.05,0,.07,0,.07,0l0,0h0l-.16,0Z"/><polygon class="cls-2" points="20.94 10.76 21.4 11.37 21.74 11.49 21.25 10.79 20.94 10.76 20.94 10.76"/><path class="cls-2" d="M22.76,11.25l-.23,0a1.66,1.66,0,0,0-.21.16,1.45,1.45,0,0,1,.4,0H23a.61.61,0,0,1,.17,0l0,0a.86.86,0,0,0-.2-.18l-.22,0Z"/><polygon class="cls-2" points="19.55 11.19 19.89 11.32 20.37 11.41 20.29 11.32 19.55 11.19 19.55 11.19"/><path class="cls-2" d="M18.76,11.14a.07.07,0,0,0,0,0,.22.22,0,0,0,.14.09H19a.17.17,0,0,0,.15-.07l-.08,0-.27,0Z"/><path class="cls-2" d="M18.39,11c0,.05.09.11.18.13h.07l.1,0h0s0,0,0,0l-.08,0a.93.93,0,0,0-.29-.05Z"/><path class="cls-2" d="M17.93,10.88h-.05l0,0h0c0,.07.08.14.19.17h.07a.18.18,0,0,0,.1,0,.05.05,0,0,0,0-.05h0v0s-.08-.05-.18-.07h0l-.13,0Z"/><path class="cls-2" d="M18.44,11h-.05a1.59,1.59,0,0,1,.3.06l.08,0s-.07,0-.16-.06h0a.45.45,0,0,0-.16,0Z"/><path class="cls-2" d="M17.88,10.92c0,.06.08.12.18.14h.06a.19.19,0,0,0,.1,0,.05.05,0,0,0,0,0l-.07,0-.29-.06Z"/><path class="cls-2" d="M17.93,10.9h-.05l.29.06.08,0s-.07-.05-.16-.06h0l-.15,0Z"/><path class="cls-2" d="M17.4,10.83c0,.05.08.12.18.13h.06a.16.16,0,0,0,.1,0l0,0-.08,0a1.35,1.35,0,0,0-.29-.05Z"/><path class="cls-2" d="M17.45,10.8H17.4l.3.06.07,0s-.07-.05-.15-.07h0l-.15,0Z"/><path class="cls-2" d="M16.92,10.75h0a.25.25,0,0,0,.18.14h.06a.16.16,0,0,0,.1,0,.05.05,0,0,0,0,0l-.08,0a1.37,1.37,0,0,0-.28-.05Z"/><path class="cls-2" d="M17,10.72h-.05l.3.06s.05,0,.07,0-.07-.05-.15-.07h0a.37.37,0,0,0-.15,0Z"/><path class="cls-2" d="M27.26,10Zm0,0a.19.19,0,0,1-.14.09H27v0l0,0,.08,0h.05a.24.24,0,0,0,.12-.07h0a0,0,0,0,0,0,0h0l0,0Z"/><path class="cls-2" d="M27.2,9.92h-.06c-.08,0-.15.07-.15.12v0a.19.19,0,0,1,.16-.12h.05l.08,0s0,0,0,0l-.07,0Z"/><path class="cls-2" d="M28,10h0m-.8,0h-.06a.22.22,0,0,0-.13.09h0a.28.28,0,0,0,.19-.09Z"/><path class="cls-2" d="M26.9,9.75h-.06c-.09,0-.16.08-.16.13a.05.05,0,0,0,0,0h0s0,0,0,0a.08.08,0,0,0,.07,0h.07c.09,0,.16-.08.16-.13l0,0h0s0,0,0,0l-.09,0Z"/><path class="cls-2" d="M27,9.8h0a.23.23,0,0,1-.15.1h-.09v0l0,0,.08,0h.05c.07,0,.14-.07.14-.11h0s0,0,0,0l0,0Z"/><path class="cls-2" d="M26.9,9.77h-.06c-.08,0-.14.07-.14.11s0,0,0,0,.07-.1.15-.12h.06l.07,0h0a.12.12,0,0,0-.08,0Zm-.19.14h0Z"/><path class="cls-2" d="M26.94,9.8h-.07a.24.24,0,0,0-.14.08h0A.22.22,0,0,0,27,9.8Z"/><path class="cls-2" d="M27.88,9.7h0a.24.24,0,0,1-.15.09h-.1v0a0,0,0,0,0,0,0h.13a.23.23,0,0,0,.13-.07h0v0h0l0,0Z"/><path class="cls-2" d="M27.81,9.66h-.06c-.08,0-.14.07-.14.12v0c0-.05.08-.1.16-.12h.12l-.08,0Z"/><path class="cls-2" d="M27.84,9.69h-.07a.22.22,0,0,0-.13.09h.09a.2.2,0,0,0,.13-.09Z"/><path class="cls-2" d="M27.51,9.49h-.06c-.08,0-.15.08-.15.13a.05.05,0,0,0,0,0l0,0a.1.1,0,0,0,.07,0h.07c.09,0,.16-.08.16-.13s0,0,0,0h0a.05.05,0,0,0,0,0l-.09,0Z"/><path class="cls-2" d="M27.59,9.54a.25.25,0,0,1-.15.1h-.1v0l0,0,.07,0h.06c.07,0,.14-.07.14-.11h0s0,0,0,0l0,0Z"/><path class="cls-2" d="M27.51,9.51h-.06c-.08,0-.14.07-.14.11s0,0,0,0a.19.19,0,0,1,.15-.12h.06l.07,0v0Z"/><path class="cls-2" d="M27.55,9.54h-.07a.24.24,0,0,0-.14.08h.1a.22.22,0,0,0,.13-.08Z"/><path class="cls-2" d="M28.45,9.45h0a.24.24,0,0,1-.15.09h-.1v0a0,0,0,0,0,0,0h.13a.2.2,0,0,0,.12-.06h0l0,0h0l0,0Z"/><path class="cls-2" d="M28.38,9.41h-.06c-.08,0-.15.07-.15.12v0c0-.05.08-.1.16-.12h.12l-.08,0Z"/><path class="cls-2" d="M28.41,9.44h-.07a.22.22,0,0,0-.13.09h.09a.22.22,0,0,0,.13-.08Z"/><path class="cls-2" d="M28.08,9.24H28c-.08,0-.15.08-.15.13a.05.05,0,0,0,0,0h0s0,0,0,0a.1.1,0,0,0,.07,0h.07c.09,0,.16-.07.16-.13h0s0,0,0,0h0a.05.05,0,0,0,0,0l-.09,0Z"/><path class="cls-2" d="M28.15,9.29h0a.21.21,0,0,1-.14.1h-.1v0l0,0,.07,0h.06c.07,0,.14-.07.14-.11h0s0,0,0,0l0,0Z"/><path class="cls-2" d="M28.08,9.26h0c-.08,0-.15.07-.15.11s0,0,0,0A.19.19,0,0,1,28,9.28h.06l.07,0v0Z"/><path class="cls-2" d="M28.12,9.29h-.07a.24.24,0,0,0-.14.08H28a.22.22,0,0,0,.14-.08Z"/><path class="cls-2" d="M29,9.21a.24.24,0,0,1-.15.09h-.1v0a0,0,0,0,0,0,0l0,0h.08c.08,0,.14-.07.14-.11l0,0Z"/><path class="cls-2" d="M28.94,9.17h-.06c-.08,0-.14.07-.14.11a0,0,0,0,0,0,0c0-.05.07-.1.15-.12H29a.12.12,0,0,0-.08,0Z"/><path class="cls-2" d="M29.77,9.2h0m-.8,0H28.9a.26.26,0,0,0-.13.08h.09A.2.2,0,0,0,29,9.2Z"/><path class="cls-2" d="M28.65,9h-.07c-.08,0-.15.08-.15.13a.05.05,0,0,0,0,0l0,0,.07,0h.07c.09,0,.16-.08.16-.13h0a.05.05,0,0,0,0,0h0s0,0,0,0l-.08,0Z"/><path class="cls-2" d="M28.71,9.05h0a.25.25,0,0,1-.15.1h-.1v0l0,0,.08,0h.05c.08,0,.14-.07.14-.11h0l0,0Z"/><path class="cls-2" d="M28.65,9h-.06c-.08,0-.15.08-.15.12v0A.19.19,0,0,1,28.61,9h.11l-.07,0Z"/><path class="cls-2" d="M29.47,9h0m-.79,0h-.07a.24.24,0,0,0-.14.09h.1a.22.22,0,0,0,.13-.08Z"/><polygon class="cls-2" points="29.37 8.13 29.27 8.58 29.88 8.92 30.03 8.5 29.37 8.13 29.37 8.13"/><polygon class="cls-2" points="22 15.5 22 20.5 22.55 20.55 23 19.5 22.67 15.88 22 15.5"/></g></g></svg>