<?xml version="1.0" encoding="UTF-8"?>
<svg width="60px" height="60px" viewBox="0 0 60 60" version="1.1" xmlns="http://www.w3.org/2000/svg" xmlns:xlink="http://www.w3.org/1999/xlink">
    <title>radar-60px</title>
    <g id="切图" stroke="none" stroke-width="1" fill="none" fill-rule="evenodd">
        <g id="编组">
            <circle id="椭圆形备份-2" fill-opacity="0.1" fill="#060838" opacity="0" cx="30" cy="30" r="30"></circle>
            <g id="radar_s" transform="translate(18.000000, 17.000000)" fill="#FFFFFF" fill-rule="nonzero">
                <path d="M23.6832737,19.8929923 L16.2357033,12.445422 L19.5498721,9.1312532 C20.7509822,9.4760884 22.0436586,9.10778395 22.8826598,8.18168798 C23.7575393,7.44447548 24.2449802,6.34601723 24.2046036,5.20265985 C24.0557655,3.38609677 22.6139032,1.94423446 20.7973402,1.79539642 C19.6604313,1.76078781 18.5700502,2.24768751 17.8369309,3.11734015 C16.910835,3.95634136 16.5425305,5.24901778 16.8873657,6.45012788 L13.5731969,9.76429668 L5.06434783,1.2740665 C4.79702202,1.03430683 4.43934209,0.921374342 4.08280696,0.964158558 C3.72627183,1.00694277 3.40546589,1.20129356 3.20245524,1.49749361 C0.125883577,6.54977349 0.330492729,12.9438095 3.72378517,17.7890537 C2.11878381,18.2414251 1.0101947,19.7056631 1.0101947,21.3731969 C1.0101947,23.0407308 2.11878381,24.5049688 3.72378517,24.9573402 C4.71317796,25.2126425 5.76401091,25.0501688 6.63010065,24.5079825 C7.49619039,23.9657963 8.10143494,23.0915385 8.30404092,22.0900256 C10.5632884,23.4157115 13.1321862,24.1221584 15.7516113,24.1381074 C18.4281695,24.1419287 21.0549099,23.4144246 23.348133,22.0341688 C23.7231257,21.8328064 23.9821361,21.4674061 24.0479561,21.0468897 C24.1137761,20.6263733 23.978804,20.1993061 23.6832737,19.8929923 L23.6832737,19.8929923 Z" id="路径"></path>
            </g>
        </g>
    </g>
</svg>