<?xml version="1.0" encoding="UTF-8"?>
<svg width="28px" height="28px" viewBox="0 0 28 28" version="1.1" xmlns="http://www.w3.org/2000/svg" xmlns:xlink="http://www.w3.org/1999/xlink">
    <title>rainfall-28px</title>
    <g id="切图" stroke="none" stroke-width="1" fill="none" fill-rule="evenodd">
        <path d="M10.7499698,24.9999371 C15.3089266,24.9999371 18.9999502,21.5753275 18.9999502,17.3472377 C18.9999502,12.5433093 14.3206477,10.7601105 12.1206865,3.94957984 C11.7468509,2.71209118 9.80037951,2.65624033 9.3792532,3.94957984 C7.18785217,10.7257439 2.49998951,12.5691157 2.49998951,17.3472377 C2.49998951,21.5753275 6.19101312,24.9999371 10.7499698,24.9999371 Z M20.3749469,11.2499698 C22.6480051,11.2499698 24.4999371,9.39803792 24.4999371,7.12497967 C24.4999371,4.85192143 22.6480051,2.99998951 20.3749469,2.99998951 C18.1018887,2.99998951 16.2499567,4.85192143 16.2499567,7.12497967 C16.2499567,9.39803792 18.1018887,11.2499698 20.3749469,11.2499698 Z M20.3749469,8.4999764 C19.6143934,8.4999764 18.9999502,7.88553313 18.9999502,7.12497967 C18.9999502,6.36442622 19.6143934,5.74998295 20.3749469,5.74998295 C21.1355003,5.74998295 21.7499436,6.36442622 21.7499436,7.12497967 C21.7499436,7.88553313 21.1355003,8.4999764 20.3749469,8.4999764 Z" id="d" fill="#FFFFFF" fill-rule="nonzero"></path>
    </g>
</svg>