<?xml version="1.0" encoding="UTF-8"?>
<svg width="60px" height="60px" viewBox="0 0 60 60" version="1.1" xmlns="http://www.w3.org/2000/svg" xmlns:xlink="http://www.w3.org/1999/xlink">
    <title>security-60px</title>
    <g id="切图" stroke="none" stroke-width="1" fill="none" fill-rule="evenodd">
        <g id="编组">
            <circle id="椭圆形备份-2" fill-opacity="0.1" fill="#060838" opacity="0" cx="30" cy="30" r="30"></circle>
            <g id="camera_s" transform="translate(14.000000, 18.000000)" fill="#FFFFFF" fill-rule="nonzero">
                <path d="M8.66533023,17.6236568 L10.5182909,18.3763432 L8.22022463,24.0337145 L0.974253967,24.0337145 L0.974253967,22.0337145 L6.873,22.033 L8.66533023,17.6236568 Z M5.14936723,0.0641883701 L24.3323558,8.01283767 C24.6031325,8.1342608 24.8163319,8.36562231 24.9239847,8.65486662 C25.0316376,8.94411093 25.0247019,9.26694367 24.9047382,9.55072852 L21.2578444,19.2273451 C21.0501235,19.8290398 20.4246169,20.1441297 19.851419,19.9358116 L0.668430436,11.9871623 C0.396507589,11.8621675 0.18309483,11.6275955 0.0756148229,11.335571 C-0.0318651844,11.0435464 -0.0245092707,10.7182592 0.096047999,10.4319918 L3.74294181,0.772654938 C3.95066271,0.17096022 4.57616933,-0.144129739 5.14936723,0.0641883701 Z M26.7429761,11.007735 L31.8876171,13.1143282 C32.037461,13.1143282 32.037461,13.5104397 31.8876171,13.8705411 L29.7565036,19.4521129 C29.6233091,19.8122143 29.3902185,20.0462802 29.2570239,19.992265 L24.1123829,17.8856718 C23.962539,17.8856718 23.962539,17.4895603 24.1123829,17.1294589 L26.2434964,11.5478871 C26.3766909,11.1877857 26.6097815,10.9537198 26.7429761,11.007735 Z" id="形状结合"></path>
            </g>
        </g>
    </g>
</svg>