<?xml version="1.0" encoding="UTF-8"?>
<svg width="48px" height="48px" viewBox="0 0 48 48" version="1.1" xmlns="http://www.w3.org/2000/svg" xmlns:xlink="http://www.w3.org/1999/xlink">
    <title>smart-lock-48px</title>
    <g id="切图" stroke="none" stroke-width="1" fill="none" fill-rule="evenodd">
        <path d="M32.3333333,5 C33.4992678,5 34.4444444,5.94517664 34.4444444,7.11111111 L34.4444444,7.11111111 L34.4444444,21.8888889 L30.4544444,21.8888889 C28.8114309,20.3685055 26.6552062,19.5241098 24.4166667,19.5244444 C19.4614452,19.5244444 15.4444444,23.5414452 15.4444444,28.4966667 C15.4444444,33.4518882 19.4614452,37.4688889 24.4166667,37.4688889 C26.9170457,37.4621581 29.2995056,36.4049894 30.9822222,34.5555556 L30.9822222,34.5555556 L34.4444444,34.5555556 L34.4444444,40.8888889 C34.4444444,42.0548234 33.4992678,43 32.3333333,43 L32.3333333,43 L9.11111111,43 C7.94517664,43 7,42.0548234 7,40.8888889 L7,40.8888889 L7,7.11111111 C7,5.94517664 7.94517664,5 9.11111111,5 L9.11111111,5 Z M23.0670893,24.0762937 C24.9416604,23.7106808 26.8282356,24.6489682 27.6677778,26.3644444 L27.6677778,26.3644444 L38.6666667,26.3644444 C39.8326011,26.3644444 40.7777778,27.3096211 40.7777778,28.4755556 C40.7777778,29.64149 39.8326011,30.5866667 38.6666667,30.5866667 L38.6666667,30.5866667 L27.3722222,30.5866667 C26.3018718,32.1684504 24.3029753,32.8347548 22.4976215,32.2115471 C20.6922678,31.5883394 19.5300724,29.8308268 19.6634385,27.9255963 C19.7968047,26.0203657 21.1925181,24.4419067 23.0670893,24.0762937 Z M30.2222222,9.22222222 L11.2222222,9.22222222 L11.2222222,13.4444444 L30.2222222,13.4444444 L30.2222222,9.22222222 Z" id="蒙版" stroke="#72B9E7" fill-rule="nonzero"></path>
    </g>
</svg>