<?xml version="1.0" encoding="UTF-8"?>
<svg width="48px" height="48px" viewBox="0 0 48 48" version="1.1" xmlns="http://www.w3.org/2000/svg" xmlns:xlink="http://www.w3.org/1999/xlink">
    <title>sos-48px</title>
    <g id="切图" stroke="none" stroke-width="1" fill="none" fill-rule="evenodd">
        <path d="M27.8986314,4 L28.7091771,4.00498957 C33.0052404,4.05981087 34.6824926,4.56532309 36.3726514,5.46922987 C38.165244,6.42791888 39.5720811,7.83475604 40.5307701,9.62734863 L40.6907152,9.93509385 C41.5461396,11.6333547 42,13.4782071 42,18.1013686 L42,29.8986314 L41.9950104,30.7091771 C41.9401891,35.0052404 41.4346769,36.6824926 40.5307701,38.3726514 C39.5720811,40.165244 38.165244,41.5720811 36.3726514,42.5307701 L36.0649062,42.6907152 C34.3666453,43.5461396 32.5217929,44 27.8986314,44 L20.1013686,44 L19.2908229,43.9950104 C14.9947596,43.9401891 13.3175074,43.4346769 11.6273486,42.5307701 C9.83475604,41.5720811 8.42791888,40.165244 7.46922987,38.3726514 L7.30928485,38.0649062 C6.45386041,36.3666453 6,34.5217929 6,29.8986314 L6,18.1013686 C6,13.1980155 6.51054086,11.4199412 7.46922987,9.62734863 C8.42791888,7.83475604 9.83475604,6.42791888 11.6273486,5.46922987 L11.9350938,5.30928485 C13.6333547,4.45386041 15.4782071,4 20.1013686,4 L27.8986314,4 Z M27.8986314,5 L20.1013686,5 L19.2959728,5.00444655 C15.5479897,5.04782218 13.8506844,5.41420393 12.0989475,6.35104307 C10.4806234,7.21653228 9.21653228,8.48062337 8.35104307,10.0989475 C7.41420393,11.8506844 7.04782218,13.5479897 7.00444655,17.2959728 L7,18.1013686 L7,29.8986314 L7.00444655,30.7040272 C7.04782218,34.4520103 7.41420393,36.1493156 8.35104307,37.9010525 C9.21653228,39.5193766 10.4806234,40.7834677 12.0989475,41.6489569 C13.8506844,42.5857961 15.5479897,42.9521778 19.2959728,42.9955534 L20.1013686,43 L27.8986314,43 L28.7040272,42.9955534 C32.4520103,42.9521778 34.1493156,42.5857961 35.9010525,41.6489569 C37.5193766,40.7834677 38.7834677,39.5193766 39.6489569,37.9010525 C40.5857961,36.1493156 40.9521778,34.4520103 40.9955534,30.7040272 L41,29.8986314 L41,18.1013686 L40.9955534,17.2959728 C40.9521778,13.5479897 40.5857961,11.8506844 39.6489569,10.0989475 C38.7834677,8.48062337 37.5193766,7.21653228 35.9010525,6.35104307 C34.1493156,5.41420393 32.4520103,5.04782218 28.7040272,5.00444655 L27.8986314,5 Z M16.528,18.568 C16.708,18.568 16.876,18.736 16.876,18.916 C16.876,19.096 16.708,19.264 16.528,19.264 L16.528,19.264 L13.132,19.264 C12.688,19.264 12.304,19.444 12.016,19.732 C11.728,20.02 11.548,20.404 11.548,20.848 C11.548,21.28 11.728,21.664 12.016,21.952 L12.016,21.952 L12.016,21.976 C12.304,22.264 12.688,22.432 13.132,22.432 L13.132,22.432 L14.812,22.432 C15.568,22.432 16.264,22.744 16.756,23.26 C17.248,23.752 17.572,24.448 17.572,25.204 C17.572,25.984 17.248,26.656 16.756,27.172 C16.24,27.688 15.568,28 14.788,28 L14.788,28 L11.188,28 L11.2,27.988 C11.02,27.988 10.852,27.82 10.852,27.64 C10.852,27.436 11.02,27.292 11.2,27.292 L11.2,27.292 L14.8,27.292 C15.376,27.292 15.904,27.052 16.276,26.68 C16.648,26.308 16.888,25.78 16.888,25.204 C16.888,24.628 16.648,24.112 16.276,23.74 C15.904,23.356 15.388,23.128 14.812,23.128 L14.812,23.128 L13.132,23.128 C12.496,23.128 11.944,22.888 11.536,22.48 L11.536,22.48 L11.512,22.456 C11.104,22.048 10.84,21.472 10.84,20.86 C10.84,20.224 11.104,19.648 11.512,19.24 C11.92,18.832 12.496,18.568 13.132,18.568 L13.132,18.568 Z M23.812,18.592 C25.096,18.592 26.26,19.12 27.124,19.96 C27.988,20.824 28.504,21.988 28.504,23.296 C28.504,24.58 27.988,25.768 27.124,26.608 C26.26,27.472 25.096,28 23.812,28 C22.504,28 21.34,27.472 20.476,26.608 C19.636,25.768 19.108,24.58 19.108,23.296 C19.108,21.988 19.636,20.824 20.476,19.96 C21.34,19.12 22.504,18.592 23.812,18.592 Z M35.692,18.568 C35.872,18.568 36.04,18.736 36.04,18.916 C36.04,19.096 35.872,19.264 35.692,19.264 L35.692,19.264 L32.296,19.264 C31.852,19.264 31.468,19.444 31.18,19.732 C30.892,20.02 30.712,20.404 30.712,20.848 C30.712,21.28 30.892,21.664 31.18,21.952 L31.18,21.952 L31.18,21.976 C31.468,22.264 31.852,22.432 32.296,22.432 L32.296,22.432 L33.976,22.432 C34.732,22.432 35.428,22.744 35.92,23.26 C36.412,23.752 36.736,24.448 36.736,25.204 C36.736,25.984 36.412,26.656 35.92,27.172 C35.404,27.688 34.732,28 33.952,28 L33.952,28 L30.352,28 L30.364,27.988 C30.184,27.988 30.016,27.82 30.016,27.64 C30.016,27.436 30.184,27.292 30.364,27.292 L30.364,27.292 L33.964,27.292 C34.54,27.292 35.068,27.052 35.44,26.68 C35.812,26.308 36.052,25.78 36.052,25.204 C36.052,24.628 35.812,24.112 35.44,23.74 C35.068,23.356 34.552,23.128 33.976,23.128 L33.976,23.128 L32.296,23.128 C31.66,23.128 31.108,22.888 30.7,22.48 L30.7,22.48 L30.676,22.456 C30.268,22.048 30.004,21.472 30.004,20.86 C30.004,20.224 30.268,19.648 30.676,19.24 C31.084,18.832 31.66,18.568 32.296,18.568 L32.296,18.568 Z M23.812,19.288 C22.708,19.288 21.712,19.732 20.98,20.452 C20.26,21.184 19.816,22.18 19.816,23.284 C19.816,24.388 20.26,25.384 20.98,26.104 C21.712,26.836 22.708,27.28 23.812,27.28 C24.916,27.28 25.912,26.836 26.632,26.104 C27.364,25.384 27.808,24.388 27.808,23.284 C27.808,22.18 27.364,21.184 26.632,20.452 C25.912,19.732 24.916,19.288 23.812,19.288 Z" id="形状结合" fill="#72B9E7" fill-rule="nonzero"></path>
    </g>
</svg>