<?xml version="1.0" encoding="UTF-8"?>
<svg width="60px" height="60px" viewBox="0 0 60 60" version="1.1" xmlns="http://www.w3.org/2000/svg" xmlns:xlink="http://www.w3.org/1999/xlink">
    <title>sos-60px</title>
    <g id="切图" stroke="none" stroke-width="1" fill="none" fill-rule="evenodd">
        <g id="编组">
            <circle id="椭圆形备份-2" fill-opacity="0.1" fill="#060838" opacity="0" cx="30" cy="30" r="30"></circle>
            <path d="M34.5,15 C38.64,15 42,18.36 42,22.5 L42,22.5 L42,37.5 C42,41.64 38.64,45 34.5,45 L34.5,45 L25.5,45 C21.36,45 18,41.64 18,37.5 L18,37.5 L18,22.5 C18,18.36 21.36,15 25.5,15 L25.5,15 Z M23.175,34.5 C22.515,34.5 22.005,34.575 21.63,34.71 C21.24,34.86 20.97,35.07 20.775,35.34 C20.58,35.595 20.49,35.88 20.49,36.18 C20.49,36.645 20.67,37.005 21.045,37.305 C21.405,37.605 22.02,37.83 22.875,38.01 C23.4,38.115 23.73,38.22 23.88,38.34 C24.015,38.46 24.09,38.595 24.09,38.745 C24.09,38.91 24.015,39.045 23.865,39.165 C23.715,39.285 23.505,39.345 23.22,39.345 C22.845,39.345 22.545,39.24 22.35,39 C22.23,38.865 22.155,38.64 22.11,38.37 L22.11,38.37 L20.25,38.475 C20.31,39.06 20.535,39.555 20.955,39.93 C21.36,40.305 22.11,40.5 23.19,40.5 C23.805,40.5 24.315,40.425 24.705,40.26 C25.11,40.095 25.425,39.855 25.65,39.54 C25.875,39.225 25.995,38.88 25.995,38.535 C25.995,38.22 25.905,37.935 25.74,37.68 C25.575,37.425 25.305,37.215 24.93,37.035 C24.555,36.87 23.94,36.69 23.085,36.525 C22.74,36.465 22.515,36.39 22.425,36.315 C22.335,36.24 22.29,36.15 22.29,36.06 C22.29,35.925 22.35,35.82 22.47,35.73 C22.575,35.64 22.755,35.595 22.98,35.595 C23.25,35.595 23.46,35.655 23.625,35.775 C23.79,35.895 23.895,36.09 23.94,36.345 L23.94,36.345 L25.785,36.24 C25.695,35.64 25.44,35.19 25.02,34.92 C24.6,34.635 23.985,34.5 23.175,34.5 Z M30,34.5 C28.98,34.5 28.17,34.77 27.6,35.295 C27.015,35.82 26.73,36.555 26.73,37.5 C26.73,38.175 26.88,38.745 27.165,39.195 C27.465,39.645 27.84,39.975 28.305,40.185 C28.77,40.395 29.355,40.5 30.075,40.5 C30.78,40.5 31.38,40.395 31.845,40.14 C32.31,39.885 32.67,39.555 32.925,39.12 C33.165,38.685 33.3,38.13 33.285,37.455 C33.285,36.525 33,35.805 32.43,35.28 C31.86,34.755 31.05,34.5 30,34.5 Z M36.945,34.485 C36.285,34.485 35.76,34.56 35.385,34.71 C34.995,34.86 34.725,35.07 34.53,35.34 C34.335,35.595 34.245,35.88 34.245,36.18 C34.245,36.645 34.425,37.005 34.8,37.305 C35.16,37.605 35.775,37.83 36.63,38.01 C37.155,38.115 37.485,38.22 37.635,38.34 C37.77,38.46 37.845,38.595 37.845,38.745 C37.845,38.91 37.77,39.045 37.62,39.165 C37.47,39.285 37.26,39.345 36.975,39.345 C36.6,39.345 36.3,39.24 36.105,39 C35.985,38.865 35.91,38.64 35.865,38.37 L35.865,38.37 L34.005,38.475 C34.065,39.06 34.29,39.555 34.71,39.93 C35.115,40.305 35.865,40.5 36.945,40.5 C37.56,40.5 38.07,40.425 38.475,40.26 C38.88,40.095 39.195,39.855 39.42,39.54 C39.645,39.225 39.75,38.88 39.78,38.52 C39.78,38.205 39.69,37.92 39.525,37.665 C39.36,37.41 39.09,37.2 38.715,37.02 C38.34,36.855 37.725,36.675 36.87,36.51 C36.525,36.45 36.3,36.375 36.21,36.3 C36.105,36.225 36.06,36.135 36.06,36.045 C36.06,35.91 36.12,35.805 36.24,35.715 C36.345,35.625 36.525,35.58 36.75,35.58 C37.02,35.58 37.23,35.64 37.395,35.76 C37.56,35.88 37.665,36.075 37.71,36.33 L37.71,36.33 L39.555,36.225 C39.465,35.625 39.21,35.175 38.79,34.905 C38.37,34.62 37.755,34.485 36.945,34.485 Z M30,35.85 C30.405,35.85 30.75,35.985 30.99,36.24 C31.23,36.495 31.35,36.9 31.35,37.44 C31.35,38.085 31.23,38.535 31.005,38.79 C30.78,39.045 30.45,39.165 30.03,39.165 C29.61,39.165 29.295,39.03 29.055,38.775 C28.815,38.52 28.695,38.1 28.695,37.515 C28.695,36.915 28.815,36.495 29.055,36.24 C29.295,35.985 29.61,35.85 30,35.85 Z M30,18 C25.86,18 22.5,21.36 22.5,25.5 C22.5,29.64 25.86,33 30,33 C34.14,33 37.5,29.64 37.5,25.5 C37.5,21.36 34.14,18 30,18 Z M30,21 C32.4852814,21 34.5,23.0147186 34.5,25.5 C34.5,27.9852814 32.4852814,30 30,30 C27.5147186,30 25.5,27.9852814 25.5,25.5 C25.5,23.0147186 27.5147186,21 30,21 Z" id="形状结合" fill="#FFFFFF" fill-rule="nonzero"></path>
        </g>
    </g>
</svg>