<?xml version="1.0" encoding="UTF-8"?>
<svg width="28px" height="28px" viewBox="0 0 28 28" version="1.1" xmlns="http://www.w3.org/2000/svg" xmlns:xlink="http://www.w3.org/1999/xlink">
    <title>weather-28px</title>
    <g id="切图" stroke="none" stroke-width="1" fill="none" fill-rule="evenodd">
        <path d="M3.48473004,18.5816074 L6.7546693,17.494467 C7.01676126,16.961681 7.35623036,16.4761437 7.7687126,16.0550173 C7.2058401,15.8230118 6.67733412,15.4792626 6.22184128,15.0237698 C4.34410299,13.1460735 4.34410299,10.0952995 6.22184128,8.22184128 C8.09957957,6.34410299 11.1503536,6.34410299 13.0280918,8.22184128 C13.4448961,8.63864556 13.7542368,9.1199028 13.9862843,9.62692445 C14.4073686,9.46793206 14.8499373,9.36911257 15.3054302,9.30465959 L16.5858875,5.48473004 C16.7577621,4.97342831 16.2722247,4.49217107 15.760881,4.65976558 L11.9882422,5.91873856 L10.2050433,2.36094293 C9.96871574,1.87968569 9.28121738,1.87968569 9.04060974,2.36094293 L7.26169095,5.91873856 L3.48473004,4.65976558 C2.97770839,4.49217107 2.49217107,4.97770839 2.65976558,5.48473004 L3.91873856,9.25741087 L0.360942934,11.0406097 C-0.120314311,11.2812174 -0.120314311,11.9644357 0.360942934,12.2050433 L3.91873856,13.9839621 L2.65976558,17.756601 C2.48789099,18.2679027 2.97342831,18.7491599 3.48473004,18.5816074 Z M8.93318812,15.1569978 C9.2769373,14.9550367 9.63356868,14.7788821 10.0159645,14.6542562 C10.248012,12.7507535 11.3479925,11.1093428 12.9120681,10.1425482 C12.3448736,8.89217736 11.0859006,8.01560017 9.62496656,8.01560017 C7.63552657,8.01560017 6.01560017,9.63120453 6.01560017,11.6206865 C6.01560017,13.3737989 7.27457315,14.8347329 8.93318812,15.1569978 Z M23.3749338,24.0042171 C25.6522721,24.0042171 27.4999239,22.1565653 27.4999239,19.879227 C27.4999239,18.0702637 26.3311683,16.5534788 24.715564,15.9948864 C24.7241661,15.9132292 24.7499305,15.835894 24.7499305,15.7542368 C24.7499305,14.2374519 23.5167219,13.0042434 21.9999371,13.0042434 C21.4585489,13.0042434 20.9600874,13.1675578 20.534723,13.4339298 C19.7784496,11.7667547 18.1069944,10.5979991 16.156201,10.5979991 C13.500747,10.5979991 11.3437125,12.7507535 11.3437125,15.4104876 C11.3437125,15.5393936 11.3737989,15.6597394 11.382401,15.7843233 C9.25113094,15.9433156 7.56247148,17.7050302 7.56247148,19.879227 C7.56247148,22.1565653 9.41012332,24.0042171 11.6874616,24.0042171 L23.3749338,24.0042171 Z" id="c" fill="#FFFFFF" fill-rule="nonzero"></path>
    </g>
</svg>