<?xml version="1.0" encoding="UTF-8"?>
<svg width="60px" height="60px" viewBox="0 0 60 60" version="1.1" xmlns="http://www.w3.org/2000/svg" xmlns:xlink="http://www.w3.org/1999/xlink">
    <title>wifi-60px</title>
    <g id="切图" stroke="none" stroke-width="1" fill="none" fill-rule="evenodd">
        <g id="编组">
            <circle id="椭圆形备份-2" fill-opacity="0.1" fill="#060838" opacity="0" cx="30" cy="30" r="30"></circle>
            <g id="wifi_s" transform="translate(15.000000, 19.000000)" fill="#FFFFFF" fill-rule="nonzero">
                <path d="M15.5,16 C17.4329966,16 19,17.5670034 19,19.5 C19,21.4329966 17.4329966,23 15.5,23 C13.5670034,23 12,21.4329966 12,19.5 C12,17.5670034 13.5670034,16 15.5,16 Z M14.9917051,8 C18.4826779,7.99469217 21.7907143,9.64626624 24,12.4975046 L24,12.4975046 L21.6276498,15 C20.0611157,12.7967029 17.6025951,11.5 14.9917051,11.5 C12.380815,11.5 9.92229441,12.7967029 8.35576037,15 L8.35576037,15 L6,12.5150045 C8.2023723,9.66197275 11.5037838,8.00423981 14.9917051,8 Z M15,0.000214383055 C20.7235975,-0.0262128457 26.1842888,2.39174785 30,6.64212259 L30,6.64212259 L27.5,9 C24.3497034,5.35494997 19.761376,3.2586888 14.9333333,3.2586888 C10.1052907,3.2586888 5.51696328,5.35494997 2.36666667,9 L2.36666667,9 L0,6.64212259 C3.81571118,2.39174785 9.2764025,-0.0262128457 15,0.000214383055 Z" id="形状结合"></path>
            </g>
        </g>
    </g>
</svg>