<?xml version="1.0" encoding="UTF-8"?>
<svg width="28px" height="28px" viewBox="0 0 28 28" version="1.1" xmlns="http://www.w3.org/2000/svg" xmlns:xlink="http://www.w3.org/1999/xlink">
    <title>wind power-28px</title>
    <g id="切图" stroke="none" stroke-width="1" fill="none" fill-rule="evenodd">
        <path d="M17.6249534,11.6249666 C20.1901901,11.6249666 22.2139966,9.27029307 21.6554042,6.610517 C21.3288593,5.05504357 20.0698863,3.79607059 18.5144128,3.46952565 C16.133933,2.97106416 13.9983828,4.5394198 13.5772985,6.71365854 C13.4956832,7.12614077 13.8394324,7.4999764 14.2561947,7.4999764 L15.6655999,7.4999764 C15.9534563,7.4999764 16.2284724,7.33670393 16.3186898,7.06600984 C16.5034885,6.52029962 17.0191123,6.12497967 17.6249534,6.12497967 C18.458562,6.12497967 19.124576,6.87265093 18.9827459,7.73202388 C18.8710442,8.40659808 18.2351166,8.87497312 17.5476183,8.87497312 L3.18748787,8.87497312 C2.80937216,8.87497312 2.49998951,9.18435577 2.49998951,9.56247148 L2.49998951,10.9374682 C2.49998951,11.3155839 2.80937216,11.6249666 3.18748787,11.6249666 L17.6249534,11.6249666 Z M9.37069304,21.2499436 C11.824186,21.2499436 13.7835396,19.0972312 13.4612747,16.5835653 C13.1991828,14.5038659 11.3257665,12.9999633 9.23318497,12.9999633 L3.18748787,12.9999633 C2.80937216,12.9999633 2.49998951,13.3093459 2.49998951,13.6874616 L2.49998951,15.0624584 C2.49998951,15.4405741 2.80937216,15.7499567 3.18748787,15.7499567 L9.29763795,15.7499567 C9.98081426,15.7499567 10.6210639,16.2183318 10.7327656,16.892906 C10.8745957,17.7522789 10.2128617,18.4999502 9.37497312,18.4999502 C8.76913197,18.4999502 8.2535082,18.1046302 8.06870945,17.55892 C7.97849207,17.2882259 7.69919586,17.1249534 7.41561957,17.1249534 L6.00621437,17.1249534 C5.58513001,17.1249534 5.24570287,17.5030692 5.32303805,17.9155933 C5.69255163,19.8104939 7.36832889,21.2499436 9.37069304,21.2499436 Z M20.7272982,22.5132386 C22.4976149,22.139403 23.9542268,20.7257177 24.366751,18.9597231 C25.1014981,15.8144097 22.7167382,12.9999633 19.6874485,12.9999633 L12.9714573,12.9999633 C13.8007438,13.713226 14.3980248,14.6671384 14.6816011,15.7499567 L19.6874485,15.7499567 C20.8261177,15.7499567 21.7499436,16.6737826 21.7499436,17.8124518 C21.7499436,18.951121 20.8261177,19.8749469 19.6874485,19.8749469 C18.918293,19.8749469 18.256601,19.4495405 17.8999696,18.8264951 C17.7753437,18.6116519 17.526134,18.4999502 17.2769242,18.4999502 L15.8245503,18.4999502 C15.3562173,18.4999502 15.008146,18.9640032 15.1671384,19.4065718 C15.931972,21.5808106 18.1964281,23.0503467 20.7272982,22.5132386 Z" id="w" fill="#FFFFFF" fill-rule="nonzero"></path>
    </g>
</svg>