<?xml version="1.0" encoding="UTF-8"?>
<svg width="24px" height="24px" viewBox="0 0 24 24" version="1.1" xmlns="http://www.w3.org/2000/svg" xmlns:xlink="http://www.w3.org/1999/xlink">
    <title>bars-24px</title>
    <g id="切图" stroke="none" stroke-width="1" fill="none" fill-rule="evenodd">
        <path d="M20.7343303,6.40624426 C21.0190815,6.40624426 21.2499541,6.17537171 21.2499541,5.89062049 L21.2499541,4.51562377 C21.2499541,4.23087256 21.0190815,4 20.7343303,4 L2.51562377,4 C2.23087256,4 2,4.23087256 2,4.51562377 L2,5.89062049 C2,6.17537171 2.23087256,6.40624426 2.51562377,6.40624426 L20.7343303,6.40624426 Z M20.7343303,13.2812279 C21.0190815,13.2812279 21.2499541,13.0503553 21.2499541,12.7656041 L21.2499541,11.3906074 C21.2499541,11.1058562 21.0190815,10.8749836 20.7343303,10.8749836 L2.51562377,10.8749836 C2.23087256,10.8749836 2,11.1058562 2,11.3906074 L2,12.7656041 C2,13.0503553 2.23087256,13.2812279 2.51562377,13.2812279 L20.7343303,13.2812279 Z M20.7343303,20.1562115 C21.0190815,20.1562115 21.2499541,19.9253389 21.2499541,19.6405877 L21.2499541,18.265591 C21.2499541,17.9808398 21.0190815,17.7499672 20.7343303,17.7499672 L2.51562377,17.7499672 C2.23087256,17.7499672 2,17.9808398 2,18.265591 L2,19.6405877 C2,19.9253389 2.23087256,20.1562115 2.51562377,20.1562115 L20.7343303,20.1562115 Z" id="b" fill="#FFFFFF" fill-rule="nonzero"></path>
    </g>
</svg>