<?xml version="1.0" encoding="UTF-8"?>
<svg width="24px" height="24px" viewBox="0 0 24 24" version="1.1" xmlns="http://www.w3.org/2000/svg" xmlns:xlink="http://www.w3.org/1999/xlink">
    <title>bell-24px</title>
    <g id="切图" stroke="none" stroke-width="1" fill="none" fill-rule="evenodd">
        <path d="M19.8707068,18.8749574 C20.6922304,18.8749574 21.2457035,18.2046633 21.2500131,17.4999607 C21.2521236,17.1755558 21.1378203,16.8438496 20.8800084,16.567113 C20.0498827,15.6750939 18.4965493,14.3331629 18.4965493,9.93747869 C18.4965493,6.59880638 16.1556392,3.92614811 12.999164,3.27045662 L12.999164,2.37499672 C12.999164,1.61574408 12.3838396,1 11.6250065,1 C10.8661735,1 10.250849,1.61574408 10.250849,2.37499672 L10.250849,3.27045662 C7.09437387,3.92614811 4.75346377,6.59880638 4.75346377,9.93747869 C4.75346377,14.3331629 3.20013038,15.6750939 2.37000464,16.567113 C2.11219275,16.8442692 1.99788944,17.1755558 2,17.4999607 C2.00477113,18.2046633 2.55778266,18.8749574 3.37930628,18.8749574 L19.8707068,18.8749574 Z M11.6250065,22.9999475 C13.1426726,22.9999475 14.3736992,21.768879 14.3736992,20.2499541 L8.87631389,20.2499541 C8.87631389,21.768879 10.1073405,22.9999475 11.6250065,22.9999475 Z" id="b" fill="#FFFFFF" fill-rule="nonzero"></path>
    </g>
</svg>