<?xml version="1.0" encoding="UTF-8"?>
<svg width="48px" height="48px" viewBox="0 0 48 48" version="1.1" xmlns="http://www.w3.org/2000/svg" xmlns:xlink="http://www.w3.org/1999/xlink">
    <title>broadcast-48px</title>
    <g id="切图" stroke="none" stroke-width="1" fill="none" fill-rule="evenodd">
        <path d="M29.9410472,5.22799359 C30.4469908,4.92713202 31.0744378,4.92382122 31.5834804,5.21932709 C32.092523,5.51483296 32.4044339,6.06345338 32.4,6.65542019 L32.4,6.65542019 L32.4,41.3445798 C32.4044339,41.9365466 32.092523,42.485167 31.5834804,42.7806729 C31.0744378,43.0761788 30.4469908,43.072868 29.9410472,42.7720064 L29.9410472,42.7720064 L17.1921588,33.9111885 C17.0062148,33.7776085 16.8436301,33.6137747 16.7110687,33.4264021 L16.7110687,33.4264021 L13.6908918,33.4264021 L13.6908918,41.5061753 L8.34544588,41.5061753 L8.34544588,33.4264021 L5.67272294,33.4264021 C4.19661882,33.4264021 3,32.2205895 3,30.7331443 L3,30.7331443 L3,17.2668557 C3,15.7794105 4.19661882,14.5735979 5.67272294,14.5735979 L5.67272294,14.5735979 L16.7110687,14.5735979 C16.8436301,14.3862253 17.0062148,14.2223915 17.1921588,14.0888115 L17.1921588,14.0888115 Z M36.6,16.2592593 C41.2391919,16.2592593 45,20.0399658 45,24.7037037 C45,29.3674416 41.2391919,33.1481481 36.6,33.1481481 L36.6,33.1481481 Z" id="形状结合备份-5" stroke="#72B9E7" fill-rule="nonzero"></path>
    </g>
</svg>