<?xml version="1.0" encoding="UTF-8"?>
<svg width="48px" height="48px" viewBox="0 0 48 48" version="1.1" xmlns="http://www.w3.org/2000/svg" xmlns:xlink="http://www.w3.org/1999/xlink">
    <title>charging-pile-48px</title>
    <g id="切图" stroke="none" stroke-width="1" fill="none" fill-rule="evenodd">
        <path d="M26,15.1111111 L26,36.2222222 L33.5111111,36.2222222 C34.8888889,36.2222222 36,35.1111111 36,33.7333333 L36,33.7333333 L36,32.8888889 L38.2222222,32.8888889 L38.2222222,33.7333333 C38.2222222,36.3333333 36.1111111,38.4444444 33.5111111,38.4444444 L33.5111111,38.4444444 L26,38.4444444 L26,41.7777778 C26,43 24.8888889,44 23.4888889,44 L23.4888889,44 L8.48888889,44 C7.11111111,44 6,43 6,41.7777778 L6,41.7777778 L6,15.1111111 L26,15.1111111 Z M17.1111111,21.7777778 L12.6666667,21.7777778 L10.4444444,26.2222222 L10.4444444,28.4444444 L17.1111111,28.4444444 L14.8888889,35.1111111 L21.5555556,28.4444444 L21.5555556,26.2222222 L14.8888889,26.2222222 L17.1111111,21.7777778 Z M41.5555556,14 L41.5555556,16.0444444 C38.9555556,16.0444444 36.6666667,17.4888889 35.2666667,19.6444444 C38.8,20.3111111 41.5333333,27.4444444 41.5333333,31.0666667 L41.5333333,31.0666667 L41.5333333,31.5555556 C41.5333333,32.2666667 40.9555556,32.8666667 40.2222222,32.8666667 L40.2222222,32.8666667 L33.9777778,32.8666667 C33.2666667,32.8666667 32.6666667,32.2888889 32.6666667,31.5555556 L32.6666667,31.5555556 L32.6666667,20.8666667 C32.6666667,20.8 32.7333333,20.5555556 32.7333333,20.4888889 C32.7777778,20.4 32.8,20.3111111 32.8444444,20.2444444 C34.3111111,16.6 37.6444444,14 41.5555556,14 L41.5555556,14 Z M23.5111111,4 C24.8888889,4 26,5 26,6.22222222 L26,6.22222222 L26,12.8888889 L6,12.8888889 L6,6.22222222 C6,5 7.11111111,4 8.48888889,4 L8.48888889,4 Z" id="蒙版" stroke="#72B9E7" fill-rule="nonzero"></path>
    </g>
</svg>