<?xml version="1.0" encoding="UTF-8"?>
<svg width="60px" height="60px" viewBox="0 0 60 60" version="1.1" xmlns="http://www.w3.org/2000/svg" xmlns:xlink="http://www.w3.org/1999/xlink">
    <title>environment-60px</title>
    <g id="切图" stroke="none" stroke-width="1" fill="none" fill-rule="evenodd">
        <g id="编组">
            <circle id="椭圆形备份-2" fill-opacity="0.1" fill="#060838" opacity="0" cx="30" cy="30" r="30"></circle>
            <path d="M22.5054487,38.3183207 C24.9536168,38.8754459 27.5227287,38.4263547 29.637366,37.0716327 C31.7520032,35.7169106 33.2354494,33.5697693 33.7554487,31.1111161 C34.1654898,29.1196356 35.3517947,27.3739761 37.0516258,26.2607584 C38.7514569,25.1475408 40.8245259,24.7586397 42.8116987,25.1801873 C43.5871615,25.3679921 44.3277209,25.6784512 45.0054487,26.0998566 C44.7652145,25.2578608 44.4450038,24.4408206 44.0491987,23.6599176 C43.8039542,23.1436033 43.528475,22.6422309 43.2241987,22.1584166 C39.9815387,17.0237374 34.0221809,14.282202 28.01776,15.1628658 C22.0133391,16.0435297 17.0902069,20.3811916 15.4554487,26.231238 L15.2116987,27.1509073 C14.5370958,30.2756999 15.4980708,33.5293088 17.7616987,35.7845378 C17.1639522,36.9410154 16.6501251,38.1390543 16.2241987,39.3693714 C15.9241987,40.2890407 15.6804487,41.2462476 15.4554487,42.1659169 C15.2304487,43.0855863 15.0054487,44.1741745 15.0054487,45 L18.7554487,45 C18.7554487,44.2304808 18.7554487,43.4609615 18.7554487,42.6726735 C18.8218404,41.8349946 18.9345128,41.0016375 19.0929487,40.1764282 C19.8168588,36.455797 21.4174533,32.9618513 23.7616987,29.9849904 C24.7899985,28.6210771 25.952035,27.3635644 27.2304487,26.231238 C27.3991987,26.0998566 27.8679487,25.7244814 27.7366987,25.8746315 C21.8679487,32.7439984 22.5054487,38.3183207 22.5054487,38.3183207 Z" id="蒙版" fill="#FFFFFF" fill-rule="nonzero"></path>
        </g>
    </g>
</svg>