<?xml version="1.0" encoding="UTF-8"?>
<svg width="24px" height="24px" viewBox="0 0 24 24" version="1.1" xmlns="http://www.w3.org/2000/svg" xmlns:xlink="http://www.w3.org/1999/xlink">
    <title>full-screen-24px</title>
    <g id="切图" stroke="none" stroke-width="1" fill="none" fill-rule="evenodd">
        <path d="M20.7727098,2 L14.636259,2 C14.1844628,2 13.8180656,2.36047226 13.8180656,2.80496247 C13.8180656,3.24945268 14.1844628,3.60992494 14.636259,3.60992494 L19.2066365,3.60992494 L13.2397051,9.48061684 C12.9200983,9.79505531 12.9200983,10.3044456 13.2397051,10.6188841 C13.3995085,10.7761033 13.6089149,10.8548387 13.8180656,10.8548387 C14.0272163,10.8548387 14.2368784,10.7763549 14.3964261,10.6188841 L20.3636131,4.74819218 L20.3636131,9.24466222 C20.3636131,9.68915243 20.7300104,10.0496247 21.1818066,10.0496247 C21.6336028,10.0496247 22,9.68915243 22,9.24466222 L22,3.2074437 C22,2.54158881 21.4495092,2 20.7727098,2 Z M9.60335791,13.058542 L3.63634039,18.9291491 L3.63634039,14.4325514 C3.63634039,13.9880485 3.26995355,13.627566 2.8181702,13.627566 C2.36638684,13.627566 2,13.9880485 2,14.4325514 L2,20.4699414 C2,21.1358152 2.55047514,21.6774194 3.22725529,21.6774194 L9.36353177,21.6774194 C9.81531512,21.6774194 10.181702,21.3169369 10.181702,20.872434 C10.181702,20.4279312 9.81531512,20.0674487 9.36353177,20.0674487 L4.79328419,20.0674487 L10.7603017,14.19659 C11.0798994,13.8821426 11.0798994,13.3727378 10.7603017,13.0582905 C10.440704,12.7438431 9.92295564,12.7440946 9.60335791,13.058542 Z" id="形状" fill="#FFFFFF" fill-rule="nonzero"></path>
    </g>
</svg>