<?xml version="1.0" encoding="UTF-8"?>
<svg width="110px" height="29px" viewBox="0 0 110 29" version="1.1" xmlns="http://www.w3.org/2000/svg" xmlns:xlink="http://www.w3.org/1999/xlink">
    <title>huazhi-logo-110px</title>
    <g id="切图" stroke="none" stroke-width="1" fill="none" fill-rule="evenodd">
        <path d="M12.8027256,20.3937451 C13.0797533,20.3900633 13.3416519,20.5217866 13.5065071,20.7477941 C13.6327173,20.6381421 13.7921252,20.5756801 13.9581878,20.5708088 C14.1445491,20.5670089 14.3159667,20.6646521 14.4110116,20.8220832 L14.4518853,20.9055882 L15.3153307,24.1041176 L17.2502046,20.8608088 C17.4264705,20.6139092 17.6941314,20.4535497 17.9882631,20.413959 L18.1157508,20.4044853 L24.0338181,20.4044853 C24.0926766,20.4031227 24.1487298,20.4299776 24.1851033,20.4769655 C24.2214768,20.5239535 24.2339219,20.5855859 24.218692,20.6433088 C24.1598685,20.7989706 24.0905408,20.9716912 24.0317172,21.1230882 C22.0606996,25.8215202 17.5139026,28.8693871 12.4827494,28.8647449 C7.45159622,28.8600922 2.91027245,25.8038302 0.947683608,21.1017647 C0.903565961,20.9972794 0.827935709,20.8053676 0.781717222,20.6859559 C0.747876233,20.6255906 0.748402058,20.5514704 0.783095983,20.4916061 C0.809116427,20.4467078 0.851380129,20.414964 0.899751956,20.4021905 L0.949784449,20.3959559 L7.04222142,20.3959559 C7.19638934,20.3949701 7.34749835,20.4345087 7.48117314,20.5098223 L7.57793571,20.5729412 L8.19768361,20.5729412 C8.35484456,20.5702824 8.50472239,20.6400722 8.60524663,20.7627206 C8.69862107,20.8817647 8.74636842,21.0296095 8.74217696,21.1793263 L8.72919621,21.2915441 L8.21449033,24.2448529 L8.21449033,24.2704412 L10.9455828,24.2704412 C11.0784718,24.2633564 11.194943,24.1843886 11.2537111,24.0675852 L11.2817172,23.9932353 L11.7523055,21.2979412 C11.8512598,20.784444 12.2874475,20.4090086 12.8027256,20.3937451 Z M23.9014651,21.1550735 L18.6493643,21.1550735 L16.5485239,24.9250735 C16.4323625,25.1107919 16.2456287,25.2368402 16.0355451,25.2755972 L15.928776,25.2875735 L15.86365,25.2875735 C15.723786,25.2728101 15.5957401,25.2012901 15.508608,25.0892647 C15.3591685,25.2137139 15.1799307,25.2939461 14.9905108,25.3226926 L14.8468433,25.3344853 L14.7502046,25.3344853 C14.4896624,25.3127133 14.2562286,25.1695142 14.1155497,24.9507985 L14.061129,24.8525735 L14.0443223,24.8056618 L13.1724735,22.0336029 L12.7922214,24.2619118 C12.7308722,24.6037952 12.4727596,24.869653 12.1453473,24.9422943 L12.0338181,24.9591912 L11.323734,24.9591912 C11.2436214,24.9920314 11.159858,25.0142394 11.0745175,25.025406 L10.9455828,25.0338235 L7.54432226,25.0338235 C7.28720926,25.0396583 7.04161985,24.9256707 6.87778609,24.7244583 C6.73735715,24.5519905 6.67024778,24.3317172 6.68799042,24.1115926 L6.70398613,24.0017647 L7.17037268,21.3171324 C7.18018223,21.2774748 7.17251443,21.2354476 7.14936428,21.2019853 C7.13070013,21.1826432 7.10702442,21.1695958 7.08149977,21.1640388 L7.04222142,21.1614706 L1.08003655,21.1614706 C3.01885631,25.6728464 7.34790102,28.6299129 12.1762223,28.7709128 L12.4918013,28.7761029 C17.4444377,28.7465455 21.9184402,25.7615019 23.9014651,21.1550735 Z M18.5359189,21.1444118 L18.1157508,21.1444118 C18.0375563,21.1484538 17.9636045,21.1783887 17.9046298,21.2285093 L17.851045,21.2851471 L15.7144903,24.8824265 C15.6773954,24.9211782 15.6366504,24.9653865 15.5926416,25.0061029 C15.6619901,25.0997308 15.7675281,25.1587251 15.8825576,25.1681618 C16.0839237,25.1784113 16.276392,25.092898 16.4054802,24.940569 L16.4644903,24.8589706 L18.5359189,21.1444118 Z M12.8027256,21.1614706 C12.6689434,21.1704084 12.5530657,21.2524545 12.4969534,21.3715738 L12.4707929,21.4472059 L12.0044063,24.1297059 C11.9581922,24.3797315 11.8243284,24.6097722 11.6284204,24.7753578 L11.5254147,24.8525735 L12.0338181,24.8525735 C12.3273772,24.8293689 12.573223,24.6277617 12.6616237,24.3501765 L12.6871794,24.2427206 L13.1073475,21.8225 L12.9140702,21.2083824 C12.8865336,21.1755 12.8451097,21.1580472 12.8027256,21.1614706 Z M13.9581878,20.6880882 C13.8111946,20.6957079 13.6714644,20.7553051 13.5632298,20.8565441 L13.5753843,20.8775328 L13.5753843,20.8775328 L13.5863391,20.8991912 L13.6052466,20.9461029 L14.7397004,24.5455147 C14.7604197,24.5738378 14.7931805,24.5904896 14.8279357,24.5902941 C14.9177646,24.5933584 15.0041554,24.5602669 15.0691738,24.4998536 L15.11365,24.4495588 L15.2418013,24.2363235 L14.3531458,20.9588971 C14.2979227,20.824472 14.1800198,20.7298842 14.0426211,20.7038106 L13.9581878,20.6966176 L13.9581878,20.6880882 Z M8.19768361,20.6966176 L7.69138109,20.6966176 L7.71238949,20.7200735 C7.85287948,20.8940714 7.92211852,21.114539 7.90877103,21.3363798 L7.8951626,21.4472059 L7.42877605,24.1297059 C7.41695892,24.1651201 7.42716873,24.2121519 7.45608697,24.2469853 C7.47462822,24.265616 7.4977651,24.2783663 7.52270824,24.2841605 L7.56112899,24.2875 L8.11154915,24.2875 L8.11154915,24.2427206 L8.6241542,21.2894118 C8.65717163,21.1346983 8.62101935,20.9730861 8.5254147,20.8480147 C8.44409067,20.7501864 8.32377595,20.6946064 8.19768361,20.6966176 Z M43.0248955,16 L42.840745,17.153125 L50,17.153125 L49.8675409,18.096875 L42.7244394,18.096875 L42.6565945,18.5375 L42.1429114,22 L39.1415811,22 L39.6326492,18.684375 L39.7198784,18.096875 L33,18.096875 L33.1324591,17.153125 L39.8394147,17.153125 L39.9104903,16.71875 L40.0235652,16 L43.0248955,16 Z M81.4446572,7 L81.3274607,7.14458913 L80.6438146,7.9806915 L90,7.9806915 L89.8632708,8.9236641 L79.9080812,8.9236641 L79.7485638,9.12168835 L79.1007277,9.92007181 L78.4170816,10.7593174 L88.769437,10.7593174 L87.4281884,20.0570272 C87.3383339,20.5630768 86.9098387,20.9426457 86.3905742,20.9940537 L86.2692455,21 L83.463041,21 L84.2769054,20.1827569 L84.3973573,20.0633137 L84.423401,19.8935787 L85.3512064,13.5065109 L85.5237457,12.2963628 L85.6083876,11.7085765 L78.7719265,11.7085765 L78.7068173,12.1549169 L78.5342781,13.365065 L78.4496362,13.9528513 L84.7391804,13.9528513 L84.6024512,14.8801077 L78.2966296,14.8801077 L78.2315205,15.3295913 L78.0589812,16.5397395 L77.9743393,17.1275257 L84.2638836,17.1275257 L84.1271543,18.0704983 L77.844121,18.0704983 L77.7790119,18.5136954 L77.4111452,20.9937134 L74.3835695,20.9937134 L75.2918422,14.6695105 L75.3764841,14.0817242 L73,14.0817242 L76.4605515,9.75976647 L77.1311758,8.9236641 L73.690157,8.9236641 L73.8236308,7.9806915 L77.8766756,7.9806915 L78.036193,7.7858105 L78.4463807,7.28603502 L78.6807736,7 L81.4446572,7 Z M104.438734,7 L102.727325,9.79057239 L102.25139,10.5699214 L110,10.5699214 L108.614573,20.0352413 C108.527103,20.5413617 108.098483,20.9216045 107.578771,20.9722567 L107.457335,20.9780022 L104.445254,20.9780022 L105.485139,19.9315376 L105.602493,19.8121212 L105.628571,19.6455668 L106.733653,12.1034792 L106.818408,11.5126824 L101.674401,11.5126824 L101.517929,11.7640853 L100.650815,13.162514 L100.165101,13.9450056 L100.18466,13.9450056 L99.8065197,14.5735129 L95.8686481,21 L93,21 L98.3037392,12.301459 L98.7861937,11.5126824 L93.6552253,11.5126824 L93.8019175,10.5699214 L99.3599233,10.5699214 L99.516395,10.315376 L101.377756,7.28911336 L101.557047,7 L104.438734,7 Z M69,15 L68.3593615,19.5980392 L65.8388697,19.5980392 L66.3856773,15.7908497 L57.4005608,15.7908497 L57.1255393,17.7352941 L65.5638481,17.7352941 L65.4764884,18.3300654 L57.0478861,18.3300654 L56.7922778,20.1862745 L68.2752373,20.1862745 L68.1619931,21 L54,21 L54.4465056,17.8039216 L54.4432701,17.8039216 L54.7279983,15.7777778 L54.8380069,15 L69,15 Z M13.6304567,18.0866176 C17.7807835,18.1757618 20.042664,18.7385566 20.1902192,19.073484 L20.1976836,19.1016176 L20.1955828,19.1058824 L13.6304567,19.1058824 L13.6304567,18.0866176 Z M11.3363391,18.0866176 L11.3363391,19.1058824 L4.7859189,19.1016176 L4.79458314,19.0726633 C4.95418164,18.7376381 7.19960438,18.1756891 11.3363391,18.0866176 Z M11.3363391,17.4661029 L11.3363391,17.7454412 C8.55233863,17.8201858 4.68284824,18.1355008 4.48111883,19.0279828 L4.47289369,19.1016176 L4.47499453,19.1058824 L0.540120583,19.1058824 C0.657767642,18.4448529 4.71238949,17.5599265 11.3363391,17.4661029 Z M13.6283559,17.4618382 C20.1306627,17.5517315 24.1634119,18.4061074 24.4279408,19.0624806 L24.4392802,19.1016176 L20.508608,19.1016176 L20.500357,19.0279654 C20.3037776,18.1605709 16.6352468,17.8306544 13.8699017,17.7458942 L13.6283559,17.7390441 L13.6283559,17.4618382 Z M11.9119693,3.49279412 L11.9119693,6.34588235 L10.11365,5.66352941 L10.11365,6.10279412 L11.9119693,6.78514706 L11.9119693,15.40625 L11.3279357,15.6472059 L11.3279357,17.1249265 C6.80692731,17.1952941 1.03171722,17.6921324 0.294322264,18.8755882 C-0.500854633,15.2255316 0.333671051,11.4053705 2.57432572,8.43854513 C4.8149804,5.4717198 8.23273986,3.66147858 11.9119693,3.49279412 Z M13.0485239,3.49066176 C16.7303751,3.65509097 20.1521707,5.46354029 22.3960916,8.43093422 C24.6400126,11.3983281 25.4763871,15.2209455 24.6808769,18.8734559 C23.9554019,17.7136413 18.4067559,17.2149972 13.9274296,17.1259914 L13.6304567,17.1206618 L13.6304567,15.6450735 L13.0485239,15.3998529 L13.0485239,11.7194118 L15.9266752,11.7194118 L15.9266752,6.50367647 L13.0485239,6.50367647 L13.0485239,3.49066176 Z M104.384917,14 L105,18 L101.642507,18 L101.152791,14.9660377 L101,14 L104.384917,14 Z M39,7 L38.9208063,7.48514851 L38.812815,8.14356436 L38.8488121,8.14356436 L37.9848812,14 L34.6407487,14 L35.2850972,9.54009901 L35.4038877,8.72574257 L34.5723542,8.90247525 L34,9.02376238 L34.1511879,8.04306931 L39,7 Z M46.0530626,7 L45.8630855,8.29241179 L45.7549951,9.040116 L46.4755978,8.92846786 L50,8.38714355 L49.8591549,9.37167714 L46.0334098,9.96036733 L45.6370783,10.0212663 L45.5781199,10.4340261 L45.319358,12.3455776 L45.2309204,12.9782504 L49.7739928,12.9782504 L49.7936456,12.961334 L49.6495251,14 L42.0537177,14 L42.4271209,11.262929 L42.5253849,10.5287579 L41.8146086,10.6336394 L40,10.9110681 L40.1310187,9.92315128 L42.2535211,9.60173997 L42.6531281,9.54084099 L42.708811,9.1280812 L42.9937766,7 L46.0530626,7 Z M56.9465353,7 L56.3626451,7.82947977 L63,7.82947977 L62.8170946,9.00289017 L59.7358424,9.00289017 L59.6619768,9.4783237 L59.5916286,9.92678227 L59.493141,10.5640655 L62.6306718,10.5640655 L62.486458,11.5587669 L60.4393247,11.5587669 L60.9493493,12.3916185 L61.9131199,13.9763969 L59.2574745,13.9763969 L58.4414351,12.6579961 L58.0263806,11.9836224 L57.4987689,12.5871869 L56.2711924,14 L53.6366514,14 L55.1596905,12.4995183 L56.1129089,11.5587669 L53,11.5587669 L53.1442139,10.5640655 L56.9711572,10.5640655 L57.0450229,10.088632 L57.1153711,9.64354528 L57.2138586,9.00289017 L55.5360535,9.00289017 L55.3250088,9.32996146 L53.5698206,9.32996146 L55.1104467,7.06406551 L55.1526556,7 L56.9465353,7 Z M71,7 L70.0877797,13 L63,13 L63.141136,12.0788913 L68.1703959,12.0788913 L68.2358003,11.6215352 L68.6729776,8.62473348 L68.7590361,8.02985075 L66.0361446,8.02985075 L65.9707401,8.48400853 L65.5370052,11.4808102 L65.5335628,11.5 L63.2306368,11.5 L63.9122203,7 L71,7 Z M97.5,6 C98.3284271,6 99,6.67157288 99,7.5 C99,8.32842712 98.3284271,9 97.5,9 C96.6715729,9 96,8.32842712 96,7.5 C96,6.67157288 96.6715729,6 97.5,6 Z M10.472,6.405 L10.408102,6.41071517 C10.3382221,6.42300071 10.2729799,6.45636983 10.2213253,6.50729263 C10.1524525,6.5751897 10.113608,6.66850416 10.1136438,6.76595588 C10.1127992,6.91276441 10.1992727,7.04559809 10.3326582,7.10237869 C10.4660438,7.15915928 10.6200006,7.12867387 10.7225788,7.02516945 C10.825157,6.92166503 10.8560996,6.76558144 10.800946,6.6298625 C10.7549847,6.51676339 10.656798,6.43641854 10.5416413,6.4127771 L10.472,6.405 Z M13.0989441,1.3500312e-13 C13.0884399,0.249485294 13.0821374,0.550147059 13.0653307,0.889191176 C13.0527256,1.14347426 13.0495744,1.37736673 13.0487865,1.59176815 L13.0485239,1.79970588 L13.0401206,3.49492647 L12.8374284,3.48442266 C12.7004847,3.48 12.5604287,3.48 12.4203727,3.48 L12.1645954,3.48533088 L12.1645954,3.48533088 L11.9119693,3.49066176 L11.9119693,1.22823529 L10.4791962,1.22823529 L10.4791962,0.735661765 L10.7943223,0.735661765 C11.1805502,0.742741895 11.5635738,0.663386434 11.916171,0.503235294 C12.1313082,0.412867155 12.3285957,0.284818945 12.4992211,0.125373191 L12.6220534,1.3500312e-13 L13.0989441,1.3500312e-13 Z M13.9854987,2.32 C14.1978267,2.32 14.3699525,2.49470771 14.3699525,2.71022059 C14.3699525,2.92573347 14.1978267,3.10044118 13.9854987,3.10044118 C13.7731708,3.10044118 13.601045,2.92573347 13.601045,2.71022059 C13.601045,2.49470771 13.7731708,2.32 13.9854987,2.32 Z M13.5926416,0.0682345448 C14.3869835,0.0676694996 15.148982,0.387557311 15.7108636,0.957467238 C16.2259218,1.47988467 16.5341147,2.17312549 16.5819032,2.90606107 L16.588,3.098 L16.2817172,3.09830882 C16.2794928,2.37687962 15.9948621,1.68592734 15.490501,1.17760028 C14.9861398,0.669273216 14.3034073,0.385255554 13.5926416,0.388088235 L13.5926416,0.0682345448 Z M13.5926416,0.707941176 C14.8904948,0.709116832 15.9423236,1.77672313 15.9434819,3.09404412 L15.9518853,3.09830882 L15.6367592,3.09830882 C15.6373205,2.54826014 15.4220043,2.02063848 15.0384149,1.63209546 C14.6548254,1.24355245 14.1345592,1.02609264 13.5926416,1.02779412 L13.5926416,0.707941176 Z M13.601045,1.36683824 C14.5435182,1.36683824 15.3078689,2.1416992 15.3090281,3.09830882 L14.9939021,3.09830882 C14.9939025,2.7235548 14.8470885,2.3641808 14.5858165,2.09938976 C14.3245446,1.83459871 13.9702603,1.68612508 13.601045,1.68669118 L13.601045,1.36683824 Z" id="形状结合" fill="#FFFFFF" fill-rule="nonzero"></path>
    </g>
</svg>