<?xml version="1.0" encoding="UTF-8"?>
<svg width="60px" height="60px" viewBox="0 0 60 60" version="1.1" xmlns="http://www.w3.org/2000/svg" xmlns:xlink="http://www.w3.org/1999/xlink">
    <title>lamp-post-60px</title>
    <g id="切图" stroke="none" stroke-width="1" fill="none" fill-rule="evenodd">
        <path d="M22.3314706,15.0404929 L22.4551629,15.0700968 L27.7574179,16.4731297 L28.0071744,16.5405962 C30.0645954,17.0376038 31.8928377,18.4578155 31.9959126,20.4898783 L32,20.6510243 L32,43.1012963 C32,44.1499214 31.1334899,45 30.0645954,45 C29.0384567,45 28.1988354,44.2165676 28.1333076,43.2261366 L28.1291908,43.1012963 L28.1291908,20.7558328 L28.1140039,20.7347717 C28.0870974,20.7019964 28.0510989,20.6649528 28.0071744,20.6262716 L27.9354889,20.5673501 C27.8587166,20.5082937 25.6857635,19.8952686 21.4166294,18.728275 C20.3869252,18.4469301 19.7846686,17.399944 20.0714517,16.389766 C20.3467635,15.4199951 21.3413295,14.8366898 22.3314706,15.0404929 Z M38.4692262,24.4080849 C38.8717262,24.4080849 39.1879762,24.7391097 39.1879762,25.1604141 L39.1879762,25.1604141 L39.1879762,34.1883644 C39.1879762,34.6096688 38.8717262,34.9406936 38.4692262,34.9406936 L38.4692262,34.9406936 L35.5942262,34.9406936 C35.1917262,34.9406936 34.8754762,34.6096688 34.8754762,34.1883644 L34.8754762,34.1883644 L34.8754762,25.1604141 C34.8754762,24.7391097 35.1917262,24.4080849 35.5942262,24.4080849 L35.5942262,24.4080849 Z" id="蒙版" fill="#FFFFFF" fill-rule="nonzero"></path>
    </g>
</svg>