<?xml version="1.0" encoding="UTF-8"?>
<svg width="24px" height="24px" viewBox="0 0 24 24" version="1.1" xmlns="http://www.w3.org/2000/svg" xmlns:xlink="http://www.w3.org/1999/xlink">
    <title>location-24px</title>
    <g id="切图" stroke="none" stroke-width="1" fill="none" fill-rule="evenodd">
        <path d="M12.6249747,21.9999523 C12.9702802,21.9999523 13.2499732,21.7202594 13.2499732,21.3749538 L13.2499732,19.3874631 C16.3882408,18.8597392 18.8597392,16.3882408 19.3874631,13.2499732 L21.3749538,13.2499732 C21.7202594,13.2499732 21.9999523,12.9702802 21.9999523,12.6249747 L21.9999523,11.3749776 C21.9999523,11.0296721 21.7202594,10.7499791 21.3749538,10.7499791 L19.3874631,10.7499791 C18.8597392,7.61171147 16.3882408,5.14021316 13.2499732,4.61248919 L13.2499732,2.62499851 C13.2499732,2.27969294 12.9702802,2 12.6249747,2 L11.3749776,2 C11.0296721,2 10.7499791,2.27969294 10.7499791,2.62499851 L10.7499791,4.61248919 C7.61171147,5.14021316 5.14021316,7.61171147 4.61248919,10.7499791 L2.62499851,10.7499791 C2.27969294,10.7499791 2,11.0296721 2,11.3749776 L2,12.6249747 C2,12.9702802 2.27969294,13.2499732 2.62499851,13.2499732 L4.61248919,13.2499732 C5.14021316,16.3882408 7.61171147,18.8597392 10.7499791,19.3874631 L10.7499791,21.3749538 C10.7499791,21.7202594 11.0296721,21.9999523 11.3749776,21.9999523 L12.6249747,21.9999523 Z M11.9999762,16.9999642 C9.23825636,16.9999642 6.99998808,14.7613145 6.99998808,11.9999762 C6.99998808,9.23863783 9.23825636,6.99998808 11.9999762,6.99998808 C14.761696,6.99998808 16.9999642,9.23863783 16.9999642,11.9999762 C16.9999642,14.7613145 14.761696,16.9999642 11.9999762,16.9999642 Z M11.9999762,15.437468 C13.8983939,15.437468 15.437468,13.8983939 15.437468,11.9999762 C15.437468,10.1015584 13.8983939,8.56248435 11.9999762,8.56248435 C10.1015584,8.56248435 8.56248435,10.1015584 8.56248435,11.9999762 C8.56248435,13.8983939 10.1015584,15.437468 11.9999762,15.437468 Z" id="l" fill="#FFFFFF" fill-rule="nonzero"></path>
    </g>
</svg>