<?xml version="1.0" encoding="UTF-8"?>
<svg width="28px" height="28px" viewBox="0 0 28 28" version="1.1" xmlns="http://www.w3.org/2000/svg" xmlns:xlink="http://www.w3.org/1999/xlink">
    <title>pressure-28px</title>
    <g id="切图" stroke="none" stroke-width="1" fill="none" fill-rule="evenodd">
        <path d="M26.0005805,21.5 L26.0005805,24 L1.50058046,24 L1.50058046,21.5 L26.0005805,21.5 Z M9.99911143,3.5 L9.99911143,15.8143451 C9.99194679,18.1282863 8.09196464,19.9963029 5.74984594,20 C3.49308911,20 1.62987576,18.255273 1.5064278,16.0215212 L1.5064278,16.0215212 L1.50058247,15.8122392 L1.49883909,15.0604998 L4.14971565,15.0604998 L4.15230732,15.8078992 C4.15527732,16.6644017 4.87055949,17.3661993 5.74984594,17.3661993 C6.58789708,17.3661993 7.28348094,16.7281067 7.34347195,15.9373505 L7.34347195,15.9373505 L7.34884908,15.8104998 L7.34884908,3.5 L9.99911143,3.5 Z M20.1508429,3.5 L20.150836,15.5252425 C20.154988,16.4981019 20.8814869,17.273222 21.751315,17.273222 C22.5765072,17.273222 23.2809346,16.5689525 23.3433824,15.6702034 L23.3433824,15.6702034 L23.3488529,15.5260428 L23.3512459,14.7784435 L26.0021886,14.7784435 L26.0005805,15.5300511 C25.9953012,17.9923001 24.1021234,20 21.751315,20 C19.4822622,20 17.6277916,18.1276425 17.5063405,15.7511088 L17.5063405,15.7511088 L17.5005805,15.5333901 L17.5005805,3.5 L20.1508429,3.5 Z M15.0005805,4.5 L15.0005805,17 L12.5005805,17 L12.5005805,4.5 L15.0005805,4.5 Z" id="形状结合" fill="#FFFFFF" fill-rule="nonzero"></path>
    </g>
</svg>