<?xml version="1.0" encoding="UTF-8"?>
<svg width="48px" height="48px" viewBox="0 0 48 48" version="1.1" xmlns="http://www.w3.org/2000/svg" xmlns:xlink="http://www.w3.org/1999/xlink">
    <title>radar-48px</title>
    <g id="切图" stroke="none" stroke-width="1" fill="none" fill-rule="evenodd">
        <path d="M41.7201511,34.8353151 L29.9869261,23.1020901 L35.2082112,17.8808049 C37.1004921,18.4240733 39.1370306,17.8438305 40.4588295,16.3848187 C41.8371525,15.2233822 42.6050879,13.4928235 42.5414769,11.6915287 C42.306991,8.82963654 40.0354186,6.55806416 37.1735264,6.32357827 C35.3823909,6.26905436 33.6645574,7.03613726 32.5095695,8.40622571 C31.0505578,9.72802458 30.470315,11.764563 31.0135833,13.6568439 L25.7922981,18.8781291 L12.3870885,5.50225252 C11.9659319,5.12452474 11.4024274,4.94660601 10.8407265,5.01401012 C10.2790256,5.08141423 9.77361404,5.38760288 9.45378227,5.85424927 C4.60681794,13.8138299 4.92916807,23.8872713 10.275108,31.5206791 C7.74651933,32.2333645 6,34.5401885 6,37.1672936 C6,39.7943987 7.74651933,42.1012227 10.275108,42.8139082 C11.8338403,43.2161225 13.4893681,42.9601544 14.8538434,42.1059707 C16.2183187,41.251787 17.1718472,39.8744434 17.4910414,38.2966165 C21.0503578,40.3851595 25.0975107,41.4981266 29.2242665,41.5232534 C33.4410323,41.5292737 37.5793129,40.3831322 41.192156,38.2086173 C41.7829358,37.8913823 42.1909921,37.3157149 42.2946877,36.653215 C42.3983833,35.9907152 42.1857425,35.3178952 41.7201511,34.8353151 L41.7201511,34.8353151 Z" id="路径" stroke="#72B9E7" fill-rule="nonzero"></path>
    </g>
</svg>