<?xml version="1.0" encoding="UTF-8"?>
<svg width="48px" height="48px" viewBox="0 0 48 48" version="1.1" xmlns="http://www.w3.org/2000/svg" xmlns:xlink="http://www.w3.org/1999/xlink">
    <title>security-48px</title>
    <g id="切图" stroke="none" stroke-width="1" fill="none" fill-rule="evenodd">
        <path d="M14.3732459,31.1310496 L16.8052568,32.1189504 L13.7890448,39.5442503 L4.27870833,39.5442503 L4.27870833,36.9192503 L12.0208125,36.9183125 L14.3732459,31.1310496 Z M38.1001561,22.4476522 L44.8524974,25.2125558 C45.0491675,25.2125558 45.0491675,25.7324522 44.8524974,26.2050853 L42.055411,33.5308982 C41.8805931,34.0035313 41.5746618,34.3107428 41.3998439,34.2398478 L34.6475026,31.4749442 C34.4508325,31.4749442 34.4508325,30.9550478 34.6475026,30.4824147 L37.444589,23.1566018 C37.6194069,22.6839687 37.9253382,22.3767572 38.1001561,22.4476522 Z M9.75854449,8.08424724 L34.9362169,18.5168494 C35.2916114,18.6762173 35.5714356,18.9798793 35.71273,19.3595124 C35.8540244,19.7391456 35.8449213,20.1628636 35.6874689,20.5353312 L30.9009208,33.2358904 C30.6282871,34.0256147 29.8073096,34.4391703 29.0549874,34.1657528 L3.87731495,23.7331506 C3.52041621,23.5690948 3.24031196,23.2612191 3.09924446,22.8779369 C2.95817695,22.4946546 2.96783158,22.0677152 3.126063,21.6919893 L7.91261113,9.01410961 C8.18524481,8.22438529 9.00622224,7.81082972 9.75854449,8.08424724 Z" id="形状结合" stroke="#72B9E7" fill-rule="nonzero"></path>
    </g>
</svg>