<?xml version="1.0" encoding="UTF-8"?>
<svg width="60px" height="60px" viewBox="0 0 60 60" version="1.1" xmlns="http://www.w3.org/2000/svg" xmlns:xlink="http://www.w3.org/1999/xlink">
    <title>smart-lock-60px</title>
    <g id="切图" stroke="none" stroke-width="1" fill="none" fill-rule="evenodd">
        <g id="编组">
            <circle id="椭圆形备份-2" fill-opacity="0.1" fill="#060838" opacity="0" cx="30" cy="30" r="30"></circle>
            <path d="M37,15 C37.9204746,15 38.6666667,15.7461921 38.6666667,16.6666667 L38.6666667,16.6666667 L38.6666667,28.3333333 L35.5166667,28.3333333 C34.2195507,27.1330306 32.517268,26.4664025 30.75,26.4666667 C26.837983,26.4666667 23.6666667,29.637983 23.6666667,33.55 C23.6666667,37.462017 26.837983,40.6333333 30.75,40.6333333 C32.7239835,40.6280196 34.6048729,39.7934127 35.9333333,38.3333333 L35.9333333,38.3333333 L38.6666667,38.3333333 L38.6666667,43.3333333 C38.6666667,44.2538079 37.9204746,45 37,45 L37,45 L18.6666667,45 C17.7461921,45 17,44.2538079 17,43.3333333 L17,43.3333333 L17,16.6666667 C17,15.7461921 17.7461921,15 18.6666667,15 L18.6666667,15 Z M29.6845442,30.0602319 C31.1644688,29.7715901 32.6538702,30.5123433 33.3166667,31.8666667 L33.3166667,31.8666667 L42,31.8666667 C42.9204746,31.8666667 43.6666667,32.6128588 43.6666667,33.5333333 C43.6666667,34.4538079 42.9204746,35.2 42,35.2 L42,35.2 L33.0833333,35.2 C32.2383198,36.4487766 30.6602436,36.9748065 29.2349644,36.4828004 C27.8096851,35.9907943 26.8921624,34.6032843 26.9974515,33.0991549 C27.1027405,31.5950256 28.2046196,30.3488737 29.6845442,30.0602319 Z M35.3333333,18.3333333 L20.3333333,18.3333333 L20.3333333,21.6666667 L35.3333333,21.6666667 L35.3333333,18.3333333 Z" id="蒙版" fill="#FFFFFF" fill-rule="nonzero"></path>
        </g>
    </g>
</svg>