<?xml version="1.0" encoding="UTF-8"?>
<svg width="24px" height="24px" viewBox="0 0 24 24" version="1.1" xmlns="http://www.w3.org/2000/svg" xmlns:xlink="http://www.w3.org/1999/xlink">
    <title>user-24px</title>
    <g id="切图" stroke="none" stroke-width="1" fill="none" fill-rule="evenodd">
        <path d="M11.6249771,11.9999738 C14.6628688,11.9999738 17.1249639,9.53787866 17.1249639,6.49998689 C17.1249639,3.46209511 14.6628688,1 11.6249771,1 C8.58708528,1 6.12499017,3.46209511 6.12499017,6.49998689 C6.12499017,9.53787866 8.58708528,11.9999738 11.6249771,11.9999738 Z M19.187459,22.9999475 C20.3261282,22.9999475 21.2499541,22.0761216 21.2499541,20.9374525 L21.2499541,19.1499735 C21.2499541,15.9616915 18.6632331,13.3749705 15.4749511,13.3749705 L14.7574082,13.3749705 C13.8034959,13.8132591 12.7421619,14.0624689 11.6249771,14.0624689 C10.5077922,14.0624689 9.45078027,13.8132591 8.49254586,13.3749705 L7.77500302,13.3749705 C4.58672098,13.3749705 2,15.9616915 2,19.1499735 L2,20.9374525 C2,22.0761216 2.92382592,22.9999475 4.06249508,22.9999475 L19.187459,22.9999475 Z" id="u" fill="#FFFFFF" fill-rule="nonzero"></path>
    </g>
</svg>