<?xml version="1.0" encoding="UTF-8"?>
<svg width="48px" height="48px" viewBox="0 0 48 48" version="1.1" xmlns="http://www.w3.org/2000/svg" xmlns:xlink="http://www.w3.org/1999/xlink">
    <title>wifi-48px</title>
    <g id="切图" stroke="none" stroke-width="1" fill="none" fill-rule="evenodd">
        <path d="M24.7,30.4 C27.4061953,30.4 29.6,32.5938047 29.6,35.3 C29.6,38.0061953 27.4061953,40.2 24.7,40.2 C21.9938047,40.2 19.8,38.0061953 19.8,35.3 C19.8,32.5938047 21.9938047,30.4 24.7,30.4 Z M23.9883871,19.2 C28.875749,19.192569 33.507,21.5047727 36.6,25.4965064 L36.6,25.4965064 L33.2787097,29 C31.085562,25.9153841 27.6436332,24.100009 23.9883871,24.100009 C20.333141,24.100009 16.8912122,25.9153841 14.6980645,29 L14.6980645,29 L11.4,25.5210064 C14.4833212,21.5267618 19.1052973,19.2059357 23.9883871,19.2 Z M24,8.00030014 C32.0130365,7.96330202 39.6580044,11.348447 45,17.2989716 L45,17.2989716 L41.5,20.6 C37.0895847,15.49693 30.6659264,12.5621643 23.9066667,12.5621643 C17.1474069,12.5621643 10.7237486,15.49693 6.31333333,20.6 L6.31333333,20.6 L3,17.2989716 C8.34199565,11.348447 15.9869635,7.96330202 24,8.00030014 Z" id="形状结合" stroke="#72B9E7" fill-rule="nonzero"></path>
    </g>
</svg>