<?xml version="1.0" encoding="UTF-8"?>
<svg width="36px" height="37px" viewBox="0 0 36 37" version="1.1" xmlns="http://www.w3.org/2000/svg" xmlns:xlink="http://www.w3.org/1999/xlink">
    <title>环境</title>
    <g id="页面-1" stroke="none" stroke-width="1" fill="none" fill-rule="evenodd">
        <g id="默认" transform="translate(-1402.000000, -473.000000)">
            <g id="杆图" transform="translate(747.000000, 110.000000)">
                <g id="编组-9备份-6" transform="translate(608.000000, 334.000000)">
                    <g id="环境" transform="translate(47.000000, 29.000000)">
                        <polygon id="路径-5" fill="#FBB941" points="8.86202911 19.1641188 10.1772483 12.8468134 16.3712082 8.90551801 23.028083 10.1431123 26.4065904 14.0348184 26.4065904 16.2898311 23.7092588 15.5675111 18.4296454 15.5675111 14.708436 17.1319234 13.0630214 19.4890009 11.7316019 20.4171892"></polygon>
                        <path d="M17.9376776,6.40647298 C18.6150001,6.40647298 19.1641188,5.85735437 19.1641188,5.18003178 L19.1641188,1.25562437 C19.1641188,0.578301776 18.6150001,0.0291831632 17.9376776,0.0291831632 C17.260355,0.0291831632 16.7112364,0.578301776 16.7112364,1.25562437 L16.7112364,5.18003182 C16.7112364,5.85739528 17.2603141,6.40647298 17.9376776,6.40647298 Z" id="路径" fill="#FFFFFF" fill-rule="nonzero"></path>
                        <path d="M8.04941363,9.78388766 C8.28889673,10.0234116 8.602743,10.1431123 8.91663019,10.1431123 C9.2304765,10.1431123 9.54440456,10.0233299 9.78384675,9.78388766 C10.2628129,9.3049215 10.2628129,8.52837979 9.78384675,8.0494545 L7.00890089,5.27446778 C6.52997561,4.79550162 5.75339302,4.79550162 5.27446774,5.27446778 C4.79550158,5.75343393 4.79550158,6.52997565 5.27446774,7.00890093 L8.04941363,9.78388766 Z" id="路径" fill="#FFFFFF" fill-rule="nonzero"></path>
                        <path d="M1.25562437,19.1640779 L5.18003182,19.1640779 C5.85735441,19.1640779 6.40647302,18.6150001 6.40647302,17.9376367 C6.40647302,17.2602732 5.85735441,16.7111955 5.18003182,16.7111955 L1.25562437,16.7111955 C0.578301776,16.7111955 0.0291831632,17.2603141 0.0291831632,17.9376367 C0.0291831632,18.6149593 0.578301776,19.1640779 1.25562437,19.1640779 Z" id="路径" fill="#FFFFFF" fill-rule="nonzero"></path>
                        <path d="M29.4688413,17.9376776 C29.4688413,18.6150001 30.0179599,19.1641188 30.6952825,19.1641188 L34.6196899,19.1641188 C35.2970125,19.1641188 35.8461311,18.615041 35.8461311,17.9376776 C35.8461311,17.2603141 35.2970125,16.7112364 34.6196899,16.7112364 L30.6952825,16.7112364 C30.0179598,16.7112364 29.4688413,17.2603141 29.4688413,17.9376776 Z" id="路径" fill="#FFFFFF" fill-rule="nonzero"></path>
                        <path d="M26.9586841,10.1431123 C27.2725712,10.1431123 27.5864176,10.0233707 27.8259006,9.78388762 L30.6008873,7.00890089 C31.0798535,6.52993474 31.0798535,5.75339302 30.6008873,5.27442687 C30.1219621,4.79546072 29.3453795,4.79546072 28.8664542,5.27442687 L26.0914675,8.04941359 C25.6125013,8.52837975 25.6125013,9.30492146 26.0914675,9.78388762 C26.3309097,10.0233707 26.6447969,10.1431123 26.9586841,10.1431123 Z" id="路径" fill="#FFFFFF" fill-rule="nonzero"></path>
                        <path d="M30.4345819,22.9240195 C30.2497981,20.8959355 29.4524478,18.9788852 28.1373758,17.4128834 C28.0096215,14.873128 26.9565582,12.5038481 25.1419567,10.698036 C23.2149723,8.78045429 20.6564524,7.72436578 17.9377593,7.72436578 C15.2096226,7.72436578 12.644807,8.78675002 10.7157786,10.7157785 C8.7867501,12.6448479 7.72436586,15.2096635 7.72436586,17.9377593 C7.72436586,18.2165702 7.73638498,18.4953812 7.7589515,18.7729657 C7.07414762,19.0317039 6.4532413,19.4482443 5.94680285,19.9982214 C5.16441513,20.847859 4.72228306,21.9440112 4.69481081,23.0961709 C3.5754788,23.4631221 2.56485039,24.125891 1.77518576,25.0242591 C0.710471258,26.2354925 0.124109752,27.7913967 0.124109752,29.4053933 C0.124109752,33.0660341 3.10481155,36.0441604 6.76855934,36.0441604 L29.1327146,36.0441604 C30.8799845,36.0441604 32.5338814,35.3570671 33.7897572,34.1095311 C35.0545042,32.8531648 35.7510411,31.1877394 35.7510411,29.4201515 C35.7510411,27.6788911 35.0791966,26.0341926 33.8593373,24.7889868 C32.917553,23.8276205 31.7294177,23.1857012 30.4345819,22.9240195 Z M17.9378002,10.1772891 C20.0035769,10.1772891 21.9476088,10.9797087 23.4117752,12.4367617 C24.1539357,13.1753246 24.7286051,14.0380442 25.1160788,14.9781114 C24.93199,14.8817131 24.7444262,14.7907521 24.5534693,14.70531 C23.265379,14.1291279 21.8916422,13.8369896 20.4703604,13.8369896 C16.771659,13.8369896 13.4252734,15.8700203 11.6923937,19.0356286 C11.2292078,18.7851893 10.7253857,18.6131196 10.1994468,18.528209 C10.1846478,18.3320193 10.1772483,18.134971 10.1772483,17.937841 C10.1772483,13.6586242 13.6586242,10.1772891 17.9378002,10.1772891 Z M32.0610474,32.3693747 C31.267867,33.1573223 30.2278448,33.5913189 29.1327146,33.5913189 L6.7685593,33.5913189 C4.45733086,33.5913189 2.57699208,31.7135148 2.57699208,29.4054342 C2.57699208,27.3237547 4.12876726,25.5413268 6.1864903,25.259368 C6.53034351,25.2122317 6.8381394,25.0216428 7.03355233,24.7348191 C7.22896531,24.4479544 7.29372141,24.0917959 7.21171334,23.7545246 C7.16829733,23.5759139 7.14626227,23.3929289 7.14626227,23.2106797 C7.14626227,22.6341297 7.36109389,22.0834167 7.75114309,21.6598039 C8.13918907,21.2383988 8.66520971,20.9789656 9.232357,20.9292947 C9.23325641,20.9292129 9.23415577,20.9290494 9.23509608,20.9289677 C9.23575018,20.9289268 9.23636338,20.9288859 9.23701748,20.928845 C9.30087418,20.922999 9.36812405,20.9200555 9.43688652,20.9200555 C10.1289673,20.9200555 10.7768553,21.2281376 11.2144087,21.7653597 C11.4496401,22.0541048 11.8002796,22.2172624 12.1651867,22.2172624 C12.2366883,22.2172624 12.3087621,22.2110075 12.3806316,22.1981708 C12.8191252,22.1199647 13.180721,21.8102065 13.3253184,21.3888831 C14.3720451,18.3389691 17.2434301,16.2898311 20.4703195,16.2898311 C21.5441506,16.2898311 22.5809431,16.5100591 23.5518757,16.9443419 C24.4907982,17.3643163 25.3222027,17.9622881 26.0229503,18.7217005 C26.023073,18.721864 26.0232365,18.7219866 26.0233591,18.7221093 C27.3129212,20.1196799 28.0231533,21.9367343 28.0231533,23.8385767 C28.0231533,23.876024 28.0240118,23.912572 28.024952,23.9489155 C28.0253608,23.964246 28.0260558,23.9794539 28.0258105,23.9949479 C28.0122379,24.6689591 28.5451675,25.2275622 29.219056,25.2457136 C30.3143498,25.2751481 31.3400226,25.7225539 32.1070798,26.505514 C32.8750772,27.2894552 33.2980768,28.3245307 33.2980768,29.4201106 C33.2980768,30.5295085 32.8588065,31.5768893 32.0610474,32.3693747 Z" id="形状" fill="#FFFFFF" fill-rule="nonzero"></path>
                    </g>
                </g>
            </g>
        </g>
    </g>
</svg>