<?xml version="1.0" encoding="UTF-8"?>
<svg width="30px" height="33px" viewBox="0 0 30 33" version="1.1" xmlns="http://www.w3.org/2000/svg" xmlns:xlink="http://www.w3.org/1999/xlink">
    <title>安防监控</title>
    <g id="页面-1" stroke="none" stroke-width="1" fill="none" fill-rule="evenodd">
        <g id="默认" transform="translate(-898.000000, -227.000000)">
            <g id="杆图" transform="translate(747.000000, 110.000000)">
                <g id="编组-9" transform="translate(102.000000, 86.000000)">
                    <g id="安防监控" transform="translate(49.000000, 31.000000)">
                        <polygon id="路径-3" stroke="#979797" fill="#FBB941" points="1.5 9.5 0.605973482 10.558952 1.83826111 12.908381 14.9789526 28.4131375 16.7530976 29.3509881 21.9045201 25.0253045 28.2251381 20.0279917 27.0520572 17.9846592 14.2760286 1.84776182 12.6452054 0.815656532"></polygon>
                        <path d="M1.11169764,8.40012669 L10.640625,0.68285473 C11.9189189,-0.352512669 13.7955025,-0.142208615 14.8147171,1.11961571 L28.2266681,17.6864443 C29.1489654,18.8190456 29.0843539,20.4207137 28.1782095,21.4883868 L28.0809755,21.5856208 C28.0002111,21.682538 27.9029772,21.7633024 27.7899071,21.8605363 L29.2135769,23.4783573 C29.7472551,24.0931166 30.0063345,24.8697213 29.941723,25.6786318 C29.8771115,26.4713894 29.4884924,27.1995355 28.857897,27.7009079 L23.9072002,31.7134713 C23.3408995,32.1663851 22.6776816,32.3928421 21.9979941,32.3928421 C21.1567779,32.3928421 20.3317145,32.0371622 19.7331081,31.3574747 L18.2122044,29.6262669 C16.9339105,30.6131757 15.0899493,30.4028716 14.0868877,29.1410473 L9.42757601,23.3975929 L2.95597551,23.3975929 L2.95597551,26.9569257 C2.95597551,27.4586149 2.55152027,27.879223 2.03367821,27.879223 C1.53198902,27.879223 1.11138091,27.4747677 1.11138091,26.9569257 L1.11138091,18.0101351 C1.11138091,17.5087627 1.51583615,17.0878378 2.03367821,17.0878378 C2.55152027,17.0878378 2.95597551,17.4922931 2.95597551,18.0101351 L2.95597551,21.5694679 L7.93897804,21.5694679 L0.658467061,12.5742187 C-0.360747466,11.3120777 -0.166596284,9.43549409 1.11169764,8.40012669 Z M21.1083193,30.144109 C21.5289274,30.6293285 22.2409206,30.6777872 22.7422931,30.2733319 L27.6929899,26.2610853 C27.9355997,26.0669341 28.0812922,25.7920186 28.0974451,25.5006334 C28.1297508,25.1934122 28.0328336,24.902027 27.8222128,24.6755701 L26.3500845,22.9931377 L19.6361909,28.4616765 L21.1083193,30.144109 L21.1083193,30.144109 Z M2.09860642,11.4254645 L15.5105574,27.9922931 C15.8988598,28.4778294 16.6266892,28.5585937 17.1122255,28.1541385 L17.7431377,27.6362965 C17.7592905,27.6362965 17.7592905,27.6201436 17.7754434,27.6201436 L26.803315,20.2750211 C27.1270059,19.8705659 27.1428421,19.2558066 26.803315,18.8351985 L13.3910473,2.26836993 C13.1645904,1.99345439 12.8408995,1.84776182 12.5013725,1.84776182 C12.2426098,1.84776182 11.9996833,1.92852618 11.7893792,2.10652449 L5.01055743,7.59121622 L5.0267103,7.60736909 L10.9320101,14.9363387 C11.2069257,15.2761824 11.1584671,15.7775549 10.8186233,16.0686233 C10.4787796,16.3438556 9.97740709,16.2950802 9.68602196,15.9552365 L3.78103885,8.62658361 C3.78103885,8.62658361 3.78103885,8.61043074 3.76488598,8.61043074 L2.24398226,9.83994932 C1.77491554,10.2120988 1.69415118,10.9402449 2.09860642,11.4254645 Z" id="形状" fill="#FFFFFF" fill-rule="nonzero"></path>
                    </g>
                </g>
            </g>
        </g>
    </g>
</svg>