<?xml version="1.0" encoding="UTF-8"?>
<svg width="30px" height="36px" viewBox="0 0 30 36" version="1.1" xmlns="http://www.w3.org/2000/svg" xmlns:xlink="http://www.w3.org/1999/xlink">
    <title>智丰收照明</title>
    <g id="页面-1" stroke="none" stroke-width="1" fill="none" fill-rule="evenodd">
        <g id="默认" transform="translate(-801.000000, -379.000000)" fill-rule="nonzero">
            <g id="杆图" transform="translate(747.000000, 110.000000)">
                <g id="编组-9备份" transform="translate(5.000000, 237.000000)">
                    <g id="智丰收照明" transform="translate(49.000000, 32.000000)">
                        <path d="M3.07184612,25.711925 C1.50041756,22.1818498 1.88506471,14.4528123 4.70837297,11.4753687 C8.45273387,7.52800027 19.3629021,7.40509186 23.3102705,11.1456934 C26.4268118,14.0968212 28.7791597,22.3077484 27.1250243,26.0145153 C21.6512065,24.9664722 17.5423705,24.4251917 14.7985164,24.3906739 C12.1972198,24.3579494 8.2883297,24.7983665 3.07184612,25.711925 Z" id="路径" fill="#FBB941"></path>
                        <path d="M14.9600564,31.7490601 C15.787124,31.7490601 16.4638158,32.4257519 16.4638158,33.2528196 L16.4638158,34.4069549 C16.4638158,35.2340225 15.7871241,35.9107143 14.9600564,35.9107143 C14.1329887,35.9107143 13.456297,35.2340225 13.456297,34.4069549 L13.456297,33.2528196 C13.456297,32.4257519 14.1329887,31.7490601 14.9600564,31.7490601 L14.9600564,31.7490601 Z M18.8021617,30.7302632 C19.5209412,30.3180126 20.4377021,30.5631538 20.8547932,31.2791354 L21.4337406,32.2791353 C21.8459911,32.9979148 21.6008499,33.9146758 20.8848684,34.3317669 C20.1660889,34.7440174 19.249328,34.4988763 18.8322369,33.7828948 L18.2495301,32.7866541 C17.8364727,32.0659066 18.0834554,31.1468622 18.8021617,30.7302632 L18.8021617,30.7302632 Z M11.1292293,30.7077068 C11.8464493,31.123851 12.0918978,32.0417612 11.6781015,32.7603383 L11.1029135,33.7640977 C10.6867693,34.4813177 9.76885913,34.7267662 9.05028194,34.3129699 C8.33306198,33.8968257 8.0876135,32.9789155 8.50140979,32.2603384 L9.08035714,31.2603383 C9.48637218,30.5422932 10.4111842,30.2941729 11.1292293,30.7077068 L11.1292293,30.7077068 Z M25.2758459,10.2791354 C22.8397556,7.97086466 19.7720865,6.57988723 16.4863722,6.25281956 L16.4863722,1.54229323 C16.4863722,0.715225579 15.8096805,0.0385338493 14.9826128,0.0385338493 C14.1555451,0.0385338493 13.4788534,0.715225579 13.4788534,1.54229323 L13.4788534,6.25657895 C9.9074248,6.61372182 6.62171053,8.21522558 4.12546994,10.8430451 C-0.0512217751,15.2528196 -1.15272555,21.6851504 1.31719926,27.2302632 C1.32847746,27.2565789 1.34727447,27.2791353 1.35855262,27.3054511 C1.3923872,27.3693609 1.42622179,27.4370301 1.46757519,27.4934211 C1.49013158,27.5234963 1.51644735,27.549812 1.54276317,27.5761278 C1.58035714,27.625 1.61795116,27.6738722 1.6630639,27.7152256 C1.70065787,27.7490602 1.74577065,27.7791354 1.78336466,27.8092105 C1.82095863,27.8355263 1.85479322,27.8693609 1.89238723,27.8919173 C1.94501883,27.9257519 2.0014098,27.9483083 2.05404135,27.9708646 C2.08787594,27.9859022 2.11795114,28.0046992 2.15178573,28.0197369 C2.21193609,28.0422932 2.27584588,28.0573308 2.33975562,28.0723684 C2.36983083,28.0798872 2.39990599,28.0911654 2.42998119,28.0986842 C2.49765036,28.1099624 2.56531953,28.1099624 2.63298871,28.1137218 C2.66306391,28.1137218 2.69313907,28.1212406 2.71945489,28.1212406 C2.79088344,28.1212406 2.85855262,28.106203 2.92998122,28.0949248 C2.95629699,28.0911654 2.9863722,28.0911654 3.01268797,28.0836466 C3.08787595,28.068609 3.15930451,28.0385338 3.23073307,28.012218 C3.25328946,28.0046992 3.27584585,28.0009398 3.29840224,27.9896617 C3.33223683,27.9746241 5.64050752,26.9558271 8.96005638,26.2490602 C9.8547932,28.7265038 12.2044173,30.5046992 14.9638158,30.5122181 L14.9788534,30.5122181 C16.6893797,30.5122181 18.2984022,29.8392857 19.5089286,28.6174812 C20.1818609,27.9370301 20.6818609,27.1287594 20.9976504,26.2528195 C24.3134399,26.9595865 26.6217106,27.9783835 26.6555451,27.993421 C26.7307331,28.0272556 26.8096805,28.049812 26.8886278,28.068609 C26.9111842,28.0761278 26.9337406,28.087406 26.9600564,28.0911654 C27.0615601,28.1137218 27.1668233,28.125 27.2683271,28.125 C27.3397556,28.125 27.4111842,28.1212406 27.4826128,28.1099624 C27.493891,28.1099624 27.5014098,28.106203 27.512688,28.1024436 C27.5728383,28.0911654 27.6329887,28.0798872 27.6931391,28.0648496 C27.7006579,28.0610903 27.7081767,28.0573308 27.7194549,28.0573308 C27.7796053,28.0385338 27.8359962,28.0197369 27.8923872,27.993421 L27.9375,27.9708646 C27.9863722,27.9483083 28.0352444,27.9219925 28.0803572,27.8919173 C28.0953947,27.8843985 28.1066729,27.8731203 28.1217105,27.8618421 C28.1668233,27.8317669 28.2119361,27.8016918 28.2532895,27.7640977 C28.2683271,27.7528195 28.2796052,27.737782 28.2908834,27.7265038 C28.3322368,27.6889098 28.3698308,27.6513158 28.4074248,27.6137218 C28.418703,27.5986842 28.4299812,27.5836466 28.4412594,27.5648496 C28.475094,27.5234962 28.5089286,27.4821429 28.5390037,27.4370301 C28.5465226,27.4219925 28.5540413,27.4069549 28.5653196,27.3919173 C28.5953948,27.3430451 28.6217105,27.2941729 28.6480263,27.2415414 C31.2269737,21.4520677 29.8735902,14.6400376 25.2758459,10.2791354 L25.2758459,10.2791354 Z M17.3773496,26.5009398 C16.7344925,27.1475564 15.8848685,27.5046992 14.9826128,27.5046992 L14.975094,27.5046992 C13.7119361,27.5009399 12.6104323,26.7941729 12.0277255,25.7490601 C12.9788534,25.643797 13.9713346,25.5798872 14.9826128,25.5798872 C15.9976504,25.5798872 16.9863722,25.643797 17.9412594,25.7528196 C17.7908835,26.0234963 17.6029135,26.2753759 17.3773496,26.5009398 L17.3773496,26.5009398 Z M26.399906,24.6588346 C24.2119361,23.8693609 19.8698308,22.5723684 14.9863722,22.5723684 C10.1066729,22.5723684 5.76080829,23.8731203 3.56907893,24.662594 C2.30216165,20.5648496 3.30592105,16.0836466 6.31343986,12.9144737 C10.843515,8.1287594 18.4262218,7.92951126 23.2081767,12.4633458 C26.5277256,15.6137218 27.7232143,20.3618421 26.399906,24.6588346 Z" id="形状" fill="#FFFFFF"></path>
                    </g>
                </g>
            </g>
        </g>
    </g>
</svg>