<?xml version="1.0" encoding="UTF-8"?>
<svg width="38px" height="27px" viewBox="0 0 38 27" version="1.1" xmlns="http://www.w3.org/2000/svg" xmlns:xlink="http://www.w3.org/1999/xlink">
    <title>wifi</title>
    <g id="页面-1" stroke="none" stroke-width="1" fill="none" fill-rule="evenodd">
        <g id="默认" transform="translate(-1348.000000, -325.000000)" fill-rule="nonzero">
            <g id="杆图" transform="translate(747.000000, 110.000000)">
                <g id="编组-9备份-5" transform="translate(555.000000, 177.000000)">
                    <g id="wifi" transform="translate(46.000000, 38.000000)">
                        <path d="M11.9667895,20.1078835 C11.5174238,20.5864063 10.8431139,20.7822236 10.2073359,20.618823 C9.57155781,20.4554224 9.07522656,19.9587399 8.91227579,19.3228464 C8.74932502,18.6869529 8.94561938,18.0127817 9.42445992,17.5637547 C14.6941951,12.2946174 23.2374899,12.2946174 28.5072251,17.5637547 C29.1890876,18.2697395 29.1793358,19.3919373 28.4853073,20.0859658 C27.7912789,20.7799943 26.6690811,20.789746 25.9630963,20.1078835 C22.0985689,16.2435297 15.8331161,16.2435297 11.9685887,20.1078835 L11.9667895,20.1078835 Z M7.51546372,15.1599669 C6.80947892,15.8418294 5.68728113,15.8320776 4.99325266,15.1380491 C4.2992242,14.4440207 4.28947243,13.3218229 4.97133492,12.6158381 C12.7008804,4.88629261 25.2308046,4.88629261 32.9603501,12.6158381 C33.4280752,13.0675819 33.6156573,13.7365465 33.4509988,14.3656147 C33.2863404,14.994683 32.7950662,15.4859572 32.1659979,15.6506156 C31.5369297,15.8152741 30.8679651,15.627692 30.4162213,15.1599669 C27.3794049,12.1231133 23.2605757,10.4170236 18.9658425,10.4170236 C14.6711093,10.4170236 10.5522801,12.1231133 7.51546372,15.1599669 L7.51546372,15.1599669 Z M3.06233872,10.2120502 C2.35635392,10.8939127 1.23415613,10.8841609 0.540127665,10.1901325 C-0.153900797,9.496104 -0.163652574,8.37390621 0.518209924,7.66792141 C10.7073198,-2.52118844 27.2243652,-2.52118844 37.4134751,7.66792141 C38.0953376,8.37390621 38.0855858,9.496104 37.3915573,10.1901325 C36.6975289,10.8841609 35.5753311,10.8939127 34.8693463,10.2120502 C26.0854448,1.42994792 11.8462402,1.42994792 3.06233872,10.2120502 L3.06233872,10.2120502 Z" id="形状" fill="#FFFFFF"></path>
                        <path d="M20.5563728,25.8240767 C19.6779472,26.7025023 18.2537378,26.7025023 17.3753122,25.8240767 C16.4968866,24.9456511 16.4968866,23.5214417 17.3753122,22.6430161 C18.2537378,21.7645905 19.6779472,21.7645905 20.5563728,22.6430161 C21.4347984,23.5214418 21.4347984,24.9456511 20.5563728,25.8240767 L20.5563728,25.8240767 Z" id="路径" fill="#FBB941"></path>
                    </g>
                </g>
            </g>
        </g>
    </g>
</svg>