<?xml version="1.0" encoding="UTF-8"?>
<svg width="34px" height="27px" viewBox="0 0 34 27" version="1.1" xmlns="http://www.w3.org/2000/svg" xmlns:xlink="http://www.w3.org/1999/xlink">
    <title>LED</title>
    <g id="页面-1" stroke="none" stroke-width="1" fill="none" fill-rule="evenodd">
        <g id="默认" transform="translate(-1227.000000, -209.000000)">
            <g id="杆图" transform="translate(747.000000, 110.000000)">
                <g id="编组-9备份-4" transform="translate(433.000000, 63.000000)">
                    <g id="LED" transform="translate(47.000000, 36.000000)">
                        <rect id="矩形" fill="#FBB941" x="24" y="7" width="3" height="13"></rect>
                        <g id="dianziping" fill="#FFFFFF" fill-rule="nonzero">
                            <path d="M4.85714286,4.85714286 L7.28571429,4.85714286 L7.28571429,21.8571429 L4.85714286,21.8571429 L4.85714286,4.85714286 Z M13.3571429,4.85714286 L15.7857143,4.85714286 L15.7857143,21.8571429 L13.3571429,21.8571429 L13.3571429,4.85714286 Z" id="形状"></path>
                            <path d="M13.3571429,4.85714286 L19.4285714,4.85714286 L19.4285714,7.28571429 L13.3571429,7.28571429 L13.3571429,4.85714286 Z M21.8571429,4.85714286 L26.7142857,4.85714286 L26.7142857,7.28571429 L21.8571429,7.28571429 L21.8571429,4.85714286 Z M13.3571429,12.1428571 L19.4285714,12.1428571 L19.4285714,14.5714286 L13.3571429,14.5714286 L13.3571429,12.1428571 Z M26.7142857,7.28571429 L29.1428571,7.28571429 L29.1428571,19.4285714 L26.7142857,19.4285714 L26.7142857,7.28571429 Z M4.85714286,19.4285714 L7.28571429,19.4285714 L7.28571429,21.8571429 L4.85714286,21.8571429 L4.85714286,19.4285714 Z" id="形状"></path>
                            <path d="M4.85714286,19.4285714 L10.9285714,19.4285714 L10.9285714,21.8571429 L4.85714286,21.8571429 L4.85714286,19.4285714 Z M13.3571429,19.4285714 L19.4285714,19.4285714 L19.4285714,21.8571429 L13.3571429,21.8571429 L13.3571429,19.4285714 Z M21.8571429,4.85714286 L24.2857143,4.85714286 L24.2857143,21.8571429 L21.8571429,21.8571429 L21.8571429,4.85714286 Z" id="形状"></path>
                            <polygon id="路径" points="21.8571429 19.4285714 26.7142857 19.4285714 26.7142857 21.8571429 21.8571429 21.8571429"></polygon>
                            <path d="M2.42857143,2.42857143 L2.42857143,24.2857143 L31.5714286,24.2857143 L31.5714286,2.42857143 L2.42857143,2.42857143 Z M2.42857143,0 L31.5714286,0 C32.9126915,0 34,1.08730846 34,2.42857143 L34,24.2857143 C34,24.9298115 33.7441334,25.5475281 33.2886879,26.0029736 C32.8332424,26.4584191 32.2155258,26.7142857 31.5714286,26.7142857 L2.42857143,26.7142857 C1.08730846,26.7142857 0,25.6269772 0,24.2857143 L0,2.42857143 C0,1.08730846 1.08730846,0 2.42857143,0 Z" id="形状"></path>
                        </g>
                    </g>
                </g>
            </g>
        </g>
    </g>
</svg>