<?xml version="1.0" encoding="UTF-8"?>
<svg width="34px" height="34px" viewBox="0 0 34 34" version="1.1" xmlns="http://www.w3.org/2000/svg" xmlns:xlink="http://www.w3.org/1999/xlink">
    <title>广播</title>
    <g id="页面-1" stroke="none" stroke-width="1" fill="none" fill-rule="evenodd">
        <g id="默认" transform="translate(-1380.000000, -624.000000)">
            <g id="杆图" transform="translate(747.000000, 110.000000)">
                <g id="编组-9备份-7" transform="translate(585.000000, 482.000000)">
                    <g id="广播" transform="translate(48.000000, 32.000000)">
                        <path d="M20.8261312,10.5 L20.2179566,18.0625 L20.8261312,19.2356517 C22.3604197,19.044294 23.1799445,18.9562124 23.2847057,18.9714068 C23.4418475,18.9941983 25.5143365,18.4475438 25.6615391,18.4016179 C25.8087417,18.3556921 27.4156319,17.2894125 27.5158804,17 C27.5827128,16.8070583 27.6811335,16.0963336 27.8111424,14.8678258 L27.2562624,12.2850848 C26.5823407,11.6759391 26.1505579,11.3441764 25.9609139,11.2897965 C25.7712699,11.2354167 24.0596756,10.9721512 20.8261312,10.5 Z" id="路径-6" fill="#FBB941"></path>
                        <g id="guangbo" fill="#FFFFFF" fill-rule="nonzero">
                            <path d="M26.5625,0 C24.3811875,0 22.667375,1.498125 21.437,3.810125 L21.4146875,3.797375 C19.6275625,7.2961875 16.9670625,9.5625 14.052625,9.5625 L4.25,9.5625 C1.8668125,9.5625 0,11.8968125 0,14.875 C0,17.8553125 1.8668125,20.1875 4.25,20.1875 C5.4215299,20.1904288 6.36969116,21.1409664 6.3696875,22.3125 L6.3696875,31.875 C6.3696875,33.0486051 7.32108241,34 8.4946875,34 L12.7446875,34 C13.9182926,34 14.8696875,33.0486051 14.8696875,31.875 L14.8696875,30.8125 C14.8696875,29.75 13.8071875,29.2750625 13.8071875,28.6875 L13.8071875,21.25 C13.8071875,21.2255625 13.8241875,21.2085625 13.8263125,21.184125 C13.8362782,21.0374614 13.8768129,20.8945041 13.9453125,20.7644375 C13.9637263,20.7316765 13.9846867,20.7004136 14.008,20.6709375 C14.0920028,20.5451265 14.2021798,20.4389361 14.331,20.359625 C14.337375,20.355375 14.3395,20.349 14.345875,20.34475 C14.350125,20.34475 14.3533125,20.3405 14.3575625,20.3405 C14.4425625,20.2926875 14.5445625,20.2820625 14.6401875,20.2555 C17.3219375,20.54025 19.74975,22.7045625 21.41575,25.9643125 L21.4423125,25.9515625 C22.67375,28.256125 24.3833125,29.75 26.5625,29.75 C31.44575,29.75 34,22.2668125 34,14.875 C34,7.4831875 31.44575,0 26.5625,0 Z M21.25,14.875 C21.25,13.7731875 21.3148125,12.7085625 21.42425,11.6875 L24.4375,11.6875 C25.6105,11.6875 26.5625,13.1155 26.5625,14.875 C26.5625,16.636625 25.6105,18.0625 24.4375,18.0625 L21.42425,18.0625 C21.3093759,17.0038668 21.2512095,15.9398469 21.25,14.875 L21.25,14.875 Z M2.125,14.875 C2.125,13.1155 3.077,11.6875 4.25,11.6875 L11.702375,11.6875 C11.043625,12.4620625 10.625,13.5861875 10.625,14.875 C10.625,16.1659375 11.043625,17.2900625 11.702375,18.0625 L4.25,18.0625 C3.077,18.0625 2.125,16.636625 2.125,14.875 Z M12.7446875,31.875 L8.4946875,31.875 L8.4946875,22.3125 C8.49584339,21.5661638 8.29895757,20.8328833 7.924125,20.1875 L8.66575,20.1875 L8.66575,20.20025 L11.86175,20.20025 C11.7438969,20.5377364 11.6832087,20.8925292 11.6821875,21.25 L11.6821875,28.6875 C11.6821875,29.7106875 12.2538125,30.39175 12.594875,30.797625 C12.641625,30.8539375 12.696875,30.9113125 12.7446875,30.974 L12.7446875,31.875 L12.7446875,31.875 Z M14.052625,18.07525 L13.8125,18.07525 L13.8125,18.0625 C12.6395,18.0625 11.6875,16.636625 11.6875,14.875 C11.6875,13.1155 12.6395,11.6875 13.8125,11.6875 L14.052625,11.6875 C16.0565,11.6875 17.932875,10.899125 19.584,9.543375 C19.2762311,11.303852 19.1226488,13.0878248 19.125,14.875 C19.125,16.6908125 19.280125,18.50875 19.586125,20.2204375 C17.9339375,18.863625 16.0565,18.07525 14.052625,18.07525 L14.052625,18.07525 Z M26.5625,27.625 C24.418375,27.625 22.578125,24.5745625 21.7376875,20.1875 L24.4375,20.1875 C26.819625,20.1875 28.6875,17.8553125 28.6875,14.875 C28.6875,11.8968125 26.819625,9.5625 24.4375,9.5625 L21.7376875,9.5625 C22.578125,5.1775625 24.418375,2.125 26.5625,2.125 C29.497125,2.125 31.875,7.8338125 31.875,14.875 C31.875,21.9161875 29.497125,27.625 26.5625,27.625 Z" id="形状"></path>
                        </g>
                    </g>
                </g>
            </g>
        </g>
    </g>
</svg>