<?xml version="1.0" encoding="UTF-8"?>
<svg width="36px" height="36px" viewBox="0 0 36 36" version="1.1" xmlns="http://www.w3.org/2000/svg" xmlns:xlink="http://www.w3.org/1999/xlink">
    <title>雷达</title>
    <g id="页面-1" stroke="none" stroke-width="1" fill="none" fill-rule="evenodd">
        <g id="默认" transform="translate(-898.000000, -758.000000)">
            <g id="杆图" transform="translate(747.000000, 110.000000)">
                <g id="编组-9备份-3" transform="translate(105.000000, 616.000000)">
                    <g id="雷达" transform="translate(46.000000, 32.000000)">
                        <path d="M7.87510547,2.5 C7.80253239,2.84236908 7.05252653,3.81955633 5.62508789,5.43156175 L3.37507031,14.8361459 L4,20.3597561 L6.9808161,25.7407271 L12.3119549,30.3754395 L17.3523292,32.6252812 L25.8782195,32.6252812 L31.8312422,30.3754395 L33.5528465,27.2338665 L20.2901473,13.3183189 C12.0860258,5.76373721 7.94767854,2.15763092 7.87510547,2.5 Z" id="路径-4" fill="#FBB941"></path>
                        <g id="leida" fill="#FFFFFF" fill-rule="nonzero">
                            <path d="M35.5021875,26.5732383 L23.6591016,14.7279023 L27.1759219,11.2069336 C27.3030469,11.2294336 27.4301719,11.2519336 27.5629219,11.2519336 C29.116582,11.2519336 30.3754922,9.99203906 30.3754922,8.43964453 C30.3754922,6.88728516 29.1165469,5.62735547 27.5629219,5.62735547 C26.0092969,5.62735547 24.7503867,6.88728516 24.7503867,8.43964453 C24.7503867,8.57464453 24.7717617,8.69839453 24.7897617,8.82214453 L21.2729414,12.3430781 L9.42989063,0.497777344 C8.76501563,-0.1659375 7.68835547,-0.1659375 7.02348047,0.497777344 C3.21978516,4.29996094 1.125,9.36207422 1.125,14.7391523 C1.12391016,18.4176211 2.12853516,21.9385898 3.97019531,25.0208437 C1.67741016,25.7408086 0,27.8443828 0,30.3754219 C0,33.4802109 2.51894531,35.9999912 5.62510547,35.9999912 C8.15189063,35.9999912 10.2635508,34.3238906 10.9745508,32.0290664 C14.0570859,33.8739258 17.5784062,34.8750703 21.2628164,34.8750703 C26.6415469,34.8750703 31.6984922,32.7827461 35.5021523,28.9805625 C36.1659375,28.3055977 36.1659375,27.236918 35.5021523,26.5732383 L35.5021875,26.5732383 Z M5.62510547,32.6252812 C4.38194531,32.6252812 3.37507031,31.6128516 3.37507031,30.3754219 C3.37507031,29.1267773 4.38194531,28.1255977 5.62507031,28.1255977 C6.86714062,28.1255977 7.87510547,29.1267773 7.87510547,30.3754219 C7.87510547,31.6128516 6.86710547,32.6252812 5.62510547,32.6252812 Z M21.2628164,31.4666016 C16.7931211,31.4666016 12.5900859,29.7342422 9.42992578,26.5732383 C6.26860547,23.4122344 4.52819531,19.2050508 4.52819531,14.7391523 C4.52819531,10.8357187 5.85235547,7.146 8.28689062,4.16499609 L31.8312422,27.7093828 C28.8544922,30.150457 25.1610469,31.4666016 21.2628516,31.4666016 L21.2628164,31.4666016 Z" id="形状"></path>
                        </g>
                    </g>
                </g>
            </g>
        </g>
    </g>
</svg>