<?xml version="1.0" encoding="UTF-8"?>
<svg width="30px" height="43px" viewBox="0 0 30 43" version="1.1" xmlns="http://www.w3.org/2000/svg" xmlns:xlink="http://www.w3.org/1999/xlink">
    <title>智能锁</title>
    <g id="页面-1" stroke="none" stroke-width="1" fill="none" fill-rule="evenodd">
        <g id="默认" transform="translate(-796.000000, -587.000000)" fill-rule="nonzero">
            <g id="杆图" transform="translate(747.000000, 110.000000)">
                <g id="编组-9备份-2" transform="translate(0.000000, 451.000000)">
                    <g id="智能锁" transform="translate(49.000000, 26.000000)">
                        <path d="M14.9185505,42.5531915 C6.69303298,42.5531915 0.0249335106,35.885092 0.0249335106,27.6595745 C0.0249335106,19.4340569 6.69303298,12.7659574 14.9185505,12.7659574 C23.1440681,12.7659574 29.8121676,19.4340569 29.8121676,27.6595745 C29.8022026,35.8809609 23.1399369,42.5432265 14.9185505,42.5531915 L14.9185505,42.5531915 Z M14.9185505,17.0212766 C9.04318085,17.0212766 4.28025266,21.7842048 4.28025266,27.6595745 C4.28025266,33.5349441 9.04318085,38.2978723 14.9185505,38.2978723 C20.7939202,38.2978723 25.5568484,33.5349441 25.5568484,27.6595745 C25.5498141,21.787121 20.791004,17.0283109 14.9185505,17.0212766 L14.9185505,17.0212766 Z M23.4291888,10.6382979 L19.1738697,10.6382979 L19.1738697,8.5106383 C19.1738697,6.16049043 17.2686984,4.25531915 14.9185505,4.25531915 C12.5684027,4.25531915 10.6632314,6.16049043 10.6632314,8.5106383 L10.6632314,10.6382979 L6.40791223,10.6382979 L6.40791223,8.5106383 C6.40791223,3.81034255 10.2182548,0 14.9185505,0 C19.6188463,0 23.4291888,3.81034255 23.4291888,8.5106383 L23.4291888,10.6382979 L23.4291888,10.6382979 Z" id="形状" fill="#FFFFFF"></path>
                        <path d="M19.1739187,25.5319149 C19.1837299,23.4643122 17.705926,21.6888446 15.670865,21.3233244 C13.6358041,20.9578042 11.6325127,22.1080273 10.9222383,24.0498276 C10.2119639,25.9916278 11.0002878,28.1629719 12.790891,29.1968085 L12.790891,34.0425532 L17.0462101,34.0425532 L17.0462101,29.1968085 C18.3592556,28.4430318 19.1703426,27.0459345 19.1739187,25.5319149 Z" id="路径" fill="#FBB941"></path>
                    </g>
                </g>
            </g>
        </g>
    </g>
</svg>