<?xml version="1.0" encoding="UTF-8"?>
<svg width="18px" height="19px" viewBox="0 0 18 19" version="1.1" xmlns="http://www.w3.org/2000/svg" xmlns:xlink="http://www.w3.org/1999/xlink">
    <title>返回首页</title>
    <g id="页面-1" stroke="none" stroke-width="1" fill="none" fill-rule="evenodd">
        <g id="默认" transform="translate(-1820.000000, -77.000000)" fill="#FFFFFF" fill-rule="nonzero">
            <g id="返回首页" transform="translate(1820.000000, 77.000000)">
                <path d="M7.97925647,4.68669181 L7.97925647,0.768588362 C8.00107759,0.572198276 7.94773707,0.370959052 7.79741379,0.218211207 C7.53313578,-0.0436422414 7.10883621,-0.0436422414 6.84455819,0.218211207 L0.208512931,7.49434267 C0.067887931,7.6325431 0.0072737069,7.81923491 0.0169719828,8.00107759 C0.0072737069,8.18292026 0.067887931,8.3671875 0.208512931,8.5078125 L6.80818966,15.7427263 C7.05549569,15.9536638 7.50646552,16.0724677 7.79741379,15.7815194 C7.94773707,15.6311961 8.01320043,15.5051185 7.99137931,15.3087284 L7.99137931,11.3227371 C12.375,11.3227371 16.3415948,14.4795259 17.1271552,18.6352371 C17.6581358,17.4181034 17.9539342,16.0748922 17.9539342,14.6613685 C17.9563578,9.15274784 13.4903017,4.68669181 7.97925647,4.68669181 Z" id="路径"></path>
            </g>
        </g>
    </g>
</svg>