<?xml version="1.0" encoding="UTF-8"?>
<svg width="660px" height="780px" viewBox="0 0 660 780" version="1.1" xmlns="http://www.w3.org/2000/svg" xmlns:xlink="http://www.w3.org/1999/xlink">
    <title>灯杆</title>
    <defs>
        <linearGradient x1="100%" y1="50%" x2="1.0270979%" y2="50%" id="linearGradient-1">
            <stop stop-color="#0ECAE9" offset="0%"></stop>
            <stop stop-color="#0CCFEC" stop-opacity="0.296210363" offset="23.9455857%"></stop>
            <stop stop-color="#0BD1ED" stop-opacity="0" offset="51.1713564%"></stop>
            <stop stop-color="#0AD3EE" stop-opacity="0" offset="75.590035%"></stop>
            <stop stop-color="#08D8F1" offset="100%"></stop>
        </linearGradient>
        <circle id="path-2" cx="320" cy="409" r="320"></circle>
        <filter x="-1.1%" y="-0.8%" width="102.2%" height="102.2%" filterUnits="objectBoundingBox" id="filter-3">
            <feGaussianBlur stdDeviation="1" in="SourceGraphic"></feGaussianBlur>
        </filter>
        <filter x="-1.6%" y="-1.2%" width="103.1%" height="103.1%" filterUnits="objectBoundingBox" id="filter-4">
            <feOffset dx="0" dy="2" in="SourceAlpha" result="shadowOffsetOuter1"></feOffset>
            <feMorphology radius="1" operator="erode" in="SourceAlpha" result="shadowInner"></feMorphology>
            <feOffset dx="0" dy="2" in="shadowInner" result="shadowInner"></feOffset>
            <feComposite in="shadowOffsetOuter1" in2="shadowInner" operator="out" result="shadowOffsetOuter1"></feComposite>
            <feGaussianBlur stdDeviation="2" in="shadowOffsetOuter1" result="shadowBlurOuter1"></feGaussianBlur>
            <feColorMatrix values="0 0 0 0 0.031372549   0 0 0 0 0.847058824   0 0 0 0 0.945098039  0 0 0 0 0" type="matrix" in="shadowBlurOuter1"></feColorMatrix>
        </filter>
        <circle id="path-5" cx="320" cy="409" r="320"></circle>
        <filter x="-1.6%" y="-1.2%" width="103.1%" height="103.1%" filterUnits="objectBoundingBox" id="filter-6">
            <feGaussianBlur stdDeviation="2" in="SourceGraphic"></feGaussianBlur>
        </filter>
        <filter x="-2.0%" y="-1.7%" width="104.1%" height="104.1%" filterUnits="objectBoundingBox" id="filter-7">
            <feOffset dx="0" dy="2" in="SourceAlpha" result="shadowOffsetOuter1"></feOffset>
            <feMorphology radius="3" operator="erode" in="SourceAlpha" result="shadowInner"></feMorphology>
            <feOffset dx="0" dy="2" in="shadowInner" result="shadowInner"></feOffset>
            <feComposite in="shadowOffsetOuter1" in2="shadowInner" operator="out" result="shadowOffsetOuter1"></feComposite>
            <feGaussianBlur stdDeviation="2" in="shadowOffsetOuter1" result="shadowBlurOuter1"></feGaussianBlur>
            <feColorMatrix values="0 0 0 0 0.031372549   0 0 0 0 0.847058824   0 0 0 0 0.945098039  0 0 0 0 0" type="matrix" in="shadowBlurOuter1"></feColorMatrix>
        </filter>
    </defs>
    <g id="页面-1" stroke="none" stroke-width="1" fill="none" fill-rule="evenodd">
        <g id="默认" transform="translate(-774.000000, -109.000000)">
            <g id="杆图" transform="translate(747.000000, 110.000000)">
                <g id="灯杆" transform="translate(37.000000, 0.000000)">
                    <path d="M438.133023,0 L451,7.08783288 L448.005928,15.3491824 L448.156541,15.4348595 L431.942622,22.4969806 C431.422282,23.100232 430.512486,23.6382251 429.459824,23.9116999 C429.056123,24.0113815 428.642172,24.0636601 428.22636,24.0674765 L428.044586,24.0700727 L421.361341,26.9746316 C420.854158,27.6095498 419.911382,28.1828327 418.813082,28.4681639 C418.409535,28.5686735 417.995487,28.6209645 417.579618,28.6239405 L417.569231,28.6239405 L410.611272,31.6491241 C410.114578,32.3041079 409.150996,32.9004744 408.023518,33.1933858 C407.619971,33.2938955 407.205923,33.3461864 406.790054,33.3491624 L406.717344,33.3491624 L398.940199,36.7300079 C398.424989,37.3467939 397.50107,37.899707 396.428956,38.1782353 C396.136783,38.2539113 395.838892,38.3044931 395.538532,38.3295364 L360.99608,53.3534673 L345.934836,73.7472135 L345.714111,73.5784556 L360.69096,53.2859641 L359.064086,52.5200627 L349.310632,65.2288327 L349.321068,65.2366749 L349.141772,65.4589962 L349.11977,65.4417273 L341.741058,62.2976373 L351.43998,48.9268171 L370.578148,40.1124608 L378.822881,44.0847627 L359.408158,52.3655843 L360.88005,53.0600558 L360.857153,53.1055229 L394.817751,38.3334963 C394.432613,38.2915229 394.060069,38.1637129 393.728319,37.9575519 C393.513115,37.7987114 393.369849,37.563239 393.326009,37.3026627 L393.351788,37.3214643 C393.093445,37.1445181 392.934441,36.8554751 392.923322,36.5425816 C392.923322,35.5819596 394.221705,34.5045051 395.870652,34.0761196 C396.793079,33.7477624 397.811189,33.8231637 398.675159,34.2838217 C398.904957,34.4535454 399.039967,34.7226363 399.038745,35.0081747 L398.960804,34.945872 C399.177654,35.0951976 399.322085,35.3256681 399.364007,35.5818162 L399.376286,35.7117733 C399.376286,35.9029631 399.324855,36.0987807 399.229465,36.293188 L406.12976,33.294675 C405.848908,33.2318941 405.579782,33.1190393 405.335865,32.959721 C405.130122,32.8210056 404.987071,32.6105019 404.931839,32.3731216 L404.972317,32.4015217 C404.713974,32.2245755 404.55497,31.9355325 404.543851,31.622639 C404.543851,30.662017 405.842234,29.5845625 407.491181,29.156177 C408.413608,28.8278198 409.431718,28.9032211 410.295688,29.3638791 C410.516223,29.5231933 410.653063,29.7723127 410.670398,30.0420939 C410.822393,30.1895336 410.924455,30.384093 410.958575,30.5954294 L410.970848,30.7269238 C410.970848,30.8930464 410.932018,31.0626631 410.859263,31.2318125 L416.960197,28.5806515 C416.660029,28.5204355 416.372094,28.4036308 416.112445,28.2344991 C415.921518,28.0973956 415.786905,27.8989306 415.728473,27.6757246 C415.472604,27.5039037 415.312063,27.2120679 415.307447,26.8974171 C415.307447,25.936795 416.60583,24.8593406 418.254777,24.4309551 C419.177204,24.1025979 420.195315,24.1779992 421.059285,24.6386571 C421.268282,24.7930181 421.398874,25.0295718 421.419885,25.2859384 L421.344929,25.2228192 C421.552334,25.3759028 421.69292,25.600164 421.742082,25.849477 L421.760412,26.0017019 C421.760412,26.1814203 421.714967,26.3652278 421.630284,26.5481093 L427.495269,23.9990342 C427.235413,23.9340324 426.986463,23.8260801 426.759187,23.6780351 C426.553254,23.5362277 426.412633,23.3212405 426.363092,23.0805775 L426.382656,23.0938731 C426.120943,22.9183242 425.957343,22.6296722 425.941205,22.3149903 C425.941205,21.3543683 427.239588,20.2769138 428.888535,19.8485283 C429.815265,19.5195927 430.837572,19.5949557 431.706026,20.0562304 C431.917477,20.2194091 432.048319,20.4646154 432.067274,20.7293046 L431.991671,20.6663552 C432.240557,20.8500555 432.393223,21.1362515 432.407153,21.4452379 C432.407153,21.6461995 432.350331,21.8522743 432.245362,22.0564499 L447.507349,15.4088967 L436.120529,9.02205833 L349.583293,47.9272509 L345.94782,52.9627278 L346.286178,53.1590062 L346.143356,53.4046139 L345.780328,53.1937963 L311.021313,101.332644 L310.956394,101.332644 L303.659481,102.085564 L305.477217,102.877428 L306.872979,102.709968 L312.872807,101.946663 L339.17026,65.7636655 L340.780255,66.4646599 L340.6634,66.7372689 L339.261146,66.1141627 L324.311563,86.6896483 L324.32974,86.6896483 L324.32974,98.9051258 L331.889492,88.6987737 C331.813652,88.6233028 331.734651,88.5506672 331.652621,88.4810786 C331.621961,88.4678229 331.595798,88.4331005 331.573861,88.3792533 L331.509799,88.4031903 C331.479081,88.2849953 331.477423,88.1627337 331.50302,88.0462295 C331.364872,86.6836376 331.902783,82.5289228 332.49657,81.0557298 C334.083297,78.1501561 336.264308,75.6112838 338.897599,73.6044183 L340.351788,72.7476473 L340.637433,67.0098779 C340.706022,66.6046035 340.941533,66.2466934 341.286624,66.0232931 C342.050677,65.6272581 342.934341,65.5406202 343.755841,65.7746837 L344.000245,65.8545351 C344.065164,65.8545351 344.584517,66.2439765 344.584517,66.6334179 L344.583219,68.131469 L346.778785,69.0998799 L344.688388,71.9168391 L344.583219,71.8350564 L344.584517,72.9034239 C346.02193,73.8694538 347.38869,74.9366275 348.674424,76.0968431 C350.63467,77.8702622 352.037491,80.1747841 352.712396,82.7303277 C353.194418,84.3036251 353.43949,85.9399082 353.43949,87.5853634 C353.409442,88.1378057 353.051388,88.6185302 352.530622,88.805613 C352.007978,89.7257199 351.71825,90.7596285 351.686673,91.8172929 C351.686673,93.5438163 351.543851,97.5031369 351.43998,99.3205299 C351.453277,100.222414 351.113085,101.0937 350.492161,101.748048 C350.133014,102.056816 349.666193,102.210837 349.193778,102.176433 C348.790898,102.895645 348.268395,103.540967 347.648702,104.084696 C346.145057,105.411043 344.200436,106.128565 342.195492,106.09681 L342.182509,106.122821 C340.141033,106.130227 338.192199,105.271581 336.820186,103.760162 L336.638564,103.761328 C336.377934,103.759028 335.956193,103.726487 335.491783,103.480693 L335.482852,103.487553 L335.447716,103.456794 C334.992429,103.203863 334.500135,102.742741 334.080598,101.903824 C333.577261,100.454243 333.271556,98.9434684 333.17173,97.4122672 C333.17173,95.7847023 333.118022,92.7699547 333.018039,91.2586518 L324.32974,103.020223 L324.328442,103.827665 L325.770946,104.370286 L325.770946,105.850164 L324.328442,105.362064 L324.328442,107.013295 L325.822881,107.576687 L325.770946,109.030601 L324.328442,108.542502 L324.32974,109.822465 L324.275208,109.822465 L334.586967,113.587065 L334.755757,119.493593 L334.732386,119.492295 L334.911563,119.5585 L329.366169,120.304929 L329.366169,122.989478 L330.042626,123.206267 L325.835865,123.349062 L325.835865,124.269442 L329.00392,125.40012 L329.00392,132.942301 L325.602156,133.422612 L325.602156,135.909844 L329.00392,137.096343 L329.00392,144.461977 L329.510289,144.625542 L325.796913,145.131816 L325.795615,344.97625 L328.069084,345.076206 L328.069084,336.230695 C328.076225,333.000249 330.693735,330.383233 333.924792,330.376093 L379.887555,330.376093 C380.446347,330.377331 380.986716,330.456794 381.498302,330.604103 L381.49755,330.428018 L383.315287,330.428018 C386.544233,330.435176 389.158011,333.054276 389.158011,336.28262 L389.158011,452.180371 C389.129559,455.388428 386.524069,457.97606 383.315287,457.983047 L381.030132,457.983047 L381.031398,457.868813 C380.661537,457.942912 380.279068,457.982179 379.887555,457.983047 L333.924792,457.983047 C330.693735,457.975908 328.076225,455.358892 328.069084,452.128446 L328.069084,439.393713 L325.835865,439.393713 L325.835865,640.202663 L329.055855,640.747881 L329.04417,640.808893 L329.224645,640.747881 L329.224645,648.536708 L325.84755,649.728399 L325.84755,651.941724 L329.018202,652.541464 L329.172709,652.483047 L329.172709,660.284856 L325.835865,661.546646 L325.835865,661.977628 L330.368755,662.455836 L330.354238,662.591647 L330.613915,662.504672 L330.613915,664.283121 L336.860436,665.369662 L336.924057,665.347594 L336.937041,665.382644 L337.10583,665.412501 L337.10583,672.383501 L333.963743,673.681639 L333.963743,746.525349 L335.797646,746.895866 L335.78148,746.974504 L335.976237,746.883635 L335.976237,750.713142 L338.326311,749.817426 L347.811,761.864146 L347.94733,761.799239 L347.94733,768.108189 L327.186183,778 L277.302303,770.315024 L277.301004,764.261807 L277.289319,764.25272 L277.301004,764.235844 L277.302303,764.174831 L277.346448,764.174831 L287.286869,750.959788 L323.461122,755.939445 L323.27805,752.992672 L289.766781,747.857238 L289.766781,751.219415 L289.481137,751.219415 L289.481137,747.519722 L289.643435,747.544387 L291.72734,746.613622 L291.72734,673.746546 L288.156786,673.266235 L288.156786,666.178402 L288.26585,666.147247 L288.27364,666.100514 L288.3866,666.113495 L295.012249,664.257158 L295.012249,662.322933 L295.084958,662.330721 L295.077168,662.29697 L300.009726,661.093596 L300.009726,660.206968 L296.531357,659.856471 L296.531357,652.301308 L299.842234,652.576513 L299.842234,648.461416 L296.60926,648.069379 L296.60926,640.501235 L299.801984,640.81149 L299.801984,438.822532 L297.815458,438.822532 L297.816756,450.272108 C297.852899,453.366554 295.380484,455.908134 292.285644,455.957952 L290.130328,455.957952 L290.130244,455.787648 C289.675153,455.899878 289.204608,455.957952 288.728074,455.957952 L245.998285,455.957952 C242.769339,455.950794 240.155561,453.331695 240.155561,450.10335 L240.155561,337.944237 C240.155561,334.715892 242.769339,332.096793 245.998285,332.089635 L288.728074,332.089635 C291.962093,332.089635 294.583782,334.71083 294.583782,337.944237 L294.583782,450.10335 C294.583782,451.656087 293.966844,453.145229 292.868685,454.24318 C292.207513,454.904227 291.40451,455.390869 290.531186,455.67349 L292.285644,455.672362 C295.202312,455.594517 297.515711,453.189036 297.479177,450.272108 L297.477878,438.822532 L295.466683,438.822532 L295.466683,431.007742 L297.477878,431.007742 L297.477878,352.704065 L295.817246,352.704065 L295.817246,345.071014 L297.477878,345.071014 L297.479177,337.775479 C297.522778,334.855762 295.205377,332.44612 292.285644,332.375225 L290.571779,332.375225 L290.571779,332.089635 L292.285644,332.089635 C293.773294,332.110149 295.191845,332.720752 296.22916,333.787087 C297.266476,334.85342 297.837562,336.288114 297.816756,337.775479 L297.815458,345.071014 L303.958109,345.071014 L307.828589,340.787159 L307.559682,148.119348 L307.616952,148.118831 L304.256737,144.716412 L300.087629,145.131816 L300.088927,345.006107 L299.803283,345.006107 L299.803283,146.39101 L296.284664,144.820263 L296.817001,144.820263 L296.817001,137.35597 L299.805879,137.052206 L299.881186,133.383668 L296.817001,133.643296 L296.817001,125.659748 L299.89417,125.310549 L299.89417,123.377621 L296.349584,123.725522 L296.348285,121.124054 L290.299118,119.143096 L290.830157,119.082083 L290.831455,113.197624 L290.94831,113.184643 L301.139319,112.046176 L301.140617,111.354268 L299.712396,111.354268 L299.712396,109.848428 L299.842234,109.835447 L301.140617,109.687459 L301.140617,108.271191 L299.699412,108.446439 L299.699412,106.836748 L301.140617,106.652413 L301.140617,105.060896 L299.647477,105.240039 L299.647477,103.630348 L301.140617,103.439521 L301.140617,99.7683875 L269.841793,64.6589501 L244.148089,58.7316525 L244.072637,58.8346533 C243.359876,59.7312417 242.270907,60.2555952 241.116365,60.2465795 L241.116365,60.2465795 C240.793123,60.2499261 240.470619,60.2150673 240.155561,60.1427284 C239.001753,59.9524842 237.97264,59.3070718 237.299118,58.3512981 C237.115563,58.0670793 237.031291,57.7338461 237.053424,57.4024611 L237.052425,57.4036575 C236.481745,57.8015992 235.800552,58.0104589 235.104851,58.0008009 C234.667745,57.9952241 234.232483,57.9430026 233.806467,57.8450244 C231.755022,57.3776947 230.132043,55.9886872 230.183978,54.7424748 L230.183978,54.5996796 C230.261881,54.4309217 230.365752,54.2491824 230.49559,54.2102383 C231.637035,54.0956845 232.788536,54.1983414 233.889485,54.5113842 L234.299853,54.6386238 C236.195492,55.0540279 237.454924,55.3266369 237.714601,56.0925382 C237.770777,56.1841378 237.770777,56.2995103 237.714601,56.3911099 L237.623714,56.3911099 C237.605958,56.596791 237.543298,56.7934262 237.442824,56.9684488 C238.123457,57.0713 240.42202,57.4287968 242.427732,57.832043 C243.034855,57.9580231 243.629986,58.1360944 244.206516,58.3642795 L244.310387,58.3642795 L244.275331,58.4681305 L269.512004,64.2889808 L268.074694,62.6766936 L258.592602,60.8956484 L250.711416,57.8969499 L250.789319,57.6243409 L266.015458,60.3673063 L265.629838,59.9350264 L194.500514,46.9770139 L203.144109,48.9714973 L203.118491,49.0792638 C204.038812,49.0549809 204.957996,49.1706416 205.844409,49.4226837 L206.254777,49.5499232 C208.150416,49.9653274 209.409848,50.2379363 209.669525,51.0168191 C209.72339,51.1043992 209.72339,51.2148292 209.669525,51.3024094 L209.578638,51.3673163 C209.550535,51.618318 209.456768,51.8545503 209.310219,52.0539768 L209.305977,52.0034039 C209.305977,53.1587466 210.604361,54.3919776 212.461049,54.8073817 C213.490856,55.0922147 214.58653,54.9183551 215.472191,54.343759 C215.301907,54.3193349 215.133694,54.287819 214.966928,54.2491824 C212.915483,53.7818528 211.292504,52.3928452 211.344439,51.1596142 L211.344439,51.0168191 C211.344439,50.8350798 211.526213,50.6533405 211.656051,50.6273777 C212.79753,50.5051287 213.950497,50.6070952 215.050445,50.9260134 L215.460314,51.0557632 C217.355953,51.4711673 218.615385,51.7567577 218.875061,52.522659 C218.931238,52.6142586 218.931238,52.7296311 218.875061,52.8212307 L218.784174,52.8212307 C218.757035,53.2276097 218.54071,53.5976957 218.199902,53.8207969 C217.63324,54.2155532 216.955794,54.4201124 216.265311,54.404959 C216.144702,54.4036142 216.024232,54.3986647 215.90406,54.3901297 L216.005634,54.3011079 C215.318189,54.9332851 214.406843,55.2650459 213.473787,55.2227858 C213.110701,55.2222237 212.748959,55.1786486 212.396129,55.092972 C210.575801,54.6766357 209.202463,53.529991 209.03536,52.3322349 L208.994366,52.3668825 L208.994366,52.3668825 C208.423064,52.7478735 207.745987,52.9386913 207.059775,52.9121004 C206.622622,52.9072261 206.187286,52.8549957 205.761391,52.7563238 C203.709946,52.2889942 202.086967,50.8999867 202.138902,49.6667557 L202.138902,49.5109791 C202.186756,49.344855 202.298916,49.2046811 202.450514,49.1215377 L202.507643,49.1176433 L188.479994,45.882445 L188.376041,45.8632116 L186,38.8143229 L186.220725,38.8273043 L274.199167,46.1747647 L274.205659,46.1838517 L276.159726,46.6031502 L278.392945,49.7965694 L284.534297,50.2898618 L286.585742,50.8870053 L286.61171,50.9259494 L303.651517,75.3123442 C303.712994,75.2329749 303.75962,75.1826266 303.763351,75.1751652 C303.925366,75.0041819 304.243373,74.7536579 304.845515,74.4992758 L307.032371,71.0375336 C305.566233,71.3214376 304.656088,71.6734898 304.386575,71.9557832 C304.256737,72.0985784 303.971093,72.3971501 304.048996,72.7087032 C304.126899,73.0202563 304.412543,73.2539211 305.451249,73.5265301 L305.243508,73.8121204 C304.295688,73.5524928 303.776335,73.2279584 303.646497,72.7865915 C303.595389,72.4009866 303.741784,72.015552 304.036012,71.7610625 C304.178662,71.6132527 304.435296,71.4638888 304.792976,71.31949 L305.552523,70.1189181 L305.473239,70.0984114 C304.284897,69.7858736 303.685448,69.4062404 303.685448,68.9700661 C303.685448,68.7588889 303.833577,68.5647207 304.101872,68.3882286 L304.087947,68.3729226 C304.50316,67.9417245 304.931166,67.523467 305.371333,67.1186865 C304.230954,66.838109 303.685448,66.5005841 303.685448,66.0882 C303.685448,65.8855867 303.838123,65.7000769 304.114212,65.5321357 L304.100931,65.5170193 C304.470315,65.1601521 304.848973,64.8133644 305.236475,64.4769957 C304.267996,64.2487949 303.685448,63.9911998 303.685448,63.5178869 C303.685448,63.3135853 303.840678,63.1266731 304.12114,62.9576278 L304.100931,62.9337249 C305.462281,61.6185062 306.949582,60.4401952 308.541401,59.4157712 C311.488034,59.0133517 314.47571,59.0133517 317.422342,59.4157712 C318.854398,60.4413036 320.161651,61.6306793 321.317491,62.9596876 L321.301412,62.97614 C321.56286,63.1402898 321.707006,63.3210145 321.707006,63.5178869 C321.707006,63.888992 321.254302,64.1938601 320.328526,64.4630323 C320.671567,64.8105355 321.000937,65.1709444 321.317491,65.542982 C321.565812,65.7143244 321.707006,65.8933536 321.707006,66.0882 C321.707006,66.4879591 321.009601,66.6833445 320.042928,66.940448 C320.43346,67.3478296 320.810042,67.7698106 321.171375,68.2051324 L340.105096,36.2569913 L340.157031,36.2440099 L438.133023,0 Z M277.03932,764 L277,769.94372 L326.896459,778 L327,772.100206 L277.03932,764 Z M347,762 L327.100772,771.567943 L327,777 L347,767.515355 L347,762 Z M287.664641,752 L278,764.582781 L327,772 L323.48453,756.831284 L287.664641,752 Z M337.601802,750 L335.125143,750.941332 L323,756.12261 L326.587879,772 L347,762.00791 L337.601802,750 Z M335,748 L323,753.254057 L323.168308,756 L335,751.262855 L335,748 Z M334.474577,747 L334.474577,747.716359 L334.382287,747.716359 L323.228375,752.597625 L291.586071,747.676781 L291.586071,747.113456 L290,747.823219 L323.738607,753 L336,747.310026 L334.474577,747 Z M334,674 L324.107151,677.519001 L324.067421,677.519001 L323.147002,677.420712 L323,752 L334,747.278253 L334,674 Z M293.02529,674 L293,747.257308 L322.859642,752 L323,677.314576 L293.02529,674 Z M295.152947,677 L319,679.88756 L319,748 L295,744.315421 L295,677 L295.152947,677 Z M296,678 L296,744.412256 L320,748 L320,680.820799 L296,678 Z M331.079907,691.24826 C331.985864,691.864701 331.971938,693.431488 331.971938,693.521385 L331.973688,717.254316 C331.992598,717.359704 332.001471,717.467128 331.999801,717.57542 L331.999801,727.361418 C331.999801,727.361418 331.992561,727.382149 331.973392,727.419133 L331.971938,728.388819 C331.971938,728.568614 331.707108,732.601165 329.463123,732.896543 L329.04499,732.999283 C328.779617,733.005911 328.517496,732.96651 328.271531,732.885119 L328.403851,732.858015 C328.23881,732.89471 328.071127,732.92046 327.902091,732.93507 L327.902091,732.93507 C327.238675,732.962947 326.586254,732.771672 326.062302,732.395684 C325.366494,731.768315 324.983128,730.903805 325.00303,730.006976 L325.00303,694.985432 L325.00303,694.985432 C324.929957,693.209096 326.185327,691.617282 328.041469,691.132677 C328.647003,691.044558 329.260268,691.009915 329.872917,691.029211 C330.28713,690.952077 330.72141,691.028585 331.079907,691.24826 Z M331.734434,729.184009 L332,729 C330.571677,730.039976 328.830551,730.673951 327,730.822757 C327.107952,731.496831 327.444786,732.130079 327.969559,732.634399 C328.110075,732.731261 328.263076,732.809681 328.424039,732.868689 L328.482021,732.857673 L328.482021,732.857673 L328.48249,732.889148 C328.815114,733.000126 329.178691,733.029599 329.534644,732.96931 C331.172326,732.753924 331.626319,730.113053 331.734434,729.184009 Z M325,731 L325.018709,731.140423 C325.140491,731.973633 325.540865,732.753147 326.168844,733.356723 C326.704369,733.743879 327.342848,733.964468 328,734 L327.899068,733.926595 L327.899068,733.926595 C327.127393,733.170215 326.644619,732.193153 326.517203,731.152868 C326.11926,731.127296 325.376497,731.04175 325,731 Z M326.856125,696 L325.138125,696 L325.138125,730.796046 L325.138125,730.796046 L325.140125,730.887242 L326.861875,731 C326.858953,730.949265 326.857675,730.898397 326.858057,730.847424 L326.856125,696 Z M331.806094,694.110911 L332,694 C330.568111,694.866276 328.921044,695.365515 327.221607,695.448371 C327.148303,695.453565 327.074835,695.456005 327.001377,695.455695 L327,730.848639 L327,730.848639 L327.006925,731 L327.226069,730.9842 C328.894434,730.811828 330.481787,730.204381 331.807637,729.226681 L331.80667,728.589143 C331.449474,728.962004 330.682186,729.493213 329.091413,729.778671 L328.620499,729.817816 C328.200055,729.862136 327.790165,729.674139 327.567867,729.335026 L327.567867,719.379108 C327.5714,719.092532 327.632494,718.809176 327.747922,718.544012 C328.08685,717.782601 328.793845,716.524177 329.938188,716.37876 L330.157895,716.364932 C330.678269,716.368359 331.175669,716.567306 331.539716,716.917622 C331.642583,717.016608 331.732398,717.125367 331.808158,717.24153 L331.806094,694.110911 Z M329.748692,716 C328.879645,716 328.317944,717.410159 328.116579,718.016368 C328.04132,718.251272 328.001791,718.501511 328,718.754361 L328,728.71727 C328.038662,728.784576 328.161951,728.964126 328.464539,729 L328.466318,721.179196 C328.469181,720.531881 328.794226,719.954474 329.282374,719.729566 L330.999272,718.94413 L330.999272,717.594657 C331.010849,717.174373 330.883869,716.766446 330.647752,716.465376 C330.445366,716.207317 330.177851,716.046961 329.892585,716.00879 L329.748692,716 Z M331,720 L328.858836,720.703895 C328.356584,720.885133 328.0215,721.308446 328.00237,721.785874 L328,729 C328.073436,728.994387 328.15238,728.984862 328.237208,728.970704 C330.502697,728.605992 331,727.754997 331,727.682054 L331,720 Z M330.331087,717.057221 C330.731075,717.198833 330.998025,717.578169 330.996718,718.003081 C331.037459,718.483624 330.694423,718.911592 330.217177,718.975626 C329.803251,719.068756 329.375764,718.889703 329.151256,718.529163 C328.926749,718.168624 328.954257,717.705348 329.219846,717.374001 C329.485437,717.042654 329.931098,716.91561 330.331087,717.057221 Z M330.01,717.02 C329.63,717.02 329.29,717.46 329.29,718 C329.29,718.54 329.63,718.98 330.01,718.98 C330.39,718.98 330.71,718.54 330.71,718 C330.71,717.46 330.49,717.02 330.01,717.02 L330.01,717.02 Z M330.88632,696.039842 C330.961398,696.109033 331.003955,696.220803 330.99971,696.337647 L330.99971,712.276727 C330.989989,712.511325 330.873639,712.717948 330.700772,712.807598 L328.381427,713.947028 C328.343435,713.972787 328.300901,713.986144 328.257729,713.985872 C328.210793,714.004709 328.160351,714.004709 328.113414,713.985872 C328.041381,713.919314 327.999194,713.813334 328,713.701015 L328,697.710143 C328.012963,697.473827 328.127616,697.265254 328.298962,697.166324 L330.618307,696.039842 C330.702639,695.986719 330.801987,695.986719 330.88632,696.039842 Z M330.938776,696 L328.183673,697.178571 C328.079521,697.227841 328.008832,697.336083 328,697.459821 L328,714 L328.061224,714 L330.816327,712.821429 C330.920479,712.772159 330.991168,712.663917 331,712.540179 L331,696.066964 L330.938776,696 Z M330.555236,692.001091 L330.555236,692.001091 C330.351612,692.005614 330.150133,692.035117 329.958067,692.088533 C328.369591,692.530031 327.279244,693.679297 327.185633,694.996754 L327,694.995959 C328.782283,695.045461 330.53648,694.639044 332,693.838199 C331.987957,693.589524 331.90545,692.557972 331.23573,692.165044 C331.040392,692.049207 330.79949,691.991165 330.555236,692.001091 Z M329,692 L328.976087,692.000329 C328.735385,692.013004 328.495278,692.036139 328.256501,692.069693 C326.898005,692.439488 325.973001,693.645373 326.000601,695 L326.974945,694.999199 L326.981865,694.878173 C327.081451,693.638999 327.853681,692.547109 329,692 Z M288,667 L288,673.261139 L291.520869,673.706683 L291.520869,673.714109 L322.938545,677 L323,670.944307 L288,667 Z M337,666 L324.062474,670.76066 L324,677 L333.823108,673.550598 L333.829755,673.571047 L337,672.31091 L337,666 Z M294.923439,664 L289,665.748533 L323.710247,670 L336,665.048307 L330.276111,664.013544 L330.276111,665.503386 L321.843482,668.334086 L294.923439,665.354402 L294.923439,664 Z M295.105115,662 L295,665.051078 L322,668 L322,665.074234 L295.105115,662 Z M330,663 L322,665.487544 L322,668 L330,665.657177 L330,663 Z M312.899119,659 L312.899119,662.12311 L308.432391,663.263499 L308.405804,663.263499 L300.283273,662.447084 L300.283273,661.073434 L296,662.095896 L322.949256,665 L331,662.387473 L326.724704,661.948164 L326.724704,663.030238 L322.218095,664.546436 L322.191507,664.546436 L314.068976,663.730022 L314.068976,660.555076 L312.899119,659 Z M313,662 L313,664.286564 L321,665 L321,663.447087 L313.71848,662.919144 L313,662 Z M325,661 L321.57329,662.35129 L321,662.301041 L321,664 L325,662.568583 L325,661 Z M308,657 L304.491883,660.395959 L300,659.972915 L300,660.755804 L300.001382,660.757094 L300.001382,662.227429 L308,663 L308,657 Z M309.38196,655 L308,656.48448 L308.040378,656.48448 L308.039075,663 L312,661.923077 L312,658.500675 L309.38196,655 Z M309.397441,648 L304.57263,652.953538 L304.508127,652.941029 L297,652.3406 L297,659.070407 L304.533928,659.808435 L309.565148,654.767334 L312.13236,657.972123 L312.13236,657.957112 L312.3607,658.258578 L312.390371,658.294853 L312.389081,658.296104 L313.808143,660.172445 L313.809433,660.171194 L314.673771,661.409578 L322,662 L322,655.066297 L314.44156,654.379557 L312.13623,651.463724 L312.13236,651.464975 L312.13107,651.45747 L309.397441,648 Z M329,653 L322,655.330519 L322,662 L329,659.68275 L329,653 Z M313,649 L313,654.301303 L313.666741,655.230456 L321.440938,656 L324.986665,654.567793 L324.987999,652.408795 L325,652.411645 L325,650.150041 L321.814313,651.354235 L320.89421,651.27158 L320.89421,655.900244 L320.600845,655.900244 L320.600845,651.244503 L314.280142,650.684446 L313,649 Z M308.5,651 C309.328427,651 310,651.671572 310,652.5 C310,653.328428 309.328427,654 308.5,654 C307.671573,654 307,653.328428 307,652.5 C307,651.671572 307.671573,651 308.5,651 Z M308.499919,651 C307.891638,651.000042 307.343609,651.367438 307.112513,651.930112 C306.881417,652.492786 307.013016,653.139314 307.445673,653.566882 C307.87833,653.994449 308.52637,654.118389 309.086268,653.88065 C309.646166,653.642912 310.007052,653.090572 309.999895,652.482332 C309.99023,651.660817 309.32149,650.999944 308.499919,651 Z M326.001463,652 L326,654 L329,652.666093 L326.001463,652 Z M312.029,646 L312.029,651.190321 L313.971,653 L313.971,647.706759 L312.029,646 Z M308,645 L303.892549,649.098797 L300,648.654212 L300,652.658011 L304.379118,653 L308,649.404053 L308,645 Z M309.23057,643 L308,644.301546 L308.025907,644.301546 L308.024611,648.756443 L309.243523,647.471649 L311.962435,651 L311.963731,646.389175 L312,646.387887 L309.23057,643 Z M311.239482,585 L307.511327,585 L302.177994,641.647721 L297,641.152753 L297,648.16045 L303.847896,649.007105 L309.38835,643.067496 L315.355987,650.400829 L322.527508,651 L329,648.681468 L329,641.426288 L322.268608,643.731794 L316.883495,643.067496 L316.883495,642.963292 L311.239482,585 Z M314.033,584 L312,584.693965 L317.561157,642.377377 L322.617923,643 L329,640.80266 L326.144793,640.316236 L321.858765,641.884467 L319.684226,641.391558 L319.684226,641.287787 L314.033,584 Z M321,439 L313.430833,439 L313.039917,439.431338 L313.226604,583.035712 L313,583.035679 L313.072953,583.910084 L319.129387,641.599937 L321,642 L321,439 Z M325,439 L322.789068,439 L321.001286,439.091185 L321,642 L325,640.530619 L325,439 Z M304.571998,439 L300.001329,439 L300,641.830562 L301.75519,642 L307.229364,585.342472 L307.282511,585.341169 L307.269224,585.303371 L307.998671,585.063551 L308,443.496629 L304.571998,439 Z M309.5,635 C310.880712,635 312,636.119288 312,637.5 C312,638.880712 310.880712,640 309.5,640 C308.119288,640 307,638.880712 307,637.5 C307,636.119288 308.119288,635 309.5,635 Z M309,636 C307.89543,636 307,636.89543 307,638 C307,639.10457 307.89543,640 309,640 C310.10457,640 311,639.10457 311,638 C311,636.89543 310.10457,636 309,636 Z M312.956161,583 L311.866114,583 L308,585 L310.969194,585 L313,583.946315 L312.956161,583 Z M308,444 L308,585 L311.559444,583.704583 L311.560642,445.118355 L311.824305,445.118355 L311.823106,583.656411 L313,583.656411 L312.843001,444.75642 L309.091802,445.261567 L308,444 Z M380.451672,331 L334.561292,331 C331.492833,331.007135 329.007127,333.49559 329,336.567443 L329,431.759044 L329.012963,431.759044 L329.012963,439.70141 L329,439.70141 L329,452.432557 C329.007127,455.50441 331.492833,457.992865 334.561292,458 L380.451672,458 C383.518024,457.992844 386,455.50231 386,452.432557 L386,336.567443 C386,333.49769 383.518024,331.007156 380.451672,331 Z M383.818185,331.001755 L382,331 C384.614758,331.761354 386.504674,333.968338 386.504674,336.571367 L386.504674,452.481615 C386.504674,455.0267 384.697964,457.193175 382.173528,458 L383.818185,458 C387.234641,457.992138 390,455.500633 390,452.429684 L390,336.571367 C390,333.500418 387.234641,331.008914 383.818185,331.001755 Z M288.41514,333 L245.571842,333 C242.492494,333.007141 240,335.492373 240,338.555591 L240,450.444409 C240,453.507627 242.492494,455.992859 245.571842,456 L288.41514,456 C291.496603,455.99288 293.992842,453.509723 294,450.444409 L294,338.555591 C294,335.487322 291.499573,333 288.41514,333 Z M381,339 L381,449 L332,449 L332,339 L381,339 Z M381,339 L332,339 L332,448 L381,448 L381,339 Z M290,342 L290,445.256957 L244,446 L244,342 L290,342 Z M290,343 L245,343 L245,446 L290,445.195617 L290,343 Z M312.995739,441 L310,445 L313,444.571342 L312.995739,441 Z M304.270274,431 L298,431 L298,438.676887 L299.969518,438.676887 L299.970805,438.676887 L304.823799,438.676887 L308.286545,443.615959 L308.285258,443.617335 L309.508161,445 L314.002008,439.392296 L321.235158,439.39092 L323,439.295991 L322.998713,431.467767 L314.825859,431.467767 L309.316359,437.273585 L304.270274,431 Z M329,432 L324.001366,432 L324,440 L329,440 L329,438.070423 L326.200219,438.070423 L326.200219,433.774648 L329,433.774648 L329,432 Z M298,431 L296,431 L296,439 L298,439 L298,431 Z M328,434 L325,434.001149 L325,437 L328,436.998851 L328,434 Z M307,434 L309.872545,437 L313,434.233607 L307,434 Z M309.396964,347 L304.320085,352.795919 L300,352.795919 L300,431.359926 L304.3607,431.359926 L306.441543,433.692621 L308.151436,433.764256 L308.151436,350.334281 L312.632627,350.334281 L312.632627,350.490576 L312.781549,433.958321 L312.889783,433.963168 L312.887148,434 L314,432.945013 L314,351.578125 L309.396964,347 Z M308,351 L308,433.83134 L312,434 L311.852349,351.012974 L308,351 Z M313,352 L313,432 L313.913118,431.148772 L321,431.148772 L321,352.602309 L313.763203,352.74547 L313,352 Z M323.221481,352 L322,352.031118 L322,431 L325,431 L325,352.156885 L323.221481,352 Z M325,353 L325,432 L328,432 L328,353.170233 L325,353 Z M300,353 L298,353 L298,431 L300,431 L300,353 Z M298,345 L296.037771,345.001287 L296,352 L298,351.998713 L298,345 Z M309.383044,340 L308.201142,341.343377 L308.201786,341.578594 L307.994084,341.578665 L304.238747,345.849343 L298,345.848028 L298,352.998686 L304.225886,353 L309.164412,347.006067 L314.66881,352.82912 L323,352.649039 L322.966562,345.637715 L314.270127,345.639029 L309.383044,340 Z M323,345 L323.035931,352.624151 L325.23466,352.789925 L325.236042,352.771347 L325.540077,352.771347 L325.538695,352.81279 L328,353 L328,351.242229 L325.291321,351.242229 L325.291321,346.854948 L328,346.854948 L328,345.225795 L323,345 Z M328,347 L325,347 L325,350 L328,350 L328,347 Z M322.075901,142 L321,142.100296 L321,344.897098 L322.8463,344.898401 L325.235863,345 L325.237192,144.227363 L328,143.862648 L322.075901,142 Z M312.928837,340.00121 L309,340 L314.012939,345 L316,344.99879 L312.928837,342.143549 L312.928837,340.00121 Z M321,142 L313.890435,142.638423 L313.194783,143.471488 L313.194783,150.20348 L313,338.642175 L313,340.822157 L316.229217,344 L321,344 L321,142 Z M308,149 L308.255005,341 L309.388358,339.68064 L309.44133,339.745505 L312,339.745505 L312,151.189853 L309.512781,150.517848 L309.474592,150.572335 L308,149 Z M312.1,150 L312.1,339 L313.62,339 L313.9,150.300502 L312.1,150 Z M313,144 L309,149.003676 L313,150 L313,144 Z M322.885374,135 L315.245376,135.720662 L310.183813,142.083153 L305.212405,136.75378 L298,137.471922 L298,144.464363 L300.962238,144.464363 L300.96095,144.485781 L305.212405,144.073794 L310.170934,149 L314.279429,143.835673 L314.279429,143.821814 L314.291021,143.821814 L315.065066,142.851692 L323,142.084413 L322.885374,135 Z M297,145.23 L300,146.77 L300,145.27 L297,145.23 Z M323,135 L323.10984,142.079006 L329,144 L329,137.125596 L323,135 Z M308,137 L308,140.441069 L309.355343,142 L312,138.427704 L309.410947,138.427704 L309.366927,138.488457 L308,137 Z M304.637137,133 L300.086156,133.343768 L300,137.046485 L304.706618,136.595127 L304.762203,136.64761 L308,140 L308,136.301218 L304.637137,133 Z M312.936382,133 L309,138 L311.960901,138 L313,136.671053 L312.936382,136.671053 L312.936382,133 Z M323,123 L315.723977,123.710062 L310.24754,129.810777 L305.353703,124.646687 L298,125.45674 L298,132.696592 L300.912998,132.456107 L300.981616,132.451044 L301.068358,132.44345 L305.418436,132.101709 L310.234593,137 L315.387364,130.53223 L323,129.98671 L323,123 Z M321,131 L313.957915,131.458099 L313,132.519668 L313,136 L313.577566,135.354996 L321,134.739311 L321,131 Z M321.876473,131 L321,131.063819 L321,135.044022 L321.916863,134.959364 L325,136 L325,131.987236 L321.876473,131 Z M325,131.051 L325,132.949 L328,132.377 L325,131.051 Z M323,123 L323,130.014185 L329,132 L329,125.160253 L323,123 Z M312,122 L308,122.46805 L308,128.34875 L309.481013,130 L312,127.038732 L312,122 Z M308,122 L300,122.915014 L300,125.032578 L304.766257,124.487252 L304.822496,124.543909 L308,128 L308,122 Z M313.879,122 L312.121,122.134084 L312.121,127 L313.879,125.659158 L313.879,122 Z M321,121 L313,121.829902 L313,125 L314.136332,123.816598 L321,123.183085 L321,121 Z M321.368354,121 L321,121.037945 L321,123.084585 L321.975949,122.992095 L324.988608,124 L324.988608,123.003953 L325,123.002767 L325,122.083794 L321.368354,121 Z M322,116 L297,118.99839 L297,123 L300.258674,122.644928 L312.277059,121.161232 L312.277059,121.154187 L312.343086,121.152778 L322,119.960749 L322,116 Z M326,121.303 L326,122.697 L329,122.555 L326,121.303 Z M322,117 L322,120.720393 L328.998718,123 L329,119.632933 L322,117 Z M323.791487,116 L292,119.474512 L296.701357,121 L296.702653,119.664722 L296.819247,119.652042 L322.301666,116.91301 L329.647131,119.550596 L329.645836,120.19858 L334,119.62668 L323.791487,116 Z M324,110 L324,115.275099 L335,119 L334.832253,113.696626 L324,110 Z M324,110 L292.001288,113.517212 L292,119 L324,115.462472 L324,110 Z M317.910296,109 L301,111.192427 L301,112 L320,109.55083 L317.910296,109 Z M317.968083,108 L300,110.02972 L300,111 L301.303288,111 L318,109.143357 L317.968083,108 Z M318,108 L318.029971,109.276786 L320.801668,110 L323,109.720238 L318,108 Z M318.138641,107 L318,107.013458 L318,108.344673 L318.23569,108.323364 L324.442662,109.836262 L324.446821,109.837383 L324.482868,109.846355 L324.585462,109.871028 L324.584076,109.876636 L325,110 L325,108.882991 L318.138641,107 Z M318,107 L302,108.725117 L302,110 L318,108.382193 L318,107 Z M317,105 L317,105.980229 L325,108 L325,107.292404 L323.618557,106.895942 L323.52921,106.896982 L323.527835,106.869927 L317,105 Z M318,105 L317.894195,105.01183 L317.894195,105.054416 L317.603233,105.054416 L317.603233,105.044953 L300,107.053628 L300,108 L318,106.123817 L318,105 Z M318.138641,103 L318,103.016304 L318,104.554348 L318.277283,104.521739 L325,107 L325,105.28125 L318.138641,103 Z M318,103 L302,104.630872 L302,106 L318,104.268456 L318,103 Z M334.267856,90.5352055 C334.166612,91.4312728 333.257951,100.004468 335.491694,102.31849 C336.253491,102.843987 336.929681,102.670598 336.938592,102.661954 L337.056419,102.649256 L337.056419,102.725445 C338.305188,104.093486 340.069109,104.907693 341.94101,104.991338 L342.293157,104.998417 C345.033171,105.053167 347.586754,103.684383 349,101.422785 C347.353116,101.04555 346.158565,99.6292995 346.129068,97.9636328 C345.906507,95.1192435 345.854139,90.0018825 345.841048,89.1384072 C344.859159,89.0368218 338.417971,88.5034989 334.267856,90.5352055 Z M317,102 L317,102.979868 L325,105 L325,104.302326 L317,102 Z M318,101 L313.402792,101.527811 L313.318148,101.633136 L305.620867,102.449704 L305.561352,102.427219 L300,103.065089 L300,104 L318,102.12426 L318,101 Z M324.348282,87 L318,96.205298 L318,101.589404 L318.201174,101.562914 L324.348282,104 L324.349539,103.192053 L333,90.8476821 C332.997205,90.7343629 332.986242,90.6348192 332.974853,90.5562914 C332.880856,90.1774702 332.73683,89.816954 332.54863,89.4845523 L332.534786,89.4966887 C332.534786,89.4966887 332.517917,89.4587556 332.492307,89.3927701 C332.388135,89.2148579 332.270276,89.0480171 332.140795,88.8910265 L324.349539,99.9602649 L324.348282,87 Z M302,101 L302,104 L305,103.588911 L303.416697,102.847525 L303.36815,102.853465 L302,101 Z M340.506603,90 C343.543818,90 346,92.913089 346,96.5068063 C346,100.100524 343.530612,103 340.506603,103 C337.469388,103 335,100.086911 335,96.5068063 C335,92.9267016 337.469388,90 340.506603,90 Z M340.037783,91 C337.292191,91 335,93.7003293 335,97.0065862 C335,100.312843 337.229219,103 340.037783,103 C342.846348,103 345,100.365532 345,97.0065862 C345,93.64764 342.732997,91 340.037783,91 Z M340,101.2 C340.441828,101.2 340.8,101.558172 340.8,102 C340.8,102.441828 340.441828,102.8 340,102.8 C339.558172,102.8 339.2,102.441828 339.2,102 C339.2,101.558172 339.558172,101.2 340,101.2 Z M339,101.2 C339.441828,101.2 339.8,101.558172 339.8,102 C339.8,102.441828 339.441828,102.8 339,102.8 C338.558172,102.8 338.2,102.441828 338.2,102 C338.2,101.558172 338.558172,101.2 339,101.2 Z M340,101.64 C339.801178,101.64 339.64,101.801177 339.64,102 C339.64,102.198823 339.801178,102.36 340,102.36 C340.198822,102.36 340.36,102.198823 340.36,102 C340.36,101.801177 340.198822,101.64 340,101.64 L340,101.64 Z M341,100.2 C341.441828,100.2 341.8,100.558172 341.8,101 C341.8,101.441828 341.441828,101.8 341,101.8 C340.558172,101.8 340.2,101.441828 340.2,101 C340.2,100.558172 340.558172,100.2 341,100.2 Z M339,101.64 C338.801178,101.64 338.64,101.801177 338.64,102 C338.64,102.198823 338.801178,102.36 339,102.36 C339.198822,102.36 339.36,102.198823 339.36,102 C339.36,101.801177 339.198822,101.64 339,101.64 Z M332.278395,87.8526357 C331.871871,88.1612479 331.991228,88.6995581 332.133225,89.0966541 C332.47949,89.5389995 332.733993,90.0490523 332.880394,90.597088 C333.037438,91.5421117 333.115959,95.5163894 333.115959,97.4841099 C333.206293,98.7587956 333.439215,100.018982 333.810031,101.241656 C332.773855,97.5414975 333.506785,91.3333517 333.547829,90.9983994 L333.547829,90.9207263 L333.613263,90.9207263 C338.154433,88.5905309 345.470036,89.4190448 345.53547,89.4319903 L345.66634,89.4319903 L345.667473,89.9729923 C345.673518,91.3743936 345.7118,96.0178583 345.954253,98.6233166 C345.919019,100.27166 347.094003,101.693241 348.714571,102 L348.715598,101.924427 L348.885728,101.924427 C349.302214,101.973219 349.720225,101.846351 350.03738,101.574897 C350.602817,100.975525 350.908212,100.180782 350.888031,99.3612118 C350.992727,97.5488376 351.136683,93.600451 351.136683,91.891641 C351.159691,90.8911868 351.411352,89.9105401 351.870783,89.0225892 L351.999113,88.7873029 L352,88.4994632 C351.989674,87.6465921 351.726365,86.7154597 345.011993,86.1308802 C337.303782,85.4836037 332.841134,87.4254332 332.278395,87.8526357 Z M318,97 L314,102 L318,101.537835 L318,97 Z M437,1 L339.624003,36.9241794 L319.246658,71.2133854 L319.247954,71.2263101 L319.240177,71.2237251 L306.3509,92.913942 L273.479615,46.8374176 L186,39.5478917 L188.177593,46.0102374 L265.23587,60.007678 L265.261793,60.0464521 L300.531023,99.5003647 L300.531023,99.4667605 L302.553074,102 L310.239459,101.211594 L344.846337,53.4096231 L343.373092,52.555818 L343.515672,52.3112829 L345.013545,53.1795636 L348.697307,48.0911127 L348.736193,48.078188 L435.077756,9.3480581 L437,1 Z M341,100.64 C340.801178,100.64 340.64,100.801177 340.64,101 C340.64,101.198823 340.801178,101.36 341,101.36 C341.198822,101.36 341.36,101.198823 341.36,101 C341.36,100.801177 341.198822,100.64 341,100.64 L341,100.64 Z M339.262654,92.0006951 C339.393309,91.9934916 339.521258,92.042507 339.618271,92.1369258 C339.691029,92.2077399 339.741901,92.2997282 339.765477,92.4005974 L339.779754,92.5039714 C339.782581,92.6240887 339.747373,92.7410299 339.680836,92.8360684 C340.286773,92.7653645 340.913719,92.8466433 341.511469,93.0889294 C343.088309,93.7280687 344.130472,95.3532557 344.125855,97.165899 C344.146267,97.5221812 344.123221,97.8706435 344.061609,98.205263 C344.137108,98.0212811 344.308533,97.8943251 344.507524,97.8943251 C344.779511,97.8943251 345,98.1315088 345,98.4240896 C345,98.7166705 344.779511,98.9538541 344.507524,98.9538541 C344.235537,98.9538541 344.015048,98.7166705 344.015048,98.4240896 C343.629144,100.059547 342.298992,101.326007 340.641587,101.456991 C340.011056,101.550933 339.38508,101.482048 338.807025,101.273974 C338.831524,101.333919 338.844049,101.400504 338.844049,101.470236 C338.844049,101.762816 338.62356,102 338.351573,102 C338.079586,102 337.859097,101.762816 337.859097,101.470236 C337.859097,101.245924 337.988696,101.054173 338.171741,100.976902 C338.041417,100.902599 337.914027,100.818739 337.791142,100.727403 C337.70842,100.886672 337.549112,100.993447 337.366621,100.993447 C337.094634,100.993447 336.874145,100.756264 336.874145,100.463683 C336.874145,100.290738 336.951184,100.137149 337.070361,100.04046 C337.00857,99.9670109 336.948324,99.8888695 336.890493,99.8082175 C336.850813,99.8216381 336.807763,99.8279656 336.763338,99.8279656 C336.491351,99.8279656 336.270862,99.5907819 336.270862,99.2982011 C336.270862,99.1574895 336.32186,99.0295911 336.405058,98.9347273 C336.310845,98.7119585 336.235821,98.4819606 336.179327,98.2485992 C336.070028,98.1535279 336,98.0062354 336,97.8413487 C336,97.7434632 336.024679,97.6517783 336.067709,97.5731013 C336.033296,97.1891683 336.046709,96.800769 336.107247,96.4204005 C336.039985,96.3322694 336,96.2177206 336,96.0931259 C336,95.8668633 336.131862,95.6737308 336.31743,95.5978023 C336.414164,95.3251385 336.53819,95.0601046 336.688169,94.8087163 C336.659254,94.7452733 336.642042,94.6730248 336.640219,94.5965412 C336.633522,94.4559938 336.679088,94.3183563 336.76686,94.2139986 C336.854634,94.109641 336.9774,94.0471405 337.108071,94.0402884 C337.157682,94.0402249 337.205691,94.0478808 337.251089,94.0622227 C337.387035,93.9173142 337.532582,93.7834594 337.685083,93.6620161 C337.638914,93.5859304 337.612859,93.4919017 337.612859,93.3913269 C337.612859,93.0987461 337.833348,92.8615624 338.105335,92.8615624 C338.23644,92.8641965 338.362632,92.915687 338.46238,93.0072477 C338.500234,93.0451931 338.532084,93.0888015 338.557186,93.1363485 C338.717995,93.0629201 338.885614,93.0024627 339.05615,92.9540065 C338.928641,92.8591321 338.847802,92.7003538 338.847802,92.5238376 C338.847802,92.2634909 339.023658,92.0417307 339.262654,92.0006951 Z M337,100.64 C336.801178,100.64 336.64,100.801177 336.64,101 C336.64,101.198823 336.801178,101.36 337,101.36 C337.198822,101.36 337.36,101.198823 337.36,101 C337.36,100.801177 337.198822,100.64 337,100.64 Z M341.999868,99.1998682 C342.441696,99.1998682 342.799868,99.5580404 342.799868,99.9998682 C342.805424,100.213697 342.722926,100.420424 342.571674,100.571675 C342.420424,100.722925 342.213696,100.805425 341.999868,100.799868 C341.55804,100.799868 341.199868,100.441696 341.199868,99.9998682 C341.199868,99.5580404 341.55804,99.1998682 341.999868,99.1998682 Z M342,99.64 C341.801178,99.64 341.64,99.8011774 341.64,100 C341.64,100.198823 341.801178,100.36 342,100.36 C342.198822,100.36 342.36,100.198823 342.36,100 C342.36,99.8011774 342.198822,99.64 342,99.64 Z M337.436768,93.3175067 L337.442539,93.2658442 C337.440244,93.4011788 337.389224,93.5311394 337.298853,93.6318485 C337.207501,93.7391129 337.07394,93.8011675 336.933106,93.801779 L336.893919,93.801779 C336.81329,93.801779 336.736928,93.7835031 336.668741,93.7508651 C336.518141,93.8566649 336.374298,93.9756626 336.238875,94.1048275 C336.294875,94.1658399 336.335286,94.2415575 336.356133,94.3252594 L336.371424,94.4292148 C336.378517,94.5666488 336.329784,94.7011144 336.236303,94.802047 C336.142822,94.9029794 336.012533,94.9618042 335.875054,94.9651496 L335.848929,94.9651496 C335.757528,94.9651796 335.671631,94.9410886 335.597341,94.8988262 L335.491605,95.0782678 L335.491605,95.0782678 C335.426328,95.1975041 335.36764,95.3190191 335.315486,95.4423331 C335.54149,95.5005841 335.705243,95.7039143 335.705243,95.945518 C335.708872,96.0852718 335.654991,96.2203846 335.556205,96.3192388 C335.457421,96.4180929 335.322403,96.472013 335.182748,96.4683812 C335.13321,96.4683812 335.085284,96.4614826 335.039874,96.4485931 C335.004312,96.6897386 334.992971,96.9362073 335.004118,97.1813533 C335.059345,97.1592624 335.119744,97.1481033 335.182748,97.1481033 C335.471314,97.1481033 335.705243,97.3821972 335.705243,97.6709665 C335.708872,97.8107203 335.654991,97.9458331 335.556205,98.0446873 C335.457421,98.1435414 335.322403,98.1974615 335.182748,98.1938297 L335.182748,98.1938297 L335.187574,98.211383 C335.229985,98.3450719 335.279524,98.4768392 335.336126,98.606088 C335.380111,98.5918457 335.42443,98.5859771 335.47012,98.5859771 C335.758686,98.5859771 335.992615,98.8200709 335.992615,99.1088403 C335.992615,99.247107 335.938984,99.3728386 335.851403,99.4663397 C335.892098,99.5198573 335.936045,99.5731332 335.98154,99.625464 L336.0873,99.7367682 C336.094884,99.7364413 336.102512,99.7362761 336.110177,99.7362761 C336.384937,99.7362761 336.610164,99.9485078 336.631085,100.218091 C337.703674,101.014575 339.127735,101.228206 340.414034,100.740218 C341.979039,100.146496 343.00868,98.6399098 342.99405,96.9651012 C343.107128,94.9494612 341.595261,93.2104589 339.584769,93.0436274 C338.839792,92.9328191 338.099267,93.0363026 337.436768,93.3175067 Z M344.306158,99.2609081 C344.605098,99.3847329 344.800012,99.6764419 344.800012,100 C344.800012,100.441839 344.44184,100.800012 344,100.800012 C343.676442,100.800012 343.384734,100.605098 343.260908,100.306158 C343.137084,100.007219 343.205528,99.6631247 343.434326,99.4343263 C343.663124,99.2055279 344.00722,99.1370833 344.306158,99.2609081 Z M340.055581,94.1932786 C341.225648,94.6351215 341.998656,95.7575719 341.994834,97.0091814 C342.087063,98.5392069 340.933578,99.8593522 339.406166,99.97187 C338.167263,100.142539 336.952686,99.525458 336.359143,98.4237928 C335.7656,97.3221275 335.917845,95.9674299 336.741082,95.0252493 C337.564318,94.0830686 338.885514,93.7514358 340.055581,94.1932786 Z M344,99.64 C343.801178,99.64 343.64,99.8011774 343.64,100 C343.64,100.198823 343.801178,100.36 344,100.36 C344.198822,100.36 344.36,100.198823 344.36,100 C344.36,99.8011774 344.198822,99.64 344,99.64 Z M336.375646,95.5455378 C335.768588,96.6422423 335.90669,98.0013803 336.721894,98.9531379 C337.537096,99.9048956 338.857387,100.248446 340.032095,99.8144796 C341.206805,99.3805133 341.988061,98.2606001 341.990844,97.0066583 C342.05078,96.2762314 341.814638,95.5523857 341.335653,94.9982957 C340.856668,94.4442057 340.175155,94.1065098 339.444746,94.0613343 L339.444746,94.0340628 C338.20683,93.8459741 336.982704,94.4488334 336.375646,95.5455378 Z M344,97.64 C343.801178,97.64 343.64,97.8011774 343.64,98 C343.64,98.1988226 343.801178,98.36 344,98.36 C344.198822,98.36 344.36,98.1988226 344.36,98 C344.36,97.8011774 344.198822,97.64 344,97.64 Z M344.306158,96.2609081 C344.605098,96.3847329 344.800012,96.6764419 344.800012,97 C344.800012,97.4418395 344.44184,97.8000117 344,97.8000117 C343.676442,97.8000117 343.384734,97.6050979 343.260908,97.3061585 C343.137084,97.0072189 343.205528,96.6631247 343.434326,96.4343263 C343.663124,96.2055279 344.00722,96.1370833 344.306158,96.2609081 Z M344,96.64 C343.801178,96.64 343.64,96.8011774 343.64,97 C343.64,97.1988226 343.801178,97.36 344,97.36 C344.198822,97.36 344.36,97.1988226 344.36,97 C344.36,96.8011774 344.198822,96.64 344,96.64 Z M344,94.2 C344.441828,94.2 344.8,94.5581722 344.8,95 C344.8,95.4418278 344.441828,95.8 344,95.8 C343.558172,95.8 343.2,95.4418278 343.2,95 C343.2,94.5581722 343.558172,94.2 344,94.2 Z M344,94.64 C343.801178,94.64 343.64,94.8011774 343.64,95 C343.64,95.1988226 343.801178,95.36 344,95.36 C344.198822,95.36 344.36,95.1988226 344.36,95 C344.36,94.8011774 344.198822,94.64 344,94.64 Z M343,93.2 C343.441828,93.2 343.8,93.5581722 343.8,94 C343.8,94.4418278 343.441828,94.8 343,94.8 C342.558172,94.8 342.2,94.4418278 342.2,94 C342.2,93.5581722 342.558172,93.2 343,93.2 Z M343,93.64 C342.801178,93.64 342.64,93.8011774 342.64,94 C342.64,94.1988226 342.801178,94.36 343,94.36 C343.198822,94.36 343.36,94.1988226 343.36,94 C343.36,93.8011774 343.198822,93.64 343,93.64 L343,93.64 Z M342,92.2 C342.441828,92.2 342.8,92.5581722 342.8,93 C342.8,93.4418278 342.441828,93.8 342,93.8 C341.558172,93.8 341.2,93.4418278 341.2,93 C341.2,92.5581722 341.558172,92.2 342,92.2 Z M341,91.2 C341.441828,91.2 341.8,91.5581722 341.8,92 C341.8,92.4418278 341.441828,92.8 341,92.8 C340.558172,92.8 340.2,92.4418278 340.2,92 C340.2,91.5581722 340.558172,91.2 341,91.2 Z M340,91.2 C340.441828,91.2 340.8,91.5581722 340.8,92 C340.8,92.4418278 340.441828,92.8 340,92.8 C339.558172,92.8 339.2,92.4418278 339.2,92 C339.2,91.5581722 339.558172,91.2 340,91.2 Z M341,91.64 C340.801178,91.64 340.64,91.8011774 340.64,92 C340.64,92.1988226 340.801178,92.36 341,92.36 C341.198822,92.36 341.36,92.1988226 341.36,92 C341.36,91.8011774 341.198822,91.64 341,91.64 Z M340,91.64 C339.801178,91.64 339.64,91.8011774 339.64,92 C339.64,92.1988226 339.801178,92.36 340,92.36 C340.198822,92.36 340.36,92.1988226 340.36,92 C340.36,91.8011774 340.198822,91.64 340,91.64 Z M275,46 L307.240047,92 L308,90.6981872 L288.872365,63.8071262 L297,67.0616582 L304.459211,77.7057808 C304.626929,77.5940128 304.845648,77.4726035 305.129833,77.3499419 L305.420023,76.8840711 L305.279991,76.8588911 C304.326982,76.6694921 303.791029,76.3567304 303.672131,75.9103256 C303.61191,75.6842245 303.695281,75.4438383 303.802456,75.2492757 L286.862998,50.6452236 L285.316042,50.179917 L294.977752,64.120816 L287.532787,61.4152412 L287.507026,61.37603 L278.722482,49.5211684 L278.725059,49.5198613 L276.532787,46.3319884 L275,46 Z M312,84 L304,85.2758553 L307.990688,91 L312,84 Z M335,86 L334.957537,86.014671 C332.961857,86.66453 332.306656,87.4830978 332.09258,87.9890042 C332.039888,88.118714 332.012783,88.2298597 332,88.3172899 C332.000784,88.3590557 332.001439,88.402486 332.002154,88.4459175 C332.141109,88.6167717 332.271391,88.802039 332.392275,89 C332.330886,88.4455532 332.346565,87.8275468 332.62383,87.4793701 C332.867092,87.1738933 333.667963,86.5553546 335,86 Z M345.27565,86.0252595 L345,86 C352.251537,86.6632269 352.325984,87.8422807 352.326726,89 C352.635294,88.8061663 352.837754,88.4524772 352.853964,88.0556484 L353,88.1567677 C351.115618,86.7650846 348.181621,86.1971613 345.27565,86.0252595 Z M335.982518,76.8615261 L335.887273,76.9706187 C334.759637,78.303319 333.775535,79.7677762 332.956048,81.3383616 C332.330348,83.4904787 332.008613,85.7252824 332,87.9721196 C332.557731,87.3203305 334.076924,86.5330834 338.008714,86.0966747 C341.242069,85.7313223 349.044944,85.1754353 352.993851,87.6687786 L353,88 C352.997161,86.3329858 352.759505,84.6754921 352.294679,83.0808425 C351.720148,80.7678479 350.583342,78.654456 349.000334,76.9428639 L349.152792,76.9955631 C343.06138,74.8509713 336.046638,76.8347187 335.982518,76.8615261 Z M289,65 L303.654242,85 L304.377473,84.8905485 L304.973843,83.4947206 L304.848663,83.4722781 C303.881023,83.2840694 303.336842,82.9658868 303.216119,82.5379861 C303.085336,82.074427 303.621547,81.5207314 303.634625,81.4949781 C303.803699,81.3197495 304.127169,81.0655327 304.726567,80.8093953 L305,80.3824363 L304.848663,80.3563419 C303.881023,80.1697507 303.336842,79.8616257 303.216119,79.4218388 C303.085336,78.945403 303.621547,78.4045841 303.634625,78.3788308 C303.674964,78.3369069 303.725,78.290162 303.786749,78.2397302 L296.25846,67.8199845 L289,65 Z M306.752588,80.4585767 L305,85 L311.91195,83.8409895 L314,80.003651 L312.215094,80.003651 C309.714738,79.9697517 307.967425,80.1758451 306.752588,80.4585767 Z M304.586168,81.4686081 L304.53288,81.5596805 L304.470733,81.5202605 C303.85214,81.8046904 303.544835,82.0730761 303.407442,82.2257261 C303.407442,82.2257261 302.901549,82.6903714 303.017181,83.110051 C303.131212,83.5239149 303.470142,83.7774424 304.782493,84 L306,81 C305.413993,81.1479179 304.950782,81.3098087 304.586168,81.4686081 Z M312.564065,77.0004 L312.221726,77 C310.138049,77 308.547537,77.1007564 307.335638,77.2478035 L307.165014,77.2695939 L305,80 C306.283863,79.6395529 308.48189,79.3168632 312.221726,79.3542984 L314.300401,79.3542984 L316,77.0706428 C315.557931,77.0474383 314.493295,77.0049618 312.564065,77.0004 Z M304.231879,77.5974044 L304.207089,77.6446673 L304.179077,77.6244149 C303.673099,77.8873195 303.430104,78.1332028 303.322667,78.2692767 C303.322667,78.2692767 302.922033,78.7026565 303.013607,79.0940964 C303.10518,79.4855362 303.3799,79.7231961 304.455889,79.946876 L304.449021,80 L306,77 C305.208916,77.1784054 304.63953,77.3920945 304.231879,77.5974044 Z M312.34802,74.0259283 C310.131117,74.0259283 308.463622,74.1347598 307.212554,74.2909069 L305,77 C306.239382,76.669547 308.343945,76.3634467 311.897447,76.3395463 L312.34802,76.3380472 C314.858214,76.3380472 316.042176,76.3983501 316.345872,76.4168153 L318,74.2560892 L317.456798,74.1948912 C315.764671,74.0178009 314.054561,73.9611692 312.34802,74.0259283 Z M304.260494,74.5855282 L304.225282,74.652992 L304.186019,74.6233924 C303.710611,74.8704564 303.464662,75.1038843 303.346657,75.2491394 L303.282638,75.3269249 C303.182686,75.4513573 302.940156,75.7939973 303.01365,76.1095868 C303.105518,76.5040737 303.38112,76.7435835 304.460561,76.9690046 L304.455967,77 L306,74 C305.228258,74.1749038 304.666666,74.3834745 304.260494,74.5855282 Z M340.553552,73.1503382 L339.010787,73.8656194 C337.930063,74.5040663 336.923366,75.210366 336,75.9761024 C337.645697,75.687034 343.545946,74.782087 349,76 L348.879153,75.910367 L348.879153,75.910367 C347.744573,75.1202461 346.552927,74.3813775 345.310116,73.6973331 L344.558335,73.2935139 L344.556972,73.291395 L344.214614,73.2089626 C343.021754,72.9522467 341.762984,72.9313118 340.553552,73.1503382 Z M312.736626,70 C310.394168,70 308.467171,70.1989557 307.026843,70.47225 L307.061115,70.4950751 L305,74 C306.197297,73.5587754 308.240693,73.1554468 311.706266,73.1554468 L311.846191,73.1554468 C313.665773,73.0470837 315.490825,73.1552762 317.288035,73.4779731 L319,70.3772125 C317.453014,70.1293754 312.783839,70 312.736626,70 Z M341.663929,66.3282268 C341.437787,66.5039841 341.281204,66.7907398 341.232533,67.1182579 L341,72.8235993 L341.122306,72.7893942 C342.079645,72.5577663 343.069117,72.62965 344,73 L343.99978,66.7364095 C343.99978,66.5520689 343.768299,66.3018924 343.652559,66.1965549 C343.003638,65.8945429 342.28376,65.9422077 341.663929,66.3282268 Z M345,69 L345,72 L347,69.7385567 L345,69 Z M312.58613,68 C310.474442,68 308.633131,68.1051302 307.183903,68.2686522 L305,71 C306.59136,70.5917741 309.475839,70.261862 313.021535,70.261862 C313.249452,70.261862 318.301515,70.3674585 319.734783,70.5786515 L321,68.8880675 L320.973762,68.877415 C319.71434,68.3576245 316.321523,68 312.58613,68 Z M304.36211,68.7187873 L304.321883,68.7435767 C304.321475,68.7440033 304.321068,68.74443 304.32066,68.7448566 L304.267353,68.7765107 C304.091743,68.8922335 304,69.0094033 304,69.1242453 C304,69.3465812 304.452746,69.6895625 305.716785,70 L307,68 C305.744137,68.1973662 304.832369,68.4525249 304.36211,68.7187873 Z M312.755302,64 C311.22835,64 309.889348,64.0660336 308.751309,64.174186 L308.76058,64.1986755 C307.765636,64.9117087 306.819176,65.6936325 305.927536,66.5387964 L305.9145,66.5960265 L305.877319,66.5865184 C305.578604,66.8711166 305.286085,67.1628335 305,67.4614554 C306.609446,66.8542368 309.744898,66.5298013 312.755302,66.5298013 C316.083499,66.5298013 319.093462,66.9101026 320.586479,67.4880177 L321,68 C319.907173,66.614175 318.6766,65.35186 317.328715,64.233974 C316.077037,64.0907457 314.545314,64 312.755302,64 Z M308,65 L307.929151,65.009085 C305.371496,65.2988922 304,65.8093363 304,66.2018951 C304,66.3989911 304.421616,66.7136207 305.591014,67 C306.359237,66.2885207 307.162804,65.6211606 308,65 Z M318.453532,65.340657 L318,65 C318.840126,65.615923 319.635094,66.2839659 320.379807,66.9994131 L320.436482,67 C321.04886,66.8395062 322,66.6049383 322,66.4197531 C322,66.314258 321.887243,66.1998595 321.666012,66.083743 L321.661238,66.0864198 C321.139709,65.811764 320.055423,65.5371893 318.453532,65.340657 Z M312.957679,62 C311.39043,62 310.015801,62.0612686 308.847107,62.1616501 L308.851347,62.1725696 C307.477518,62.9919372 306.188244,63.9293359 305,64.9724373 C306.596036,64.4655117 309.63193,64.1906309 312.608182,64.1706228 L312.957679,64.1694462 C314.598422,64.1694462 316.275301,64.2475362 317.735532,64.3999365 L317.746213,64.3789949 L317.784359,64.4050688 C319.096323,64.5439485 320.229932,64.743182 321,65 C320.011144,63.9726118 318.911774,63.0416137 317.719721,62.222805 C316.422191,62.087157 314.826939,62 312.957679,62 Z M371.385901,41 L352.376818,49.5144966 L344,60.5504481 L349.70665,65 L359.61152,52.5382182 L359.716181,52.4926726 L359.730101,52.4677013 L359.752813,52.4787559 L379,44.5424354 L371.385901,41 Z M343.052833,61 L342,62.4414299 L348,65 L343.052833,61 Z M308,62 L307.986851,62.0030618 C305.391637,62.3039731 304,62.833975 304,63.2415748 C304,63.5160468 304.458789,63.7522895 305.49408,64 C306.293857,63.2846661 307.130198,62.6171446 308,62 Z M318,62 L318.444379,62.4255289 C318.934981,62.9100024 319.404611,63.4258229 319.851357,63.9708387 L319.770552,64 C320.672899,63.7075041 321,63.4010798 321,63.2060826 C321,63.0870632 320.902387,62.957999 320.71087,62.8269965 L320.706737,62.8300164 L320.699072,62.8190033 C320.259814,62.5242422 319.346071,62.2205131 318,62 Z M279,50 L287.508877,61.6115486 L294,64 L284.71142,50.4632546 L279,50 Z M308.754558,60.2216128 C307.413152,60.9125668 306.156053,61.7051548 305,62.5885136 C306.551427,62.1610882 309.510357,61.9292931 312.411081,61.9124424 L312.751246,61.9114528 C314.340951,61.9114528 315.965509,61.9765372 317.382211,62.1035701 L317.399151,62.0669595 L317.477229,62.112212 C318.730376,62.2278069 319.814379,62.3924695 320.557854,62.603985 L321,63 C319.885209,61.9703489 318.639725,61.0390651 317.28423,60.2216128 C314.452652,59.9261291 311.586136,59.9261291 308.754558,60.2216128 Z M253,58 L259.213389,60.3632385 L268,62 L266.617992,60.454517 L253,58 Z M237.026964,57 C236.956617,57.3641975 237.025164,57.7426953 237.218006,58.0548777 C237.886889,59.0252763 238.898662,59.6768878 240.029054,59.8652758 C241.507128,60.2805532 243.078507,59.7164514 244,58.4397655 C243.467071,58.2339373 242.919573,58.0718871 242.362496,57.9550919 C240.138221,57.4989286 237.613736,57.0997857 237.026964,57 Z M231,55 C231.09176,56.1522339 232.573034,57.4168808 234.434457,57.8103265 C235.466878,58.1540137 236.585757,58.0269618 237.52809,57.4590357 C237.612363,57.3956096 237.687425,57.3208788 237.751844,57.23732 L237.750936,57.1920547 L237.783775,57.1939414 C237.896038,57.034134 237.971128,56.8456259 238,56.644041 C237.501572,56.5361859 237.014218,56.3761674 236.544944,56.1662855 C234.745431,55.546861 232.884446,55.1554341 231,55 Z M223.925203,52.361774 L224.359778,52.4949851 C226.360526,52.928022 227.676085,53.2122025 227.95016,54.0106142 C228.016613,54.103986 228.016613,54.2284877 227.95016,54.3218595 C227.92356,54.3311466 227.894539,54.3311466 227.867938,54.3218595 C227.823988,54.7406983 227.599236,55.1204663 227.251269,55.3638545 C226.650581,55.783488 225.931484,56.0059879 225.195707,55.9998774 C224.734302,55.9950097 224.274804,55.9405594 223.825332,55.8374886 C221.646436,55.3503221 219.933467,53.902355 220.001986,52.6032443 L220.001986,52.4543879 C220.084208,52.2649343 220.193838,52.0754806 220.330876,52.0484158 C221.53963,51.9272693 222.759283,52.0341099 223.925203,52.361774 Z M231.116667,55.0390227 L231,55.215953 C232.877637,55.4119835 234.729983,55.8472066 236.522222,56.5134417 C236.984165,56.7780513 237.485214,56.9430215 238,57 C237.792593,56.3477865 236.678047,56.0220878 235.099463,55.6049649 L234.798148,55.525581 C233.612458,55.0823355 232.360123,54.9168223 231.116667,55.0390227 Z M220,53 C220.078799,54.1522339 221.575985,55.4168808 223.440901,55.8103265 C224.475259,56.1540137 225.596237,56.0269618 226.540338,55.4590357 C226.799427,55.2678327 226.967372,54.9649286 227,54.6299894 C226.503694,54.533993 226.019083,54.3784429 225.555347,54.1662855 C223.752458,53.546861 221.887981,53.1554341 220,53 Z M220.12987,52.042824 C220.074371,52.0886268 220.029752,52.1492966 220,52.2194113 C221.88112,52.4150618 223.736903,52.8494413 225.532468,53.5143849 C225.994731,53.7666515 226.490573,53.9307286 227,54 C226.792208,53.3352007 225.675594,53.022354 224.104909,52.6075254 L223.805195,52.5284391 C222.623244,52.0786043 221.371453,51.913207 220.12987,52.042824 Z M211,51 C211.09176,52.1522339 212.573034,53.4168808 214.434457,53.8103265 C215.466878,54.1540137 216.585757,54.0269618 217.52809,53.4590357 C217.785442,53.2643953 217.956243,52.9643342 218,52.6299894 C217.499864,52.5363528 217.011571,52.3807414 216.544944,52.1662855 C214.745431,51.546861 212.884446,51.1554341 211,51 Z M212.116667,50.0429939 L212,50.2195659 C213.878594,50.4078468 215.73167,50.8423597 217.522222,51.5144271 C217.990107,51.7609112 218.488469,51.9246645 219,52 C218.792593,51.3352585 217.678047,51.0224388 216.099462,50.6076462 L215.798148,50.5285669 C214.613979,50.0784218 213.360217,49.9130554 212.116667,50.0429939 Z M203.039326,50 L203,50 C203.09176,51.154142 204.573034,52.4208833 206.434457,52.8149806 C207.468659,53.1549749 208.587625,53.0226118 209.52809,52.4490331 C209.784721,52.2596741 209.955845,51.9636508 210,51.6326887 C209.501572,51.524655 209.014218,51.3643715 208.544944,51.154142 C206.757584,50.5416863 204.909981,50.1543734 203.039326,50 Z M203.116667,50.0429939 C203.116667,50.0429939 203.103704,50.1459943 203.038889,50.2195659 L203,50.2195659 C204.878853,50.4145664 206.731745,50.8539733 208.522222,51.5291414 C208.985979,51.7853398 209.486531,51.9448286 210,52 C209.792593,51.3491073 208.666564,51.0371023 207.097436,50.6100902 L206.798148,50.5285669 C205.613979,50.0784218 204.360217,49.9130554 203.116667,50.0429939 Z M399.152307,35.0092915 L399.163181,35 C398.445511,35.8807876 397.363472,36.4880285 396.142124,36.6954187 C395.720004,36.7896945 395.287146,36.8432577 394.851437,36.855132 C394.592813,36.8580577 394.334848,36.8331182 394.083466,36.7809332 C394.024754,36.9018321 393.99606,37.0221053 394.000435,37.1377018 C394.013633,37.3498804 394.139276,37.5448714 394.340836,37.6659844 C394.850871,37.8968966 395.414751,38.0091847 395.978931,37.9994131 L396.269774,37.887126 L396.316185,37.9789655 C396.554512,37.9541193 396.790975,37.9072125 397.021493,37.8379834 C398.036605,37.6181607 398.943732,37.1738502 399.483036,36.6868416 L399.429056,36.5835853 L399.679134,36.4895006 C399.854354,36.2905994 399.964618,36.0887335 399.99309,35.895684 L400,35.7739955 C399.994471,35.562977 399.87335,35.3668299 399.673783,35.2457128 C399.510881,35.1480801 399.335634,35.0688998 399.152307,35.0092915 Z M395.95215,34.2116081 C394.321677,34.6157646 392.97232,35.6888698 393.000431,36.5389922 C393.001608,36.709254 393.061896,36.8713277 393.167427,37 C393.356329,36.0331067 394.681924,35.0129218 396.331656,34.5878917 C397.208408,34.2932131 398.161639,34.3404519 399,34.7131897 C398.962742,34.5804336 398.879476,34.4623182 398.76331,34.3788452 C397.889842,33.9402695 396.872241,33.879732 395.95215,34.2116081 Z M397.530684,34.0003459 L397.530684,34.0730412 C397.167694,34.0702177 396.806115,34.1289249 396.456128,34.2475099 C395.438429,34.5607719 394.551097,35.2592682 394.171879,35.9613733 L394,35.9340407 C395.510556,36.2301976 397.032928,35.5154997 398,34.0627385 C397.845422,34.0169208 397.688647,33.9970763 397.530684,34.0003459 Z M393.226908,31.3778008 C393.436591,31.5069704 393.576388,31.7000883 393.620029,31.9139131 L393.536145,31.8571632 C393.814136,32.021817 393.985768,32.2878713 394,32.5762068 C394,33.4630273 392.594378,34.4577044 390.809237,34.8531784 C390.367437,34.9452705 389.914634,34.9935268 389.459839,34.9969871 C388.905736,35.02112 388.356278,34.8998229 387.885542,34.6494493 C387.68819,34.529405 387.54453,34.3590742 387.472426,34.1661515 L387.463855,34.182071 C387.184174,34.018719 387.012038,33.7518823 387,33.4630273 C387,32.5762068 388.405622,31.5815298 390.190763,31.1860558 C391.189378,30.8829252 392.291578,30.9525337 393.226908,31.3778008 Z M393.053657,32 L393.094404,32.0204188 C392.374532,32.907222 391.290513,33.5196311 390.066319,33.731113 C389.649527,33.8217037 389.222346,33.8712436 388.792825,33.8787988 L388.792825,33.8787988 C388.548551,33.8803042 388.30474,33.8617262 388.064643,33.823352 C388.018214,33.9285983 387.996618,34.0344861 388.000429,34.137249 C388.013595,34.3497991 388.138943,34.5451315 388.340027,34.6664566 C389.166552,35.0405512 390.133489,35.1028484 391.014364,34.8387567 C392.569367,34.4889745 393.883076,33.6310876 393.992992,32.8929598 L394,32.7711551 C393.986833,32.558605 393.861486,32.3632726 393.660402,32.2419475 C393.471429,32.1356216 393.266934,32.0544594 393.053657,32 Z M390.492371,31.1987083 C389.115834,31.6027408 387.976631,32.6262896 388.000364,33.4612901 C388.007353,33.6085016 388.052027,33.7481656 388.126639,33.8645266 L388.119031,34 C388.119031,33.0033866 389.305701,31.8855635 390.812772,31.4411278 C391.528971,31.1614215 392.307075,31.1916985 393,31.5183152 C392.964166,31.4598288 392.918806,31.4054909 392.865712,31.3603213 C392.126441,30.9442701 391.270172,30.8859623 390.492371,31.1987083 Z M392.577534,32.0043549 C392.220047,32.0088875 391.864352,32.0677909 391.518396,32.1797491 C390.477646,32.5140466 389.56686,33.2391381 389.203226,33.9664087 L389,33.9336908 C390.512518,34.2328212 392.036923,33.506138 393,32.0317737 C392.860153,32.002494 392.719009,31.9937044 392.577534,32.0043549 Z M410.16753,30 L410.191548,30.0138982 C409.466932,30.909497 408.381736,31.5291127 407.156307,31.7469334 C406.733917,31.8396383 406.300909,31.8898321 405.86562,31.8965479 C405.594518,31.8982365 405.323985,31.874983 405.058442,31.8271821 C405.016246,31.930891 404.996775,32.0337203 405.000434,32.1334376 C405.017683,32.347718 405.142414,32.5441655 405.340835,32.6695564 C405.734441,32.8472291 406.159203,32.9538557 406.59097,32.9879763 L406.699795,32.9446799 L406.724322,32.9961988 C407.160346,33.0155331 407.600958,32.9611769 408.021492,32.8316389 C409.135318,32.5868619 410.119138,32.067805 410.629695,31.5220466 L410.593237,31.4481216 L410.742016,31.3918826 C410.880748,31.2163162 410.968192,31.0400246 410.99309,30.8711298 L411,30.7495031 C410.999234,30.5342765 410.877013,30.333414 410.673782,30.2133843 C410.514225,30.1245696 410.344229,30.0531538 410.16753,30 Z M407.961452,29.20897 C406.325842,29.6338675 404.972233,30.7102744 405.000433,31.5883959 C405.004296,31.7380667 405.052444,31.8807844 405.135679,32 C405.317705,31.0124789 406.651836,29.9685484 408.313955,29.5347247 C409.195112,29.2301467 410.155134,29.2750813 411,29.6535997 C410.952744,29.5465234 410.877826,29.4514804 410.781471,29.378929 C409.903065,28.9413921 408.88564,28.8800731 407.961452,29.20897 Z M409.502862,29.0030971 C409.146931,29.0066658 408.792749,29.0644626 408.448489,29.1751536 C407.392729,29.495423 406.482925,30.2239993 406.131296,30.9481069 L406,30.9243947 C406.561053,31.0520553 407.138707,31.0176883 407.686997,30.8240284 C408.611707,30.606077 409.436167,29.9741493 410,29.0528843 C409.836071,29.0082641 409.669767,28.9927037 409.502862,29.0030971 Z M405.240964,26.37155 C405.466374,26.5135524 405.6074,26.7291168 405.63101,26.9627497 L405.536145,26.902855 C405.814136,27.065073 405.985768,27.3271914 406,27.6112615 C406,28.4849629 404.594378,29.4649254 402.809237,29.854549 C402.372192,29.945211 401.924052,29.9927592 401.473896,29.9962303 C400.912983,30.023793 400.356315,29.8996559 399.885542,29.642027 C399.67098,29.520493 399.519399,29.3383704 399.455111,29.1321735 C399.190656,28.9685258 399.02041,28.7085234 399,28.4259291 C399,27.5522276 400.405622,26.5604584 402.190763,26.1826416 C403.194272,25.8849397 404.30029,25.9534388 405.240964,26.37155 Z M404.229518,27 C403.516032,27.8981798 402.432012,28.5230963 401.207818,28.7388974 C400.768028,28.8361328 400.316794,28.8867204 399.863575,28.8895994 C399.593458,28.892036 399.323889,28.8678564 399.059817,28.8175147 C399.016596,28.9233633 398.996764,29.0273671 399.000429,29.128211 C399.017636,29.3440489 399.142074,29.5419243 399.340027,29.6682267 C400.168987,30.0443731 401.135184,30.1033566 402.014364,29.8314873 C403.569367,29.486459 404.883076,28.6004059 404.992992,27.8567278 L405,27.7342169 C404.986833,27.5173259 404.861486,27.3180041 404.660402,27.1942012 C404.524015,27.1158954 404.379542,27.0509648 404.229518,27 Z M401.971961,26.2100121 C400.338322,26.6157737 398.972262,27.6931405 399.000428,28.5606308 C399.009835,28.7232214 399.070669,28.8763884 399.171145,29 C399.330068,28.013048 400.674522,26.9520221 402.366288,26.531823 C403.229297,26.2342708 404.169665,26.2730865 405,26.6329802 C404.952934,26.5325336 404.880506,26.4449626 404.78858,26.3779135 C403.912526,25.9408702 402.894328,25.8801744 401.971961,26.2100121 Z M403.448386,27.0042749 C403.090917,27.0095678 402.735275,27.0673055 402.389155,27.1762387 C401.342432,27.4948634 400.427156,28.2178298 400.06767,28.9382512 L400,28.9245375 C400.559713,29.0519914 401.136187,29.0176317 401.683001,28.8242253 C402.606341,28.6007049 403.430052,27.9742718 404,27.0640989 C403.820785,27.0098601 403.634875,26.9905114 403.448386,27.0042749 Z M421.135228,26 L421.177364,26.0227471 C420.46228,26.918898 419.379893,27.5381571 418.156306,27.7511649 C417.729123,27.843714 417.291404,27.8937683 416.851436,27.9003808 C416.585489,27.9020502 416.320123,27.878968 416.059791,27.8315385 C416.016089,27.9354527 415.996788,28.0375856 416.000434,28.1366394 C416.004347,28.3536613 416.132197,28.5544844 416.340834,28.6713298 C416.751741,28.856318 417.196604,28.9640836 417.647946,28.9929694 L417.923841,28.8866226 L417.979149,29 C418.33103,28.9924527 418.682774,28.9370385 419.021492,28.8329804 C420.060611,28.6052297 420.986577,28.139395 421.520677,27.635968 L421.469821,27.5324851 L421.703109,27.4445631 C421.864413,27.2538372 421.96594,27.0613798 421.99309,26.8776948 L422,26.7563921 C421.998701,26.5387613 421.870199,26.3369166 421.659599,26.2217017 C421.49517,26.1281606 421.318885,26.0539125 421.135228,26 Z M418.964132,24.2088667 C417.327041,24.6124152 415.972207,25.683906 416.000433,26.5466648 C416.001327,26.7149222 416.06263,26.8747479 416.169545,27 C416.314228,26.0164896 417.666889,24.9625299 419.359292,24.5289224 C420.224681,24.2352935 421.16607,24.2722842 422,24.6251097 C421.953803,24.5269546 421.880286,24.4406031 421.786703,24.3758523 C420.908797,23.9411927 419.888448,23.880828 418.964132,24.2088667 Z M420.502862,25.0037385 C420.143124,25.0081588 419.78515,25.0659138 419.436773,25.1757398 C418.389349,25.4961167 417.481114,26.2252057 417.130463,26.9495505 L417,26.924419 C417.561053,27.0520386 418.138707,27.0176826 418.686997,26.8240849 C419.611707,26.6062035 420.436167,25.9744788 421,25.0535098 C420.837276,25.0074933 420.670341,24.9920611 420.502862,25.0037385 Z M416.239437,21.372189 C416.47733,21.5117958 416.625745,21.7336022 416.645618,21.9743609 L416.535211,21.9034614 C416.773969,22.0424969 416.934428,22.2549242 416.984382,22.4916589 L417,22.6118246 C417,23.4854725 415.591549,24.4653749 413.788732,24.8549746 C413.350976,24.9463842 412.901828,24.9939407 412.450704,24.9966473 C411.893293,25.0224915 411.340608,24.8983995 410.873239,24.6424657 C410.654151,24.5186243 410.500596,24.3318681 410.438358,24.1208354 L410.464789,24.1348054 C410.186238,23.9725973 410.014261,23.7104949 410,23.4264422 C410,22.5527943 411.408451,21.5610859 413.197183,21.1832922 C414.197807,20.8846642 415.302225,20.9532387 416.239437,21.372189 Z M415.141611,22 L415.179304,22.0192138 C414.456397,22.9132183 413.373759,23.531731 412.151219,23.749164 C411.729825,23.8417039 411.297838,23.8918083 410.863575,23.8985122 C410.593112,23.9001977 410.323217,23.8769856 410.0583,23.8292699 C410.016281,23.9336151 409.996793,24.0358386 410.000429,24.1349802 C410.017637,24.3488791 410.142074,24.5449769 410.340028,24.6701447 C411.168534,25.0443471 412.13541,25.1028419 413.014365,24.8319386 C414.564569,24.4910651 415.862344,23.6173319 415.989836,22.871263 L416,22.7410635 C415.986822,22.529478 415.860961,22.3357512 415.660402,22.2183447 C415.497274,22.1267228 415.322965,22.0536227 415.141611,22 Z M412.962809,22.2083093 C411.326449,22.617745 409.97222,23.7048673 410.000433,24.5802125 C410.008674,24.7333022 410.061001,24.878606 410.148421,25 C410.322593,24.0116243 411.660863,22.9538533 413.329579,22.5330342 C414.205284,22.2314355 415.158848,22.2736321 416,22.64406 C415.953561,22.5396652 415.879268,22.4476424 415.784119,22.377731 C414.90531,21.9415774 413.88742,21.8804523 412.962809,22.2083093 Z M414.502243,22.0035375 C414.146376,22.0071054 413.792255,22.0648895 413.448056,22.175556 C412.400817,22.4959653 411.485785,23.2251277 411.132005,23.9495454 L411,23.9244113 C411.560954,24.0520438 412.138506,24.0176844 412.686699,23.8240672 C413.611632,23.6060727 414.43625,22.973847 415,22.0521581 C414.837183,22.0076269 414.66999,21.9923083 414.502243,22.0035375 Z M431.162556,20 C430.447774,20.8955735 429.365466,21.5142908 428.141968,21.7271124 C427.719431,21.8186605 427.28656,21.8686644 426.851375,21.8761978 C426.587916,21.8778502 426.325025,21.8552296 426.067036,21.8087287 C426.019168,21.9204958 425.996512,22.0305783 426.000435,22.1370973 C426.005963,22.3504884 426.127076,22.5488411 426.326629,22.67132 C426.696854,22.8364583 427.094032,22.9398853 427.498643,22.9804311 L427.78721,22.8685576 L427.850104,22.9997929 C428.244716,23.0038413 428.641023,22.9485415 429.021273,22.8328292 C430.666425,22.4725394 432.027929,21.515908 431.999565,20.7580572 C431.986368,20.5434929 431.860734,20.3463093 431.659189,20.2238345 C431.503644,20.1313593 431.336788,20.0564196 431.162556,20 Z M428.965015,20.2087328 C427.335194,20.6120225 425.972327,21.6828263 426.000427,22.5450319 C426.010285,22.7147432 426.076725,22.8741245 426.186137,23 C426.352353,22.0231637 427.68945,20.985632 429.35842,20.5563963 C430.224327,20.2614704 431.166664,20.3003054 432,20.6579007 C431.952399,20.5486201 431.875389,20.4500566 431.775051,20.3756113 C430.901044,19.9412304 429.885226,19.8809044 428.965015,20.2087328 Z M430.516215,20.0018271 L430.516215,20.0305229 C430.155105,20.0349476 429.795767,20.0927609 429.446062,20.2026976 C428.407762,20.5193968 427.505718,21.2350763 427.144394,21.9511595 L427,21.924445 C427.55927,22.0520551 428.135287,22.0176533 428.681668,21.8240097 C429.608816,21.6090451 430.435636,20.9783731 431,20.0575979 C430.842745,20.0116452 430.679925,19.9938984 430.516215,20.0018271 Z M426.239437,17.3732892 C426.46449,17.5086454 426.606062,17.719184 426.630318,17.9480187 L426.549296,17.8942911 C426.784927,18.0348247 426.941277,18.2482977 426.986687,18.4848056 L427,18.6047482 C427,19.4809786 425.591549,20.4637776 423.802817,20.854529 C423.365061,20.9462088 422.915913,20.9939059 422.464789,20.9966205 C421.902948,21.0226038 421.345765,20.8982422 420.873239,20.6413919 C420.670577,20.5190199 420.526406,20.3430562 420.460917,20.1447972 C420.186238,19.9813844 420.014261,19.7185072 420,19.4336148 C420,18.5573844 421.408451,17.5627444 423.197183,17.183834 C424.197807,16.8843233 425.302225,16.9531005 426.239437,17.3732892 Z M426.139249,18 L426.205731,18.0331926 C425.490647,18.9259317 424.40826,19.5428331 423.184673,19.7550299 C422.75749,19.8472267 422.319771,19.8970904 421.879803,19.9036778 C421.604773,19.9047134 421.33041,19.8800599 421.061392,19.83014 C421.016716,19.9353465 420.99673,20.038775 421.000434,20.1390368 C421.017682,20.3519326 421.142414,20.5471108 421.340835,20.6716916 C422.171299,21.0441391 423.140461,21.1023596 424.021492,20.8327267 C425.580169,20.4924015 426.884254,19.6184263 426.99309,18.8743527 L427,18.7516571 C426.994598,18.5422234 426.872918,18.3481657 426.673782,18.2313897 C426.506362,18.1345585 426.326695,18.0570607 426.139249,18 Z M423.972519,17.2066535 C422.330796,17.6128346 420.972129,18.6913155 421.000434,19.5597027 C421.001294,19.7219763 421.057772,19.8764579 421.156816,20 C421.30216,19.0096429 422.658201,17.9378155 424.354644,17.5147909 C425.221505,17.2195789 426.16441,17.2563951 427,17.6104086 C426.954615,17.5191191 426.887555,17.4380963 426.803075,17.3747284 C425.921387,16.9420418 424.90016,16.8814026 423.972519,17.2066535 Z M425.474153,18.0013485 L425.474153,18.0296433 C425.11496,18.0340063 424.75753,18.0910118 424.409682,18.1994126 C423.365906,18.5150092 422.460563,19.2324265 422.108946,19.9459802 L422,19.9253997 C422.560202,20.0513633 423.136979,20.0174531 423.684438,19.8263677 C424.611068,19.6105395 425.436878,18.983293 426,18.0689425 C425.828642,18.0159517 425.65195,17.9941061 425.474153,18.0013485 Z M438.872042,0 L437,8.48019543 L448.199496,15 L451,6.93988833 L438.872042,0 Z" id="形状结合" stroke="#0EC8E8"></path>
                    <g id="椭圆形" filter="url(#filter-3)">
                        <use fill="black" fill-opacity="1" filter="url(#filter-4)" xlink:href="#path-2"></use>
                        <circle stroke="url(#linearGradient-1)" stroke-width="1" stroke-linejoin="square" cx="320" cy="409" r="319.5"></circle>
                    </g>
                    <g id="椭圆形" filter="url(#filter-6)">
                        <use fill="black" fill-opacity="1" filter="url(#filter-7)" xlink:href="#path-5"></use>
                        <circle stroke="url(#linearGradient-1)" stroke-width="3" stroke-linejoin="square" cx="320" cy="409" r="318.5"></circle>
                    </g>
                </g>
            </g>
        </g>
    </g>
</svg>