<?xml version="1.0" encoding="UTF-8"?>
<svg width="50px" height="72px" viewBox="0 0 50 72" version="1.1" xmlns="http://www.w3.org/2000/svg" xmlns:xlink="http://www.w3.org/1999/xlink">
    <!-- Generator: Sketch 64 (93537) - https://sketch.com -->
    <title>安防-正常</title>
    <desc>Created with Sketch.</desc>
    <defs>
        <circle id="path-1" cx="20" cy="20" r="20"></circle>
        <filter x="-17.5%" y="-12.5%" width="135.0%" height="135.0%" filterUnits="objectBoundingBox" id="filter-2">
            <feOffset dx="0" dy="2" in="SourceAlpha" result="shadowOffsetOuter1"></feOffset>
            <feGaussianBlur stdDeviation="2" in="shadowOffsetOuter1" result="shadowBlurOuter1"></feGaussianBlur>
            <feColorMatrix values="0 0 0 0 0   0 0 0 0 0   0 0 0 0 0  0 0 0 0.1 0" type="matrix" in="shadowBlurOuter1"></feColorMatrix>
        </filter>
        <ellipse id="path-3" cx="20" cy="32" rx="15" ry="8"></ellipse>
        <filter x="-83.3%" y="-93.8%" width="266.7%" height="475.0%" filterUnits="objectBoundingBox" id="filter-4">
            <feOffset dx="0" dy="20" in="SourceAlpha" result="shadowOffsetOuter1"></feOffset>
            <feGaussianBlur stdDeviation="5" in="shadowOffsetOuter1" result="shadowBlurOuter1"></feGaussianBlur>
            <feComposite in="shadowBlurOuter1" in2="SourceAlpha" operator="out" result="shadowBlurOuter1"></feComposite>
            <feColorMatrix values="0 0 0 0 0.00392156863   0 0 0 0 0.658823529   0 0 0 0 0.364705882  0 0 0 0.3 0" type="matrix" in="shadowBlurOuter1"></feColorMatrix>
        </filter>
        <path d="M0.200049326,3.91719674 L3.78283038,8.16527085 C3.94875796,8.37636721 4.20499768,8.5 4.47658568,8.5 C4.74817368,8.5 5.00441341,8.37636721 5.17034098,8.16527085 L8.31049655,4.7237394 C8.56316782,4.40148485 8.56316782,3.95259072 8.31049655,3.63033618 L5.51721863,0.314277221 C5.23854888,-0.012269599 4.76138005,-0.0953887029 4.38530209,0.117106149 L0.437386666,2.6086978 C0.214005668,2.73910363 0.0594269467,2.95843887 0.0138627495,3.20964546 C-0.0317014478,3.46085205 0.036253352,3.71909572 0.200049326,3.91719674 Z" id="path-5"></path>
        <path d="M19.8149488,14.4612197 L21.2015113,16.1665322 L15.7668238,20.7405947 C15.5986397,20.8863599 15.3788949,20.9583535 15.1570619,20.940367 C14.9352288,20.9223806 14.7299528,20.8159259 14.5874488,20.6449697 L14.5874488,20.6449697 L11.3999488,16.8040322 L12.9936988,15.3696572 L14.8105738,17.5371572 C14.9536417,17.7114407 15.1604532,17.8212883 15.3849617,17.8422425 C15.6094702,17.8631966 15.8330375,17.7935177 16.0058863,17.6487197 L16.0058863,17.6487197 L19.8149488,14.4612197 Z M13.0030055,9.15196738e-06 L13.1639258,0.00870208125 C13.5935727,0.0537699393 13.9865184,0.271322999 14.2527613,0.611532177 L14.2527613,0.611532177 L19.0340113,6.31715718 C19.5846158,7.03894323 19.4799907,8.06426999 18.7949488,8.65996968 L18.7949488,8.65996968 L7.65,18.327187 L0.82875,10.0556245 L11.9736988,0.372469677 C12.3047424,0.0949129265 12.7342788,-0.0363657768 13.1639258,0.00870208125 Z M16.4202613,6.31715718 L15.1133863,7.43278218 L16.2130738,8.77153218 L17.5040113,7.63996968 L16.4202613,6.31715718 Z" id="path-7"></path>
    </defs>
    <g id="切图" stroke="none" stroke-width="1" fill="none" fill-rule="evenodd">
        <g id="编组-4备份-15" transform="translate(5.000000, 2.000000)">
            <g id="椭圆形">
                <use fill="black" fill-opacity="1" filter="url(#filter-2)" xlink:href="#path-1"></use>
                <use fill="#01A85D" fill-rule="evenodd" xlink:href="#path-1"></use>
            </g>
            <g id="椭圆形">
                <use fill="black" fill-opacity="1" filter="url(#filter-4)" xlink:href="#path-3"></use>
                <use fill-opacity="0" fill="#D8D8D8" fill-rule="evenodd" xlink:href="#path-3"></use>
            </g>
            <g id="home/submenu/camera" transform="translate(3.000000, 3.000000)">
                <g id="主页子菜单-未选中安防">
                    <rect id="矩形" fill="#000000" opacity="0" x="0" y="0" width="34" height="34"></rect>
                    <g id="camera_24px" transform="translate(17.000000, 17.000000) scale(-1, 1) translate(-17.000000, -17.000000) translate(4.250000, 5.950000)">
                        <g id="Colors/iconbgwhite80" transform="translate(0.000000, 13.600000)">
                            <mask id="mask-6" fill="white">
                                <use xlink:href="#path-5"></use>
                            </mask>
                            <use id="蒙版" fill="#5D5BD0" fill-rule="nonzero" xlink:href="#path-5"></use>
                            <g id="Colors/white" mask="url(#mask-6)" fill="#FFFFFF">
                                <g transform="translate(-4.250000, -19.550000)" id="Rectangle-3">
                                    <rect x="0" y="0" width="34" height="34"></rect>
                                </g>
                            </g>
                        </g>
                        <g id="Colors/iconbgwhite50" transform="translate(4.250000, 0.000000)">
                            <mask id="mask-8" fill="white">
                                <use xlink:href="#path-7"></use>
                            </mask>
                            <use id="蒙版" fill="#4240A4" fill-rule="nonzero" xlink:href="#path-7"></use>
                            <g id="Colors/white" mask="url(#mask-8)" fill="#FFFFFF">
                                <g transform="translate(-8.500000, -5.950000)" id="Rectangle-3">
                                    <rect x="0" y="0" width="34" height="34"></rect>
                                </g>
                            </g>
                        </g>
                    </g>
                </g>
            </g>
        </g>
    </g>
</svg>