<?xml version="1.0" encoding="UTF-8"?>
<svg width="33px" height="36px" viewBox="0 0 33 36" version="1.1" xmlns="http://www.w3.org/2000/svg" xmlns:xlink="http://www.w3.org/1999/xlink">
    <!-- Generator: Sketch 57.1 (83088) - https://sketch.com -->
    <title>LED-off-line</title>
    <desc>Created with Sketch.</desc>
    <g id="页面-1" stroke="none" stroke-width="1" fill="none" fill-rule="evenodd">
        <g id="编组-10备份-14">
            <ellipse id="椭圆形备份-7" fill-opacity="0.1" fill="#C6C6C6" cx="9.5" cy="31.3998392" rx="9.5" ry="4.5"></ellipse>
            <path d="M5.99986438,10.121 L13.8788644,18 L13,18 L13,20.719 L14.8268644,18.948 L16.5508644,20.672 L13,24.113 L13,30 C13,30.5128358 12.6139598,30.9355072 12.1166211,30.9932723 L12,31 L7,31 C6.48716416,31 6.06449284,30.6139598 6.00672773,30.1166211 L6,30 L5.99986438,10.121 Z M4.58741575,0.694767362 L5.99920219,2.10587414 L6,2 C6,1.48716416 6.38604019,1.06449284 6.88337887,1.00672773 L7,1 L12,1 C12.5128358,1 12.9355072,1.38604019 12.9932723,1.88337887 L13,2 L30,2 C31.0543618,2 31.9181651,2.81587779 31.9945143,3.85073766 L32,4 L32,16 C32,17.0543618 31.1841222,17.9181651 30.1492623,17.9945143 L30,18 L21.8922022,17.9998741 L32.1645802,28.2719318 C32.5551045,28.6624561 32.5551045,29.2956211 32.1645802,29.6861454 L31.4574734,30.3932522 C31.0669491,30.7837765 30.4337842,30.7837765 30.0432599,30.3932522 L2.46609541,2.81608771 C2.07557112,2.42556341 2.07557112,1.79239844 2.46609541,1.40187414 L3.17320219,0.694767362 C3.56372648,0.30424307 4.19689146,0.30424307 4.58741575,0.694767362 Z" id="形状结合" fill="#797979" fill-rule="nonzero"></path>
        </g>
    </g>
</svg>