<?xml version="1.0" encoding="UTF-8"?>
<svg width="50px" height="72px" viewBox="0 0 50 72" version="1.1" xmlns="http://www.w3.org/2000/svg" xmlns:xlink="http://www.w3.org/1999/xlink">
    <!-- Generator: Sketch 64 (93537) - https://sketch.com -->
    <title>灯杆-正常</title>
    <desc>Created with Sketch.</desc>
    <defs>
        <circle id="path-1" cx="20" cy="20" r="20"></circle>
        <filter x="-17.5%" y="-12.5%" width="135.0%" height="135.0%" filterUnits="objectBoundingBox" id="filter-2">
            <feOffset dx="0" dy="2" in="SourceAlpha" result="shadowOffsetOuter1"></feOffset>
            <feGaussianBlur stdDeviation="2" in="shadowOffsetOuter1" result="shadowBlurOuter1"></feGaussianBlur>
            <feColorMatrix values="0 0 0 0 0   0 0 0 0 0   0 0 0 0 0  0 0 0 0.1 0" type="matrix" in="shadowBlurOuter1"></feColorMatrix>
        </filter>
        <ellipse id="path-3" cx="20" cy="32" rx="15" ry="8"></ellipse>
        <filter x="-83.3%" y="-93.8%" width="266.7%" height="475.0%" filterUnits="objectBoundingBox" id="filter-4">
            <feOffset dx="0" dy="20" in="SourceAlpha" result="shadowOffsetOuter1"></feOffset>
            <feGaussianBlur stdDeviation="5" in="shadowOffsetOuter1" result="shadowBlurOuter1"></feGaussianBlur>
            <feComposite in="shadowBlurOuter1" in2="SourceAlpha" operator="out" result="shadowBlurOuter1"></feComposite>
            <feColorMatrix values="0 0 0 0 0.00392156863   0 0 0 0 0.658823529   0 0 0 0 0.364705882  0 0 0 0.3 0" type="matrix" in="shadowBlurOuter1"></feColorMatrix>
        </filter>
        <path d="M10.1983374,0.00161012822 C10.1983374,0.00161012822 5.77544209,1.26453187 3.37658363,2.08543099 C1.62464285,2.68973492 0.509471178,4.42755678 0.677867856,6.29096038 L0.677867856,25.5 L3.17667875,25.5 L3.17667875,7.6170282 C3.17667875,6.50565707 2.97677388,4.83860038 4.31363771,4.15662264 C6.07100144,3.46824753 7.88568627,2.93993059 9.73605736,2.57797047 C9.73605736,2.57797047 11.1104034,2.02228491 11.0479331,0.835138475 C11.0554271,0.60737318 10.9674509,0.386993494 10.8056707,0.228272867 C10.6438906,0.0695522392 10.423341,-0.0127590049 10.1983374,0.00161012822 Z" id="path-5"></path>
        <path d="M3.59333333,0.012747783 L1.60111111,0.012747783 C0.71486848,0.019750646 0,0.77107717 0,1.69545514 L0,9.17840376 C0,10.1027817 0.71486848,10.8541082 1.60111111,10.8611111 L3.59333333,10.8611111 C4.47957596,10.8541082 5.19444444,10.1027817 5.19444444,9.17840376 L5.19444444,1.68270736 C5.19444444,0.758329387 4.47957596,0.00700286302 3.59333333,0 L3.59333333,0.012747783 Z" id="path-7"></path>
    </defs>
    <g id="切图" stroke="none" stroke-width="1" fill="none" fill-rule="evenodd">
        <g id="编组-4备份-5" transform="translate(5.000000, 2.000000)">
            <g id="椭圆形">
                <use fill="black" fill-opacity="1" filter="url(#filter-2)" xlink:href="#path-1"></use>
                <use fill="#01A85D" fill-rule="evenodd" xlink:href="#path-1"></use>
            </g>
            <g id="椭圆形">
                <use fill="black" fill-opacity="1" filter="url(#filter-4)" xlink:href="#path-3"></use>
                <use fill-opacity="0" fill="#D8D8D8" fill-rule="evenodd" xlink:href="#path-3"></use>
            </g>
            <g id="home/submenu/post" transform="translate(3.000000, 3.000000)">
                <g id="主页子菜单-未选中照明">
                    <rect id="矩形" fill="#000000" opacity="0" x="0" y="0" width="34" height="34"></rect>
                    <g id="lamp_24px" transform="translate(8.500000, 4.250000)">
                        <g id="Colors/iconbgwhite备份" transform="translate(5.950000, 0.000000)">
                            <mask id="mask-6" fill="white">
                                <use xlink:href="#path-5"></use>
                            </mask>
                            <use id="蒙版" fill="#51C4E5" fill-rule="nonzero" xlink:href="#path-5"></use>
                            <g id="Colors/white" mask="url(#mask-6)" fill="#FFFFFF">
                                <g transform="translate(-14.450000, -4.250000)" id="Rectangle-3">
                                    <rect x="0" y="0" width="34" height="34"></rect>
                                </g>
                            </g>
                        </g>
                        <g id="Colors/iconbgwhite" transform="translate(0.000000, 8.500000)">
                            <mask id="mask-8" fill="white">
                                <use xlink:href="#path-7"></use>
                            </mask>
                            <use id="蒙版" fill="#FFAF0E" fill-rule="nonzero" xlink:href="#path-7"></use>
                            <g id="Colors/white" mask="url(#mask-8)" fill="#FFFFFF">
                                <g transform="translate(-8.500000, -12.750000)" id="Rectangle-3">
                                    <rect x="0" y="0" width="34" height="34"></rect>
                                </g>
                            </g>
                        </g>
                    </g>
                </g>
            </g>
        </g>
    </g>
</svg>