<?xml version="1.0" encoding="UTF-8"?>
<svg width="59px" height="61px" viewBox="0 0 59 61" version="1.1" xmlns="http://www.w3.org/2000/svg" xmlns:xlink="http://www.w3.org/1999/xlink">
    <!-- Generator: Sketch 57.1 (83088) - https://sketch.com -->
    <title>Pole-Off-line</title>
    <desc>Created with Sketch.</desc>
    <g id="页面-1" stroke="none" stroke-width="1" fill="none" fill-rule="evenodd">
        <g id="编组-10备份-4">
            <ellipse id="椭圆形备份-7" fill-opacity="0.1" fill="#C6C6C6" cx="28.5" cy="55.5779028" rx="9.5" ry="4.5"></ellipse>
            <g id="dg-slash" fill="#6E6E6E" fill-rule="nonzero">
                <path d="M40.0339804,32.0968286 L15.1311445,14.1745322 L4.76036634,5.36281405 C4.40955149,5.08241528 3.96447189,4.95666909 3.52322459,5.01329035 C3.08197729,5.06991161 2.68078272,5.30425248 2.40806553,5.66466346 L0.353073788,8.37808588 C0.0801397817,8.73799291 -0.0422094931,9.19444832 0.0129635418,9.64695453 C0.0681365767,10.0994608 0.296308302,10.5109169 0.647242263,10.790733 L54.240464,51.6377072 C54.5912127,51.9177677 55.0360529,52.0433116 55.4770445,51.986698 C55.918036,51.9300843 56.3190221,51.6959548 56.5917179,51.3358577 L58.6477565,48.6213611 C59.2151843,47.8717616 59.0830161,46.792098 58.3525412,46.2097881 L40.0339804,32.0968286 Z" id="路径"></path>
                <path d="M25.9069119,29.1860154 L25.9069119,14.0219241 C25.8168683,12.7358428 25.9729516,11.4442435 26.3665701,10.2182223 C26.9752786,8.31637138 28.451188,5.78057014 32.0377732,4.47568915 C37.0940139,2.67527028 46.4091291,0.0496594219 46.5060638,0.0232448672 L46.5884063,0 L46.6728333,0 C47.5806844,0 48.9461091,0.633950297 48.9950977,2.3741439 C49.0576362,3.61246014 48.5208471,4.75885364 47.441015,5.68970396 C46.9573597,6.10493433 46.4157455,6.44531987 45.8337746,6.69979811 L45.7806168,6.72198636 L45.7243321,6.73360882 C45.643032,6.74945759 37.5536721,8.41040736 34.4069415,10.0269806 C32.2441503,11.14062 32.2889696,13.717628 32.3285774,15.9913964 C32.3285774,16.2724477 32.3379582,16.5376502 32.3379581,16.7954567 L32.3379581,34.22909 L25.9069119,29.1860154 Z M25.9069119,56 L25.9069119,36.7638346 L32.3379581,41.802683 L32.3379581,56 L25.9069119,56 Z M13,27.5514801 L13,39.1591102 C13.0051634,41.1064276 14.5623834,42.683085 16.4833965,42.685987 L20.7683287,42.685987 C22.6909654,42.6830777 24.2488552,41.1038519 24.2517252,39.1548839 L24.2517252,36.3686723 L13,27.5514801 Z M24.2548521,27.8219656 L24.2548521,23.5406879 C24.2519785,21.5904839 22.6921864,20.0107479 20.7683287,20.00957 L16.4833965,20.00957 C15.9051466,20.0078874 15.3357066,20.1531961 14.8271676,20.4322182 L24.2548521,27.8219656 Z" id="形状"></path>
            </g>
        </g>
    </g>
</svg>