<?xml version="1.0" encoding="UTF-8"?>
<svg width="38px" height="36px" viewBox="0 0 38 36" version="1.1" xmlns="http://www.w3.org/2000/svg" xmlns:xlink="http://www.w3.org/1999/xlink">
    <!-- Generator: Sketch 57.1 (83088) - https://sketch.com -->
    <title>Wifi-off-line</title>
    <desc>Created with Sketch.</desc>
    <g id="页面-1" stroke="none" stroke-width="1" fill="none" fill-rule="evenodd">
        <g id="编组-10备份-22" transform="translate(0.000000, 1.000000)">
            <ellipse id="椭圆形备份-7" fill-opacity="0.1" fill="#C6C6C6" cx="18.5" cy="30.3998392" rx="9.5" ry="4.5"></ellipse>
            <path d="M0.298232321,8.82446188 C0.543764725,8.59769774 0.806806548,8.40257644 1.05880485,8.18519644 L4.86504349,11.1271793 C4.43497554,11.4664386 4.006052,11.8074717 3.59646893,12.1824365 C3.22264857,12.5252435 2.64375056,12.5170037 2.2840064,12.1601778 L0.277747446,10.1703411 C-0.0996205816,9.79652072 -0.0920102787,9.18540767 0.298232321,8.82446188 Z M27.939768,19.4826053 L37.1383926,26.5917726 C37.5473462,26.9093454 37.6205883,27.4988291 37.3030155,27.9072106 L36.1522576,29.3879009 C35.8341126,29.7968545 35.245201,29.8706687 34.8362474,29.5525237 L0.362090201,2.90828107 C-0.0468634442,2.59007885 -0.120105457,2.00122452 0.197467333,1.59284307 L1.34822524,0.112152786 C1.66579803,-0.296800859 2.25528179,-0.370042872 2.66423544,-0.052470082 L7.81755491,3.93069379 C17.4655879,-0.294454826 29.0893815,1.32156152 37.2016783,8.82503408 C37.5912914,9.18540767 37.5995312,9.79652072 37.2221631,10.1709133 L35.2159042,12.16075 C34.85616,12.5176332 34.277262,12.5258157 33.9034417,12.1830659 C27.8870681,6.6717189 19.5778761,5.06920655 12.1986289,7.31682082 L17.0712255,11.0826619 C21.8425421,10.6326813 26.7626315,12.0928295 30.5677257,15.4759811 C30.9696413,15.8340086 30.9831453,16.455078 30.6010852,16.8335904 L27.939768,19.4826053 Z M6.93218486,15.4759811 C7.50055432,14.9708973 8.10171103,14.5238349 8.71579953,14.1049249 L12.7212793,17.2004299 C11.8341355,17.6627129 10.975144,18.1935458 10.1929422,18.873266 C9.82089562,19.1966753 9.25721822,19.1738444 8.90737317,18.8264026 L6.89882541,16.8335904 C6.51739474,16.4545058 6.53026931,15.8334364 6.93218486,15.4759811 Z M14.9999642,24.1250045 C14.9999642,22.5910421 15.923958,21.2756041 17.2435159,20.6949322 L22.4407805,24.712085 C22.1571966,26.5027378 20.6196866,27.8749955 18.7499553,27.8749955 C16.6786941,27.8749955 14.9999642,26.1962657 14.9999642,24.1250045 Z" id="w" fill="#6E6E6E" fill-rule="nonzero"></path>
        </g>
    </g>
</svg>