<?xml version="1.0" encoding="UTF-8"?>
<svg width="106px" height="88px" viewBox="0 0 106 88" version="1.1" xmlns="http://www.w3.org/2000/svg" xmlns:xlink="http://www.w3.org/1999/xlink">
    <!-- Generator: Sketch 57.1 (83088) - https://sketch.com -->
    <title>Wifi-check</title>
    <desc>Created with Sketch.</desc>
    <defs>
        <linearGradient x1="50%" y1="8.40753024%" x2="50%" y2="113.933593%" id="linearGradient-1">
            <stop stop-color="#3BF9FB" offset="0%"></stop>
            <stop stop-color="#98FEFF" offset="100%"></stop>
        </linearGradient>
        <path d="M69.443231,13.3200948 C70.1716856,13.9878515 70.1858915,15.1184225 69.4825376,15.8111618 L65.7376184,19.4934568 C65.0659875,20.1535917 63.9853752,20.1687295 63.2875755,19.5346359 C47.3242714,5.04056811 22.6733445,5.04384973 6.71335157,19.5346359 C6.01555182,20.1687295 4.93493954,20.1546503 4.26341543,19.4934568 L0.518389455,15.8111618 C-0.186032606,15.1184225 -0.171826672,13.9878515 0.556627984,13.3200948 C19.9270063,-4.43674984 50.065269,-4.44331308 69.443231,13.3200948 Z M35,35 C38.8663376,35 42,37.9097984 42,41.5 C42,45.0901706 38.8663376,48 35,48 C31.133629,48 28,45.0901706 28,41.5 C28,37.9097984 31.133629,35 35,35 Z M57.4108378,25.2899154 C58.1726716,25.9506504 58.1981561,27.1006854 57.4728212,27.8015773 L53.664516,31.4894451 C53.0010565,32.1329094 51.9328694,32.1751855 51.2263239,31.5762222 C41.9655347,23.719981 28.0561016,23.7026044 18.7731755,31.5762222 C18.06663,32.1751855 16.9984429,32.1317439 16.3349833,31.4894451 L12.5266782,27.8015773 C11.8024231,27.1006854 11.8267198,25.9517099 12.5897414,25.2899154 C25.3204109,14.2426292 44.6658063,14.2307622 57.4108378,25.2899154 Z" id="path-2"></path>
        <filter x="-42.9%" y="-62.5%" width="185.7%" height="225.0%" filterUnits="objectBoundingBox" id="filter-3">
            <feOffset dx="0" dy="0" in="SourceAlpha" result="shadowOffsetOuter1"></feOffset>
            <feGaussianBlur stdDeviation="10" in="shadowOffsetOuter1" result="shadowBlurOuter1"></feGaussianBlur>
            <feColorMatrix values="0 0 0 0 0.231372549   0 0 0 0 0.976470588   0 0 0 0 0.984313725  0 0 0 1 0" type="matrix" in="shadowBlurOuter1"></feColorMatrix>
        </filter>
    </defs>
    <g id="页面-1" stroke="none" stroke-width="1" fill="none" fill-rule="evenodd">
        <g id="编组-3" transform="translate(18.000000, 20.000000)">
            <g id="编组-10备份-5" transform="translate(33.500000, 52.500000) scale(-1, 1) translate(-33.500000, -52.500000) translate(0.000000, 37.000000)">
                <ellipse id="椭圆形备份-8" fill-opacity="0.2" fill="#3BF9FB" cx="33.5" cy="15.5" rx="30.5" ry="15"></ellipse>
                <path d="M61.2660369,8.56241236 C56.0765663,3.34716252 45.3901592,0 33.5,0 C21.1567215,0 10.1357242,3.60730848 5.19375405,9.13461529 L5.93923089,9.80114683 C10.6612865,4.51980163 21.4149341,1 33.5,1 C45.1475897,1 55.5825247,4.26839722 60.5571804,9.26776501 L61.2660369,8.56241236 Z" id="椭圆形备份-9" fill="#3BF9FB" fill-rule="nonzero"></path>
                <path d="M61.2660369,29.5624124 C56.0765663,24.3471625 45.3901592,21 33.5,21 C21.1567215,21 10.1357242,24.6073085 5.19375405,30.1346153 L5.93923089,30.8011468 C10.6612865,25.5198016 21.4149341,22 33.5,22 C45.1475897,22 55.5825247,25.2683972 60.5571804,30.267765 L61.2660369,29.5624124 Z" id="椭圆形备份-11" fill="#3BF9FB" fill-rule="nonzero" transform="translate(33.229895, 25.900573) scale(1, -1) translate(-33.229895, -25.900573) "></path>
                <circle id="椭圆形" fill="#3BF9FB" cx="64" cy="16" r="3"></circle>
                <circle id="椭圆形备份-2" fill="#3BF9FB" cx="3" cy="16" r="3"></circle>
                <ellipse id="椭圆形备份-7" fill-opacity="0.1" fill="#3BF9FB" cx="33.5" cy="14.5" rx="17.5" ry="8.5"></ellipse>
                <path d="M33.5,23.5 C43.4065577,23.5 51.5,19.5688995 51.5,14.5 C51.5,9.43110052 43.4065577,5.5 33.5,5.5 C23.5934423,5.5 15.5,9.43110052 15.5,14.5 C15.5,19.5688995 23.5934423,23.5 33.5,23.5 Z M33.5,22.5 C24.0765915,22.5 16.5,18.8199413 16.5,14.5 C16.5,10.1800587 24.0765915,6.5 33.5,6.5 C42.9234085,6.5 50.5,10.1800587 50.5,14.5 C50.5,18.8199413 42.9234085,22.5 33.5,22.5 Z" id="椭圆形备份-10" fill="#97E9FF" fill-rule="nonzero"></path>
            </g>
            <g id="w" fill-rule="nonzero">
                <use fill="black" fill-opacity="1" filter="url(#filter-3)" xlink:href="#path-2"></use>
                <use fill="#98FEFF" xlink:href="#path-2"></use>
                <use fill="url(#linearGradient-1)" xlink:href="#path-2"></use>
            </g>
        </g>
    </g>
</svg>